# Blender 5.0.1
# www.blender.org
o Plane
v -1.500000 0.750000 0.000000
v -1.500000 -0.750000 0.000001
v 1.500000 0.000000 -0.000001
v 1.227273 0.068182 -0.000000
v 0.954545 0.136364 -0.000000
v 0.681818 0.204545 -0.000000
v 0.409091 0.272727 -0.000000
v 0.136364 0.340909 -0.000000
v -0.136364 0.409091 0.000000
v -0.409091 0.477273 0.000000
v -0.681818 0.545455 0.000000
v -0.954545 0.613636 0.000000
v -1.227273 0.681818 0.000000
v -1.500000 0.613636 0.000000
v -1.500000 0.477273 0.000001
v -1.500000 0.340909 0.000001
v -1.500000 0.204545 0.000001
v -1.500000 0.068182 0.000001
v -1.500000 -0.068182 0.000001
v -1.500000 -0.204545 0.000001
v -1.500000 -0.340909 0.000001
v -1.500000 -0.477273 0.000001
v -1.500000 -0.613636 0.000001
v -1.227273 -0.681818 0.000001
v -0.954545 -0.613636 0.000000
v -0.681818 -0.545455 0.000000
v -0.409091 -0.477273 0.000000
v -0.136364 -0.409091 0.000000
v 0.136364 -0.340909 -0.000000
v 0.409091 -0.272727 -0.000000
v 0.681818 -0.204545 -0.000000
v 0.954545 -0.136364 -0.000000
v 1.227273 -0.068182 -0.000000
v 0.954545 -0.000000 -0.000000
v 0.681818 0.068182 -0.000000
v 0.681818 -0.068182 -0.000000
v 0.409091 0.136364 -0.000000
v 0.409091 -0.000000 -0.000000
v 0.409091 -0.136364 -0.000000
v 0.136364 0.204545 -0.000000
v 0.136364 0.068182 -0.000000
v 0.136364 -0.068182 -0.000000
v 0.136364 -0.204545 -0.000000
v -0.136364 0.272727 0.000000
v -0.136364 0.136364 0.000000
v -0.136364 -0.000000 0.000000
v -0.136364 -0.136364 0.000000
v -0.136364 -0.272727 0.000000
v -0.409091 0.340909 0.000000
v -0.409091 0.204545 0.000000
v -0.409091 0.068182 0.000000
v -0.409091 -0.068182 0.000000
v -0.409091 -0.204545 0.000000
v -0.409091 -0.340909 0.000000
v -0.681818 0.409091 0.000000
v -0.681818 0.272727 0.000000
v -0.681818 0.136364 0.000000
v -0.681818 -0.000000 0.000000
v -0.681818 -0.136364 0.000000
v -0.681818 -0.272727 0.000000
v -0.681818 -0.409091 0.000000
v -0.954545 0.477273 0.000000
v -0.954545 0.340909 0.000000
v -0.954545 0.204545 0.000000
v -0.954545 0.068182 0.000000
v -0.954545 -0.068182 0.000000
v -0.954545 -0.204545 0.000000
v -0.954545 -0.340909 0.000000
v -0.954545 -0.477273 0.000000
v -1.227273 0.545455 0.000000
v -1.227273 0.409091 0.000000
v -1.227273 0.272727 0.000000
v -1.227273 0.136364 0.000000
v -1.227273 0.000000 0.000000
v -1.227273 -0.136364 0.000000
v -1.227273 -0.272727 0.000000
v -1.227273 -0.409091 0.000000
v -1.227273 -0.545455 0.000001
vn -0.0000 -0.0000 1.0000
vt 0.033581 0.733209
vt 0.033581 0.690808
vt 0.118384 0.712009
vt 0.881616 0.521201
vt 0.881616 0.478799
vt 0.966419 0.500000
vt 0.796812 0.542402
vt 0.796812 0.500000
vt 0.712009 0.563603
vt 0.712009 0.521201
vt 0.627205 0.584803
vt 0.627205 0.542402
vt 0.542402 0.606004
vt 0.542402 0.563603
vt 0.457598 0.627205
vt 0.457598 0.584803
vt 0.372795 0.648406
vt 0.372795 0.606004
vt 0.287991 0.669607
vt 0.287991 0.627205
vt 0.203188 0.690808
vt 0.203188 0.648406
vt 0.118384 0.669607
vt 0.796812 0.457598
vt 0.712009 0.478799
vt 0.712009 0.436397
vt 0.627205 0.500000
vt 0.627205 0.457598
vt 0.627205 0.415196
vt 0.542402 0.521201
vt 0.542402 0.478799
vt 0.542402 0.436397
vt 0.542402 0.393996
vt 0.457598 0.542402
vt 0.457598 0.500000
vt 0.457598 0.457598
vt 0.457598 0.415196
vt 0.457598 0.372795
vt 0.372795 0.563603
vt 0.372795 0.521201
vt 0.372795 0.478799
vt 0.372795 0.436397
vt 0.372795 0.393996
vt 0.372795 0.351594
vt 0.287991 0.584803
vt 0.287991 0.542402
vt 0.287991 0.500000
vt 0.287991 0.457598
vt 0.287991 0.415196
vt 0.287991 0.372795
vt 0.287991 0.330393
vt 0.203188 0.606004
vt 0.203188 0.563603
vt 0.203188 0.521201
vt 0.203188 0.478799
vt 0.203188 0.436397
vt 0.203188 0.393996
vt 0.203188 0.351594
vt 0.203188 0.309192
vt 0.118384 0.627205
vt 0.118384 0.584803
vt 0.118384 0.542402
vt 0.118384 0.500000
vt 0.118384 0.457598
vt 0.118384 0.415196
vt 0.118384 0.372795
vt 0.118384 0.330393
vt 0.118384 0.287991
vt 0.033581 0.648406
vt 0.033581 0.606004
vt 0.033581 0.563603
vt 0.033581 0.521201
vt 0.033581 0.478799
vt 0.033581 0.436397
vt 0.033581 0.393996
vt 0.033581 0.351594
vt 0.033581 0.309192
vt 0.033581 0.266791
s 0
f 1/1/1 14/2/1 13/3/1
f 4/4/1 33/5/1 3/6/1
f 5/7/1 34/8/1 4/4/1
f 6/9/1 35/10/1 5/7/1
f 7/11/1 37/12/1 6/9/1
f 8/13/1 40/14/1 7/11/1
f 9/15/1 44/16/1 8/13/1
f 10/17/1 49/18/1 9/15/1
f 11/19/1 55/20/1 10/17/1
f 12/21/1 62/22/1 11/19/1
f 13/3/1 70/23/1 12/21/1
f 4/4/1 34/8/1 33/5/1
f 34/8/1 32/24/1 33/5/1
f 5/7/1 35/10/1 34/8/1
f 35/10/1 36/25/1 34/8/1
f 34/8/1 36/25/1 32/24/1
f 36/25/1 31/26/1 32/24/1
f 6/9/1 37/12/1 35/10/1
f 37/12/1 38/27/1 35/10/1
f 35/10/1 38/27/1 36/25/1
f 38/27/1 39/28/1 36/25/1
f 36/25/1 39/28/1 31/26/1
f 39/28/1 30/29/1 31/26/1
f 7/11/1 40/14/1 37/12/1
f 40/14/1 41/30/1 37/12/1
f 37/12/1 41/30/1 38/27/1
f 41/30/1 42/31/1 38/27/1
f 38/27/1 42/31/1 39/28/1
f 42/31/1 43/32/1 39/28/1
f 39/28/1 43/32/1 30/29/1
f 43/32/1 29/33/1 30/29/1
f 8/13/1 44/16/1 40/14/1
f 44/16/1 45/34/1 40/14/1
f 40/14/1 45/34/1 41/30/1
f 45/34/1 46/35/1 41/30/1
f 41/30/1 46/35/1 42/31/1
f 46/35/1 47/36/1 42/31/1
f 42/31/1 47/36/1 43/32/1
f 47/36/1 48/37/1 43/32/1
f 43/32/1 48/37/1 29/33/1
f 48/37/1 28/38/1 29/33/1
f 9/15/1 49/18/1 44/16/1
f 49/18/1 50/39/1 44/16/1
f 44/16/1 50/39/1 45/34/1
f 50/39/1 51/40/1 45/34/1
f 45/34/1 51/40/1 46/35/1
f 51/40/1 52/41/1 46/35/1
f 46/35/1 52/41/1 47/36/1
f 52/41/1 53/42/1 47/36/1
f 47/36/1 53/42/1 48/37/1
f 53/42/1 54/43/1 48/37/1
f 48/37/1 54/43/1 28/38/1
f 54/43/1 27/44/1 28/38/1
f 10/17/1 55/20/1 49/18/1
f 55/20/1 56/45/1 49/18/1
f 49/18/1 56/45/1 50/39/1
f 56/45/1 57/46/1 50/39/1
f 50/39/1 57/46/1 51/40/1
f 57/46/1 58/47/1 51/40/1
f 51/40/1 58/47/1 52/41/1
f 58/47/1 59/48/1 52/41/1
f 52/41/1 59/48/1 53/42/1
f 59/48/1 60/49/1 53/42/1
f 53/42/1 60/49/1 54/43/1
f 60/49/1 61/50/1 54/43/1
f 54/43/1 61/50/1 27/44/1
f 61/50/1 26/51/1 27/44/1
f 11/19/1 62/22/1 55/20/1
f 62/22/1 63/52/1 55/20/1
f 55/20/1 63/52/1 56/45/1
f 63/52/1 64/53/1 56/45/1
f 56/45/1 64/53/1 57/46/1
f 64/53/1 65/54/1 57/46/1
f 57/46/1 65/54/1 58/47/1
f 65/54/1 66/55/1 58/47/1
f 58/47/1 66/55/1 59/48/1
f 66/55/1 67/56/1 59/48/1
f 59/48/1 67/56/1 60/49/1
f 67/56/1 68/57/1 60/49/1
f 60/49/1 68/57/1 61/50/1
f 68/57/1 69/58/1 61/50/1
f 61/50/1 69/58/1 26/51/1
f 69/58/1 25/59/1 26/51/1
f 12/21/1 70/23/1 62/22/1
f 70/23/1 71/60/1 62/22/1
f 62/22/1 71/60/1 63/52/1
f 71/60/1 72/61/1 63/52/1
f 63/52/1 72/61/1 64/53/1
f 72/61/1 73/62/1 64/53/1
f 64/53/1 73/62/1 65/54/1
f 73/62/1 74/63/1 65/54/1
f 65/54/1 74/63/1 66/55/1
f 74/63/1 75/64/1 66/55/1
f 66/55/1 75/64/1 67/56/1
f 75/64/1 76/65/1 67/56/1
f 67/56/1 76/65/1 68/57/1
f 76/65/1 77/66/1 68/57/1
f 68/57/1 77/66/1 69/58/1
f 77/66/1 78/67/1 69/58/1
f 69/58/1 78/67/1 25/59/1
f 78/67/1 24/68/1 25/59/1
f 13/3/1 14/2/1 70/23/1
f 14/2/1 15/69/1 70/23/1
f 70/23/1 15/69/1 71/60/1
f 15/69/1 16/70/1 71/60/1
f 71/60/1 16/70/1 72/61/1
f 16/70/1 17/71/1 72/61/1
f 72/61/1 17/71/1 73/62/1
f 17/71/1 18/72/1 73/62/1
f 73/62/1 18/72/1 74/63/1
f 18/72/1 19/73/1 74/63/1
f 74/63/1 19/73/1 75/64/1
f 19/73/1 20/74/1 75/64/1
f 75/64/1 20/74/1 76/65/1
f 20/74/1 21/75/1 76/65/1
f 76/65/1 21/75/1 77/66/1
f 21/75/1 22/76/1 77/66/1
f 77/66/1 22/76/1 78/67/1
f 22/76/1 23/77/1 78/67/1
f 78/67/1 23/77/1 24/68/1
f 23/77/1 2/78/1 24/68/1
