# Blender 5.0.1
# www.blender.org
o Doorframes
v 1.100000 -25.227291 4.750000 0.2118 0.2118 0.2118
v 1.100000 -21.927290 4.750000 0.2118 0.2118 0.2118
v 1.100000 -25.227291 5.000000 0.2118 0.2118 0.2118
v 1.100000 -21.927290 5.000000 0.2118 0.2118 0.2118
v -0.850000 -24.977291 5.000000 0.2118 0.2118 0.2118
v -0.850000 -22.177290 5.000000 0.2118 0.2118 0.2118
v -0.850000 -24.977291 4.750000 0.2118 0.2118 0.2118
v -0.850000 -22.177290 4.750000 0.2118 0.2118 0.2118
v 0.850000 -24.977291 5.000000 0.2118 0.2118 0.2118
v 0.850000 -22.177290 5.000000 0.2118 0.2118 0.2118
v 0.850000 -24.977291 4.750000 0.2118 0.2118 0.2118
v 0.850000 -22.177290 4.750000 0.2118 0.2118 0.2118
v -1.100000 -25.227291 5.000000 0.2118 0.2118 0.2118
v -1.100000 -21.927290 5.000000 0.2118 0.2118 0.2118
v -1.100000 -21.927290 4.750000 0.2118 0.2118 0.2118
v -1.100000 -25.227291 4.750000 0.2118 0.2118 0.2118
v 1.100000 -25.227291 4.750000 0.2118 0.2118 0.2118
v 1.100000 -21.927290 4.750000 0.2118 0.2118 0.2118
v 1.100000 -21.927290 5.000000 0.2118 0.2118 0.2118
v 1.100000 -25.227291 5.000000 0.2118 0.2118 0.2118
v -1.100000 -21.927290 4.750000 0.2118 0.2118 0.2118
v -1.100000 -25.227291 4.750000 0.2118 0.2118 0.2118
v -1.100000 -21.927290 5.000000 0.2118 0.2118 0.2118
v -1.100000 -25.227291 5.000000 0.2118 0.2118 0.2118
v -1.100000 -21.927290 4.750000 0.2118 0.2118 0.2118
v 1.100000 -21.927290 4.750000 0.2118 0.2118 0.2118
v -1.100000 -21.927290 5.000000 0.2118 0.2118 0.2118
v 1.100000 -21.927290 5.000000 0.2118 0.2118 0.2118
v 1.100000 -0.227291 4.750000 0.2118 0.2118 0.2118
v 1.100000 3.072710 4.750000 0.2118 0.2118 0.2118
v 1.100000 -0.227291 5.000000 0.2118 0.2118 0.2118
v 1.100000 3.072710 5.000000 0.2118 0.2118 0.2118
v -0.850000 0.022709 5.000000 0.2118 0.2118 0.2118
v -0.850000 2.822710 5.000000 0.2118 0.2118 0.2118
v -0.850000 0.022709 4.750000 0.2118 0.2118 0.2118
v -0.850000 2.822710 4.750000 0.2118 0.2118 0.2118
v 0.850000 0.022709 5.000000 0.2118 0.2118 0.2118
v 0.850000 2.822710 5.000000 0.2118 0.2118 0.2118
v 0.850000 0.022709 4.750000 0.2118 0.2118 0.2118
v 0.850000 2.822710 4.750000 0.2118 0.2118 0.2118
v -1.100000 -0.227291 5.000000 0.2118 0.2118 0.2118
v -1.100000 3.072710 5.000000 0.2118 0.2118 0.2118
v -1.100000 3.072710 4.750000 0.2118 0.2118 0.2118
v -1.100000 -0.227291 4.750000 0.2118 0.2118 0.2118
v 1.100000 -0.227291 4.750000 0.2118 0.2118 0.2118
v 1.100000 3.072710 4.750000 0.2118 0.2118 0.2118
v 1.100000 3.072710 5.000000 0.2118 0.2118 0.2118
v 1.100000 -0.227291 5.000000 0.2118 0.2118 0.2118
v -1.100000 3.072710 4.750000 0.2118 0.2118 0.2118
v -1.100000 -0.227291 4.750000 0.2118 0.2118 0.2118
v -1.100000 3.072710 5.000000 0.2118 0.2118 0.2118
v -1.100000 -0.227291 5.000000 0.2118 0.2118 0.2118
v -1.100000 3.072710 4.750000 0.2118 0.2118 0.2118
v 1.100000 3.072710 4.750000 0.2118 0.2118 0.2118
v -1.100000 3.072710 5.000000 0.2118 0.2118 0.2118
v 1.100000 3.072710 5.000000 0.2118 0.2118 0.2118
vn 1.0000 -0.0000 -0.0000
vn -0.0000 -1.0000 -0.0000
vn -0.0000 -0.0000 1.0000
vn -0.0000 -0.0000 -1.0000
vn -1.0000 -0.0000 -0.0000
vn -0.0000 1.0000 -0.0000
vt -0.328409 -1.150000
vt -0.328409 2.150000
vt -0.578409 2.150000
vt -0.578409 -1.150000
vt -0.828409 -0.900000
vt -0.578409 -0.900000
vt -0.578409 1.900000
vt -0.828409 1.900000
vt 1.646590 0.075000
vt -0.053409 0.075000
vt -0.053409 -0.175000
vt 1.646590 -0.175000
vt -1.078409 2.150000
vt -1.078409 -1.150000
vt 2.396591 -0.175000
vt 0.696591 -0.175000
vt 0.446591 -0.425000
vt 2.646591 -0.425000
vt 1.896590 0.325000
vt -0.303409 0.325000
vt -0.078409 -0.900000
vt -0.078409 1.900000
vt 0.171591 1.900000
vt 0.171591 -0.900000
vt 0.421591 -1.150000
vt 0.421591 2.150000
vt 0.696591 0.075000
vt 2.396591 0.075000
vt 2.646591 0.325000
vt 0.446591 0.325000
vt -0.303409 -0.425000
vt 1.896591 -0.425000
vt -0.078409 -1.150000
vt -0.078409 2.150000
vt 1.896591 0.575000
vt -0.303409 0.575000
s 0
f 1/1/1 2/2/1 4/3/1 3/4/1
f 5/5/1 7/6/1 8/7/1 6/8/1
f 8/9/2 12/10/2 10/11/2 6/12/2
f 5/5/3 6/8/3 14/13/3 13/14/3
f 8/7/4 7/6/4 16/1/4 15/2/4
f 7/15/4 11/16/4 17/17/4 16/18/4
f 12/10/4 8/9/4 15/19/4 18/20/4
f 11/21/4 12/22/4 18/2/4 17/1/4
f 10/23/3 9/24/3 20/25/3 19/26/3
f 9/27/3 5/28/3 13/29/3 20/30/3
f 6/12/3 10/11/3 19/31/3 14/32/3
f 11/21/5 9/24/5 10/23/5 12/22/5
f 11/16/6 7/15/6 5/28/6 9/27/6
f 21/2/5 22/1/5 24/33/5 23/34/5
f 26/20/6 25/19/6 27/35/6 28/36/6
f 29/1/1 30/2/1 32/3/1 31/4/1
f 33/5/1 35/6/1 36/7/1 34/8/1
f 36/9/2 40/10/2 38/11/2 34/12/2
f 33/5/3 34/8/3 42/13/3 41/14/3
f 36/7/4 35/6/4 44/1/4 43/2/4
f 35/15/4 39/16/4 45/17/4 44/18/4
f 40/10/4 36/9/4 43/19/4 46/20/4
f 39/21/4 40/22/4 46/2/4 45/1/4
f 38/23/3 37/24/3 48/25/3 47/26/3
f 37/27/3 33/28/3 41/29/3 48/30/3
f 34/12/3 38/11/3 47/31/3 42/32/3
f 39/21/5 37/24/5 38/23/5 40/22/5
f 39/16/6 35/15/6 33/28/6 37/27/6
f 49/2/5 50/1/5 52/33/5 51/34/5
f 54/20/6 53/19/6 55/35/6 56/36/6
