# Blender 5.0.1
# www.blender.org
o TowerOuterSpires
v -3.712319 17.346514 -3.217329 0.0000 0.0000 0.0000
v -3.712319 20.199993 -3.217329 0.2235 0.2235 0.2235
v -3.814832 17.108221 -3.464816 0.0000 0.0000 0.0000
v -3.814832 20.199993 -3.464816 0.3216 0.3216 0.3216
v -3.712320 17.032583 -3.712303 0.0000 0.0000 0.0000
v -3.712320 20.199993 -3.712303 0.5490 0.5490 0.5490
v -3.464833 17.108221 -3.814817 0.0000 0.0000 0.0000
v -3.464833 20.199993 -3.814817 0.6785 0.6785 0.6785
v -3.217345 17.346514 -3.712305 0.0000 0.0000 0.0000
v -3.217345 20.199993 -3.712305 0.3961 0.3961 0.3961
v -3.114832 17.686388 -3.464818 0.0000 0.0000 0.0000
v -3.114832 20.199993 -3.464818 0.1137 0.1137 0.1137
v -3.217344 17.876801 -3.217330 0.0000 0.0000 0.0000
v -3.217344 20.199993 -3.217330 0.0235 0.0235 0.0235
v -3.464831 17.686388 -3.114817 0.0000 0.0000 0.0000
v -3.464831 20.199993 -3.114817 0.0784 0.0784 0.0784
v -3.464832 24.399994 -3.464817 0.3765 0.3765 0.3765
v -4.900001 17.346514 0.350013 0.0000 0.0000 0.0000
v -4.900001 20.199993 0.350013 0.2157 0.2157 0.2157
v -5.147488 17.108221 0.247501 0.0000 0.0000 0.0000
v -5.147488 20.199993 0.247501 0.2823 0.2823 0.2823
v -5.250001 17.032583 0.000014 0.0000 0.0000 0.0000
v -5.250001 20.199993 0.000014 0.3216 0.3216 0.3216
v -5.147490 17.108221 -0.247474 0.0000 0.0000 0.0000
v -5.147490 20.199993 -0.247474 0.5490 0.5490 0.5490
v -4.900002 17.346514 -0.349988 0.0000 0.0000 0.0000
v -4.900002 20.199993 -0.349988 0.5569 0.5569 0.5569
v -4.652514 17.686388 -0.247476 0.0000 0.0000 0.0000
v -4.652514 20.199993 -0.247476 0.2275 0.2275 0.2275
v -4.550001 17.876801 0.000011 0.0000 0.0000 0.0000
v -4.550001 20.199993 0.000011 0.0353 0.0353 0.0353
v -4.652513 17.686388 0.247499 0.0000 0.0000 0.0000
v -4.652513 20.199993 0.247499 0.0706 0.0706 0.0706
v -4.900002 24.399994 0.000013 0.3686 0.3686 0.3686
v -3.217326 17.346514 3.712321 0.0000 0.0000 0.0000
v -3.217326 20.199993 3.712321 0.2078 0.2078 0.2078
v -3.464813 17.108221 3.814835 0.0000 0.0000 0.0000
v -3.464813 20.199993 3.814835 0.2823 0.2823 0.2823
v -3.712301 17.032583 3.712322 0.0000 0.0000 0.0000
v -3.712301 20.199993 3.712322 0.2941 0.2941 0.2941
v -3.814814 17.108221 3.464835 0.0000 0.0000 0.0000
v -3.814814 20.199993 3.464835 0.2863 0.2863 0.2863
v -3.712303 17.346514 3.217348 0.0000 0.0000 0.0000
v -3.712303 20.199993 3.217348 0.2471 0.2471 0.2471
v -3.464816 17.686388 3.114834 0.0000 0.0000 0.0000
v -3.464816 20.199993 3.114834 0.0824 0.0824 0.0824
v -3.217328 17.876801 3.217346 0.0000 0.0000 0.0000
v -3.217328 20.199993 3.217346 0.0196 0.0196 0.0196
v -3.114815 17.686388 3.464833 0.0000 0.0000 0.0000
v -3.114815 20.199993 3.464833 0.0706 0.0706 0.0706
v -3.464814 24.399994 3.464834 0.3568 0.3568 0.3568
v 0.350016 17.346514 4.900000 0.0000 0.0000 0.0000
v 0.350016 20.199993 4.900000 0.2118 0.2118 0.2118
v 0.247504 17.108221 5.147488 0.0000 0.0000 0.0000
v 0.247504 20.199993 5.147488 0.2823 0.2823 0.2823
v 0.000017 17.032583 5.250001 0.0000 0.0000 0.0000
v 0.000017 20.199993 5.250001 0.2902 0.2902 0.2902
v -0.247471 17.108221 5.147490 0.0000 0.0000 0.0000
v -0.247471 20.199993 5.147490 0.2784 0.2784 0.2784
v -0.349984 17.346514 4.900002 0.0000 0.0000 0.0000
v -0.349984 20.199993 4.900002 0.2000 0.2000 0.2000
v -0.247473 17.686388 4.652514 0.0000 0.0000 0.0000
v -0.247473 20.199993 4.652514 0.0706 0.0706 0.0706
v 0.000015 17.876801 4.550001 0.0000 0.0000 0.0000
v 0.000015 20.199993 4.550001 0.0235 0.0235 0.0235
v 0.247502 17.686388 4.652513 0.0000 0.0000 0.0000
v 0.247502 20.199993 4.652513 0.0745 0.0745 0.0745
v 0.000016 24.399994 4.900002 0.2627 0.2627 0.2627
v 3.712323 17.346514 3.217324 0.0000 0.0000 0.0000
v 3.712323 20.199993 3.217324 0.2471 0.2471 0.2471
v 3.814837 17.108221 3.464811 0.0000 0.0000 0.0000
v 3.814837 20.199993 3.464811 0.2941 0.2941 0.2941
v 3.712325 17.032583 3.712298 0.0000 0.0000 0.0000
v 3.712325 20.199993 3.712298 0.2980 0.2980 0.2980
v 3.464838 17.108221 3.814812 0.0000 0.0000 0.0000
v 3.464838 20.199993 3.814812 0.2745 0.2745 0.2745
v 3.217350 17.346514 3.712301 0.0000 0.0000 0.0000
v 3.217350 20.199993 3.712301 0.2078 0.2078 0.2078
v 3.114837 17.686388 3.464814 0.0000 0.0000 0.0000
v 3.114837 20.199993 3.464814 0.0667 0.0667 0.0667
v 3.217348 17.876801 3.217326 0.0000 0.0000 0.0000
v 3.217348 20.199993 3.217326 0.0196 0.0196 0.0196
v 3.464835 17.686388 3.114812 0.0000 0.0000 0.0000
v 3.464835 20.199993 3.114812 0.0902 0.0902 0.0902
v 3.464837 24.399994 3.464812 0.3608 0.3608 0.3608
v 4.900000 17.346514 -0.350019 0.0000 0.0000 0.0000
v 4.900000 20.199993 -0.350019 0.5451 0.5451 0.5451
v 5.147488 17.108221 -0.247507 0.0000 0.0000 0.0000
v 5.147488 20.199993 -0.247507 0.4863 0.4863 0.4863
v 5.250001 17.032583 -0.000020 0.0000 0.0000 0.0000
v 5.250001 20.199993 -0.000020 0.3216 0.3216 0.3216
v 5.147490 17.108221 0.247468 0.0000 0.0000 0.0000
v 5.147490 20.199993 0.247468 0.2863 0.2863 0.2863
v 4.900002 17.346514 0.349981 0.0000 0.0000 0.0000
v 4.900002 20.199993 0.349981 0.2039 0.2039 0.2039
v 4.652514 17.686388 0.247470 0.0000 0.0000 0.0000
v 4.652514 20.199993 0.247470 0.0706 0.0706 0.0706
v 4.550001 17.876801 -0.000017 0.0000 0.0000 0.0000
v 4.550001 20.199993 -0.000017 0.0510 0.0510 0.0510
v 4.652513 17.686388 -0.247505 0.0000 0.0000 0.0000
v 4.652513 20.199993 -0.247505 0.2706 0.2706 0.2706
v 4.900002 24.399994 -0.000019 0.3725 0.3725 0.3725
v 3.217321 17.346514 -3.712325 0.0000 0.0000 0.0000
v 3.217321 20.199993 -3.712325 0.4510 0.4510 0.4510
v 3.464808 17.108221 -3.814838 0.0000 0.0000 0.0000
v 3.464808 20.199993 -3.814838 0.6745 0.6745 0.6745
v 3.712296 17.032583 -3.712327 0.0000 0.0000 0.0000
v 3.712296 20.199993 -3.712327 0.4863 0.4863 0.4863
v 3.814809 17.108221 -3.464840 0.0000 0.0000 0.0000
v 3.814809 20.199993 -3.464840 0.3059 0.3059 0.3059
v 3.712298 17.346514 -3.217352 0.0000 0.0000 0.0000
v 3.712298 20.199993 -3.217352 0.2275 0.2275 0.2275
v 3.464811 17.686388 -3.114838 0.0000 0.0000 0.0000
v 3.464811 20.199993 -3.114838 0.0745 0.0745 0.0745
v 3.217323 17.876801 -3.217350 0.0000 0.0000 0.0000
v 3.217323 20.199993 -3.217350 0.0275 0.0275 0.0275
v 3.114810 17.686388 -3.464837 0.0000 0.0000 0.0000
v 3.114810 20.199993 -3.464837 0.1137 0.1137 0.1137
v 3.464810 24.399994 -3.464838 0.3725 0.3725 0.3725
v -0.350022 17.346514 -4.900000 0.0000 0.0000 0.0000
v -0.350022 20.199993 -4.900000 0.2549 0.2549 0.2549
v -0.247511 17.108221 -5.147487 0.0000 0.0000 0.0000
v -0.247511 20.199993 -5.147487 0.5412 0.5412 0.5412
v -0.000024 17.032583 -5.250001 0.0000 0.0000 0.0000
v -0.000024 20.199993 -5.250001 0.6941 0.6941 0.6941
v 0.247464 17.108221 -5.147490 0.0000 0.0000 0.0000
v 0.247464 20.199993 -5.147490 0.4863 0.4863 0.4863
v 0.349978 17.346514 -4.900002 0.0000 0.0000 0.0000
v 0.349978 20.199993 -4.900002 0.2392 0.2392 0.2392
v 0.247467 17.686388 -4.652515 0.0000 0.0000 0.0000
v 0.247467 20.199993 -4.652515 0.0784 0.0784 0.0784
v -0.000021 17.876801 -4.550001 0.0000 0.0000 0.0000
v -0.000021 20.199993 -4.550001 0.0157 0.0157 0.0157
v -0.247508 17.686388 -4.652513 0.0000 0.0000 0.0000
v -0.247508 20.199993 -4.652513 0.0863 0.0863 0.0863
v -0.000022 24.399994 -4.900001 0.3804 0.3804 0.3804
v 4.900000 18.773254 -0.350019 0.0000 0.0000 0.0000
v 5.147488 18.654108 -0.247507 0.4589 0.4589 0.4589
v 5.250001 18.616289 -0.000020 0.3176 0.3176 0.3176
v 5.147490 18.654108 0.247468 0.2588 0.2588 0.2588
v 4.900002 18.773254 0.349981 0.0000 0.0000 0.0000
v 4.652514 18.943192 0.247470 0.0000 0.0000 0.0000
v 4.550001 19.038397 -0.000017 0.0000 0.0000 0.0000
v 4.652513 18.943192 -0.247505 0.0000 0.0000 0.0000
v 3.712323 18.773254 3.217324 0.0000 0.0000 0.0000
v 3.814837 18.654108 3.464811 0.2549 0.2549 0.2549
v 3.712325 18.616289 3.712298 0.2784 0.2784 0.2784
v 3.464838 18.654108 3.814812 0.2510 0.2510 0.2510
v 3.217350 18.773254 3.712301 0.0000 0.0000 0.0000
v 3.114837 18.943192 3.464814 0.0000 0.0000 0.0000
v 3.217348 19.038397 3.217326 0.0000 0.0000 0.0000
v 3.464835 18.943192 3.114812 0.0000 0.0000 0.0000
v 0.350016 18.773254 4.900000 0.0000 0.0000 0.0000
v 0.247504 18.654108 5.147488 0.2510 0.2510 0.2510
v 0.000017 18.616289 5.250001 0.2823 0.2823 0.2823
v -0.247471 18.654108 5.147490 0.2588 0.2588 0.2588
v -0.349984 18.773254 4.900002 0.0000 0.0000 0.0000
v -0.247473 18.943192 4.652514 0.0000 0.0000 0.0000
v 0.000015 19.038397 4.550001 0.0000 0.0000 0.0000
v 0.247502 18.943192 4.652513 0.0000 0.0000 0.0000
v -3.217326 18.773254 3.712321 0.0000 0.0000 0.0000
v -3.464813 18.654108 3.814835 0.2588 0.2588 0.2588
v -3.712301 18.616289 3.712322 0.2823 0.2823 0.2823
v -3.814814 18.654108 3.464835 0.2667 0.2667 0.2667
v -3.712303 18.773254 3.217348 0.0000 0.0000 0.0000
v -3.464816 18.943192 3.114834 0.0000 0.0000 0.0000
v -3.217328 19.038397 3.217346 0.0000 0.0000 0.0000
v -3.114815 18.943192 3.464833 0.0000 0.0000 0.0000
v -4.900001 18.773254 0.350013 0.0000 0.0000 0.0000
v -5.147488 18.654108 0.247501 0.2588 0.2588 0.2588
v -5.250001 18.616289 0.000014 0.3176 0.3176 0.3176
v -5.147490 18.654108 -0.247474 0.5059 0.5059 0.5059
v -4.900002 18.773254 -0.349988 0.0000 0.0000 0.0000
v -4.652514 18.943192 -0.247476 0.0000 0.0000 0.0000
v -4.550001 19.038397 0.000011 0.0000 0.0000 0.0000
v -4.652513 18.943192 0.247499 0.0000 0.0000 0.0000
v -3.712319 18.773254 -3.217329 0.0000 0.0000 0.0000
v -3.814832 18.654108 -3.464816 0.2941 0.2941 0.2941
v -3.712320 18.616289 -3.712303 0.5490 0.5490 0.5490
v -3.464833 18.654108 -3.814817 0.6315 0.6315 0.6315
v -3.217345 18.773254 -3.712305 0.0000 0.0000 0.0000
v -3.114832 18.943192 -3.464818 0.0000 0.0000 0.0000
v -3.217344 19.038397 -3.217330 0.0000 0.0000 0.0000
v -3.464831 18.943192 -3.114817 0.0000 0.0000 0.0000
v -0.350022 18.773254 -4.900000 0.0000 0.0000 0.0000
v -0.247511 18.654108 -5.147487 0.5176 0.5176 0.5176
v -0.000024 18.616289 -5.250001 0.6824 0.6824 0.6824
v 0.247464 18.654108 -5.147490 0.4510 0.4510 0.4510
v 0.349978 18.773254 -4.900002 0.0000 0.0000 0.0000
v 0.247467 18.943192 -4.652515 0.0000 0.0000 0.0000
v -0.000021 19.038397 -4.550001 0.0000 0.0000 0.0000
v -0.247508 18.943192 -4.652513 0.0000 0.0000 0.0000
v 3.217321 18.773254 -3.712325 0.0000 0.0000 0.0000
v 3.464808 18.654108 -3.814838 0.6354 0.6354 0.6354
v 3.712296 18.616289 -3.712327 0.4745 0.4745 0.4745
v 3.814809 18.654108 -3.464840 0.2902 0.2902 0.2902
v 3.712298 18.773254 -3.217352 0.0000 0.0000 0.0000
v 3.464811 18.943192 -3.114838 0.0000 0.0000 0.0000
v 3.217323 19.038397 -3.217350 0.0000 0.0000 0.0000
v 3.114810 18.943192 -3.464837 0.0000 0.0000 0.0000
v 0.000000 26.367849 0.786352 0.0000 0.0000 0.0000
v 0.000000 29.513258 0.786352 0.2902 0.2902 0.2902
v -0.556035 26.367849 0.556035 0.0000 0.0000 0.0000
v -0.556035 29.513258 0.556035 0.2863 0.2863 0.2863
v -0.786352 26.367849 0.000000 0.0000 0.0000 0.0000
v -0.786352 29.513258 0.000000 0.3255 0.3255 0.3255
v -0.556035 26.367849 -0.556035 0.0000 0.0000 0.0000
v -0.556035 29.513258 -0.556035 0.5608 0.5608 0.5608
v -0.000000 26.367849 -0.786352 0.0000 0.0000 0.0000
v -0.000000 29.513258 -0.786352 0.6902 0.6902 0.6902
v 0.556035 26.367849 -0.556035 0.0000 0.0000 0.0000
v 0.556035 29.513258 -0.556035 0.4980 0.4980 0.4980
v 0.786352 26.367849 -0.000000 0.0000 0.0000 0.0000
v 0.786352 29.513258 -0.000000 0.3176 0.3176 0.3176
v 0.556035 26.367849 0.556035 0.0000 0.0000 0.0000
v 0.556035 29.513258 0.556035 0.2823 0.2823 0.2823
v -0.000000 38.949478 0.000000 0.4196 0.4196 0.4196
v 0.000000 27.904356 0.786352 0.2745 0.2745 0.2745
v -0.556035 27.904356 0.556035 0.2745 0.2745 0.2745
v -0.786352 27.904356 0.000000 0.3176 0.3176 0.3176
v -0.556035 27.904356 -0.556035 0.5451 0.5451 0.5451
v -0.000000 27.904356 -0.786352 0.6628 0.6628 0.6628
v 0.556035 27.904356 -0.556035 0.4745 0.4745 0.4745
v 0.786352 27.904356 -0.000000 0.3098 0.3098 0.3098
v 0.556035 27.904356 0.556035 0.2823 0.2823 0.2823
v -0.556035 27.433491 0.556035 0.0000 0.0000 0.0000
v -0.786352 27.433491 0.000000 0.0000 0.0000 0.0000
v -0.556035 27.433491 -0.556035 0.0000 0.0000 0.0000
v -0.000000 27.433491 -0.786352 0.0000 0.0000 0.0000
v 0.556035 27.433491 -0.556035 0.0000 0.0000 0.0000
v 0.786352 27.433491 -0.000000 0.0000 0.0000 0.0000
v 0.556035 27.433491 0.556035 0.0000 0.0000 0.0000
v 0.000000 27.433491 0.786352 0.0000 0.0000 0.0000
vn -0.9239 -0.0000 0.3827
vn -0.9239 -0.0000 -0.3827
vn -0.3827 -0.0000 -0.9239
vn 0.3827 -0.0000 -0.9239
vn 0.9239 -0.0000 -0.3827
vn 0.9239 -0.0000 0.3827
vn 0.3827 -0.0000 0.9239
vn -0.3827 -0.0000 0.9239
vn -0.3816 0.0768 -0.9212
vn 0.9212 0.0768 0.3816
vn -0.9212 0.0768 0.3816
vn 0.3816 0.0768 -0.9212
vn 0.3816 0.0768 0.9212
vn -0.9212 0.0768 -0.3815
vn 0.9212 0.0768 -0.3816
vn -0.3816 0.0768 0.9212
vn -0.9212 0.0768 -0.3816
vn 0.9212 0.0768 0.3815
vn 0.3815 0.0768 -0.9212
vn -0.3815 0.0768 0.9212
vt 0.000000 -0.038200
vt 0.000000 2.000000
vt -0.382683 2.000000
vt -0.382683 -0.208409
vt -0.765367 2.000000
vt -0.765367 -0.262436
vt -1.148050 2.000000
vt -1.148050 -0.208409
vt -1.530734 2.000000
vt -1.530734 -0.038200
vt 1.530734 -0.038200
vt 1.530734 2.000000
vt 1.148050 2.000000
vt 1.148050 0.204567
vt 0.765367 2.000000
vt 0.765367 0.340576
vt 0.382683 2.000000
vt 0.382683 0.204567
vt -1.148051 8.000000
vt 0.765367 8.000000
vt -0.382684 8.000000
vt -1.530734 8.000000
vt 0.382684 8.000000
vt -0.765367 8.000000
vt 1.148051 8.000000
vt -0.000000 8.000000
vt -0.382683 -0.208409
vt -0.765367 -0.262436
vt -1.148050 -0.208409
vt 1.148050 0.204567
vt 0.765367 0.340576
vt 0.382683 0.204567
vt 1.148050 0.204567
vt 0.382683 0.204567
vt -0.765367 -0.262436
vt 0.382683 0.204567
vt 0.000000 -0.038200
vt -0.382683 -0.208409
vt -1.148050 -0.208409
vt 1.530734 -0.038200
vt 1.148050 0.204567
vt -0.765367 -0.262436
vt 0.000000 -0.038200
vt -0.382683 -0.208409
vt 0.382683 0.204567
vt -1.148050 -0.208409
vt 1.530734 -0.038200
vt 0.382683 -1.590866
vt 0.000000 -2.076401
vt 0.765367 -1.318847
vt 0.382683 -1.590866
vt 1.148050 -1.590866
vt 0.765367 -1.318847
vt 1.530734 -2.076401
vt 1.148050 -1.590866
vt -1.148050 -2.416817
vt -1.530733 -2.076401
vt -0.765367 -2.524871
vt -1.148050 -2.416817
vt -0.382683 -2.416817
vt -0.765367 -2.524871
vt 0.000000 -2.076401
vt -0.382683 -2.416817
vt 0.000000 0.976984
vt -0.382683 0.976984
vt -0.765367 0.976984
vt -1.148050 0.976984
vt -1.530734 0.976984
vt 1.530734 0.976984
vt 1.148050 0.976984
vt 0.765367 0.976984
vt 0.382683 0.976984
vt 0.382683 0.677586
vt 0.000000 0.677586
vt 0.765367 0.677586
vt 1.148050 0.677586
vt 1.530734 0.677586
vt -1.148050 0.677586
vt -1.530734 0.677586
vt -0.765367 0.677586
vt -0.382683 0.677586
vt 0.000000 0.000000
vt -0.382683 0.000000
vt -0.765367 0.000000
vt -1.148050 0.000000
vt -1.530734 0.000000
vt 1.530734 0.000000
vt 1.148050 0.000000
vt 0.765367 0.000000
vt 0.382683 0.000000
s 0
f 177/1/1 2/2/1 4/3/1 178/4/1
f 178/4/2 4/3/2 6/5/2 179/6/2
f 179/6/3 6/5/3 8/7/3 180/8/3
f 180/8/4 8/7/4 10/9/4 181/10/4
f 181/11/5 10/12/5 12/13/5 182/14/5
f 182/14/6 12/13/6 14/15/6 183/16/6
f 183/16/7 14/15/7 16/17/7 184/18/7
f 184/18/8 16/17/8 2/2/8 177/1/8
f 8/7/9 6/5/9 17/19/9
f 14/15/10 12/13/10 17/20/10
f 4/3/11 2/2/11 17/21/11
f 10/9/12 8/7/12 17/22/12
f 16/17/13 14/15/13 17/23/13
f 6/5/14 4/3/14 17/24/14
f 12/13/15 10/12/15 17/25/15
f 2/2/16 16/17/16 17/26/16
f 169/1/8 19/2/8 21/3/8 170/27/8
f 170/27/1 21/3/1 23/5/1 171/28/1
f 171/28/2 23/5/2 25/7/2 172/29/2
f 172/29/3 25/7/3 27/9/3 173/10/3
f 173/11/4 27/12/4 29/13/4 174/30/4
f 174/30/5 29/13/5 31/15/5 175/31/5
f 175/31/6 31/15/6 33/17/6 176/32/6
f 176/32/7 33/17/7 19/2/7 169/1/7
f 25/7/17 23/5/17 34/19/17
f 31/15/15 29/13/15 34/20/15
f 21/3/16 19/2/16 34/21/16
f 27/9/9 25/7/9 34/22/9
f 33/17/18 31/15/18 34/23/18
f 23/5/11 21/3/11 34/24/11
f 29/13/12 27/12/12 34/25/12
f 19/2/13 33/17/13 34/26/13
f 161/1/7 36/2/7 38/3/7 162/4/7
f 162/4/8 38/3/8 40/5/8 163/6/8
f 163/6/1 40/5/1 42/7/1 164/8/1
f 164/8/2 42/7/2 44/9/2 165/10/2
f 165/11/3 44/12/3 46/13/3 166/33/3
f 166/33/4 46/13/4 48/15/4 167/16/4
f 167/16/5 48/15/5 50/17/5 168/34/5
f 168/34/6 50/17/6 36/2/6 161/1/6
f 42/7/11 40/5/11 51/19/11
f 48/15/12 46/13/12 51/20/12
f 38/3/13 36/2/13 51/21/13
f 44/9/17 42/7/17 51/22/17
f 50/17/15 48/15/15 51/23/15
f 40/5/16 38/3/16 51/24/16
f 46/13/9 44/12/9 51/25/9
f 36/2/10 50/17/10 51/26/10
f 153/1/6 53/2/6 55/3/6 154/4/6
f 154/4/7 55/3/7 57/5/7 155/35/7
f 155/35/8 57/5/8 59/7/8 156/29/8
f 156/29/1 59/7/1 61/9/1 157/10/1
f 157/11/2 61/12/2 63/13/2 158/33/2
f 158/33/3 63/13/3 65/15/3 159/16/3
f 159/16/4 65/15/4 67/17/4 160/36/4
f 160/36/5 67/17/5 53/2/5 153/1/5
f 59/7/16 57/5/16 68/19/16
f 65/15/9 63/13/9 68/20/9
f 55/3/10 53/2/10 68/21/10
f 61/9/11 59/7/11 68/22/11
f 67/17/12 65/15/12 68/23/12
f 57/5/13 55/3/13 68/24/13
f 63/13/14 61/12/14 68/25/14
f 53/2/15 67/17/15 68/26/15
f 145/37/5 70/2/5 72/3/5 146/38/5
f 146/38/6 72/3/6 74/5/6 147/6/6
f 147/6/7 74/5/7 76/7/7 148/39/7
f 148/39/8 76/7/8 78/9/8 149/10/8
f 149/40/1 78/12/1 80/13/1 150/41/1
f 150/41/2 80/13/2 82/15/2 151/31/2
f 151/31/3 82/15/3 84/17/3 152/34/3
f 152/34/4 84/17/4 70/2/4 145/37/4
f 76/7/13 74/5/13 85/19/13
f 82/15/17 80/13/17 85/20/17
f 72/3/15 70/2/15 85/21/15
f 78/9/16 76/7/16 85/22/16
f 84/17/9 82/15/9 85/23/9
f 74/5/18 72/3/18 85/24/18
f 80/13/11 78/12/11 85/25/11
f 70/2/19 84/17/19 85/26/19
f 137/37/4 87/2/4 89/3/4 138/38/4
f 138/38/5 89/3/5 91/5/5 139/42/5
f 139/42/6 91/5/6 93/7/6 140/8/6
f 140/8/7 93/7/7 95/9/7 141/10/7
f 141/11/8 95/12/8 97/13/8 142/14/8
f 142/14/1 97/13/1 99/15/1 143/31/1
f 143/31/2 99/15/2 101/17/2 144/32/2
f 144/32/3 101/17/3 87/2/3 137/37/3
f 93/7/10 91/5/10 102/19/10
f 99/15/11 97/13/11 102/20/11
f 89/3/12 87/2/12 102/21/12
f 95/9/13 93/7/13 102/22/13
f 101/17/17 99/15/17 102/23/17
f 91/5/15 89/3/15 102/24/15
f 97/13/20 95/12/20 102/25/20
f 87/2/9 101/17/9 102/26/9
f 193/43/3 104/2/3 106/3/3 194/44/3
f 194/44/4 106/3/4 108/5/4 195/6/4
f 195/6/5 108/5/5 110/7/5 196/8/5
f 196/8/6 110/7/6 112/9/6 197/10/6
f 197/40/7 112/12/7 114/13/7 198/14/7
f 198/14/8 114/13/8 116/15/8 199/16/8
f 199/16/1 116/15/1 118/17/1 200/45/1
f 200/45/2 118/17/2 104/2/2 193/43/2
f 110/7/15 108/5/15 119/19/15
f 116/15/16 114/13/16 119/20/16
f 106/3/9 104/2/9 119/21/9
f 112/9/18 110/7/18 119/22/18
f 118/17/11 116/15/11 119/23/11
f 108/5/12 106/3/12 119/24/12
f 114/13/13 112/12/13 119/25/13
f 104/2/14 118/17/14 119/26/14
f 185/1/2 121/2/2 123/3/2 186/4/2
f 186/4/3 123/3/3 125/5/3 187/35/3
f 187/35/4 125/5/4 127/7/4 188/46/4
f 188/46/5 127/7/5 129/9/5 189/10/5
f 189/47/6 129/12/6 131/13/6 190/14/6
f 190/14/7 131/13/7 133/15/7 191/16/7
f 191/16/8 133/15/8 135/17/8 192/32/8
f 192/32/1 135/17/1 121/2/1 185/1/1
f 127/7/19 125/5/19 136/19/19
f 133/15/13 131/13/13 136/20/13
f 123/3/14 121/2/14 136/21/14
f 129/9/15 127/7/15 136/22/15
f 135/17/20 133/15/20 136/23/20
f 125/5/9 123/3/9 136/24/9
f 131/13/18 129/12/18 136/25/18
f 121/2/11 135/17/11 136/26/11
f 100/48/3 144/32/3 137/37/3 86/49/3
f 98/50/2 143/31/2 144/32/2 100/51/2
f 96/52/1 142/14/1 143/31/1 98/53/1
f 94/54/8 141/11/8 142/14/8 96/55/8
f 92/56/7 140/8/7 141/10/7 94/57/7
f 90/58/6 139/42/6 140/8/6 92/59/6
f 88/60/5 138/38/5 139/42/5 90/61/5
f 86/62/4 137/37/4 138/38/4 88/63/4
f 83/48/4 152/34/4 145/37/4 69/49/4
f 81/50/3 151/31/3 152/34/3 83/51/3
f 79/52/2 150/41/2 151/31/2 81/53/2
f 77/54/1 149/40/1 150/41/1 79/55/1
f 75/56/8 148/39/8 149/10/8 77/57/8
f 73/58/7 147/6/7 148/39/7 75/59/7
f 71/60/6 146/38/6 147/6/6 73/61/6
f 69/62/5 145/37/5 146/38/5 71/63/5
f 66/48/5 160/36/5 153/1/5 52/49/5
f 64/50/4 159/16/4 160/36/4 66/51/4
f 62/52/3 158/33/3 159/16/3 64/53/3
f 60/54/2 157/11/2 158/33/2 62/55/2
f 58/56/1 156/29/1 157/10/1 60/57/1
f 56/58/8 155/35/8 156/29/8 58/59/8
f 54/60/7 154/4/7 155/35/7 56/61/7
f 52/62/6 153/1/6 154/4/6 54/63/6
f 49/48/6 168/34/6 161/1/6 35/49/6
f 47/50/5 167/16/5 168/34/5 49/51/5
f 45/52/4 166/33/4 167/16/4 47/53/4
f 43/54/3 165/11/3 166/33/3 45/55/3
f 41/56/2 164/8/2 165/10/2 43/57/2
f 39/58/1 163/6/1 164/8/1 41/59/1
f 37/60/8 162/4/8 163/6/8 39/61/8
f 35/62/7 161/1/7 162/4/7 37/63/7
f 32/48/7 176/32/7 169/1/7 18/49/7
f 30/50/6 175/31/6 176/32/6 32/51/6
f 28/52/5 174/30/5 175/31/5 30/53/5
f 26/54/4 173/11/4 174/30/4 28/55/4
f 24/56/3 172/29/3 173/10/3 26/57/3
f 22/58/2 171/28/2 172/29/2 24/59/2
f 20/60/1 170/27/1 171/28/1 22/61/1
f 18/62/8 169/1/8 170/27/8 20/63/8
f 15/48/8 184/18/8 177/1/8 1/49/8
f 13/50/7 183/16/7 184/18/7 15/51/7
f 11/52/6 182/14/6 183/16/6 13/53/6
f 9/54/5 181/11/5 182/14/5 11/55/5
f 7/56/4 180/8/4 181/10/4 9/57/4
f 5/58/3 179/6/3 180/8/3 7/59/3
f 3/60/2 178/4/2 179/6/2 5/61/2
f 1/62/1 177/1/1 178/4/1 3/63/1
f 134/48/1 192/32/1 185/1/1 120/49/1
f 132/50/8 191/16/8 192/32/8 134/51/8
f 130/52/7 190/14/7 191/16/7 132/53/7
f 128/54/6 189/47/6 190/14/6 130/55/6
f 126/56/5 188/46/5 189/10/5 128/57/5
f 124/58/4 187/35/4 188/46/4 126/59/4
f 122/60/3 186/4/3 187/35/3 124/61/3
f 120/62/2 185/1/2 186/4/2 122/63/2
f 117/48/2 200/45/2 193/43/2 103/49/2
f 115/50/1 199/16/1 200/45/1 117/51/1
f 113/52/8 198/14/8 199/16/8 115/53/8
f 111/54/7 197/40/7 198/14/7 113/55/7
f 109/56/6 196/8/6 197/10/6 111/57/6
f 107/58/5 195/6/5 196/8/5 109/59/5
f 105/60/4 194/44/4 195/6/4 107/61/4
f 103/62/3 193/43/3 194/44/3 105/63/3
f 218/64/8 202/2/8 204/3/8 219/65/8
f 219/65/1 204/3/1 206/5/1 220/66/1
f 220/66/2 206/5/2 208/7/2 221/67/2
f 221/67/3 208/7/3 210/9/3 222/68/3
f 222/69/4 210/12/4 212/13/4 223/70/4
f 223/70/5 212/13/5 214/15/5 224/71/5
f 224/71/6 214/15/6 216/17/6 225/72/6
f 225/72/7 216/17/7 202/2/7 218/64/7
f 208/7/17 206/5/17 217/19/17
f 214/15/15 212/13/15 217/20/15
f 204/3/16 202/2/16 217/21/16
f 210/9/9 208/7/9 217/22/9
f 216/17/10 214/15/10 217/23/10
f 206/5/11 204/3/11 217/24/11
f 212/13/12 210/12/12 217/25/12
f 202/2/13 216/17/13 217/26/13
f 232/73/7 225/72/7 218/64/7 233/74/7
f 231/75/6 224/71/6 225/72/6 232/73/6
f 230/76/5 223/70/5 224/71/5 231/75/5
f 229/77/4 222/69/4 223/70/4 230/76/4
f 228/78/3 221/67/3 222/68/3 229/79/3
f 227/80/2 220/66/2 221/67/2 228/78/2
f 226/81/1 219/65/1 220/66/1 227/80/1
f 233/74/8 218/64/8 219/65/8 226/81/8
f 201/82/8 233/74/8 226/81/8 203/83/8
f 203/83/1 226/81/1 227/80/1 205/84/1
f 205/84/2 227/80/2 228/78/2 207/85/2
f 207/85/3 228/78/3 229/79/3 209/86/3
f 209/87/4 229/77/4 230/76/4 211/88/4
f 211/88/5 230/76/5 231/75/5 213/89/5
f 213/89/6 231/75/6 232/73/6 215/90/6
f 215/90/7 232/73/7 233/74/7 201/82/7
