# Blender 5.0.1
# www.blender.org
o RoofSupport
v 3.712311 16.999998 3.358757 0.0000 0.0000 0.0000
v 3.712311 18.999998 3.358757 0.0000 0.0000 0.0000
v 3.358757 16.999998 3.712311 0.0000 0.0000 0.0000
v 3.358757 18.999998 3.712311 0.0000 0.0000 0.0000
v 0.388909 26.699999 0.035355 0.0000 0.0000 0.0000
v 0.388909 28.699999 0.035355 0.0000 0.0000 0.0000
v 0.035355 26.699999 0.388909 0.0000 0.0000 0.0000
v 0.035355 28.699999 0.388909 0.0000 0.0000 0.0000
v -5.000000 16.999998 0.250000 0.0000 0.0000 0.0000
v -5.000000 18.999998 0.250000 0.0000 0.0000 0.0000
v -5.000000 16.999998 -0.250000 0.0000 0.0000 0.0000
v -5.000000 18.999998 -0.250000 0.0000 0.0000 0.0000
v -0.300000 26.699999 0.250000 0.0000 0.0000 0.0000
v -0.300000 28.699999 0.250000 0.0000 0.0000 0.0000
v -0.300000 26.699999 -0.250000 0.0000 0.0000 0.0000
v -0.300000 28.699999 -0.250000 0.0000 0.0000 0.0000
v -3.358757 16.999998 3.712311 0.0000 0.0000 0.0000
v -3.358757 18.999998 3.712311 0.0000 0.0000 0.0000
v -3.712311 16.999998 3.358757 0.0000 0.0000 0.0000
v -3.712311 18.999998 3.358757 0.0000 0.0000 0.0000
v -0.035355 26.699999 0.388909 0.0000 0.0000 0.0000
v -0.035355 28.699999 0.388909 0.0000 0.0000 0.0000
v -0.388909 26.699999 0.035355 0.0000 0.0000 0.0000
v -0.388909 28.699999 0.035355 0.0000 0.0000 0.0000
v 0.250000 16.999998 5.000000 0.0000 0.0000 0.0000
v 0.250000 18.999998 5.000000 0.0000 0.0000 0.0000
v -0.250000 16.999998 5.000000 0.0000 0.0000 0.0000
v -0.250000 18.999998 5.000000 0.0000 0.0000 0.0000
v 0.250000 26.699999 0.300000 0.0000 0.0000 0.0000
v 0.250000 28.699999 0.300000 0.0000 0.0000 0.0000
v -0.250000 26.699999 0.300000 0.0000 0.0000 0.0000
v -0.250000 28.699999 0.300000 0.0000 0.0000 0.0000
v 5.000000 16.999998 -0.250000 0.0000 0.0000 0.0000
v 5.000000 18.999998 -0.250000 0.0000 0.0000 0.0000
v 5.000000 16.999998 0.250000 0.0000 0.0000 0.0000
v 5.000000 18.999998 0.250000 0.0000 0.0000 0.0000
v 0.300000 26.699999 -0.250000 0.0000 0.0000 0.0000
v 0.300000 28.699999 -0.250000 0.0000 0.0000 0.0000
v 0.300000 26.699999 0.250000 0.0000 0.0000 0.0000
v 0.300000 28.699999 0.250000 0.0000 0.0000 0.0000
v 3.358757 16.999998 -3.712311 0.0000 0.0000 0.0000
v 3.358757 18.999998 -3.712311 0.0000 0.0000 0.0000
v 3.712310 16.999998 -3.358758 0.0000 0.0000 0.0000
v 3.712310 18.999998 -3.358758 0.0000 0.0000 0.0000
v 0.035355 26.699999 -0.388909 0.0000 0.0000 0.0000
v 0.035355 28.699999 -0.388909 0.0000 0.0000 0.0000
v 0.388909 26.699999 -0.035355 0.0000 0.0000 0.0000
v 0.388909 28.699999 -0.035355 0.0000 0.0000 0.0000
v -0.250002 16.999998 -5.000000 0.0000 0.0000 0.0000
v -0.250002 18.999998 -5.000000 0.0000 0.0000 0.0000
v 0.249998 16.999998 -5.000000 0.0000 0.0000 0.0000
v 0.249998 18.999998 -5.000000 0.0000 0.0000 0.0000
v -0.250000 26.699999 -0.300000 0.0000 0.0000 0.0000
v -0.250000 28.699999 -0.300000 0.0000 0.0000 0.0000
v 0.250000 26.699999 -0.300000 0.0000 0.0000 0.0000
v 0.250000 28.699999 -0.300000 0.0000 0.0000 0.0000
v -3.712313 16.999998 -3.358754 0.0000 0.0000 0.0000
v -3.712313 18.999998 -3.358754 0.0000 0.0000 0.0000
v -3.358760 16.999998 -3.712308 0.0000 0.0000 0.0000
v -3.358760 18.999998 -3.712308 0.0000 0.0000 0.0000
v -0.388909 26.699999 -0.035355 0.0000 0.0000 0.0000
v -0.388909 28.699999 -0.035355 0.0000 0.0000 0.0000
v -0.035356 26.699999 -0.388909 0.0000 0.0000 0.0000
v -0.035356 28.699999 -0.388909 0.0000 0.0000 0.0000
v 0.638164 25.972498 -0.284611 0.0000 0.0000 0.0000
v 0.638164 27.972498 -0.284611 0.0000 0.0000 0.0000
v 0.284610 25.972498 -0.638164 0.0000 0.0000 0.0000
v 0.284610 27.972498 -0.638164 0.0000 0.0000 0.0000
v 0.652500 25.972498 0.250000 0.0000 0.0000 0.0000
v 0.652500 27.972498 0.250000 0.0000 0.0000 0.0000
v 0.652500 25.972498 -0.250000 0.0000 0.0000 0.0000
v 0.652500 27.972498 -0.250000 0.0000 0.0000 0.0000
v 0.284610 25.972498 0.638164 0.0000 0.0000 0.0000
v 0.284610 27.972498 0.638164 0.0000 0.0000 0.0000
v 0.638164 25.972498 0.284610 0.0000 0.0000 0.0000
v 0.638164 27.972498 0.284610 0.0000 0.0000 0.0000
v -0.250000 25.972498 0.652500 0.0000 0.0000 0.0000
v -0.250000 27.972498 0.652500 0.0000 0.0000 0.0000
v 0.250000 25.972498 0.652500 0.0000 0.0000 0.0000
v 0.250000 27.972498 0.652500 0.0000 0.0000 0.0000
v -0.638164 25.972498 0.284610 0.0000 0.0000 0.0000
v -0.638164 27.972498 0.284610 0.0000 0.0000 0.0000
v -0.284610 25.972498 0.638164 0.0000 0.0000 0.0000
v -0.284610 27.972498 0.638164 0.0000 0.0000 0.0000
v -0.652500 25.972498 -0.250000 0.0000 0.0000 0.0000
v -0.652500 27.972498 -0.250000 0.0000 0.0000 0.0000
v -0.652500 25.972498 0.250000 0.0000 0.0000 0.0000
v -0.652500 27.972498 0.250000 0.0000 0.0000 0.0000
v -0.284611 25.972498 -0.638164 0.0000 0.0000 0.0000
v -0.284611 27.972498 -0.638164 0.0000 0.0000 0.0000
v -0.638164 25.972498 -0.284610 0.0000 0.0000 0.0000
v -0.638164 27.972498 -0.284610 0.0000 0.0000 0.0000
v 0.250000 25.972498 -0.652500 0.0000 0.0000 0.0000
v 0.250000 27.972498 -0.652500 0.0000 0.0000 0.0000
v -0.250000 25.972498 -0.652500 0.0000 0.0000 0.0000
v -0.250000 27.972498 -0.652500 0.0000 0.0000 0.0000
v -3.051345 17.897247 -3.404893 0.0000 0.0000 0.0000
v -3.404898 19.897247 -3.051340 0.1373 0.1373 0.1373
v -3.051345 19.897247 -3.404893 0.2588 0.2588 0.2588
v -3.404898 17.897247 -3.051340 0.0000 0.0000 0.0000
v -4.565250 17.897247 -0.250000 0.0000 0.0000 0.0000
v -4.565250 19.897247 0.250000 0.1098 0.1098 0.1098
v -4.565250 19.897247 -0.250000 0.1451 0.1451 0.1451
v -4.565250 17.897247 0.250000 0.0000 0.0000 0.0000
v 0.249998 17.897247 -4.565250 0.0000 0.0000 0.0000
v -0.250002 19.897247 -4.565250 0.1412 0.1412 0.1412
v 0.249998 19.897247 -4.565250 0.1412 0.1412 0.1412
v -0.250002 17.897247 -4.565250 0.0000 0.0000 0.0000
v 3.404895 17.897247 -3.051343 0.0000 0.0000 0.0000
v 3.051342 19.897247 -3.404896 0.2706 0.2706 0.2706
v 3.404895 19.897247 -3.051343 0.1333 0.1333 0.1333
v 3.051342 17.897247 -3.404896 0.0000 0.0000 0.0000
v 4.565250 17.897247 0.250000 0.0000 0.0000 0.0000
v 4.565250 19.897247 -0.250000 0.1530 0.1530 0.1530
v 4.565250 19.897247 0.250000 0.1098 0.1098 0.1098
v 4.565250 17.897247 -0.250000 0.0000 0.0000 0.0000
v 3.051342 17.897247 3.404896 0.0000 0.0000 0.0000
v 3.404896 19.897247 3.051342 0.1137 0.1137 0.1137
v 3.051342 19.897247 3.404896 0.1137 0.1137 0.1137
v 3.404896 17.897247 3.051342 0.0000 0.0000 0.0000
v -0.250000 17.897247 4.565250 0.0000 0.0000 0.0000
v 0.250000 19.897247 4.565250 0.1137 0.1137 0.1137
v -0.250000 19.897247 4.565250 0.1059 0.1059 0.1059
v 0.250000 17.897247 4.565250 0.0000 0.0000 0.0000
v -3.404896 17.897247 3.051342 0.0000 0.0000 0.0000
v -3.051342 19.897247 3.404896 0.1059 0.1059 0.1059
v -3.404896 19.897247 3.051342 0.1176 0.1176 0.1176
v -3.051342 17.897247 3.404896 0.0000 0.0000 0.0000
vn -0.7071 -0.0000 0.7071
vn 0.7071 -0.0000 -0.7071
vn 0.6363 0.4360 0.6363
vn -0.0000 -0.0000 -1.0000
vn -0.0000 -0.0000 1.0000
vn -0.8999 0.4360 -0.0000
vn -0.7071 -0.0000 -0.7071
vn 0.7071 -0.0000 0.7071
vn -0.6363 0.4360 0.6363
vn -1.0000 -0.0000 -0.0000
vn 1.0000 -0.0000 -0.0000
vn -0.0000 0.4360 0.8999
vn 0.8999 0.4360 -0.0000
vn 0.6363 0.4360 -0.6363
vn -0.0000 0.4360 -0.8999
vn -0.6363 0.4360 -0.6363
vt -1.312001 3.809265
vt -0.274285 5.950933
vt -0.274285 6.912862
vt -1.312001 4.771195
vt 1.358388 -6.868151
vt 0.320673 -4.726482
vt 0.320672 -5.912862
vt 1.358388 -8.054531
vt -0.274285 -4.726482
vt -0.274285 -5.912862
vt 1.358388 -6.868152
vt 0.320673 -4.726483
vt -0.274285 5.950933
vt 1.358388 -6.868151
vt 0.320673 -4.726483
vt -0.274285 5.950933
vt 1.358388 -6.868151
vt -0.274285 -4.726483
vt 0.320673 5.950933
vt 0.320673 6.912862
vt 1.358389 4.771193
vt 1.358389 3.809264
vt -1.312001 -6.868150
vt 0.320673 5.950932
vt 1.358389 3.809263
vt -1.312001 -6.868149
vt -1.312001 -8.054529
s 0
f 73/1/1 74/2/1 8/3/1 7/4/1
f 120/5/2 118/6/2 2/7/2 1/8/2
f 119/9/3 4/10/3 2/7/3 118/6/3
f 85/1/4 86/2/4 16/3/4 15/4/4
f 104/11/5 102/12/5 10/7/5 9/8/5
f 103/9/6 12/10/6 10/7/6 102/12/6
f 81/1/7 82/2/7 24/3/7 23/4/7
f 128/5/8 126/6/8 18/7/8 17/8/8
f 127/9/9 20/10/9 18/7/9 126/6/9
f 77/1/10 78/13/10 32/3/10 31/4/10
f 124/14/11 122/6/11 26/7/11 25/8/11
f 123/9/12 28/10/12 26/7/12 122/6/12
f 69/1/5 70/13/5 40/3/5 39/4/5
f 116/14/4 114/6/4 34/7/4 33/8/4
f 115/9/13 36/10/13 34/7/13 114/6/13
f 65/1/8 66/2/8 48/3/8 47/4/8
f 112/5/7 110/15/7 42/7/7 41/8/7
f 111/9/14 44/10/14 42/7/14 110/15/14
f 93/1/11 94/16/11 56/3/11 55/4/11
f 108/17/10 106/12/10 50/7/10 49/8/10
f 107/18/15 52/10/15 50/7/15 106/12/15
f 89/1/2 90/13/2 64/3/2 63/4/2
f 100/17/1 98/6/1 58/7/1 57/8/1
f 99/9/16 60/10/16 58/7/16 98/6/16
f 48/3/14 66/2/14 68/19/14 46/20/14
f 45/21/7 46/20/7 68/19/7 67/22/7
f 109/23/8 111/9/8 66/2/8 65/1/8
f 40/3/13 70/13/13 72/24/13 38/20/13
f 37/21/4 38/20/4 72/24/4 71/25/4
f 113/26/5 115/9/5 70/13/5 69/1/5
f 8/3/3 74/2/3 76/19/3 6/20/3
f 5/21/2 6/20/2 76/19/2 75/22/2
f 117/26/1 119/9/1 74/2/1 73/1/1
f 32/3/12 78/13/12 80/24/12 30/20/12
f 29/21/11 30/20/11 80/24/11 79/25/11
f 121/26/10 123/9/10 78/13/10 77/1/10
f 24/3/9 82/2/9 84/19/9 22/20/9
f 21/21/8 22/20/8 84/19/8 83/22/8
f 125/26/7 127/9/7 82/2/7 81/1/7
f 16/3/6 86/2/6 88/24/6 14/20/6
f 13/21/5 14/20/5 88/24/5 87/22/5
f 101/26/4 103/9/4 86/2/4 85/1/4
f 64/3/16 90/13/16 92/19/16 62/20/16
f 61/21/1 62/20/1 92/19/1 91/22/1
f 97/23/2 99/9/2 90/13/2 89/1/2
f 56/3/15 94/16/15 96/19/15 54/20/15
f 53/21/10 54/20/10 96/19/10 95/22/10
f 105/26/11 107/18/11 94/16/11 93/1/11
f 59/27/2 60/10/2 99/9/2 97/23/2
f 90/13/16 99/9/16 98/6/16 92/19/16
f 91/22/1 92/19/1 98/6/1 100/17/1
f 11/27/4 12/10/4 103/9/4 101/26/4
f 86/2/6 103/9/6 102/12/6 88/24/6
f 87/22/5 88/24/5 102/12/5 104/11/5
f 51/27/11 52/10/11 107/18/11 105/26/11
f 94/16/15 107/18/15 106/12/15 96/19/15
f 95/22/10 96/19/10 106/12/10 108/17/10
f 43/27/8 44/10/8 111/9/8 109/23/8
f 66/2/14 111/9/14 110/15/14 68/19/14
f 67/22/7 68/19/7 110/15/7 112/5/7
f 35/27/5 36/10/5 115/9/5 113/26/5
f 70/13/13 115/9/13 114/6/13 72/24/13
f 71/25/4 72/24/4 114/6/4 116/14/4
f 3/27/1 4/10/1 119/9/1 117/26/1
f 74/2/3 119/9/3 118/6/3 76/19/3
f 75/22/2 76/19/2 118/6/2 120/5/2
f 27/27/10 28/10/10 123/9/10 121/26/10
f 78/13/12 123/9/12 122/6/12 80/24/12
f 79/25/11 80/24/11 122/6/11 124/14/11
f 19/27/7 20/10/7 127/9/7 125/26/7
f 82/2/9 127/9/9 126/6/9 84/19/9
f 83/22/8 84/19/8 126/6/8 128/5/8
