# Blender 5.0.1
# www.blender.org
o RailingCollision
v 1.647977 16.019361 -2.452290
v 1.704478 16.032717 -2.492655
v 1.685440 15.980639 -2.536535
v 1.628939 15.967283 -2.496171
v 1.643749 11.038016 2.517371
v 1.702070 11.000000 2.529762
v 1.689679 10.961984 2.471442
v 1.631358 11.000000 2.459051
v -0.584084 11.019361 2.896272
v -0.620837 11.032717 2.955185
v -0.586456 10.980639 2.988440
v -0.549703 10.967283 2.929526
v -2.481981 6.038016 -1.696717
v -2.540604 6.000000 -1.685846
v -2.506838 5.961984 -1.636706
v -2.448216 6.000000 -1.647577
v -0.568732 6.019361 -2.899326
v -0.557322 6.032717 -2.967820
v -0.601812 5.980639 -2.985387
v -0.613222 5.967283 -2.916893
v 2.942357 1.038016 0.617748
v 2.992356 1.000000 0.585271
v 2.942357 0.961984 0.552793
v 2.892356 1.000000 0.585271
v 0.601811 -3.980639 -2.985386
v 0.613221 -3.967283 -2.916893
v 0.568731 -4.019361 -2.899326
v 0.557321 -4.032717 -2.967820
v -2.942357 1.038016 0.552794
v -2.892356 1.000000 0.585272
v -2.942357 0.961984 0.617749
v -2.992357 1.000000 0.585271
v 1.627174 -23.991650 2.464962
v 1.681349 -24.037088 2.464241
v 1.706245 -24.008350 2.523859
v 1.652071 -23.962912 2.524580
v 2.506839 -3.961984 -1.636706
v 2.448216 -4.000000 -1.647577
v 2.481982 -4.038016 -1.696716
v 2.540604 -4.000000 -1.685845
v 2.506839 -3.961984 -1.636706
v 2.448216 -4.000000 -1.647577
v 2.481982 -4.038016 -1.696716
v 2.540604 -4.000000 -1.685845
v 2.954995 -4.962608 -0.554577
v 2.894543 -4.995169 -0.571469
v 2.929719 -5.037392 -0.615965
v 2.990171 -5.004831 -0.599072
v 2.954995 -5.965104 0.618777
v 2.894543 -5.985724 0.588439
v 2.929719 -6.034896 0.551767
v 2.990171 -6.014276 0.582104
v 2.504962 -6.969943 1.705250
v 2.450252 -6.977239 1.661051
v 2.483857 -7.030057 1.628173
v 2.538567 -7.022761 1.672372
v 1.671804 -7.976799 2.538407
v 1.628093 -7.970281 2.483209
v 1.661617 -8.023201 2.450412
v 1.705328 -8.029719 2.505610
v 0.581612 -8.985214 2.989980
v 0.551816 -8.965318 2.929018
v 0.588930 -9.014787 2.894733
v 0.618726 -9.034682 2.955695
v -0.599522 -9.994619 2.989979
v -0.615759 -9.962683 2.929017
v -0.571020 -10.005381 2.894732
v -0.554783 -10.037317 2.955695
v -1.691123 -11.004388 2.537823
v -1.697064 -10.962553 2.481126
v -1.642299 -10.995612 2.450994
v -1.636358 -11.037447 2.507692
v -2.526364 -12.013861 1.702582
v -2.526661 -11.964937 1.651529
v -2.462455 -11.986139 1.630838
v -2.462158 -12.035063 1.681891
v -2.977992 -13.022404 0.612255
v -2.976649 -12.969675 0.565160
v -2.906721 -12.977596 0.558285
v -2.908063 -13.030325 0.605380
v -2.977992 -14.029442 -0.566212
v -2.976649 -13.976449 -0.613009
v -2.906721 -13.970558 -0.604332
v -2.908063 -14.023551 -0.557535
v -2.527862 -15.034505 -1.652918
v -2.525101 -14.984803 -1.703140
v -2.460954 -14.965495 -1.680505
v -2.463715 -15.015197 -1.630284
v -1.697977 -16.037251 -2.482803
v -1.689939 -15.994179 -2.538302
v -1.635442 -15.962749 -2.506017
v -1.643481 -16.005821 -2.450517
v -0.616283 -17.037495 -2.930856
v -0.598340 -17.003944 -2.990457
v -0.554257 -16.962505 -2.953858
v -0.572199 -16.996056 -2.894257
v 0.551702 -18.035225 -2.930855
v 0.582900 -18.013445 -2.990457
v 0.618843 -17.964775 -2.953858
v 0.587645 -17.986555 -2.894257
v 1.628319 -19.030588 -2.484906
v 1.673285 -19.022043 -2.538804
v 1.705106 -18.969412 -2.503913
v 1.660141 -18.977959 -2.450014
v 2.450691 -20.023897 -1.662532
v 2.506650 -20.029161 -1.705437
v 2.538130 -19.976103 -1.670887
v 2.482171 -19.970839 -1.627982
v 2.895063 -21.015604 -0.589720
v 2.956820 -21.034323 -0.618628
v 2.989651 -20.984396 -0.580818
v 2.927893 -20.965677 -0.551911
v 2.895062 -22.006262 0.570303
v 2.956820 -22.037178 0.555131
v 2.989650 -21.993738 0.600242
v 2.927893 -21.962822 0.615415
v 2.451321 -22.996500 1.641588
v 2.508717 -23.037540 1.636946
v 2.537496 -23.003500 1.691837
v 2.480101 -22.962460 1.696479
v 1.627174 -23.991650 2.464962
v 1.681349 -24.037088 2.464241
v 1.706245 -24.008350 2.523859
v 1.652071 -23.962912 2.524580
v -2.942357 1.038016 0.552794
v -2.892356 1.000000 0.585272
v -2.942357 0.961984 0.617749
v -2.992357 1.000000 0.585271
v -2.942286 0.037392 -0.618465
v -2.892900 0.004831 -0.579724
v -2.942427 -0.037392 -0.552077
v -2.991812 -0.004831 -0.590818
v -2.493263 -0.965104 -1.702501
v -2.449023 -0.985725 -1.651339
v -2.495555 -1.034896 -1.630920
v -2.539796 -1.014275 -1.682082
v -1.661713 -1.969943 -2.534052
v -1.628081 -1.977239 -2.472281
v -1.671710 -2.030057 -2.454766
v -1.705341 -2.022761 -2.516537
v -0.573140 -2.976799 -2.984954
v -0.553880 -2.970281 -2.917230
v -0.597402 -3.023201 -2.899758
v -0.616663 -3.029719 -2.967483
v 0.601811 -3.980639 -2.985386
v 0.613221 -3.967283 -2.916893
v 0.568731 -4.019361 -2.899326
v 0.557321 -4.032717 -2.967820
v 2.942357 1.038016 0.617748
v 2.992356 1.000000 0.585271
v 2.942357 0.961984 0.552793
v 2.892356 1.000000 0.585271
v 2.942426 2.037392 -0.552078
v 2.991812 2.004831 -0.590819
v 2.942286 1.962608 -0.618466
v 2.892900 1.995169 -0.579725
v 2.495555 3.034896 -1.630921
v 2.539795 3.014276 -1.682083
v 2.493263 2.965104 -1.702502
v 2.449022 2.985724 -1.651340
v 1.671709 4.030057 -2.454766
v 1.705340 4.022761 -2.516538
v 1.661712 3.969943 -2.534053
v 1.628080 3.977239 -2.472282
v 0.597402 5.023200 -2.899759
v 0.616662 5.029719 -2.967483
v 0.573140 4.976799 -2.984954
v 0.553879 4.970281 -2.917230
v -0.568732 6.019361 -2.899326
v -0.557322 6.032717 -2.967820
v -0.601812 5.980639 -2.985387
v -0.613222 5.967283 -2.916893
v -2.481981 6.038016 -1.696717
v -2.540604 6.000000 -1.685846
v -2.506838 5.961984 -1.636706
v -2.448216 6.000000 -1.647577
v -2.929718 7.037392 -0.615965
v -2.990170 7.004831 -0.599072
v -2.954994 6.962608 -0.554577
v -2.894542 6.995169 -0.571470
v -2.929718 8.034896 0.551766
v -2.990170 8.014276 0.582104
v -2.954994 7.965104 0.618776
v -2.894542 7.985724 0.588438
v -2.483855 9.030057 1.628173
v -2.538566 9.022761 1.672372
v -2.504961 8.969943 1.705249
v -2.450251 8.977239 1.661050
v -1.661616 10.023200 2.450411
v -1.705328 10.029719 2.505609
v -1.671804 9.976800 2.538407
v -1.628092 9.970281 2.483208
v -0.584084 11.019361 2.896272
v -0.620837 11.032717 2.955185
v -0.586456 10.980639 2.988440
v -0.549703 10.967283 2.929526
v 1.643749 11.038016 2.517371
v 1.702070 11.000000 2.529762
v 1.689679 10.961984 2.471442
v 1.631358 11.000000 2.459051
v 2.470989 12.037392 1.690228
v 2.533304 12.004831 1.697755
v 2.517833 11.962608 1.643185
v 2.455518 11.995169 1.635659
v 2.917860 13.034895 0.611385
v 2.985320 13.014275 0.606490
v 2.966855 12.965104 0.559148
v 2.899395 12.985724 0.564043
v 2.917858 14.030056 -0.553709
v 2.985318 14.022760 -0.573607
v 2.966853 13.969944 -0.616843
v 2.899393 13.977240 -0.596944
v 2.472865 15.023201 -1.628016
v 2.534372 15.029718 -1.662285
v 2.515951 14.976799 -1.705415
v 2.454443 14.970282 -1.671146
v 1.647977 16.019361 -2.452290
v 1.704478 16.032717 -2.492655
v 1.685440 15.980639 -2.536535
v 1.628939 15.967283 -2.496171
vn -0.5376 0.6495 -0.5376
vn -0.5376 -0.6495 0.5376
vn 0.7024 0.6495 0.2910
vn 0.7025 0.6495 0.2910
vn 0.2910 -0.6495 -0.7024
vn 0.2910 -0.6495 -0.7025
vn -0.7603 0.6495 -0.0000
vn -0.0000 -0.6495 0.7603
vn 0.7603 -0.6495 -0.0000
vn -0.0000 0.6495 0.7603
vn -0.2910 0.6495 -0.7024
vn 0.8304 0.5361 0.1520
vn -0.4797 0.5361 0.6946
vn -0.8303 -0.5363 -0.1518
vn 0.4798 -0.5362 -0.6945
vn 0.8667 0.3793 0.3241
vn -0.5070 0.6554 0.5598
vn -0.8667 -0.3794 -0.3240
vn 0.5070 -0.6553 -0.5599
vn 0.8268 0.1987 0.5263
vn -0.4859 0.7328 0.4763
vn -0.8268 -0.1987 -0.5262
vn 0.4859 -0.7328 -0.4764
vn 0.7037 0.0055 0.7104
vn -0.4645 0.7603 0.4540
vn -0.7038 -0.0055 -0.7104
vn 0.4645 -0.7603 -0.4540
vn 0.5192 -0.1880 0.8337
vn -0.4841 0.7357 0.4737
vn -0.5192 0.1880 -0.8337
vn 0.4841 -0.7357 -0.4736
vn 0.3158 -0.3696 0.8739
vn -0.5647 0.6609 0.4942
vn -0.3158 0.3697 -0.8739
vn 0.5646 -0.6610 -0.4942
vn 0.1408 -0.5275 0.8378
vn -0.6962 0.5418 0.4709
vn -0.1407 0.5276 -0.8378
vn 0.6961 -0.5419 -0.4710
vn 0.0274 -0.6507 0.7589
vn -0.8425 0.3870 0.3748
vn -0.0273 0.6508 -0.7588
vn 0.8424 -0.3871 -0.3748
vn -0.0182 -0.7303 0.6829
vn -0.9567 0.2073 0.2045
vn 0.0182 0.7303 -0.6828
vn 0.9566 -0.2074 -0.2046
vn -0.0194 -0.7602 0.6494
vn -0.9998 0.0144 -0.0123
vn 0.0194 0.7602 -0.6494
vn 0.9998 -0.0144 0.0123
vn -0.0189 -0.7380 0.6746
vn -0.9565 -0.1793 -0.2303
vn 0.0189 0.7379 -0.6746
vn 0.9564 0.1794 0.2303
vn -0.0598 -0.6655 0.7440
vn -0.8405 -0.3618 -0.4033
vn 0.0599 0.6654 -0.7441
vn 0.8404 0.3618 0.4034
vn -0.1674 -0.5482 0.8194
vn -0.6900 -0.5210 -0.5025
vn 0.1675 0.5481 -0.8195
vn 0.6899 0.5210 0.5026
vn -0.3372 -0.3948 0.8547
vn -0.5519 -0.6460 -0.5274
vn 0.3373 0.3947 -0.8547
vn 0.5518 0.6460 0.5274
vn -0.5373 -0.2159 0.8153
vn -0.4636 -0.7277 -0.5055
vn 0.5374 0.2159 -0.8153
vn 0.4635 0.7278 0.5055
vn -0.7209 -0.0233 0.6927
vn -0.4369 -0.7599 -0.4813
vn 0.7209 0.0233 -0.6927
vn 0.4369 0.7600 0.4813
vn -0.8445 0.1707 0.5076
vn -0.4536 -0.7401 -0.4964
vn 0.8445 -0.1707 -0.5076
vn 0.4537 0.7401 0.4965
vn -0.8851 0.3539 0.3023
vn -0.4733 -0.6698 -0.5721
vn 0.8851 -0.3539 -0.3024
vn 0.4733 0.6697 0.5722
vn -0.8485 0.5144 0.1241
vn -0.4511 -0.5544 -0.6994
vn 0.8485 -0.5144 -0.1242
vn 0.4511 0.5543 0.6995
vn -0.7671 0.6415 0.0078
vn -0.3541 -0.4046 -0.8432
vn 0.7672 -0.6414 -0.0080
vn 0.3542 0.4048 0.8430
vn -0.7090 0.5361 -0.4582
vn 0.7090 0.5361 -0.4581
vn 0.7090 -0.5363 0.4579
vn -0.7090 -0.5362 0.4580
vn -0.6767 0.3793 -0.6311
vn 0.6826 0.6554 -0.3232
vn 0.6767 -0.3794 0.6310
vn -0.6827 -0.6553 0.3233
vn -0.5625 0.1987 -0.8026
vn 0.6312 0.7328 -0.2541
vn 0.5625 -0.1988 0.8026
vn -0.6312 -0.7328 0.2541
vn -0.3783 0.0055 -0.9257
vn 0.6029 0.7603 -0.2417
vn 0.3783 -0.0055 0.9257
vn -0.6029 -0.7603 0.2417
vn -0.1611 -0.1882 -0.9688
vn 0.6291 0.7364 -0.2491
vn 0.1608 0.1886 0.9688
vn -0.6291 -0.7364 0.2491
vn -0.7090 0.5363 0.4579
vn 0.7090 0.5362 0.4580
vn 0.7090 -0.5361 -0.4582
vn -0.7090 -0.5361 -0.4581
vn -0.6767 0.3794 0.6310
vn 0.6827 0.6553 0.3233
vn 0.6767 -0.3793 -0.6311
vn -0.6826 -0.6554 -0.3232
vn -0.5625 0.1987 0.8026
vn 0.6312 0.7328 0.2541
vn 0.5625 -0.1987 -0.8026
vn -0.6312 -0.7328 -0.2541
vn -0.3783 0.0055 0.9257
vn 0.6029 0.7603 0.2417
vn 0.3783 -0.0055 -0.9257
vn -0.6029 -0.7603 -0.2417
vn -0.1608 -0.1886 0.9688
vn 0.6291 0.7364 0.2491
vn 0.1611 0.1882 -0.9688
vn -0.6291 -0.7364 -0.2491
vn 0.8303 0.5363 -0.1517
vn -0.4798 0.5362 -0.6945
vn -0.8304 -0.5361 0.1520
vn 0.4797 -0.5361 0.6946
vn 0.8667 0.3794 -0.3240
vn -0.5070 0.6553 -0.5599
vn -0.8667 -0.3793 0.3241
vn 0.5070 -0.6554 0.5598
vn 0.8268 0.1988 -0.5262
vn -0.4859 0.7328 -0.4764
vn -0.8268 -0.1987 0.5263
vn 0.4859 -0.7328 0.4763
vn 0.7038 0.0055 -0.7104
vn -0.4645 0.7603 -0.4540
vn -0.7037 -0.0055 0.7104
vn 0.4645 -0.7603 0.4540
vn 0.5193 -0.1886 -0.8336
vn -0.4859 0.7364 -0.4709
vn -0.5196 0.1882 0.8334
vn 0.4859 -0.7364 0.4709
vn -0.8252 0.5363 -0.1775
vn 0.1775 0.5362 0.8252
vn 0.8253 -0.5361 0.1774
vn -0.1774 -0.5361 -0.8253
vn -0.9247 0.3794 -0.0323
vn 0.2541 0.6553 0.7113
vn 0.9247 -0.3793 0.0322
vn -0.2541 -0.6554 -0.7112
vn -0.9652 0.1988 0.1698
vn 0.2667 0.7328 0.6261
vn 0.9652 -0.1987 -0.1698
vn -0.2667 -0.7328 -0.6260
vn -0.9220 0.0055 0.3870
vn 0.2554 0.7603 0.5972
vn 0.9220 -0.0055 -0.3870
vn -0.2554 -0.7603 -0.5972
vn -0.7987 -0.1886 0.5714
vn 0.2687 0.7364 0.6209
vn 0.7990 0.1882 -0.5711
vn -0.2687 -0.7364 -0.6209
vt 0.000000 0.000000
vt 0.666667 0.000000
vt 1.000000 0.000000
vt 0.333333 0.000000
vt 0.000000 1.000000
vt 0.050000 1.000000
vt 0.050000 0.750000
vt 0.000000 0.750000
vt 0.000000 0.250000
vt 0.050000 0.250000
vt 0.050000 0.000000
vt 0.000000 0.500000
vt 0.050000 0.500000
vt 0.100000 1.000000
vt 0.100000 0.750000
vt 0.100000 0.250000
vt 0.100000 0.000000
vt 0.100000 0.500000
vt 0.150000 1.000000
vt 0.150000 0.750000
vt 0.150000 0.250000
vt 0.150000 0.000000
vt 0.150000 0.500000
vt 0.200000 1.000000
vt 0.200000 0.750000
vt 0.200000 0.250000
vt 0.200000 0.000000
vt 0.200000 0.500000
vt 0.250000 1.000000
vt 0.250000 0.750000
vt 0.250000 0.250000
vt 0.250000 0.000000
vt 0.250000 0.500000
vt 0.300000 1.000000
vt 0.300000 0.750000
vt 0.300000 0.250000
vt 0.300000 0.000000
vt 0.300000 0.500000
vt 0.350000 1.000000
vt 0.350000 0.750000
vt 0.350000 0.250000
vt 0.350000 0.000000
vt 0.350000 0.500000
vt 0.400000 1.000000
vt 0.400000 0.750000
vt 0.400000 0.250000
vt 0.400000 0.000000
vt 0.400000 0.500000
vt 0.450000 1.000000
vt 0.450000 0.750000
vt 0.450000 0.250000
vt 0.450000 0.000000
vt 0.450000 0.500000
vt 0.500000 1.000000
vt 0.500000 0.750000
vt 0.500000 0.250000
vt 0.500000 0.000000
vt 0.500000 0.500000
vt 0.550000 1.000000
vt 0.550000 0.750000
vt 0.550000 0.250000
vt 0.550000 0.000000
vt 0.550000 0.500000
vt 0.600000 1.000000
vt 0.600000 0.750000
vt 0.600000 0.250000
vt 0.600000 0.000000
vt 0.600000 0.500000
vt 0.650000 1.000000
vt 0.650000 0.750000
vt 0.650000 0.250000
vt 0.650000 0.000000
vt 0.650000 0.500000
vt 0.700000 1.000000
vt 0.700000 0.750000
vt 0.700000 0.250000
vt 0.700000 0.000000
vt 0.700000 0.500000
vt 0.750000 1.000000
vt 0.750000 0.750000
vt 0.750000 0.250000
vt 0.750000 0.000000
vt 0.750000 0.500000
vt 0.800000 1.000000
vt 0.800000 0.750000
vt 0.800000 0.250000
vt 0.800000 0.000000
vt 0.800000 0.500000
vt 0.850000 1.000000
vt 0.850000 0.750000
vt 0.850000 0.250000
vt 0.850000 0.000000
vt 0.850000 0.500000
vt 0.900000 1.000000
vt 0.900000 0.750000
vt 0.900000 0.250000
vt 0.900000 0.000000
vt 0.900000 0.500000
vt 0.950000 1.000000
vt 0.950000 0.750000
vt 0.950000 0.250000
vt 0.950000 0.000000
vt 0.950000 0.500000
vt 1.000000 1.000000
vt 1.000000 0.750000
vt 1.000000 0.250000
vt 1.000000 0.500000
s 0
f 1/1/1 3/2/1 4/3/1
f 1/1/1 2/4/1 3/2/1
f 6/4/2 8/3/2 7/2/2
f 6/4/2 5/1/2 8/3/2
f 9/1/3 11/2/3 12/3/3
f 9/1/4 10/4/4 11/2/4
f 14/4/5 16/3/5 15/2/5
f 14/4/6 13/1/6 16/3/6
f 17/1/7 19/2/7 20/3/7
f 17/1/7 18/4/7 19/2/7
f 22/4/8 24/3/8 23/2/8
f 22/4/8 21/1/8 24/3/8
f 25/1/9 27/2/9 28/3/9
f 25/1/9 26/4/9 27/2/9
f 30/4/10 32/3/10 31/2/10
f 30/4/10 29/1/10 32/3/10
f 35/2/2 33/1/2 34/4/2
f 36/3/2 33/1/2 35/2/2
f 38/4/11 40/3/11 39/2/11
f 38/4/11 37/1/11 40/3/11
f 41/5/12 45/6/12 48/7/12 44/8/12
f 42/9/13 46/10/13 45/11/13 41/1/13
f 43/12/14 47/13/14 46/10/14 42/9/14
f 44/8/15 48/7/15 47/13/15 43/12/15
f 45/6/16 49/14/16 52/15/16 48/7/16
f 46/10/17 50/16/17 49/17/17 45/11/17
f 47/13/18 51/18/18 50/16/18 46/10/18
f 48/7/19 52/15/19 51/18/19 47/13/19
f 49/14/20 53/19/20 56/20/20 52/15/20
f 50/16/21 54/21/21 53/22/21 49/17/21
f 51/18/22 55/23/22 54/21/22 50/16/22
f 52/15/23 56/20/23 55/23/23 51/18/23
f 53/19/24 57/24/24 60/25/24 56/20/24
f 54/21/25 58/26/25 57/27/25 53/22/25
f 55/23/26 59/28/26 58/26/26 54/21/26
f 56/20/27 60/25/27 59/28/27 55/23/27
f 57/24/28 61/29/28 64/30/28 60/25/28
f 58/26/29 62/31/29 61/32/29 57/27/29
f 59/28/30 63/33/30 62/31/30 58/26/30
f 60/25/31 64/30/31 63/33/31 59/28/31
f 61/29/32 65/34/32 68/35/32 64/30/32
f 62/31/33 66/36/33 65/37/33 61/32/33
f 63/33/34 67/38/34 66/36/34 62/31/34
f 64/30/35 68/35/35 67/38/35 63/33/35
f 65/34/36 69/39/36 72/40/36 68/35/36
f 66/36/37 70/41/37 69/42/37 65/37/37
f 67/38/38 71/43/38 70/41/38 66/36/38
f 68/35/39 72/40/39 71/43/39 67/38/39
f 69/39/40 73/44/40 76/45/40 72/40/40
f 70/41/41 74/46/41 73/47/41 69/42/41
f 71/43/42 75/48/42 74/46/42 70/41/42
f 72/40/43 76/45/43 75/48/43 71/43/43
f 73/44/44 77/49/44 80/50/44 76/45/44
f 74/46/45 78/51/45 77/52/45 73/47/45
f 75/48/46 79/53/46 78/51/46 74/46/46
f 76/45/47 80/50/47 79/53/47 75/48/47
f 77/49/48 81/54/48 84/55/48 80/50/48
f 78/51/49 82/56/49 81/57/49 77/52/49
f 79/53/50 83/58/50 82/56/50 78/51/50
f 80/50/51 84/55/51 83/58/51 79/53/51
f 81/54/52 85/59/52 88/60/52 84/55/52
f 82/56/53 86/61/53 85/62/53 81/57/53
f 83/58/54 87/63/54 86/61/54 82/56/54
f 84/55/55 88/60/55 87/63/55 83/58/55
f 85/59/56 89/64/56 92/65/56 88/60/56
f 86/61/57 90/66/57 89/67/57 85/62/57
f 87/63/58 91/68/58 90/66/58 86/61/58
f 88/60/59 92/65/59 91/68/59 87/63/59
f 89/64/60 93/69/60 96/70/60 92/65/60
f 90/66/61 94/71/61 93/72/61 89/67/61
f 91/68/62 95/73/62 94/71/62 90/66/62
f 92/65/63 96/70/63 95/73/63 91/68/63
f 93/69/64 97/74/64 100/75/64 96/70/64
f 94/71/65 98/76/65 97/77/65 93/72/65
f 95/73/66 99/78/66 98/76/66 94/71/66
f 96/70/67 100/75/67 99/78/67 95/73/67
f 97/74/68 101/79/68 104/80/68 100/75/68
f 98/76/69 102/81/69 101/82/69 97/77/69
f 99/78/70 103/83/70 102/81/70 98/76/70
f 100/75/71 104/80/71 103/83/71 99/78/71
f 101/79/72 105/84/72 108/85/72 104/80/72
f 102/81/73 106/86/73 105/87/73 101/82/73
f 103/83/74 107/88/74 106/86/74 102/81/74
f 104/80/75 108/85/75 107/88/75 103/83/75
f 105/84/76 109/89/76 112/90/76 108/85/76
f 106/86/77 110/91/77 109/92/77 105/87/77
f 107/88/78 111/93/78 110/91/78 106/86/78
f 108/85/79 112/90/79 111/93/79 107/88/79
f 109/89/80 113/94/80 116/95/80 112/90/80
f 110/91/81 114/96/81 113/97/81 109/92/81
f 111/93/82 115/98/82 114/96/82 110/91/82
f 112/90/83 116/95/83 115/98/83 111/93/83
f 113/94/84 117/99/84 120/100/84 116/95/84
f 114/96/85 118/101/85 117/102/85 113/97/85
f 115/98/86 119/103/86 118/101/86 114/96/86
f 116/95/87 120/100/87 119/103/87 115/98/87
f 117/99/88 121/104/88 124/105/88 120/100/88
f 118/101/89 122/106/89 121/3/89 117/102/89
f 119/103/90 123/107/90 122/106/90 118/101/90
f 120/100/91 124/105/91 123/107/91 119/103/91
f 125/5/92 129/24/92 132/25/92 128/8/92
f 126/9/93 130/26/93 129/27/93 125/1/93
f 127/12/94 131/28/94 130/26/94 126/9/94
f 128/8/95 132/25/95 131/28/95 127/12/95
f 129/24/96 133/44/96 136/45/96 132/25/96
f 130/26/97 134/46/97 133/47/97 129/27/97
f 131/28/98 135/48/98 134/46/98 130/26/98
f 132/25/99 136/45/99 135/48/99 131/28/99
f 133/44/100 137/64/100 140/65/100 136/45/100
f 134/46/101 138/66/101 137/67/101 133/47/101
f 135/48/102 139/68/102 138/66/102 134/46/102
f 136/45/103 140/65/103 139/68/103 135/48/103
f 137/64/104 141/84/104 144/85/104 140/65/104
f 138/66/105 142/86/105 141/87/105 137/67/105
f 139/68/106 143/88/106 142/86/106 138/66/106
f 140/65/107 144/85/107 143/88/107 139/68/107
f 141/84/108 145/104/108 148/105/108 144/85/108
f 142/86/109 146/106/109 145/3/109 141/87/109
f 143/88/110 147/107/110 146/106/110 142/86/110
f 144/85/111 148/105/111 147/107/111 143/88/111
f 149/5/112 153/24/112 156/25/112 152/8/112
f 150/9/113 154/26/113 153/27/113 149/1/113
f 151/12/114 155/28/114 154/26/114 150/9/114
f 152/8/115 156/25/115 155/28/115 151/12/115
f 153/24/116 157/44/116 160/45/116 156/25/116
f 154/26/117 158/46/117 157/47/117 153/27/117
f 155/28/118 159/48/118 158/46/118 154/26/118
f 156/25/119 160/45/119 159/48/119 155/28/119
f 157/44/120 161/64/120 164/65/120 160/45/120
f 158/46/121 162/66/121 161/67/121 157/47/121
f 159/48/122 163/68/122 162/66/122 158/46/122
f 160/45/123 164/65/123 163/68/123 159/48/123
f 161/64/124 165/84/124 168/85/124 164/65/124
f 162/66/125 166/86/125 165/87/125 161/67/125
f 163/68/126 167/88/126 166/86/126 162/66/126
f 164/65/127 168/85/127 167/88/127 163/68/127
f 165/84/128 169/104/128 172/105/128 168/85/128
f 166/86/129 170/106/129 169/3/129 165/87/129
f 167/88/130 171/107/130 170/106/130 166/86/130
f 168/85/131 172/105/131 171/107/131 167/88/131
f 173/5/132 177/24/132 180/25/132 176/8/132
f 174/9/133 178/26/133 177/27/133 173/1/133
f 175/12/134 179/28/134 178/26/134 174/9/134
f 176/8/135 180/25/135 179/28/135 175/12/135
f 177/24/136 181/44/136 184/45/136 180/25/136
f 178/26/137 182/46/137 181/47/137 177/27/137
f 179/28/138 183/48/138 182/46/138 178/26/138
f 180/25/139 184/45/139 183/48/139 179/28/139
f 181/44/140 185/64/140 188/65/140 184/45/140
f 182/46/141 186/66/141 185/67/141 181/47/141
f 183/48/142 187/68/142 186/66/142 182/46/142
f 184/45/143 188/65/143 187/68/143 183/48/143
f 185/64/144 189/84/144 192/85/144 188/65/144
f 186/66/145 190/86/145 189/87/145 185/67/145
f 187/68/146 191/88/146 190/86/146 186/66/146
f 188/65/147 192/85/147 191/88/147 187/68/147
f 189/84/148 193/104/148 196/105/148 192/85/148
f 190/86/149 194/106/149 193/3/149 189/87/149
f 191/88/150 195/107/150 194/106/150 190/86/150
f 192/85/151 196/105/151 195/107/151 191/88/151
f 197/5/152 201/24/152 204/25/152 200/8/152
f 198/9/153 202/26/153 201/27/153 197/1/153
f 199/12/154 203/28/154 202/26/154 198/9/154
f 200/8/155 204/25/155 203/28/155 199/12/155
f 201/24/156 205/44/156 208/45/156 204/25/156
f 202/26/157 206/46/157 205/47/157 201/27/157
f 203/28/158 207/48/158 206/46/158 202/26/158
f 204/25/159 208/45/159 207/48/159 203/28/159
f 205/44/160 209/64/160 212/65/160 208/45/160
f 206/46/161 210/66/161 209/67/161 205/47/161
f 207/48/162 211/68/162 210/66/162 206/46/162
f 208/45/163 212/65/163 211/68/163 207/48/163
f 209/64/164 213/84/164 216/85/164 212/65/164
f 210/66/165 214/86/165 213/87/165 209/67/165
f 211/68/166 215/88/166 214/86/166 210/66/166
f 212/65/167 216/85/167 215/88/167 211/68/167
f 213/84/168 217/104/168 220/105/168 216/85/168
f 214/86/169 218/106/169 217/3/169 213/87/169
f 215/88/170 219/107/170 218/106/170 214/86/170
f 216/85/171 220/105/171 219/107/171 215/88/171
