# Blender 5.0.1
# www.blender.org
o RoofInnerBeams
v -5.000000 15.226567 0.125000 0.0000 0.0000 0.0000
v -5.000000 17.158970 0.125000 0.0000 0.0000 0.0000
v -5.000000 15.226567 -0.125000 0.0000 0.0000 0.0000
v -5.000000 17.158970 -0.125000 0.0000 0.0000 0.0000
v 0.429603 27.067928 0.125000 0.0000 0.0000 0.0000
v -0.281909 27.395674 0.125000 0.0000 0.0000 0.0000
v 0.429603 27.067928 -0.125000 0.0000 0.0000 0.0000
v -0.281909 27.395674 -0.125000 0.0000 0.0000 0.0000
v -3.447145 15.226567 3.623922 0.0000 0.0000 0.0000
v -3.447145 17.158970 3.623922 0.0000 0.0000 0.0000
v -3.623922 15.226567 3.447145 0.0000 0.0000 0.0000
v -3.623922 17.158970 3.447145 0.0000 0.0000 0.0000
v 0.392163 27.067928 -0.215387 0.0000 0.0000 0.0000
v -0.110951 27.395674 0.287728 0.0000 0.0000 0.0000
v 0.215387 27.067928 -0.392163 0.0000 0.0000 0.0000
v -0.287728 27.395674 0.110951 0.0000 0.0000 0.0000
v 0.125000 15.226567 5.000000 0.0000 0.0000 0.0000
v 0.125000 17.158970 5.000000 0.0000 0.0000 0.0000
v -0.125000 15.226567 5.000000 0.0000 0.0000 0.0000
v -0.125000 17.158970 5.000000 0.0000 0.0000 0.0000
v 0.125000 27.067928 -0.429603 0.0000 0.0000 0.0000
v 0.125000 27.395674 0.281909 0.0000 0.0000 0.0000
v -0.125000 27.067928 -0.429603 0.0000 0.0000 0.0000
v -0.125000 27.395674 0.281909 0.0000 0.0000 0.0000
v 3.623922 15.226567 3.447145 0.0000 0.0000 0.0000
v 3.623922 17.158970 3.447145 0.0000 0.0000 0.0000
v 3.447145 15.226567 3.623922 0.0000 0.0000 0.0000
v 3.447145 17.158970 3.623922 0.0000 0.0000 0.0000
v -0.215387 27.067928 -0.392163 0.0000 0.0000 0.0000
v 0.287728 27.395674 0.110951 0.0000 0.0000 0.0000
v -0.392163 27.067928 -0.215387 0.0000 0.0000 0.0000
v 0.110951 27.395674 0.287728 0.0000 0.0000 0.0000
v 5.000000 15.226567 -0.125000 0.0000 0.0000 0.0000
v 5.000000 17.158970 -0.125000 0.0000 0.0000 0.0000
v 5.000000 15.226567 0.125000 0.0000 0.0000 0.0000
v 5.000000 17.158970 0.125000 0.0000 0.0000 0.0000
v -0.429603 27.067928 -0.125000 0.0000 0.0000 0.0000
v 0.281909 27.395674 -0.125000 0.0000 0.0000 0.0000
v -0.429603 27.067928 0.125000 0.0000 0.0000 0.0000
v 0.281909 27.395674 0.125000 0.0000 0.0000 0.0000
v 3.447145 15.226567 -3.623923 0.0000 0.0000 0.0000
v 3.447145 17.158970 -3.623923 0.0000 0.0000 0.0000
v 3.623922 15.226567 -3.447146 0.0000 0.0000 0.0000
v 3.623922 17.158970 -3.447146 0.0000 0.0000 0.0000
v -0.392163 27.067928 0.215387 0.0000 0.0000 0.0000
v 0.110951 27.395674 -0.287728 0.0000 0.0000 0.0000
v -0.215386 27.067928 0.392164 0.0000 0.0000 0.0000
v 0.287728 27.395674 -0.110951 0.0000 0.0000 0.0000
v -0.125002 15.226567 -5.000000 0.0000 0.0000 0.0000
v -0.125002 17.158970 -5.000000 0.0000 0.0000 0.0000
v 0.124998 15.226567 -5.000000 0.0000 0.0000 0.0000
v 0.124998 17.158970 -5.000000 0.0000 0.0000 0.0000
v -0.125000 27.067928 0.429603 0.0000 0.0000 0.0000
v -0.125000 27.395674 -0.281908 0.0000 0.0000 0.0000
v 0.125000 27.067928 0.429603 0.0000 0.0000 0.0000
v 0.125000 27.395674 -0.281909 0.0000 0.0000 0.0000
v -3.623925 15.226567 -3.447143 0.0000 0.0000 0.0000
v -3.623925 17.158970 -3.447143 0.0000 0.0000 0.0000
v -3.447149 15.226567 -3.623919 0.0000 0.0000 0.0000
v -3.447149 17.158970 -3.623919 0.0000 0.0000 0.0000
v 0.215387 27.067928 0.392163 0.0000 0.0000 0.0000
v -0.287728 27.395674 -0.110951 0.0000 0.0000 0.0000
v 0.392164 27.067928 0.215386 0.0000 0.0000 0.0000
v -0.110951 27.395674 -0.287728 0.0000 0.0000 0.0000
v -3.447145 16.192768 3.623922 0.0000 0.0000 0.0000
v 0.140606 27.231802 0.036171 0.0000 0.0000 0.0000
v -3.623922 16.199585 3.447145 0.0000 0.0000 0.0000
v -0.037946 27.232958 -0.138831 0.0000 0.0000 0.0000
v -0.125000 16.192768 5.000000 0.0000 0.0000 0.0000
v -0.125000 27.231802 -0.073847 0.0000 0.0000 0.0000
v 0.125000 16.192768 5.000000 0.0000 0.0000 0.0000
v 0.125000 27.231802 -0.073847 0.0000 0.0000 0.0000
v 3.447145 16.192768 3.623922 0.0000 0.0000 0.0000
v -0.140606 27.231802 0.036171 0.0000 0.0000 0.0000
v 3.623922 16.192768 3.447145 0.0000 0.0000 0.0000
v 0.036171 27.231802 -0.140606 0.0000 0.0000 0.0000
v 5.000000 16.192768 -0.125000 0.0000 0.0000 0.0000
v -0.073847 27.231802 -0.125000 0.0000 0.0000 0.0000
v 5.000000 16.192768 0.125000 0.0000 0.0000 0.0000
v -0.073847 27.231802 0.125000 0.0000 0.0000 0.0000
v 3.623922 16.192768 -3.447146 0.0000 0.0000 0.0000
v 0.036171 27.231802 0.140606 0.0000 0.0000 0.0000
v 3.447145 16.192768 -3.623923 0.0000 0.0000 0.0000
v -0.140606 27.231802 -0.036170 0.0000 0.0000 0.0000
v 0.124998 16.192768 -5.000000 0.0000 0.0000 0.0000
v 0.125000 27.231802 0.073847 0.0000 0.0000 0.0000
v -0.125002 16.192768 -5.000000 0.0000 0.0000 0.0000
v -0.125000 27.231802 0.073847 0.0000 0.0000 0.0000
v -3.447149 16.192768 -3.623919 0.0000 0.0000 0.0000
v 0.140606 27.231802 -0.036171 0.0000 0.0000 0.0000
v -3.623925 16.188190 -3.447143 0.0000 0.0000 0.0000
v -0.034978 27.231024 0.141798 0.0000 0.0000 0.0000
v -5.000000 16.192768 -0.125000 0.0000 0.0000 0.0000
v 0.073847 27.231802 -0.125000 0.0000 0.0000 0.0000
v -5.000000 16.192768 0.125000 0.0000 0.0000 0.0000
v 0.073847 27.231802 0.125000 0.0000 0.0000 0.0000
vn -0.0000 -0.0000 -1.0000
vn -0.0000 -0.0000 1.0000
vn 0.9090 -0.4168 -0.0000
vn -0.7071 -0.0000 -0.7071
vn 0.7071 -0.0000 0.7071
vn 0.6428 -0.4168 -0.6428
vn -1.0000 -0.0000 -0.0000
vn 1.0000 -0.0000 -0.0000
vn -0.0000 -0.4168 -0.9090
vn -0.7071 -0.0000 0.7071
vn 0.7071 -0.0000 -0.7071
vn -0.6428 -0.4168 -0.6428
vn -0.9090 -0.4168 -0.0000
vn -0.6428 -0.4168 0.6428
vn -0.0000 -0.4168 0.9090
vn 0.6428 -0.4168 0.6428
vt 0.545865 -4.617064
vt 0.955325 -3.734130
vt 0.981971 7.619849
vt 0.587428 7.620862
vt -0.566442 7.620862
vt -0.960985 7.619849
vt -0.934340 -3.734127
vt -0.524880 -4.617063
vt 0.136406 -5.500000
vt 0.136406 7.621876
vt -0.115420 7.621876
vt -0.115420 -5.500000
vt 0.548755 -4.610835
vt 0.590212 7.620855
vt 0.545865 -4.617065
vt -0.564572 7.620867
vt -0.522940 -4.621247
vt -0.171899 7.621875
vt 0.192885 7.621876
s 0
f 93/1/1 4/2/1 8/3/1 94/4/1
f 96/5/2 6/6/2 2/7/2 95/8/2
f 3/9/3 7/10/3 5/11/3 1/12/3
f 67/13/4 12/2/4 16/3/4 68/14/4
f 66/5/5 14/6/5 10/7/5 65/8/5
f 11/9/6 15/10/6 13/11/6 9/12/6
f 69/1/7 20/2/7 24/3/7 70/4/7
f 72/5/8 22/6/8 18/7/8 71/8/8
f 19/9/9 23/10/9 21/11/9 17/12/9
f 73/1/10 28/2/10 32/3/10 74/4/10
f 76/5/11 30/6/11 26/7/11 75/8/11
f 27/9/12 31/10/12 29/11/12 25/12/12
f 79/1/2 36/2/2 40/3/2 80/4/2
f 78/5/1 38/6/1 34/7/1 77/8/1
f 35/9/13 39/10/13 37/11/13 33/12/13
f 81/1/5 44/2/5 48/3/5 82/4/5
f 84/5/4 46/6/4 42/7/4 83/8/4
f 43/9/14 47/10/14 45/11/14 41/12/14
f 85/15/8 52/2/8 56/3/8 86/4/8
f 88/5/7 54/6/7 50/7/7 87/8/7
f 51/9/15 55/10/15 53/11/15 49/12/15
f 89/1/11 60/2/11 64/3/11 90/4/11
f 92/16/10 62/6/10 58/7/10 91/17/10
f 59/9/16 63/10/16 61/11/16 57/12/16
f 13/18/5 66/5/5 65/8/5 9/12/5
f 11/9/4 67/13/4 68/14/4 15/19/4
f 19/9/7 69/1/7 70/4/7 23/19/7
f 21/18/8 72/5/8 71/8/8 17/12/8
f 27/9/10 73/1/10 74/4/10 31/19/10
f 29/18/11 76/5/11 75/8/11 25/12/11
f 37/18/1 78/5/1 77/8/1 33/12/1
f 35/9/2 79/1/2 80/4/2 39/19/2
f 43/9/5 81/1/5 82/4/5 47/19/5
f 45/18/4 84/5/4 83/8/4 41/12/4
f 51/9/8 85/15/8 86/4/8 55/19/8
f 53/18/7 88/5/7 87/8/7 49/12/7
f 59/9/11 89/1/11 90/4/11 63/19/11
f 61/18/10 92/16/10 91/17/10 57/12/10
f 3/9/1 93/1/1 94/4/1 7/19/1
f 5/18/2 96/5/2 95/8/2 1/12/2
