# Blender 5.0.1
# www.blender.org
o StairCollision
v 2.777854 -9.000000 4.157345
v 0.975456 -10.000000 4.903925
v 4.157351 -8.000000 2.777847
v 4.903926 -6.000000 -0.975456
v 4.157346 -5.000000 -2.777855
v 4.903927 -7.000000 0.975447
v 1.666713 -9.000000 2.494408
v 2.494411 -8.000000 1.666709
v 2.942356 -6.000000 -0.585274
v 2.494408 -5.000000 -1.666713
v 2.942358 -7.000000 0.585269
v 2.777854 -9.150000 4.157345
v 0.975456 -10.150000 4.903925
v 4.157351 -8.150000 2.777847
v 4.903927 -7.150000 0.975447
v 4.903926 -6.150000 -0.975456
v 4.157346 -5.150000 -2.777855
v 1.666713 -9.150000 2.494408
v 2.494411 -8.150000 1.666709
v 2.942358 -7.150000 0.585269
v 2.942356 -6.150000 -0.585274
v 2.494408 -5.150000 -1.666713
v -4.903926 -14.000000 0.975455
v -4.903928 -15.000000 -0.975449
v -4.157347 -13.000000 2.777855
v -0.975448 -11.000000 4.903928
v -2.777848 -12.000000 4.157350
v -2.942357 -14.000000 0.585273
v -2.494408 -13.000000 1.666713
v -0.585269 -11.000000 2.942356
v 0.585274 -10.000000 2.942355
v -1.666710 -12.000000 2.494411
v -4.903926 -14.150000 0.975455
v -4.903928 -15.150000 -0.975449
v -4.157347 -13.150000 2.777855
v -2.777848 -12.150000 4.157350
v -0.975448 -11.150000 4.903928
v -2.942357 -14.150000 0.585273
v -2.942357 -15.150000 -0.585270
v -2.494408 -13.150000 1.666713
v -1.666710 -12.150000 2.494411
v -0.585269 -11.150000 2.942356
v 0.585274 -10.150000 2.942355
v 0.975448 -19.000000 -4.903929
v -0.975456 -18.000000 -4.903928
v -4.157351 -16.000000 -2.777849
v -2.777855 -17.000000 -4.157348
v 0.585269 -19.000000 -2.942358
v -0.585273 -18.000000 -2.942358
v -2.494411 -16.000000 -1.666711
v -2.942357 -15.000000 -0.585270
v -1.666713 -17.000000 -2.494410
v 0.975448 -19.150000 -4.903929
v -0.975456 -18.150000 -4.903928
v -2.777855 -17.150000 -4.157348
v -4.157351 -16.150000 -2.777849
v 0.585269 -19.150000 -2.942358
v -0.585273 -18.150000 -2.942358
v -1.666713 -17.150000 -2.494410
v -2.494411 -16.150000 -1.666711
v 4.157353 -24.000000 2.777843
v 2.777860 -25.000000 4.157342
v 4.903930 -23.000000 0.975441
v 4.157344 -21.000000 -2.777860
v 2.777846 -20.000000 -4.157353
v 4.903925 -22.000000 -0.975461
v 2.494413 -24.000000 1.666706
v 1.666716 -25.000000 2.494405
v 2.942358 -23.000000 0.585265
v 2.494407 -21.000000 -1.666716
v 1.666708 -20.000000 -2.494412
v 2.942357 -22.000000 -0.585277
v 4.157353 -24.150000 2.777843
v 2.777860 -25.150000 4.157342
v 4.903930 -23.150000 0.975441
v 4.903925 -22.150000 -0.975461
v 4.157344 -21.150000 -2.777860
v 2.777846 -20.150000 -4.157353
v 2.494413 -24.150000 1.666706
v 1.666716 -25.150000 2.494405
v 2.942358 -23.150000 0.585265
v 2.942357 -22.150000 -0.585277
v 2.494407 -21.150000 -1.666716
v 1.666708 -20.150000 -2.494412
v 4.903927 1.000000 -0.975453
v 4.903927 0.000000 0.975450
v 4.157349 2.000000 -2.777853
v 0.975452 4.000000 -4.903928
v -0.975451 5.000000 -4.903928
v 2.777852 3.000000 -4.157350
v 2.942357 1.000000 -0.585272
v 2.942357 0.000000 0.585270
v 2.494410 2.000000 -1.666712
v 0.585272 4.000000 -2.942357
v -0.585271 5.000000 -2.942357
v 1.666712 3.000000 -2.494411
v 4.903927 0.850000 -0.975453
v 4.903927 -0.150000 0.975450
v 4.157349 1.850000 -2.777853
v 2.777852 2.850000 -4.157350
v 0.975452 3.850000 -4.903928
v -0.975451 4.850000 -4.903928
v 2.942357 0.850000 -0.585272
v 2.942357 -0.150000 0.585270
v 2.494410 1.850000 -1.666712
v 1.666712 2.850000 -2.494411
v 0.585272 3.850000 -2.942357
v -0.585271 4.850000 -2.942357
v -4.903927 6.000000 -0.975452
v -4.157349 5.000000 -2.777852
v -4.903927 7.000000 0.975452
v -2.777852 9.000000 4.157348
v -0.975452 10.000000 4.903926
v -4.157349 8.000000 2.777851
v -2.942357 6.000000 -0.585272
v -2.494410 5.000000 -1.666712
v -2.942357 7.000000 0.585270
v -1.666711 9.000000 2.494408
v -0.585271 10.000000 2.942355
v -2.494411 8.000000 1.666710
v -4.903927 5.850000 -0.975452
v -4.157349 4.850000 -2.777852
v -4.903927 6.850000 0.975452
v -4.157349 7.850000 2.777851
v -2.777852 8.850000 4.157348
v -0.975452 9.850000 4.903926
v -2.942357 5.850000 -0.585272
v -2.494410 4.850000 -1.666712
v -2.942357 6.850000 0.585270
v -2.494411 7.850000 1.666710
v -1.666711 8.850000 2.494408
v -0.585271 9.850000 2.942355
v 4.157349 11.000000 2.777851
v 2.777852 10.000000 4.157348
v 4.903928 12.000000 0.975451
v 4.157350 14.000000 -2.777853
v 2.777852 15.000000 -4.157350
v 4.903927 13.000000 -0.975453
v 2.494410 11.000000 1.666711
v 1.666711 10.000000 2.494409
v 2.942357 12.000000 0.585271
v 2.494410 14.000000 -1.666712
v 1.666711 15.000000 -2.494410
v 2.942358 13.000000 -0.585271
v 4.157349 10.850000 2.777851
v 2.777852 9.850000 4.157348
v 4.903928 11.850000 0.975451
v 4.903927 12.850000 -0.975453
v 4.157350 13.850000 -2.777853
v 2.777852 14.850000 -4.157350
v 2.494410 10.850000 1.666711
v 1.666711 9.850000 2.494409
v 2.942357 11.850000 0.585271
v 2.942358 12.850000 -0.585271
v 2.494410 13.850000 -1.666712
v 1.666711 14.850000 -2.494410
v -0.975452 -4.000000 -4.903928
v 0.975451 -5.000000 -4.903928
v -2.777852 -3.000000 -4.157350
v -4.903927 -1.000000 -0.975453
v -4.903927 0.000000 0.975451
v -4.157349 -2.000000 -2.777853
v -0.585271 -4.000000 -2.942358
v 0.585271 -5.000000 -2.942358
v -1.666711 -3.000000 -2.494411
v -2.942356 -1.000000 -0.585273
v -2.942356 0.000000 0.585270
v -2.494410 -2.000000 -1.666713
v -0.975452 -4.150000 -4.903928
v 0.975451 -5.150000 -4.903928
v -2.777852 -3.150000 -4.157350
v -4.157349 -2.150000 -2.777853
v -4.903927 -1.150000 -0.975453
v -4.903927 -0.150000 0.975451
v -0.585271 -4.150000 -2.942358
v 0.585271 -5.150000 -2.942358
v -1.666711 -3.150000 -2.494411
v -2.494410 -2.150000 -1.666713
v -2.942356 -1.150000 -0.585273
v -2.942356 -0.150000 0.585270
vn -0.0000 0.8420 0.5395
vn -0.2065 0.8420 0.4984
vn -0.3815 0.8420 0.3815
vn -0.4984 0.8420 0.2065
vn 0.2065 0.8420 0.4984
vn -0.0000 -0.8420 -0.5395
vn 0.2065 -0.8420 -0.4984
vn 0.3815 -0.8420 -0.3815
vn 0.4984 -0.8420 -0.2065
vn -0.2065 -0.8420 -0.4984
vn 0.3827 -0.0000 0.9239
vn -0.9239 -0.0000 -0.3827
vn 0.9239 -0.0000 -0.3827
vn 0.7071 -0.0000 0.7071
vn -1.0000 -0.0000 -0.0000
vn -0.9808 -0.0000 0.1951
vn -0.3827 -0.0000 -0.9239
vn 0.9239 -0.0000 0.3827
vn -0.9239 -0.0000 0.3827
vn -0.7071 -0.0000 -0.7071
vn 1.0000 -0.0000 -0.0000
vn -0.5556 -0.0000 -0.8315
vn -0.4984 0.8420 -0.2065
vn -0.3815 0.8420 -0.3815
vn -0.2065 0.8420 -0.4984
vn -0.0000 0.8420 -0.5395
vn -0.5395 0.8420 -0.0000
vn 0.4984 -0.8420 0.2065
vn 0.3815 -0.8420 0.3815
vn 0.2065 -0.8420 0.4984
vn -0.0000 -0.8420 0.5395
vn 0.5395 -0.8420 -0.0000
vn 0.7071 -0.0000 -0.7071
vn -0.0000 -0.0000 1.0000
vn 0.3827 -0.0000 -0.9239
vn 0.1951 -0.0000 -0.9808
vn -0.7071 -0.0000 0.7071
vn -0.0000 -0.0000 -1.0000
vn -0.3827 -0.0000 0.9239
vn 0.3815 0.8420 -0.3815
vn 0.4984 0.8420 -0.2065
vn 0.5395 0.8420 -0.0000
vn 0.4984 0.8420 0.2065
vn 0.2065 0.8420 -0.4984
vn -0.3815 -0.8420 0.3815
vn -0.4984 -0.8420 0.2065
vn -0.5395 -0.8420 -0.0000
vn -0.4984 -0.8420 -0.2065
vn -0.2065 -0.8420 0.4984
vn 0.3815 0.8420 0.3815
vn -0.3815 -0.8420 -0.3815
vn -0.8315 -0.0000 0.5556
vn -0.8315 -0.0000 -0.5556
vn -0.1951 -0.0000 0.9808
vn 0.5556 -0.0000 -0.8315
vn 0.9808 -0.0000 0.1951
vn 0.1951 -0.0000 0.9808
vt 26.707281 3.499403
vt 28.657804 4.499203
vt 27.928854 4.499203
vt 26.810123 3.499403
vt 29.622166 2.499601
vt 31.572701 3.499404
vt 29.873646 2.499601
vt 30.922581 1.499798
vt 32.873108 2.499601
vt 31.298710 1.499798
vt 30.113647 0.499998
vt 32.064167 1.499799
vt 30.503750 0.499997
vt 22.918690 4.499206
vt 24.869194 5.499007
vt 24.479092 5.499007
vt 23.308790 4.499206
vt 26.641365 3.454427
vt 26.742416 3.456625
vt 27.869492 4.446152
vt 28.585470 4.462126
vt 29.665983 2.454626
vt 29.885130 2.456824
vt 26.972683 3.446351
vt 31.500364 3.462326
vt 30.923407 1.454822
vt 31.279173 1.457020
vt 29.949261 2.446550
vt 32.800774 2.462524
vt 30.056223 0.455022
vt 30.442177 0.457220
vt 31.256527 1.446747
vt 31.991833 1.462722
vt 22.851416 4.454229
vt 23.240108 4.456428
vt 24.416994 5.445956
vt 24.796862 5.461930
vt 30.056223 0.455022
vt 26.972681 3.446351
vt 29.885136 2.456824
vt 30.923405 1.454822
vt 32.800774 2.462524
vt 27.869493 4.446152
vt 26.742420 3.456625
vt 30.442175 0.457220
vt 31.256529 1.446747
vt 31.500366 3.462327
vt 24.416992 5.445955
vt 31.279175 1.457020
vt 28.585468 4.462126
s 0
f 6/1/1 4/2/1 9/3/1 11/4/1
f 3/5/2 6/6/2 11/4/2 8/7/2
f 1/8/3 3/9/3 8/7/3 7/10/3
f 2/11/4 1/12/4 7/10/4 31/13/4
f 4/14/5 5/15/5 10/16/5 9/17/5
f 15/18/6 20/19/6 21/20/6 16/21/6
f 14/22/7 19/23/7 20/24/7 15/25/7
f 12/26/8 18/27/8 19/28/8 14/29/8
f 13/30/9 43/31/9 18/32/9 12/33/9
f 16/34/10 21/35/10 22/36/10 17/37/10
f 2/11/11 13/38/11 12/33/11 1/12/11
f 11/4/12 20/39/12 19/40/12 8/7/12
f 4/14/13 16/34/13 17/37/13 5/15/13
f 1/8/14 12/41/14 14/42/14 3/9/14
f 9/3/15 21/43/15 20/44/15 11/4/15
f 31/13/16 43/45/16 13/38/16 2/11/16
f 7/10/17 18/46/17 43/45/17 31/13/17
f 3/5/18 14/22/18 15/47/18 6/6/18
f 10/16/19 22/48/19 21/35/19 9/17/19
f 8/7/20 19/28/20 18/49/20 7/10/20
f 6/1/21 15/18/21 16/50/21 4/2/21
f 5/15/22 17/37/22 22/48/22 10/16/22
f 27/1/23 26/2/23 30/3/23 32/4/23
f 25/5/24 27/6/24 32/4/24 29/7/24
f 23/8/25 25/9/25 29/7/25 28/10/25
f 24/11/26 23/12/26 28/10/26 51/13/26
f 26/14/27 2/15/27 31/16/27 30/17/27
f 36/18/28 41/19/28 42/20/28 37/21/28
f 35/22/29 40/23/29 41/24/29 36/25/29
f 33/26/30 38/27/30 40/28/30 35/29/30
f 34/30/31 39/31/31 38/32/31 33/33/31
f 37/34/32 42/35/32 43/36/32 13/37/32
f 24/11/15 34/38/15 33/33/15 23/12/15
f 32/4/33 41/39/33 40/40/33 29/7/33
f 26/14/34 37/34/34 13/37/34 2/15/34
f 23/8/19 33/41/19 35/42/19 25/9/19
f 30/3/35 42/43/35 41/44/35 32/4/35
f 51/13/36 39/45/36 34/38/36 24/11/36
f 28/10/21 38/46/21 39/45/21 51/13/21
f 25/5/37 35/22/37 36/47/37 27/6/37
f 31/16/38 43/48/38 42/35/38 30/17/38
f 29/7/13 40/28/13 38/49/13 28/10/13
f 27/1/39 36/18/39 37/50/39 26/2/39
f 47/1/40 46/2/40 50/3/40 52/4/40
f 45/5/41 47/6/41 52/4/41 49/7/41
f 44/8/42 45/9/42 49/7/42 48/10/42
f 65/11/43 44/12/43 48/10/43 71/13/43
f 46/14/44 24/15/44 51/16/44 50/17/44
f 55/18/45 59/19/45 60/20/45 56/21/45
f 54/22/46 58/23/46 59/24/46 55/25/46
f 53/26/47 57/27/47 58/28/47 54/29/47
f 78/30/48 84/31/48 57/32/48 53/33/48
f 56/34/49 60/35/49 39/36/49 34/37/49
f 65/11/35 78/38/35 53/33/35 44/12/35
f 52/4/11 59/39/11 58/40/11 49/7/11
f 46/14/12 56/34/12 34/37/12 24/15/12
f 44/8/38 53/41/38 54/42/38 45/9/38
f 50/3/14 60/43/14 59/44/14 52/4/14
f 48/10/39 57/46/39 84/45/39 71/13/39
f 45/5/17 54/22/17 55/47/17 47/6/17
f 51/16/18 39/48/18 60/35/18 50/17/18
f 49/7/34 58/28/34 57/49/34 48/10/34
f 47/1/20 55/18/20 56/50/20 46/2/20
f 66/1/5 64/2/5 70/3/5 72/4/5
f 63/5/1 66/6/1 72/4/1 69/7/1
f 61/8/2 63/9/2 69/7/2 67/10/2
f 62/11/3 61/12/3 67/10/3 68/13/3
f 64/14/50 65/15/50 71/16/50 70/17/50
f 76/18/10 82/19/10 83/20/10 77/21/10
f 75/22/6 81/23/6 82/24/6 76/25/6
f 73/26/7 79/27/7 81/28/7 75/29/7
f 74/30/8 80/31/8 79/32/8 73/33/8
f 77/34/51 83/35/51 84/36/51 78/37/51
f 62/11/14 74/38/14 73/33/14 61/12/14
f 72/4/15 82/39/15 81/40/15 69/7/15
f 64/14/33 77/34/33 78/37/33 65/15/33
f 61/8/18 73/41/18 75/42/18 63/9/18
f 70/3/19 83/43/19 82/44/19 72/4/19
f 68/13/52 80/45/52 74/38/52 62/11/52
f 67/10/20 79/46/20 80/45/20 68/13/20
f 63/5/21 75/22/21 76/47/21 66/6/21
f 71/16/37 84/48/37 83/35/37 70/17/37
f 69/7/12 81/28/12 79/49/12 67/10/12
f 66/1/13 76/18/13 77/50/13 64/2/13
f 65/15/53 78/37/53 84/48/53 71/16/53
f 90/1/43 88/2/43 94/3/43 96/4/43
f 87/5/50 90/6/50 96/4/50 93/7/50
f 85/8/5 87/9/5 93/7/5 91/10/5
f 86/11/1 85/12/1 91/10/1 92/13/1
f 88/14/42 89/15/42 95/16/42 94/17/42
f 100/18/48 106/19/48 107/20/48 101/21/48
f 99/22/51 105/23/51 106/24/51 100/25/51
f 97/26/10 103/27/10 105/28/10 99/29/10
f 98/30/6 104/31/6 103/32/6 97/33/6
f 101/34/47 107/35/47 108/36/47 102/37/47
f 86/11/21 98/38/21 97/33/21 85/12/21
f 96/4/37 106/39/37 105/40/37 93/7/37
f 88/14/38 101/34/38 102/37/38 89/15/38
f 85/8/13 97/41/13 99/42/13 87/9/13
f 94/3/39 107/43/39 106/44/39 96/4/39
f 92/13/54 104/45/54 98/38/54 86/11/54
f 91/10/15 103/46/15 104/45/15 92/13/15
f 87/5/33 99/22/33 100/47/33 90/6/33
f 95/16/34 108/48/34 107/35/34 94/17/34
f 93/7/19 105/28/19 103/49/19 91/10/19
f 90/1/35 100/18/35 101/50/35 88/2/35
f 89/15/16 102/37/16 108/48/16 95/16/16
f 114/1/24 112/2/24 118/3/24 120/4/24
f 111/5/25 114/6/25 120/4/25 117/7/25
f 109/8/26 111/9/26 117/7/26 115/10/26
f 110/11/44 109/12/44 115/10/44 116/13/44
f 112/14/23 113/15/23 119/16/23 118/17/23
f 124/18/29 130/19/29 131/20/29 125/21/29
f 123/22/30 129/23/30 130/24/30 124/25/30
f 121/26/31 127/27/31 129/28/31 123/29/31
f 122/30/49 128/31/49 127/32/49 121/33/49
f 125/34/28 131/35/28 132/36/28 126/37/28
f 110/11/12 122/38/12 121/33/12 109/12/12
f 120/4/13 130/39/13 129/40/13 117/7/13
f 112/14/39 125/34/39 126/37/39 113/15/39
f 109/8/15 121/41/15 123/42/15 111/9/15
f 118/3/33 131/43/33 130/44/33 120/4/33
f 116/13/55 128/45/55 122/38/55 110/11/55
f 115/10/18 127/46/18 128/45/18 116/13/18
f 111/5/19 123/22/19 124/47/19 114/6/19
f 119/16/35 132/48/35 131/35/35 118/17/35
f 117/7/21 129/28/21 127/49/21 115/10/21
f 114/1/37 124/18/37 125/50/37 112/2/37
f 113/15/56 126/37/56 132/48/56 119/16/56
f 138/1/5 136/2/5 142/3/5 144/4/5
f 135/5/1 138/6/1 144/4/1 141/7/1
f 133/8/2 135/9/2 141/7/2 139/10/2
f 134/11/3 133/12/3 139/10/3 140/13/3
f 136/14/50 137/15/50 143/16/50 142/17/50
f 148/18/10 154/19/10 155/20/10 149/21/10
f 147/22/6 153/23/6 154/24/6 148/25/6
f 145/26/7 151/27/7 153/28/7 147/29/7
f 146/30/8 152/31/8 151/32/8 145/33/8
f 149/34/51 155/35/51 156/36/51 150/37/51
f 134/11/14 146/38/14 145/33/14 133/12/14
f 144/4/15 154/39/15 153/40/15 141/7/15
f 136/14/33 149/34/33 150/37/33 137/15/33
f 133/8/18 145/41/18 147/42/18 135/9/18
f 142/3/19 155/43/19 154/44/19 144/4/19
f 140/13/52 152/45/52 146/38/52 134/11/52
f 139/10/20 151/46/20 152/45/20 140/13/20
f 135/5/21 147/22/21 148/47/21 138/6/21
f 143/16/37 156/48/37 155/35/37 142/17/37
f 141/7/12 153/28/12 151/49/12 139/10/12
f 138/1/13 148/18/13 149/50/13 136/2/13
f 137/15/53 150/37/53 156/48/53 143/16/53
f 162/1/44 160/2/44 166/3/44 168/4/44
f 159/5/40 162/6/40 168/4/40 165/7/40
f 157/8/41 159/9/41 165/7/41 163/10/41
f 158/11/42 157/12/42 163/10/42 164/13/42
f 160/14/26 161/15/26 167/16/26 166/17/26
f 172/18/49 178/19/49 179/20/49 173/21/49
f 171/22/45 177/23/45 178/24/45 172/25/45
f 169/26/46 175/27/46 177/28/46 171/29/46
f 170/30/47 176/31/47 175/32/47 169/33/47
f 173/34/31 179/35/31 180/36/31 174/37/31
f 158/11/38 170/38/38 169/33/38 157/12/38
f 168/4/14 178/39/14 177/40/14 165/7/14
f 160/14/15 173/34/15 174/37/15 161/15/15
f 157/8/17 169/41/17 171/42/17 159/9/17
f 166/3/18 179/43/18 178/44/18 168/4/18
f 164/13/56 176/45/56 170/38/56 158/11/56
f 163/10/34 175/46/34 176/45/34 164/13/34
f 159/5/20 171/22/20 172/47/20 162/6/20
f 167/16/21 180/48/21 179/35/21 166/17/21
f 165/7/11 177/28/11 175/49/11 163/10/11
f 162/1/12 172/18/12 173/50/12 160/2/12
f 161/15/57 174/37/57 180/48/57 167/16/57
