# Blender 5.0.1
# www.blender.org
o Plane
v -0.000000 1.500000 1.500000
v 0.000000 0.000000 1.500000
v -0.000000 1.500000 -1.500000
v 0.000000 0.000000 -1.500000
vn 1.0000 -0.0000 -0.0000
vt 2.999823 0.000106
vt 2.999824 1.499894
vt 0.000248 1.499894
vt 0.000247 0.000106
s 0
f 1/1/1 2/2/1 4/3/1 3/4/1
o Plane.002
v 0.010000 1.500000 1.500000
v -0.000000 1.507071 1.507071
v -0.010000 1.500000 1.500000
v -0.000000 1.492929 1.492929
v 0.010000 0.000000 1.500000
v 0.000000 -0.007071 1.507071
v -0.010000 0.000000 1.500000
v 0.000000 0.007071 1.492929
v 0.010000 0.000000 -1.500000
v 0.000000 -0.007071 -1.507071
v -0.010000 0.000000 -1.500000
v 0.000000 0.007071 -1.492929
v 0.010000 1.500000 -1.500000
v -0.000000 1.507071 -1.507071
v -0.010000 1.500000 -1.500000
v -0.000000 1.492929 -1.492929
vn 0.5773 -0.0000 -0.8165
vn 0.5773 -0.0000 0.8165
vn -0.5773 -0.0000 0.8165
vn -0.5773 -0.0000 -0.8165
vn 0.5774 0.8165 -0.0000
vn 0.5773 -0.8165 -0.0000
vn -0.5773 -0.8165 -0.0000
vn -0.5774 0.8165 -0.0000
vn 0.5774 -0.8165 -0.0000
vn -0.5774 -0.8165 -0.0000
vt 0.628141 1.242768
vt -0.120659 1.243596
vt -0.115829 1.238618
vt 0.623411 1.238004
vt 0.632887 1.247548
vt -0.125504 1.248591
vt 0.634134 1.248855
vt -0.126741 1.249893
vt -0.114550 1.237180
vt 0.622233 1.236775
vt -0.120749 -0.242769
vt -0.116019 -0.238004
vt -0.125495 -0.247548
vt -0.126741 -0.248855
vt -0.114841 -0.236775
vt 0.628051 -0.243596
vt 0.623222 -0.238618
vt 0.632896 -0.248591
vt 0.634134 -0.249893
vt 0.621942 -0.237180
s 0
f 5/5/2 9/6/2 12/7/2 8/8/2
f 6/9/3 10/10/3 9/6/3 5/5/3
f 7/11/4 11/12/4 10/10/4 6/9/4
f 8/8/5 12/7/5 11/13/5 7/14/5
f 9/6/6 13/15/6 16/16/6 12/7/6
f 10/10/7 14/17/7 13/15/7 9/6/7
f 11/12/8 15/18/8 14/17/8 10/10/8
f 12/7/9 16/16/9 15/19/9 11/13/9
f 13/15/3 17/20/3 20/21/3 16/16/3
f 14/17/2 18/22/2 17/20/2 13/15/2
f 15/18/5 19/23/5 18/22/5 14/17/5
f 16/16/4 20/21/4 19/24/4 15/19/4
f 17/20/10 5/5/10 8/8/10 20/21/10
f 18/22/6 6/9/6 5/5/6 17/20/6
f 19/23/9 7/11/9 6/9/9 18/22/9
f 20/21/11 8/8/11 7/14/11 19/24/11
