# Blender 5.0.1
# www.blender.org
o ClockFrame
v 0.268750 0.000000 0.000000
v 0.266238 0.009375 0.000000
v 0.259375 0.016238 0.000000
v 0.250000 0.018750 0.000000
v 0.240625 0.016238 0.000000
v 0.233762 0.009375 0.000000
v 0.231250 0.000000 0.000000
v 0.232744 0.000000 -0.134375
v 0.230569 0.009375 -0.133119
v 0.224625 0.016238 -0.129688
v 0.216506 0.018750 -0.125000
v 0.208387 0.016238 -0.120313
v 0.202444 0.009375 -0.116881
v 0.200268 0.000000 -0.115625
v 0.134375 0.000000 -0.232744
v 0.133119 0.009375 -0.230569
v 0.129687 0.016238 -0.224625
v 0.125000 0.018750 -0.216506
v 0.120312 0.016238 -0.208387
v 0.116881 0.009375 -0.202444
v 0.115625 0.000000 -0.200268
v 0.000000 0.000000 -0.268750
v 0.000000 0.009375 -0.266238
v 0.000000 0.016238 -0.259375
v 0.000000 0.018750 -0.250000
v 0.000000 0.016238 -0.240625
v 0.000000 0.009375 -0.233762
v 0.000000 0.000000 -0.231250
v -0.134375 0.000000 -0.232744
v -0.133119 0.009375 -0.230569
v -0.129687 0.016238 -0.224625
v -0.125000 0.018750 -0.216506
v -0.120312 0.016238 -0.208387
v -0.116881 0.009375 -0.202444
v -0.115625 0.000000 -0.200268
v -0.232744 0.000000 -0.134375
v -0.230569 0.009375 -0.133119
v -0.224625 0.016238 -0.129688
v -0.216506 0.018750 -0.125000
v -0.208387 0.016238 -0.120313
v -0.202444 0.009375 -0.116881
v -0.200268 0.000000 -0.115625
v -0.268750 0.000000 -0.000000
v -0.266238 0.009375 -0.000000
v -0.259375 0.016238 -0.000000
v -0.250000 0.018750 -0.000000
v -0.240625 0.016238 -0.000000
v -0.233762 0.009375 -0.000000
v -0.231250 0.000000 -0.000000
v -0.232744 0.000000 0.134375
v -0.230569 0.009375 0.133119
v -0.224625 0.016238 0.129687
v -0.216506 0.018750 0.125000
v -0.208387 0.016238 0.120312
v -0.202444 0.009375 0.116881
v -0.200268 0.000000 0.115625
v -0.134375 0.000000 0.232744
v -0.133119 0.009375 0.230569
v -0.129687 0.016238 0.224625
v -0.125000 0.018750 0.216506
v -0.120312 0.016238 0.208387
v -0.116881 0.009375 0.202444
v -0.115625 0.000000 0.200268
v 0.000000 0.000000 0.268750
v 0.000000 0.009375 0.266238
v 0.000000 0.016238 0.259375
v 0.000000 0.018750 0.250000
v 0.000000 0.016238 0.240625
v 0.000000 0.009375 0.233762
v 0.000000 0.000000 0.231250
v 0.134375 0.000000 0.232744
v 0.133119 0.009375 0.230569
v 0.129687 0.016238 0.224625
v 0.125000 0.018750 0.216506
v 0.120312 0.016238 0.208387
v 0.116881 0.009375 0.202444
v 0.115625 0.000000 0.200268
v 0.232744 0.000000 0.134375
v 0.230569 0.009375 0.133119
v 0.224625 0.016238 0.129688
v 0.216506 0.018750 0.125000
v 0.208387 0.016238 0.120313
v 0.202444 0.009375 0.116881
v 0.200268 0.000000 0.115625
vn 0.9659 0.2588 -0.0000
vn 0.8760 0.4823 -0.0000
vn 0.5309 0.8474 -0.0000
vn 0.0431 0.9991 -0.0000
vn -0.4664 0.8846 -0.0000
vn -0.8545 0.5194 -0.0000
vn -0.9659 0.2588 -0.0000
vn 0.8365 0.2588 -0.4830
vn 0.7586 0.4823 -0.4380
vn 0.4598 0.8474 -0.2655
vn 0.0373 0.9991 -0.0215
vn -0.4039 0.8846 0.2332
vn -0.7400 0.5194 0.4273
vn -0.8365 0.2588 0.4830
vn 0.4830 0.2588 -0.8365
vn 0.4380 0.4823 -0.7586
vn 0.2655 0.8474 -0.4598
vn 0.0215 0.9991 -0.0373
vn -0.2332 0.8846 0.4039
vn -0.4273 0.5194 0.7400
vn -0.4830 0.2588 0.8365
vn -0.0000 0.2588 -0.9659
vn -0.0000 0.4823 -0.8760
vn -0.0000 0.8474 -0.5309
vn -0.0000 0.9991 -0.0431
vn -0.0000 0.8846 0.4664
vn -0.0000 0.5194 0.8545
vn -0.0000 0.2588 0.9659
vn -0.4830 0.2588 -0.8365
vn -0.4380 0.4823 -0.7586
vn -0.2655 0.8474 -0.4598
vn -0.0215 0.9991 -0.0373
vn 0.2332 0.8846 0.4039
vn 0.4273 0.5194 0.7400
vn 0.4830 0.2588 0.8365
vn -0.8365 0.2588 -0.4830
vn -0.7586 0.4823 -0.4380
vn -0.4598 0.8474 -0.2655
vn -0.0373 0.9991 -0.0215
vn 0.4039 0.8846 0.2332
vn 0.7400 0.5194 0.4273
vn 0.8365 0.2588 0.4830
vn -0.8760 0.4823 -0.0000
vn -0.5309 0.8474 -0.0000
vn -0.0431 0.9991 -0.0000
vn 0.4664 0.8846 -0.0000
vn 0.8545 0.5194 -0.0000
vn -0.7586 0.4823 0.4380
vn -0.4598 0.8474 0.2655
vn -0.0373 0.9991 0.0215
vn 0.4039 0.8846 -0.2332
vn 0.7400 0.5194 -0.4273
vn -0.4380 0.4823 0.7586
vn -0.2655 0.8474 0.4598
vn -0.0215 0.9991 0.0373
vn 0.2332 0.8846 -0.4039
vn 0.4273 0.5194 -0.7400
vn -0.0000 0.4823 0.8760
vn -0.0000 0.8474 0.5309
vn -0.0000 0.9991 0.0431
vn -0.0000 0.8846 -0.4664
vn -0.0000 0.5194 -0.8545
vn 0.4380 0.4823 0.7586
vn 0.2655 0.8474 0.4598
vn 0.0215 0.9991 0.0373
vn -0.2332 0.8846 -0.4039
vn -0.4273 0.5194 -0.7400
vn 0.7586 0.4823 0.4380
vn 0.4598 0.8474 0.2655
vn 0.0373 0.9991 0.0215
vn -0.4039 0.8846 -0.2332
vn -0.7400 0.5194 -0.4273
vt 0.982054 0.372119
vt 0.986025 0.638100
vt 0.967409 0.633592
vt 0.963495 0.377239
vt 0.949292 0.629069
vt 0.945318 0.382114
vt 0.931723 0.624664
vt 0.927988 0.386748
vt 0.914878 0.620470
vt 0.910791 0.391289
vt 0.898023 0.616265
vt 0.893702 0.395835
vt 0.881499 0.612200
vt 0.875102 0.400852
vt 0.856806 0.867691
vt 0.843104 0.854363
vt 0.829865 0.841269
vt 0.817204 0.828652
vt 0.804700 0.816223
vt 0.792500 0.804084
vt 0.779602 0.791707
vt 0.627624 0.999901
vt 0.622569 0.981399
vt 0.617788 0.963326
vt 0.613263 0.945954
vt 0.608865 0.928965
vt 0.604444 0.912074
vt 0.599597 0.894763
vt 0.362045 0.998063
vt 0.367002 0.979478
vt 0.371983 0.961394
vt 0.376833 0.944038
vt 0.381601 0.927073
vt 0.386311 0.910253
vt 0.390853 0.892763
vt 0.132405 0.863000
vt 0.146002 0.849342
vt 0.159375 0.836122
vt 0.172272 0.823464
vt 0.184906 0.811099
vt 0.197419 0.798826
vt 0.210122 0.785880
vt 0.000106 0.631194
vt 0.018695 0.626080
vt 0.036876 0.621231
vt 0.054367 0.616630
vt 0.071486 0.612149
vt 0.088455 0.607683
vt 0.105923 0.602719
vt 0.000099 0.364436
vt 0.018747 0.369201
vt 0.036911 0.373990
vt 0.054353 0.378650
vt 0.071413 0.383226
vt 0.088334 0.387737
vt 0.105936 0.392053
vt 0.132149 0.133555
vt 0.145905 0.146927
vt 0.159228 0.160075
vt 0.171990 0.172748
vt 0.184460 0.185153
vt 0.196841 0.197427
vt 0.209911 0.209865
vt 0.360923 0.000099
vt 0.366094 0.018521
vt 0.370999 0.036523
vt 0.375655 0.053827
vt 0.380190 0.070748
vt 0.384722 0.087419
vt 0.389761 0.104648
vt 0.625200 0.000099
vt 0.620224 0.018640
vt 0.615228 0.036659
vt 0.610444 0.053767
vt 0.605675 0.070627
vt 0.601023 0.087329
vt 0.596504 0.104663
vt 0.853008 0.136980
vt 0.839185 0.150475
vt 0.825597 0.163512
vt 0.812378 0.176127
vt 0.799530 0.188286
vt 0.786759 0.200413
vt 0.773789 0.213111
s 1
f 1/1/1 8/2/8 9/3/9 2/4/2
f 2/4/2 9/3/9 10/5/10 3/6/3
f 3/6/3 10/5/10 11/7/11 4/8/4
f 4/8/4 11/7/11 12/9/12 5/10/5
f 5/10/5 12/9/12 13/11/13 6/12/6
f 6/12/6 13/11/13 14/13/14 7/14/7
f 8/2/8 15/15/15 16/16/16 9/3/9
f 9/3/9 16/16/16 17/17/17 10/5/10
f 10/5/10 17/17/17 18/18/18 11/7/11
f 11/7/11 18/18/18 19/19/19 12/9/12
f 12/9/12 19/19/19 20/20/20 13/11/13
f 13/11/13 20/20/20 21/21/21 14/13/14
f 15/15/15 22/22/22 23/23/23 16/16/16
f 16/16/16 23/23/23 24/24/24 17/17/17
f 17/17/17 24/24/24 25/25/25 18/18/18
f 18/18/18 25/25/25 26/26/26 19/19/19
f 19/19/19 26/26/26 27/27/27 20/20/20
f 20/20/20 27/27/27 28/28/28 21/21/21
f 22/22/22 29/29/29 30/30/30 23/23/23
f 23/23/23 30/30/30 31/31/31 24/24/24
f 24/24/24 31/31/31 32/32/32 25/25/25
f 25/25/25 32/32/32 33/33/33 26/26/26
f 26/26/26 33/33/33 34/34/34 27/27/27
f 27/27/27 34/34/34 35/35/35 28/28/28
f 29/29/29 36/36/36 37/37/37 30/30/30
f 30/30/30 37/37/37 38/38/38 31/31/31
f 31/31/31 38/38/38 39/39/39 32/32/32
f 32/32/32 39/39/39 40/40/40 33/33/33
f 33/33/33 40/40/40 41/41/41 34/34/34
f 34/34/34 41/41/41 42/42/42 35/35/35
f 36/36/36 43/43/7 44/44/43 37/37/37
f 37/37/37 44/44/43 45/45/44 38/38/38
f 38/38/38 45/45/44 46/46/45 39/39/39
f 39/39/39 46/46/45 47/47/46 40/40/40
f 40/40/40 47/47/46 48/48/47 41/41/41
f 41/41/41 48/48/47 49/49/1 42/42/42
f 43/43/7 50/50/14 51/51/48 44/44/43
f 44/44/43 51/51/48 52/52/49 45/45/44
f 45/45/44 52/52/49 53/53/50 46/46/45
f 46/46/45 53/53/50 54/54/51 47/47/46
f 47/47/46 54/54/51 55/55/52 48/48/47
f 48/48/47 55/55/52 56/56/8 49/49/1
f 50/50/14 57/57/21 58/58/53 51/51/48
f 51/51/48 58/58/53 59/59/54 52/52/49
f 52/52/49 59/59/54 60/60/55 53/53/50
f 53/53/50 60/60/55 61/61/56 54/54/51
f 54/54/51 61/61/56 62/62/57 55/55/52
f 55/55/52 62/62/57 63/63/15 56/56/8
f 57/57/21 64/64/28 65/65/58 58/58/53
f 58/58/53 65/65/58 66/66/59 59/59/54
f 59/59/54 66/66/59 67/67/60 60/60/55
f 60/60/55 67/67/60 68/68/61 61/61/56
f 61/61/56 68/68/61 69/69/62 62/62/57
f 62/62/57 69/69/62 70/70/22 63/63/15
f 64/64/28 71/71/35 72/72/63 65/65/58
f 65/65/58 72/72/63 73/73/64 66/66/59
f 66/66/59 73/73/64 74/74/65 67/67/60
f 67/67/60 74/74/65 75/75/66 68/68/61
f 68/68/61 75/75/66 76/76/67 69/69/62
f 69/69/62 76/76/67 77/77/29 70/70/22
f 71/71/35 78/78/42 79/79/68 72/72/63
f 72/72/63 79/79/68 80/80/69 73/73/64
f 73/73/64 80/80/69 81/81/70 74/74/65
f 74/74/65 81/81/70 82/82/71 75/75/66
f 75/75/66 82/82/71 83/83/72 76/76/67
f 76/76/67 83/83/72 84/84/36 77/77/29
f 78/78/42 1/1/1 2/4/2 79/79/68
f 79/79/68 2/4/2 3/6/3 80/80/69
f 80/80/69 3/6/3 4/8/4 81/81/70
f 81/81/70 4/8/4 5/10/5 82/82/71
f 82/82/71 5/10/5 6/12/6 83/83/72
f 83/83/72 6/12/6 7/14/7 84/84/36
o ClockBed
v 0.231250 0.000000 0.000000
v 0.200268 0.000000 -0.115625
v 0.115625 0.000000 -0.200268
v 0.000000 0.000000 -0.231250
v -0.115625 0.000000 -0.200268
v -0.200268 0.000000 -0.115625
v -0.231250 0.000000 -0.000000
v -0.200268 0.000000 0.115625
v -0.115625 0.000000 0.200268
v 0.000000 0.000000 0.231250
v 0.115625 0.000000 0.200268
v 0.200268 0.000000 0.115625
vn -0.0000 1.0000 -0.0000
vt 0.968789 0.500000
vt 0.905983 0.734394
vt 0.734394 0.905983
vt 0.500000 0.968789
vt 0.265606 0.905983
vt 0.094017 0.734394
vt 0.031211 0.500000
vt 0.094017 0.265606
vt 0.265606 0.094017
vt 0.500000 0.031211
vt 0.734394 0.094017
vt 0.905983 0.265605
s 0
f 85/85/73 86/86/73 87/87/73 88/88/73 89/89/73 90/90/73 91/91/73 92/92/73 93/93/73 94/94/73 95/95/73 96/96/73
