# Blender 5.1.2
# www.blender.org
o Remnant_Table_1
v -0.450000 0.800000 0.950000
v 0.450000 0.800000 0.950000
v -0.400000 0.725000 0.900000
v 0.400000 0.725000 0.900000
v -0.450000 0.775000 0.950000
v 0.450000 0.775000 0.950000
v 0.320000 -0.000000 0.900000
v 0.400000 -0.000000 0.900000
v 0.320000 -0.000000 0.820000
v 0.400000 -0.000000 0.820000
v 0.320000 0.775000 0.900000
v 0.400000 0.775000 0.900000
v 0.320000 0.775000 0.820000
v 0.400000 0.775000 0.820000
v -0.400000 -0.000000 0.900000
v -0.320000 -0.000000 0.900000
v -0.400000 -0.000000 0.820000
v -0.320000 -0.000000 0.820000
v -0.400000 0.775000 0.900000
v -0.320000 0.775000 0.900000
v -0.400000 0.775000 0.820000
v -0.320000 0.775000 0.820000
v -0.450000 0.800000 0.080029
v -0.450000 0.775000 0.080029
v 0.400000 0.725000 -0.055253
v 0.450000 0.800000 -0.063211
v -0.400000 0.725000 0.072071
v 0.450000 0.775000 -0.063211
vn -0.0000 1.0000 -0.0000
vn -0.0000 -1.0000 -0.0000
vn -0.0000 -0.0000 1.0000
vn 1.0000 -0.0000 -0.0000
vn -0.7071 -0.7071 -0.0000
vn -0.0000 -0.7071 0.7071
vn -1.0000 -0.0000 -0.0000
vn -0.0000 -0.0000 -1.0000
vn 0.7071 -0.7071 -0.0000
vn -0.1572 -0.0000 -0.9876
vt 0.727472 0.025065
vt 0.277534 0.025065
vt 0.277534 0.531601
vt 0.727472 0.459991
vt 0.629630 0.050062
vt 0.629631 0.463969
vt 0.229686 0.527623
vt 0.229686 0.050062
vt 0.727472 0.012567
vt 0.277534 0.012567
vt 0.265036 0.025065
vt 0.265036 0.531601
vt 0.775321 0.050062
vt 0.739971 0.025065
vt 0.739971 0.459991
vt 0.775321 0.463969
vt 0.302531 0.055342
vt 0.702476 0.055342
vt 0.871395 0.492657
vt 0.831397 0.492657
vt 0.831397 0.532654
vt 0.871395 0.532654
vt 0.951390 0.532654
vt 0.911392 0.532654
vt 0.911392 0.920130
vt 0.951390 0.920130
vt 0.791400 0.532654
vt 0.791400 0.920130
vt 0.831397 0.920130
vt 0.871395 0.920130
vt 0.873856 0.049716
vt 0.833858 0.049716
vt 0.833858 0.089714
vt 0.873856 0.089714
vt 0.953851 0.089714
vt 0.913853 0.089714
vt 0.913853 0.477189
vt 0.953851 0.477189
vt 0.793861 0.089714
vt 0.793861 0.477189
vt 0.833858 0.477189
vt 0.873856 0.477189
vt 0.279499 0.543944
vt 0.729437 0.472334
vt 0.308424 0.564652
vt 0.708369 0.500998
s 0
f 1/1/1 2/2/1 26/3/1 23/4/1
f 3/5/2 27/6/2 25/7/2 4/8/2
f 1/1/3 5/9/3 6/10/3 2/2/3
f 2/2/4 6/11/4 28/12/4 26/3/4
f 3/13/5 5/14/5 24/15/5 27/16/5
f 4/17/6 6/10/6 5/9/6 3/18/6
f 7/19/2 9/20/2 10/21/2 8/22/2
f 9/23/7 7/24/7 11/25/7 13/26/7
f 10/21/8 9/27/8 13/28/8 14/29/8
f 7/24/3 8/22/3 12/30/3 11/25/3
f 8/22/4 10/21/4 14/29/4 12/30/4
f 15/31/2 17/32/2 18/33/2 16/34/2
f 17/35/7 15/36/7 19/37/7 21/38/7
f 18/33/8 17/39/8 21/40/8 22/41/8
f 15/36/3 16/34/3 20/42/3 19/37/3
f 16/34/4 18/33/4 22/41/4 20/42/4
f 25/7/9 28/12/9 6/11/9 4/8/9
f 23/4/7 24/15/7 5/14/7 1/1/7
f 28/43/10 24/44/10 23/4/10 26/3/10
f 28/43/10 25/45/10 27/46/10 24/44/10
o Remnant_Table_Collision
v 0.320000 -0.000000 0.900000
v 0.400000 -0.000000 0.900000
v 0.320000 -0.000000 0.820000
v 0.400000 -0.000000 0.820000
v 0.320000 0.775000 0.900000
v 0.400000 0.775000 0.900000
v 0.320000 0.775000 0.820000
v 0.400000 0.775000 0.820000
v -0.400000 -0.000000 0.900000
v -0.320000 -0.000000 0.900000
v -0.400000 -0.000000 0.820000
v -0.320000 -0.000000 0.820000
v -0.400000 0.775000 0.900000
v -0.320000 0.775000 0.900000
v -0.400000 0.775000 0.820000
v -0.320000 0.775000 0.820000
v 0.320000 -0.000000 -0.820000
v 0.400000 -0.000000 -0.820000
v 0.320000 -0.000000 -0.900000
v 0.400000 -0.000000 -0.900000
v 0.320000 0.775000 -0.820000
v 0.400000 0.775000 -0.820000
v 0.320000 0.775000 -0.900000
v 0.400000 0.775000 -0.900000
v -0.400000 -0.000000 -0.820000
v -0.320000 -0.000000 -0.820000
v -0.400000 -0.000000 -0.900000
v -0.320000 -0.000000 -0.900000
v -0.400000 0.775000 -0.820000
v -0.320000 0.775000 -0.820000
v -0.400000 0.775000 -0.900000
v -0.320000 0.775000 -0.900000
v -0.450000 0.800000 0.950000
v 0.450000 0.800000 0.950000
v -0.450000 0.800000 -0.950000
v 0.450000 0.800000 -0.950000
v -0.450000 0.725000 -0.950000
v -0.450000 0.725000 0.950000
v 0.450000 0.725000 0.950000
v 0.450000 0.725000 -0.950000
vn -0.0000 -1.0000 -0.0000
vn -1.0000 -0.0000 -0.0000
vn -0.0000 -0.0000 -1.0000
vn -0.0000 -0.0000 1.0000
vn 1.0000 -0.0000 -0.0000
vn -0.0000 1.0000 -0.0000
vt 0.871395 0.492657
vt 0.831397 0.492657
vt 0.831397 0.532654
vt 0.871395 0.532654
vt 0.951390 0.532654
vt 0.911392 0.532654
vt 0.911392 0.920130
vt 0.951390 0.920130
vt 0.791400 0.532654
vt 0.791400 0.920130
vt 0.831397 0.920130
vt 0.871395 0.920130
vt 0.873856 0.049716
vt 0.833858 0.049716
vt 0.833858 0.089714
vt 0.873856 0.089714
vt 0.953851 0.089714
vt 0.913853 0.089714
vt 0.913853 0.477189
vt 0.953851 0.477189
vt 0.793861 0.089714
vt 0.793861 0.477189
vt 0.833858 0.477189
vt 0.873856 0.477189
vt 0.118395 0.018956
vt 0.078398 0.018956
vt 0.078398 0.058954
vt 0.118395 0.058954
vt 0.198390 0.058954
vt 0.158393 0.058954
vt 0.158393 0.446429
vt 0.198390 0.446429
vt 0.038400 0.058954
vt 0.038400 0.446429
vt 0.078398 0.446429
vt 0.118395 0.446429
vt 0.133160 0.485275
vt 0.093163 0.485275
vt 0.093163 0.525272
vt 0.133160 0.525272
vt 0.213155 0.525272
vt 0.173157 0.525272
vt 0.173157 0.912747
vt 0.213155 0.912747
vt 0.053165 0.525272
vt 0.053165 0.912747
vt 0.093163 0.912747
vt 0.133160 0.912747
vt 0.727472 0.025065
vt 0.277534 0.025065
vt 0.277534 0.974935
vt 0.727472 0.974935
s 0
f 29/47/11 31/48/11 32/49/11 30/50/11
f 31/51/12 29/52/12 33/53/12 35/54/12
f 32/49/13 31/55/13 35/56/13 36/57/13
f 29/52/14 30/50/14 34/58/14 33/53/14
f 30/50/15 32/49/15 36/57/15 34/58/15
f 37/59/11 39/60/11 40/61/11 38/62/11
f 39/63/12 37/64/12 41/65/12 43/66/12
f 40/61/13 39/67/13 43/68/13 44/69/13
f 37/64/14 38/62/14 42/70/14 41/65/14
f 38/62/15 40/61/15 44/69/15 42/70/15
f 45/71/11 47/72/11 48/73/11 46/74/11
f 47/75/12 45/76/12 49/77/12 51/78/12
f 48/73/13 47/79/13 51/80/13 52/81/13
f 45/76/14 46/74/14 50/82/14 49/77/14
f 46/74/15 48/73/15 52/81/15 50/82/15
f 53/83/11 55/84/11 56/85/11 54/86/11
f 55/87/12 53/88/12 57/89/12 59/90/12
f 56/85/13 55/91/13 59/92/13 60/93/13
f 53/88/14 54/86/14 58/94/14 57/89/14
f 54/86/15 56/85/15 60/93/15 58/94/15
f 61/95/16 62/96/16 64/97/16 63/98/16
f 66/95/11 65/98/11 68/97/11 67/96/11
f 61/95/12 63/98/12 65/98/12 66/95/12
f 63/98/13 64/97/13 68/97/13 65/98/13
f 62/96/14 61/95/14 66/95/14 67/96/14
f 64/97/15 62/96/15 67/96/15 68/97/15
o Remnant_Table_2
v -0.450000 0.800000 -0.950000
v 0.450000 0.800000 -0.950000
v -0.400000 0.725000 -0.900000
v 0.400000 0.725000 -0.900000
v -0.450000 0.775000 -0.950000
v 0.450000 0.775000 -0.950000
v 0.320000 -0.000000 -0.820000
v 0.400000 -0.000000 -0.820000
v 0.320000 -0.000000 -0.900000
v 0.400000 -0.000000 -0.900000
v 0.320000 0.775000 -0.820000
v 0.400000 0.775000 -0.820000
v 0.320000 0.775000 -0.900000
v 0.400000 0.775000 -0.900000
v -0.400000 -0.000000 -0.820000
v -0.320000 -0.000000 -0.820000
v -0.400000 -0.000000 -0.900000
v -0.320000 -0.000000 -0.900000
v -0.400000 0.775000 -0.820000
v -0.320000 0.775000 -0.820000
v -0.400000 0.775000 -0.900000
v -0.320000 0.775000 -0.900000
v -0.450000 0.800000 0.080029
v -0.450000 0.775000 0.080029
v 0.400000 0.725000 -0.055253
v 0.450000 0.800000 -0.063211
v -0.400000 0.725000 0.072071
v 0.450000 0.775000 -0.063211
vn -0.0000 -0.0000 -1.0000
vn -1.0000 -0.0000 -0.0000
vn 0.7071 -0.7071 -0.0000
vn -0.0000 -0.7071 -0.7071
vn -0.0000 -1.0000 -0.0000
vn -0.0000 -0.0000 1.0000
vn 1.0000 -0.0000 -0.0000
vn -0.0000 1.0000 -0.0000
vn -0.7071 -0.7071 -0.0000
vn 0.1572 -0.0000 0.9876
vt 0.277534 0.974935
vt 0.277534 0.987433
vt 0.727472 0.987433
vt 0.727472 0.974935
vt 0.739971 0.974935
vt 0.739971 0.459991
vt 0.727472 0.459991
vt 0.229686 0.949938
vt 0.265036 0.974935
vt 0.265036 0.531601
vt 0.229686 0.527623
vt 0.702476 0.944658
vt 0.302531 0.944658
vt 0.118395 0.018956
vt 0.078398 0.018956
vt 0.078398 0.058954
vt 0.118395 0.058954
vt 0.198390 0.058954
vt 0.158393 0.058954
vt 0.158393 0.446429
vt 0.198390 0.446429
vt 0.038400 0.058954
vt 0.038400 0.446429
vt 0.078398 0.446429
vt 0.118395 0.446429
vt 0.133160 0.485275
vt 0.093163 0.485275
vt 0.093163 0.525272
vt 0.133160 0.525272
vt 0.213155 0.525272
vt 0.173157 0.525272
vt 0.173157 0.912747
vt 0.213155 0.912747
vt 0.053165 0.525272
vt 0.053165 0.912747
vt 0.093163 0.912747
vt 0.133160 0.912747
vt 0.277534 0.531601
vt 0.629631 0.463969
vt 0.629631 0.949938
vt 0.775321 0.463969
vt 0.775321 0.949938
vt 0.275570 0.519258
vt 0.725508 0.447648
vt 0.696582 0.426940
vt 0.296637 0.490594
s 0
f 70/99/17 74/100/17 73/101/17 69/102/17
f 69/102/18 73/103/18 92/104/18 91/105/18
f 72/106/19 74/107/19 96/108/19 93/109/19
f 71/110/20 73/101/20 74/100/20 72/111/20
f 75/112/21 77/113/21 78/114/21 76/115/21
f 77/116/18 75/117/18 79/118/18 81/119/18
f 78/114/17 77/120/17 81/121/17 82/122/17
f 75/117/22 76/115/22 80/123/22 79/118/22
f 76/115/23 78/114/23 82/122/23 80/123/23
f 83/124/21 85/125/21 86/126/21 84/127/21
f 85/128/18 83/129/18 87/130/18 89/131/18
f 86/126/17 85/132/17 89/133/17 90/134/17
f 83/129/22 84/127/22 88/135/22 87/130/22
f 84/127/23 86/126/23 90/134/23 88/135/23
f 94/136/23 96/108/23 74/107/23 70/99/23
f 91/105/24 94/136/24 70/99/24 69/102/24
f 93/109/21 95/137/21 71/138/21 72/106/21
f 95/139/25 92/104/25 73/103/25 71/140/25
f 96/141/26 94/136/26 91/105/26 92/142/26
f 96/141/26 92/142/26 95/143/26 93/144/26
