# Blender 5.1.2
# www.blender.org
o Control_Panel_Collision
v 0.000000 0.000000 1.000000
v 0.750000 0.000000 1.000000
v 0.000000 0.000000 -1.000000
v 0.750000 0.000000 -1.000000
v 0.000000 0.800000 -1.000000
v 0.000000 0.800000 1.000000
v 0.750000 0.600000 1.000000
v 0.750000 0.600000 -1.000000
v 0.500000 1.200000 1.000000
v 0.500000 1.200000 -1.000000
v 1.250000 0.800000 1.000000
v 1.250000 0.800000 -1.000000
v 1.250000 1.000000 1.000000
v 1.250000 1.000000 -1.000000
v 0.000000 2.500000 -1.000000
v 0.000000 2.500000 1.000000
v 0.500000 2.500000 1.000000
v 0.500000 2.500000 -1.000000
vn -0.0000 -1.0000 -0.0000
vn -0.0000 -0.0000 -1.0000
vn -1.0000 -0.0000 -0.0000
vn -0.0000 -0.0000 1.0000
vn 1.0000 -0.0000 -0.0000
vn 0.2577 0.9662 -0.0000
vn 0.3714 -0.9285 -0.0000
vn -0.0000 1.0000 -0.0000
vt 0.605982 0.539880
vt 0.605982 0.971784
vt 0.446941 0.971784
vt 0.446941 0.539880
vt 0.542969 0.867188
vt 0.492188 0.679688
vt 0.394531 0.804688
vt 0.627343 0.870868
vt 0.627099 0.372070
vt 0.427580 0.372168
vt 0.427824 0.870966
vt 0.691406 0.867188
vt 0.691406 0.679688
vt 0.627404 0.371394
vt 0.627404 0.558443
vt 0.477764 0.558443
vt 0.427885 0.371394
vt 0.856806 0.496094
vt 0.856806 0.996094
vt 0.706806 0.996094
vt 0.706806 0.496094
vt 0.328125 0.496094
vt 0.328125 0.996094
vt 0.003906 0.996094
vt 0.003906 0.496094
vt 0.427885 0.683143
vt 0.378005 0.683143
vt 0.572177 0.496094
vt 0.572177 0.996094
vt 0.522177 0.996094
vt 0.522177 0.496094
vt 0.441406 0.992188
vt 0.492188 0.992188
vt 0.849749 0.539880
vt 0.956810 0.539880
vt 0.956810 0.971784
vt 0.849749 0.971784
vt 0.427732 0.371781
vt 0.003602 0.372375
vt 0.003845 0.871173
vt 0.066406 0.679688
vt 0.066406 0.804688
vt 0.003906 0.371394
s 0
f 1/1/1 3/2/1 4/3/1 2/4/1
f 8/5/2 5/6/2 10/7/2
f 3/8/3 1/9/3 6/10/3 5/11/3
f 4/12/2 3/13/2 5/6/2 8/5/2
f 1/14/4 2/15/4 7/16/4 6/17/4
f 2/18/5 4/19/5 8/20/5 7/21/5
f 9/22/5 10/23/5 18/24/5 17/25/5
f 6/17/4 7/16/4 9/22/4
f 9/22/4 7/16/4 11/26/4 13/27/4
f 11/28/5 12/29/5 14/30/5 13/31/5
f 10/23/6 9/22/6 13/31/6 14/30/6
f 7/21/7 8/20/7 12/29/7 11/28/7
f 8/5/2 10/7/2 14/32/2 12/33/2
f 16/34/8 17/35/8 18/36/8 15/37/8
f 5/11/3 6/38/3 16/39/3 15/40/3
f 10/7/2 5/6/2 15/41/2 18/42/2
f 6/38/4 9/22/4 17/25/4 16/43/4
