# Blender 5.0.1
# www.blender.org
o Glass
v 0.064364 0.014435 -0.060182
v 0.064364 0.014435 0.060182
v 0.092896 0.300366 -0.101381
v 0.092896 0.300366 0.101381
v 0.033377 0.422186 -0.031468
v 0.033377 0.422186 0.031467
v -0.060182 0.014435 -0.064364
v 0.060182 0.014435 -0.064364
v -0.101381 0.300366 -0.092896
v 0.101381 0.300366 -0.092896
v -0.031468 0.422186 -0.033377
v 0.031467 0.422186 -0.033377
v -0.064364 0.014435 0.060182
v -0.064364 0.014435 -0.060182
v -0.092896 0.300366 0.101381
v -0.092896 0.300366 -0.101381
v -0.033377 0.422186 0.031468
v -0.033377 0.422186 -0.031467
v 0.060182 0.014435 0.064364
v -0.060182 0.014435 0.064364
v 0.101381 0.300366 0.092896
v -0.101381 0.300366 0.092896
v 0.031468 0.422186 0.033377
v -0.031467 0.422186 0.033377
vn 0.9951 -0.0993 -0.0000
vn 0.8985 0.4390 -0.0000
vn -0.0000 -0.0993 -0.9951
vn -0.0000 0.4390 -0.8985
vn -0.9951 -0.0993 -0.0000
vn -0.8985 0.4390 -0.0000
vn -0.0000 -0.0993 0.9951
vn -0.0000 0.4390 0.8985
vt 0.110625 0.134283
vt 0.654165 0.056353
vt 0.654165 0.439887
vt 0.110626 0.361958
vt 0.910625 0.188598
vt 0.910625 0.307643
s 0
f 1/1/1 3/2/1 4/3/1 2/4/1
f 3/2/2 5/5/2 6/6/2 4/3/2
f 7/1/3 9/2/3 10/3/3 8/4/3
f 9/2/4 11/5/4 12/6/4 10/3/4
f 13/1/5 15/2/5 16/3/5 14/4/5
f 15/2/6 17/5/6 18/6/6 16/3/6
f 19/1/7 21/2/7 22/3/7 20/4/7
f 21/2/8 23/5/8 24/6/8 22/3/8
o Handle
v 0.073647 0.430921 -0.001041
v 0.072901 0.439126 0.004005
v 0.049114 0.443346 -0.018677
v 0.068570 0.422717 -0.001531
v 0.084862 0.418497 0.027015
v 0.079753 0.409402 0.057974
v 0.083459 0.427430 0.030417
v 0.079128 0.411021 0.024882
v 0.069616 0.409379 0.025268
v 0.074318 0.402458 0.054027
v 0.065528 0.402103 0.050035
v 0.055430 0.399324 0.078096
v 0.049477 0.399440 0.070488
v 0.027524 0.402458 0.090639
v 0.059689 0.406073 0.083540
v 0.030047 0.409402 0.096864
v 0.059761 0.415733 0.083632
v 0.031854 0.418867 0.096174
v 0.055602 0.422646 0.078316
v 0.078649 0.418867 0.059563
v 0.071653 0.425309 0.057863
v 0.062863 0.424954 0.053870
v 0.075740 0.432585 0.033096
v 0.066228 0.430944 0.033481
v 0.066768 0.442524 0.010651
v 0.047141 0.452464 -0.003458
v 0.058842 0.439126 0.015004
v 0.042684 0.447308 0.003390
v 0.053765 0.430921 0.014515
v 0.039044 0.438376 0.003933
v 0.054511 0.422717 0.009469
v 0.060494 0.423467 0.031348
v 0.057428 0.418010 0.049924
v 0.061897 0.414535 0.027946
v 0.058532 0.408545 0.048335
v 0.045319 0.406352 0.065173
v 0.045390 0.416013 0.065264
v 0.025797 0.408545 0.073947
v 0.027604 0.418010 0.073258
v 0.005197 0.414535 0.072307
v 0.025763 0.402103 0.081147
v 0.000740 0.409379 0.079155
v -0.018887 0.419319 0.065046
v -0.001923 0.411021 0.088295
v -0.025020 0.422717 0.071692
v -0.001232 0.418497 0.094374
v -0.025766 0.430921 0.076738
v 0.002408 0.427430 0.093830
v -0.020689 0.439126 0.077228
v 0.006865 0.432585 0.086983
v -0.012762 0.442524 0.072874
v 0.009528 0.430944 0.077843
v 0.031888 0.425309 0.088975
v 0.030127 0.424954 0.079482
v 0.049649 0.422761 0.070708
v -0.006630 0.439126 0.066228
v 0.008837 0.423467 0.071764
v -0.005883 0.430921 0.061182
v -0.012612 0.438376 0.044348
v -0.010960 0.422717 0.060693
v -0.018346 0.430899 0.042215
v -0.014982 0.436889 0.021826
v -0.027859 0.429258 0.042601
v -0.023772 0.436534 0.017834
v -0.035578 0.434413 0.045280
v -0.030768 0.442976 0.016134
v -0.036981 0.443346 0.048682
v -0.031872 0.452441 0.017723
v -0.031247 0.450822 0.050815
v -0.026437 0.459385 0.021669
v -0.021734 0.452464 0.050429
v -0.017647 0.459740 0.025662
v -0.014016 0.447308 0.047751
v -0.010651 0.453298 0.027362
v 0.002563 0.455491 0.010524
v -0.009547 0.443833 0.025773
v 0.002491 0.445830 0.010433
v 0.020277 0.443833 0.002439
v -0.001768 0.439082 0.004989
v 0.017754 0.436889 -0.003785
v -0.007721 0.439197 -0.002619
v 0.015994 0.436534 -0.013278
v -0.011879 0.446110 -0.007935
v 0.016027 0.442976 -0.020477
v -0.011808 0.455770 -0.007844
v 0.017835 0.452441 -0.021167
v -0.007548 0.462519 -0.002399
v 0.020358 0.459385 -0.014942
v -0.001596 0.462403 0.005209
v 0.022118 0.459740 -0.005450
v 0.022085 0.453298 0.001750
v 0.049804 0.450822 -0.012598
v 0.045474 0.434413 -0.018133
v 0.041017 0.429258 -0.011286
v 0.038354 0.430899 -0.002146
v 0.060644 0.419319 0.002823
vn 0.7876 -0.0000 -0.6162
vn 0.7730 0.5795 -0.2583
vn 0.3993 0.1687 -0.9012
vn 0.4367 -0.5795 -0.6881
vn 0.9708 -0.1687 -0.1707
vn 0.8976 -0.2973 0.3254
vn 0.8969 0.4338 0.0858
vn 0.5814 -0.7350 -0.3490
vn -0.1914 -0.9285 -0.3181
vn 0.5208 -0.8530 0.0321
vn -0.2084 -0.9321 -0.2961
vn 0.2726 -0.8968 0.3485
vn -0.2233 -0.9320 -0.2854
vn -0.0941 -0.8530 0.5133
vn 0.5781 -0.3461 0.7389
vn 0.0999 -0.2973 0.9496
vn 0.5879 0.2998 0.7514
vn 0.2411 0.3345 0.9110
vn 0.2934 0.8793 0.3751
vn 0.8262 0.3345 0.4532
vn 0.3190 0.8845 0.3404
vn -0.4324 0.9017 0.0014
vn 0.3209 0.8987 0.2991
vn -0.4946 0.8019 0.3351
vn 0.2973 0.9162 0.2686
vn 0.2627 0.9285 0.2623
vn -0.3823 0.6632 0.6435
vn -0.1184 0.5208 0.8454
vn -0.7876 -0.0000 0.6162
vn -0.3929 -0.1841 0.9010
vn -0.7166 -0.6632 0.2162
vn -0.9690 0.1841 0.1646
vn -0.8891 0.3182 -0.3290
vn -0.8491 -0.5208 -0.0885
vn -0.7981 -0.4146 -0.4372
vn -0.5711 -0.3754 -0.7300
vn -0.5732 0.3671 -0.7326
vn -0.2324 -0.4146 -0.8798
vn -0.1054 0.3182 -0.9421
vn 0.1184 -0.5208 -0.8454
vn -0.2372 -0.9321 -0.2735
vn -0.2627 -0.9285 -0.2623
vn -0.2973 -0.9162 -0.2686
vn -0.4787 -0.7350 0.4803
vn -0.7730 -0.5795 0.2583
vn -0.3993 -0.1687 0.9012
vn -0.1325 0.4338 0.8912
vn -0.4367 0.5795 0.6881
vn 0.2131 0.8987 0.3834
vn 0.1892 0.9162 0.3532
vn 0.4442 0.8019 -0.3994
vn 0.2536 0.8845 0.3916
vn 0.1054 0.9017 -0.4194
vn -0.2138 0.9379 -0.2733
vn 0.7166 0.6632 -0.2162
vn 0.3929 0.1841 -0.9010
vn 0.9690 -0.1841 -0.1646
vn 0.3823 -0.6632 -0.6435
vn 0.4946 -0.8019 -0.3351
vn 0.4324 -0.9017 -0.0014
vn -0.3209 -0.8987 -0.2991
vn -0.3190 -0.8845 -0.3404
vn -0.8969 -0.4338 -0.0858
vn -0.8262 -0.3345 -0.4532
vn -0.9708 0.1687 0.1707
vn -0.8976 0.2973 -0.3254
vn -0.5814 0.7350 0.3490
vn -0.5208 0.8530 -0.0321
vn 0.1914 0.9285 0.3181
vn 0.2084 0.9321 0.2961
vn 0.8491 0.5208 0.0885
vn 0.7981 0.4146 0.4372
vn 0.5711 0.3754 0.7300
vn 0.8891 -0.3182 0.3290
vn 0.5732 -0.3671 0.7326
vn 0.1054 -0.3182 0.9421
vn 0.2138 -0.9379 0.2733
vn -0.1054 -0.9017 0.4194
vn -0.2934 -0.8793 -0.3751
vn -0.2536 -0.8845 -0.3916
vn -0.5879 -0.2998 -0.7514
vn -0.2411 -0.3345 -0.9110
vn -0.5781 0.3461 -0.7389
vn -0.0999 0.2973 -0.9496
vn -0.2726 0.8968 -0.3485
vn 0.0941 0.8530 -0.5133
vn 0.2233 0.9320 0.2854
vn 0.2372 0.9321 0.2735
vn 0.2324 0.4146 0.8798
vn 0.4787 0.7350 -0.4803
vn 0.1325 -0.4338 -0.8912
vn -0.2131 -0.8987 -0.3834
vn -0.4442 -0.8019 0.3994
vn -0.1892 -0.9162 -0.3532
vt 0.442809 0.712769
vt 0.442809 0.791981
vt 0.420068 0.786167
vt 0.420793 0.718329
vt 0.402524 0.862079
vt 0.385526 0.844472
vt 0.420311 0.785458
vt 0.420889 0.717190
vt 0.443047 0.711598
vt 0.442945 0.791289
vt 0.385803 0.843696
vt 0.402484 0.860076
vt 0.327131 0.877143
vt 0.333428 0.899720
vt 0.405010 0.641979
vt 0.387247 0.658903
vt 0.370667 0.828430
vt 0.399594 0.779910
vt 0.321657 0.856343
vt 0.264851 0.855697
vt 0.259144 0.876569
vt 0.253259 0.899391
vt 0.215741 0.826603
vt 0.200301 0.841889
vt 0.183717 0.858794
vt 0.255300 0.598922
vt 0.335236 0.600302
vt 0.329000 0.623094
vt 0.260665 0.621143
vt 0.322958 0.643941
vt 0.265957 0.642339
vt 0.371736 0.673933
vt 0.399718 0.723845
vt 0.356643 0.688064
vt 0.316881 0.663722
vt 0.379552 0.728830
vt 0.399281 0.780522
vt 0.379716 0.775095
vt 0.370538 0.829242
vt 0.356279 0.814492
vt 0.342525 0.800898
vt 0.360614 0.770334
vt 0.360241 0.734281
vt 0.360333 0.769268
vt 0.359608 0.733054
vt 0.379260 0.727695
vt 0.380152 0.774578
vt 0.342760 0.800429
vt 0.356065 0.813814
vt 0.342473 0.702073
vt 0.311511 0.817561
vt 0.316575 0.836287
vt 0.275660 0.816806
vt 0.270608 0.835875
vt 0.244774 0.798131
vt 0.230739 0.812238
vt 0.227258 0.766410
vt 0.207830 0.771655
vt 0.187539 0.776691
vt 0.166601 0.782045
vt 0.207959 0.724480
vt 0.188069 0.718906
vt 0.166898 0.713001
vt 0.143547 0.788547
vt 0.143004 0.706284
vt 0.142852 0.707416
vt 0.183942 0.636735
vt 0.201049 0.654552
vt 0.165956 0.713311
vt 0.216169 0.669971
vt 0.187006 0.718998
vt 0.230283 0.684840
vt 0.206892 0.724633
vt 0.270607 0.662489
vt 0.275601 0.681571
vt 0.244175 0.698621
vt 0.311550 0.682831
vt 0.225858 0.729414
vt 0.228116 0.729918
vt 0.207477 0.770800
vt 0.226022 0.765659
vt 0.245177 0.697928
vt 0.231739 0.684554
vt 0.217263 0.669650
vt 0.276286 0.680420
vt 0.271148 0.661653
vt 0.266208 0.642067
vt 0.201943 0.654175
vt 0.260793 0.621335
vt 0.186184 0.637811
vt 0.254582 0.598922
vt 0.183306 0.858256
vt 0.142948 0.788225
vt 0.165745 0.781737
vt 0.199791 0.841344
vt 0.187174 0.776046
vt 0.215393 0.826271
vt 0.230251 0.811861
vt 0.245277 0.797235
vt 0.264582 0.855467
vt 0.270536 0.835734
vt 0.275888 0.816604
vt 0.311825 0.681395
vt 0.316967 0.662599
vt 0.316447 0.836777
vt 0.311467 0.817844
vt 0.342297 0.700576
vt 0.356479 0.686652
vt 0.322740 0.642684
vt 0.371587 0.672506
vt 0.328567 0.621848
vt 0.387129 0.657395
vt 0.334544 0.598922
vt 0.404953 0.640330
vt 0.331759 0.899770
vt 0.252661 0.898400
vt 0.258661 0.875829
vt 0.326411 0.877757
vt 0.321128 0.856772
vt 0.399657 0.722736
s 1
f 29/7/13 25/8/9 26/9/10 31/10/15
f 25/8/9 27/11/11 116/12/98 26/9/10
f 28/13/12 117/14/99 27/15/11 25/16/9
f 32/17/16 28/13/12 25/16/9 29/18/13
f 34/19/18 32/17/16 29/18/13 30/20/14
f 30/21/14 29/7/13 31/10/15 44/22/28
f 33/23/17 120/24/102 28/13/12 32/17/16
f 35/25/19 33/23/17 32/17/16 34/19/18
f 37/26/21 35/25/19 34/19/18 36/27/20
f 36/27/20 34/19/18 30/20/14 39/28/23
f 65/29/49 37/26/21 36/27/20 38/30/22
f 38/30/22 36/27/20 39/28/23 40/31/24
f 40/32/24 39/33/23 41/34/25 42/35/26
f 39/33/23 30/21/14 44/22/28 41/34/25
f 42/35/26 41/34/25 43/36/27 77/37/60
f 41/34/25 44/22/28 45/38/29 43/36/27
f 44/22/28 31/10/15 47/39/31 45/38/29
f 43/36/27 45/38/29 46/40/30 79/41/62
f 45/38/29 47/39/31 48/42/32 46/40/30
f 31/10/15 26/9/10 49/43/33 47/39/31
f 47/39/31 49/43/33 51/44/35 48/42/32
f 26/9/10 116/12/98 50/45/34 49/43/33
f 49/43/33 50/45/34 52/46/36 51/44/35
f 51/44/35 52/46/36 54/47/38 53/48/37
f 48/42/32 51/44/35 53/48/37 56/49/40
f 53/50/37 54/51/38 119/52/101 55/53/39
f 56/54/40 53/50/37 55/53/39 58/55/42
f 46/40/30 48/42/32 56/49/40 57/56/41
f 57/57/41 56/54/40 58/55/42 59/58/43
f 59/58/43 58/55/42 33/23/17 35/25/19
f 58/55/42 55/53/39 120/24/102 33/23/17
f 61/59/45 57/57/41 59/58/43 60/60/44
f 60/60/44 59/58/43 35/25/19 37/26/21
f 63/61/47 61/59/45 60/60/44 62/62/46
f 62/62/46 60/60/44 37/26/21 65/29/49
f 81/63/64 63/61/47 62/62/46 64/64/48
f 64/64/48 62/62/46 65/29/49 66/65/50
f 66/65/50 65/29/49 38/30/22 68/66/52
f 84/67/66 64/64/48 66/65/50 67/68/51
f 67/68/51 66/65/50 68/66/52 69/69/53
f 69/69/53 68/66/52 70/70/54 71/71/37
f 68/66/52 38/30/22 40/31/24 70/70/54
f 71/72/37 70/73/54 72/74/55 73/75/56
f 70/73/54 40/32/24 42/35/26 72/74/55
f 73/75/56 72/74/55 74/76/57 75/77/58
f 72/74/55 42/35/26 77/37/60 74/76/57
f 75/77/58 74/76/57 76/78/59 80/79/63
f 74/76/57 77/37/60 78/80/61 76/78/59
f 77/37/60 43/36/27 79/41/62 78/80/61
f 76/78/59 78/80/61 63/81/47 81/82/64
f 78/80/61 79/41/62 61/83/45 63/81/47
f 79/41/62 46/40/30 57/56/41 61/83/45
f 80/79/63 76/78/59 81/82/64 82/84/9
f 82/85/9 81/63/64 64/64/48 84/67/66
f 97/86/79 80/79/63 82/84/9 83/87/65
f 83/88/65 82/85/9 84/67/66 85/89/67
f 85/89/67 84/67/66 67/68/51 87/90/69
f 100/91/82 83/88/65 85/89/67 86/92/68
f 86/92/68 85/89/67 87/90/69 88/93/70
f 88/93/70 87/90/69 89/94/71 90/95/72
f 87/90/69 67/68/51 69/69/53 89/94/71
f 90/95/72 89/94/71 91/96/73 92/97/74
f 89/94/71 69/69/53 71/71/37 91/96/73
f 92/98/74 91/99/73 93/100/75 94/101/76
f 91/99/73 71/72/37 73/75/56 93/100/75
f 94/101/76 93/100/75 95/102/77 96/103/78
f 93/100/75 73/75/56 75/77/58 95/102/77
f 96/103/78 95/102/77 97/86/79 98/104/80
f 95/102/77 75/77/58 80/79/63 97/86/79
f 98/104/80 97/86/79 83/87/65 100/105/82
f 113/106/95 96/103/78 98/104/80 99/107/81
f 99/107/81 98/104/80 100/105/82 101/108/83
f 101/109/83 100/91/82 86/92/68 103/110/85
f 115/111/97 99/107/81 101/108/83 102/112/84
f 102/113/84 101/109/83 103/110/85 104/114/86
f 104/114/86 103/110/85 105/115/87 106/116/88
f 103/110/85 86/92/68 88/93/70 105/115/87
f 106/116/88 105/115/87 107/117/89 108/118/90
f 105/115/87 88/93/70 90/95/72 107/117/89
f 108/118/90 107/117/89 109/119/91 110/120/92
f 107/117/89 90/95/72 92/97/74 109/119/91
f 110/121/92 109/122/91 111/123/93 112/124/94
f 109/122/91 92/98/74 94/101/76 111/123/93
f 112/124/94 111/123/93 113/106/95 114/125/96
f 111/123/93 94/101/76 96/103/78 113/106/95
f 114/125/96 113/106/95 99/107/81 115/111/97
f 116/12/98 112/124/94 114/125/96 50/45/34
f 50/45/34 114/125/96 115/111/97 52/46/36
f 52/46/36 115/111/97 102/112/84 54/47/38
f 27/11/11 110/121/92 112/124/94 116/12/98
f 117/14/99 108/118/90 110/120/92 27/15/11
f 118/126/100 106/116/88 108/118/90 117/14/99
f 120/24/102 118/126/100 117/14/99 28/13/12
f 119/52/101 104/114/86 106/116/88 118/126/100
f 55/53/39 119/52/101 118/126/100 120/24/102
f 54/51/38 102/113/84 104/114/86 119/52/101
o Frame
v -0.057500 0.019500 0.072500
v -0.072500 0.019500 0.072500
v -0.083827 0.300500 0.105695
v -0.057500 0.019500 0.057500
v -0.072500 0.019500 0.057500
v -0.083827 0.300500 0.083827
v -0.105695 0.300500 0.083827
v -0.028327 0.424672 0.028327
v -0.035717 0.424672 0.028327
v -0.028327 0.424672 0.035717
v -0.035717 0.424672 0.035717
v -0.105695 0.300500 0.105695
v -0.072500 0.019500 -0.057500
v -0.072500 0.019500 -0.072500
v -0.105695 0.300500 -0.083827
v -0.057500 0.019500 -0.057500
v -0.057500 0.019500 -0.072500
v -0.083827 0.300500 -0.083827
v -0.083827 0.300500 -0.105695
v -0.028327 0.424672 -0.028327
v -0.028327 0.424672 -0.035717
v -0.035717 0.424672 -0.028327
v -0.035717 0.424672 -0.035717
v -0.105695 0.300500 -0.105695
v -0.075000 0.000000 0.075000
v -0.075000 0.000000 -0.075000
v 0.075000 0.000000 0.075000
v -0.075000 0.020000 0.075000
v -0.075000 0.020000 -0.075000
v 0.075000 0.020000 0.075000
v 0.075000 0.020000 -0.075000
v 0.075000 0.000000 -0.075000
v -0.038770 0.417633 0.038770
v -0.038770 0.417633 -0.038770
v 0.038770 0.417633 0.038770
v -0.038770 0.427971 0.038770
v -0.038770 0.427971 -0.038770
v 0.038770 0.427971 0.038770
v 0.038770 0.427971 -0.038770
v 0.038770 0.417633 -0.038770
v 0.072500 0.019500 0.057500
v 0.072500 0.019500 0.072500
v 0.105695 0.300500 0.083827
v 0.057500 0.019500 0.057500
v 0.057500 0.019500 0.072500
v 0.083827 0.300500 0.083827
v 0.083827 0.300500 0.105695
v 0.028327 0.424672 0.028327
v 0.028327 0.424672 0.035717
v 0.035717 0.424672 0.028327
v 0.035717 0.424672 0.035717
v 0.105695 0.300500 0.105695
v 0.057500 0.019500 -0.072500
v 0.072500 0.019500 -0.072500
v 0.083827 0.300500 -0.105695
v 0.057500 0.019500 -0.057500
v 0.072500 0.019500 -0.057500
v 0.083827 0.300500 -0.083827
v 0.105695 0.300500 -0.083827
v 0.028327 0.424672 -0.028327
v 0.035717 0.424672 -0.028327
v 0.028327 0.424672 -0.035717
v 0.035717 0.424672 -0.035717
v 0.105695 0.300500 -0.105695
v -0.089909 0.295000 0.085000
v 0.089909 0.295000 0.085000
v -0.089909 0.295000 0.095000
v 0.089909 0.295000 0.095000
v -0.089909 0.305000 0.095000
v 0.089909 0.305000 0.095000
v -0.089909 0.305000 0.085000
v 0.089909 0.305000 0.085000
v 0.085000 0.295000 0.089909
v 0.085000 0.295000 -0.089909
v 0.095000 0.295000 0.089909
v 0.095000 0.295000 -0.089909
v 0.095000 0.305000 0.089909
v 0.095000 0.305000 -0.089909
v 0.085000 0.305000 0.089909
v 0.085000 0.305000 -0.089909
v 0.089909 0.295000 -0.085000
v -0.089909 0.295000 -0.085000
v 0.089909 0.295000 -0.095000
v -0.089909 0.295000 -0.095000
v 0.089909 0.305000 -0.095000
v -0.089909 0.305000 -0.095000
v 0.089909 0.305000 -0.085000
v -0.089909 0.305000 -0.085000
v -0.085000 0.295000 -0.089909
v -0.085000 0.295000 0.089909
v -0.095000 0.295000 -0.089909
v -0.095000 0.295000 0.089909
v -0.095000 0.305000 -0.089909
v -0.095000 0.305000 0.089909
v -0.085000 0.305000 -0.089909
v -0.085000 0.305000 0.089909
v -0.000000 0.422168 -0.010000
v 0.007071 0.422168 -0.007071
v 0.000000 0.456663 -0.006062
v -0.007071 0.422168 -0.007071
v -0.010000 0.422168 0.000000
v -0.008332 0.456663 -0.004286
v -0.011784 0.456663 -0.000000
v -0.008332 0.456663 0.004286
v 0.000000 0.456663 0.006062
v -0.007071 0.422168 0.007071
v 0.000000 0.422168 0.010000
v 0.007071 0.422168 0.007071
v 0.010000 0.422168 -0.000000
v 0.008332 0.456663 0.004286
v 0.011784 0.456663 -0.000000
v 0.008332 0.456663 -0.004286
vn -0.0000 -0.1173 0.9931
vn 0.9956 0.0933 -0.0000
vn -0.0000 0.0933 -0.9956
vn -0.0000 -0.4081 -0.9130
vn 0.9130 -0.4081 -0.0000
vn -0.0000 0.4910 0.8712
vn -0.8712 0.4910 -0.0000
vn -0.9931 -0.1173 -0.0000
vn -0.0000 0.0933 0.9956
vn -0.0000 -0.4081 0.9130
vn -0.0000 0.4910 -0.8712
vn -0.0000 -0.1173 -0.9931
vn -1.0000 -0.0000 -0.0000
vn -0.0000 -1.0000 -0.0000
vn -0.0000 -0.0000 1.0000
vn -0.0000 1.0000 -0.0000
vn 1.0000 -0.0000 -0.0000
vn -0.0000 -0.0000 -1.0000
vn 0.9931 -0.1173 -0.0000
vn -0.9956 0.0933 -0.0000
vn -0.9130 -0.4081 -0.0000
vn 0.8712 0.4910 -0.0000
vn 0.2910 0.0875 -0.9527
vn -0.2910 0.0875 -0.9527
vn -0.8717 -0.0187 -0.4897
vn -0.8717 -0.0187 0.4897
vn -0.2910 0.0875 0.9527
vn 0.2910 0.0875 0.9527
vn 0.8717 -0.0187 0.4897
vn 0.8717 -0.0187 -0.4897
vt 0.071082 0.658280
vt 0.604696 0.666263
vt 0.594419 0.711824
vt 0.078643 0.699355
vt 0.061723 0.617391
vt 0.618022 0.617391
vt 0.073179 0.739824
vt 0.602154 0.757938
vt 0.612954 0.807623
vt 0.065939 0.779415
vt 0.916693 0.741349
vt 0.932955 0.757967
vt 0.926400 0.686757
vt 0.913561 0.701726
vt 0.904484 0.721095
vt 0.106914 0.922985
vt 0.106914 0.592103
vt 0.151032 0.592103
vt 0.151032 0.922985
vt 0.856914 0.878867
vt 0.526032 0.878867
vt 0.526032 0.547985
vt 0.856914 0.547985
vt 0.151032 0.547985
vt 0.481914 0.547985
vt 0.481914 0.592103
vt 0.481914 0.922985
vt 0.526032 0.592103
vt 0.526032 0.922985
vt 0.481914 0.967103
vt 0.151032 0.967103
vt 0.381914 0.801661
vt 0.381914 0.713426
vt 0.393679 0.713426
vt 0.393679 0.801661
vt 0.581914 0.789897
vt 0.493679 0.789897
vt 0.493679 0.701662
vt 0.581914 0.701661
vt 0.393679 0.701662
vt 0.481914 0.701661
vt 0.481914 0.713426
vt 0.481914 0.801661
vt 0.493679 0.713426
vt 0.493679 0.801661
vt 0.481914 0.813426
vt 0.393679 0.813426
vt 0.287207 0.761499
vt 0.287207 0.739254
vt 0.687207 0.739254
vt 0.687207 0.761499
vt 0.287207 0.717010
vt 0.687207 0.717010
vt 0.287207 0.694765
vt 0.687207 0.694765
vt 0.548673 0.846353
vt 0.543415 0.704387
vt 0.578203 0.702147
vt 0.579889 0.843837
vt 0.517356 0.846153
vt 0.508556 0.704726
vt 0.486050 0.845333
vt 0.486050 0.703997
vt 0.454743 0.846153
vt 0.463543 0.704726
vt 0.423426 0.846353
vt 0.428684 0.704387
vt 0.392210 0.843837
vt 0.393896 0.702147
vt 0.361050 0.840703
vt 0.371505 0.699754
vt 0.600594 0.699754
vt 0.611050 0.840703
s 1
f 121/127/103 123/128/103 132/129/103 122/130/103
f 124/131/104 126/132/104 123/128/104 121/127/104
f 125/133/105 127/134/105 126/135/105 124/136/105
f 126/135/106 127/134/106 129/137/106 128/138/106
f 123/128/107 126/132/107 128/139/107 130/140/107
f 132/129/108 123/128/108 130/140/108 131/141/108
f 127/134/109 132/129/109 131/141/109 129/137/109
f 122/130/110 132/129/110 127/134/110 125/133/110
f 133/127/110 135/128/110 144/129/110 134/130/110
f 136/131/111 138/132/111 135/128/111 133/127/111
f 137/133/104 139/134/104 138/135/104 136/136/104
f 138/135/107 139/134/107 141/137/107 140/138/107
f 135/128/112 138/132/112 140/139/112 142/140/112
f 144/129/109 135/128/109 142/140/109 143/141/109
f 139/134/113 144/129/113 143/141/113 141/137/113
f 134/130/114 144/129/114 139/134/114 137/133/114
f 146/142/115 145/143/115 148/144/115 149/145/115
f 145/146/116 146/147/116 152/148/116 147/149/116
f 145/150/117 147/151/117 150/152/117 148/144/117
f 148/144/118 150/152/118 151/153/118 149/145/118
f 147/154/119 152/155/119 151/153/119 150/152/119
f 152/156/120 146/157/120 149/145/120 151/153/120
f 154/158/115 153/159/115 156/160/115 157/161/115
f 153/162/116 154/163/116 160/164/116 155/165/116
f 153/166/117 155/167/117 158/168/117 156/160/117
f 156/160/118 158/168/118 159/169/118 157/161/118
f 155/170/119 160/171/119 159/169/119 158/168/119
f 160/172/120 154/173/120 157/161/120 159/169/120
f 161/127/121 163/128/121 172/129/121 162/130/121
f 164/131/105 166/132/105 163/128/105 161/127/105
f 165/133/122 167/134/122 166/135/122 164/136/122
f 166/135/123 167/134/123 169/137/123 168/138/123
f 163/128/106 166/132/106 168/139/106 170/140/106
f 172/129/124 163/128/124 170/140/124 171/141/124
f 167/134/108 172/129/108 171/141/108 169/137/108
f 162/130/103 172/129/103 167/134/103 165/133/103
f 173/127/114 175/128/114 184/129/114 174/130/114
f 176/131/122 178/132/122 175/128/122 173/127/122
f 177/133/111 179/134/111 178/135/111 176/136/111
f 178/135/112 179/134/112 181/137/112 180/138/112
f 175/128/123 178/132/123 180/139/123 182/140/123
f 184/129/113 175/128/113 182/140/113 183/141/113
f 179/134/124 184/129/124 183/141/124 181/137/124
f 174/130/121 184/129/121 179/134/121 177/133/121
f 186/174/116 188/175/116 187/176/116 185/177/116
f 188/175/117 190/178/117 189/179/117 187/176/117
f 190/178/118 192/180/118 191/181/118 189/179/118
f 194/174/116 196/175/116 195/176/116 193/177/116
f 196/175/119 198/178/119 197/179/119 195/176/119
f 198/178/118 200/180/118 199/181/118 197/179/118
f 202/174/116 204/175/116 203/176/116 201/177/116
f 204/175/120 206/178/120 205/179/120 203/176/120
f 206/178/118 208/180/118 207/181/118 205/179/118
f 210/174/116 212/175/116 211/176/116 209/177/116
f 212/175/115 214/178/115 213/179/115 211/176/115
f 214/178/118 216/180/118 215/181/118 213/179/118
f 217/182/125 219/183/125 232/184/125 218/185/125
f 220/186/126 222/187/126 219/183/126 217/182/126
f 221/188/127 223/189/127 222/187/127 220/186/127
f 226/190/128 224/191/128 223/189/128 221/188/128
f 227/192/129 225/193/129 224/191/129 226/190/129
f 228/194/130 230/195/130 225/193/130 227/192/130
f 229/196/131 231/197/131 230/195/131 228/194/131
f 218/185/132 232/184/132 231/198/132 229/199/132
