# Blender 5.0.1
# www.blender.org
o Cylinder
v -0.022778 0.054990 -0.005371
v -0.022778 0.054990 0.005371
v 0.022778 0.054990 -0.005371
v 0.022778 0.054990 0.005371
v 0.054990 0.022778 -0.005371
v 0.054990 0.022778 0.005371
v 0.054990 -0.022778 -0.005371
v 0.054990 -0.022778 0.005371
v 0.022778 -0.054990 -0.005371
v 0.022778 -0.054990 0.005371
v -0.022778 -0.054990 -0.005371
v -0.022778 -0.054990 0.005371
v -0.054990 -0.022778 -0.005371
v -0.054990 -0.022778 0.005371
v -0.054990 0.022778 -0.005371
v -0.054990 0.022778 0.005371
v -0.022778 0.114510 -0.007142
v 0.022778 0.114510 -0.007142
v 0.022778 0.114510 0.007142
v -0.022778 0.114510 0.007142
v -0.022778 0.352593 -0.007142
v 0.022778 0.357650 -0.003661
v 0.022778 0.357650 0.003661
v -0.022778 0.352593 0.007142
v -0.022778 0.412113 -0.007142
v 0.022778 0.407056 -0.003661
v 0.022778 0.407056 0.003661
v -0.022778 0.412113 0.007142
v 0.022778 0.352593 0.007142
v 0.022778 0.352593 -0.007142
v 0.022778 0.412113 0.007142
v 0.022778 0.412113 -0.007142
v 0.078689 0.357650 0.003661
v 0.078689 0.357650 -0.003661
v 0.078689 0.407056 0.003661
v 0.078689 0.407056 -0.003661
v -0.014705 0.426590 -0.004611
v 0.014705 0.426590 -0.004611
v 0.014705 0.426590 0.004611
v -0.014705 0.426590 0.004611
vn -0.0000 -0.0298 -0.9996
vn 0.7071 0.7071 -0.0000
vn 1.0000 -0.0000 -0.0000
vn 0.7071 -0.7071 -0.0000
vn -0.0000 -1.0000 -0.0000
vn -0.7071 -0.7071 -0.0000
vn -0.0000 -0.0000 1.0000
vn -1.0000 -0.0000 -0.0000
vn -0.7071 0.7071 -0.0000
vn -0.0000 -0.0000 -1.0000
vn -0.0000 -0.0298 0.9996
vn 0.8734 0.4870 -0.0000
vn -0.0000 1.0000 -0.0000
vn -0.0000 0.1722 0.9851
vn -0.8734 0.4870 -0.0000
vn -0.0000 0.1722 -0.9851
vt 0.161524 0.771636
vt 0.066905 0.771636
vt 0.066905 0.648134
vt 0.161524 0.648134
vt 0.490207 0.771576
vt 0.512518 0.771576
vt 0.512518 0.842047
vt 0.490207 0.842047
vt 0.512518 0.936523
vt 0.490207 0.936523
vt 0.516197 0.232259
vt 0.538508 0.232259
vt 0.538508 0.299164
vt 0.516197 0.299164
vt 0.538508 0.393782
vt 0.516197 0.393782
vt 0.538508 0.460687
vt 0.516197 0.460687
vt 0.295334 0.771636
vt 0.389952 0.771636
vt 0.456858 0.838522
vt 0.456858 0.933114
vt 0.389952 1.000000
vt 0.295334 1.000000
vt 0.228429 0.933114
vt 0.228429 0.838522
vt 0.482848 0.937035
vt 0.460537 0.937035
vt 0.460537 0.842885
vt 0.482848 0.842885
vt 0.460537 0.769659
vt 0.482848 0.769659
vt 0.228429 0.838522
vt 0.228429 0.933114
vt 0.161524 1.000000
vt 0.066905 1.000000
vt 0.000000 0.933114
vt 0.000000 0.838522
vt 0.516197 0.648137
vt 0.486527 0.648137
vt 0.486527 0.154381
vt 0.516197 0.154381
vt 0.295334 0.648134
vt 0.389952 0.648134
vt 0.456858 0.646647
vt 0.486527 0.646647
vt 0.389952 0.153775
vt 0.295334 0.153775
vt 0.295334 0.030185
vt 0.389952 0.030185
vt 0.456858 0.154599
vt 0.486527 0.154599
vt 0.066905 0.153775
vt 0.161524 0.153775
vt 0.516197 0.030942
vt 0.486527 0.030942
vt 0.491785 0.000000
vt 0.510940 0.000000
vt 0.456858 0.031587
vt 0.486527 0.031587
vt 0.066905 0.030185
vt 0.161524 0.030185
vt 0.618786 0.116129
vt 0.516197 0.116129
vt 0.516197 -0.000000
vt 0.618786 0.000000
vt 0.493758 0.143893
vt 0.508967 0.143893
vt 0.508967 0.041430
vt 0.493758 0.041430
vt 0.531407 0.795409
vt 0.516197 0.795409
vt 0.516197 0.692946
vt 0.531407 0.692946
vt 0.531407 0.576816
vt 0.516198 0.576816
vt 0.516198 0.460687
vt 0.531407 0.460687
vt 0.618786 0.232258
vt 0.516197 0.232259
vt 0.516197 0.116129
vt 0.618786 0.116129
vt 0.516197 0.576816
vt 0.531407 0.576816
vt 0.535353 0.856495
vt 0.516197 0.856495
vt 0.516197 0.795409
vt 0.535353 0.795409
vt 0.312100 0.000000
vt 0.373186 -0.000000
vt 0.462115 0.000000
vt 0.481270 0.000000
vt 0.083671 0.000000
vt 0.144758 0.000000
s 0
f 3/1/1 1/2/1 17/3/1 18/4/1
f 3/5/2 4/6/2 6/7/2 5/8/2
f 5/8/3 6/7/3 8/9/3 7/10/3
f 7/11/4 8/12/4 10/13/4 9/14/4
f 9/14/5 10/13/5 12/15/5 11/16/5
f 11/16/6 12/15/6 14/17/6 13/18/6
f 4/19/7 2/20/7 16/21/7 14/22/7 12/23/7 10/24/7 8/25/7 6/26/7
f 13/27/8 14/28/8 16/29/8 15/30/8
f 15/30/9 16/29/9 2/31/9 1/32/9
f 1/2/10 3/1/10 5/33/10 7/34/10 9/35/10 11/36/10 13/37/10 15/38/10
f 19/39/3 18/40/3 30/41/3 29/42/3
f 4/6/3 3/5/3 18/40/3 19/39/3
f 2/20/11 4/19/11 19/43/11 20/44/11
f 1/32/8 2/31/8 20/45/8 17/46/8
f 24/47/7 29/48/7 31/49/7 28/50/7
f 20/44/7 19/43/7 29/48/7 24/47/7
f 17/46/8 20/45/8 24/51/8 21/52/8
f 18/4/10 17/3/10 21/53/10 30/54/10
f 31/55/12 32/56/12 38/57/12 39/58/12
f 21/52/8 24/51/8 28/59/8 25/60/8
f 30/54/10 21/53/10 25/61/10 32/62/10
f 22/63/10 26/64/10 36/65/10 34/66/10
f 22/67/3 23/68/3 29/42/3 30/41/3
f 27/69/3 26/70/3 32/56/3 31/55/3
f 23/68/3 27/69/3 31/55/3 29/42/3
f 26/70/3 22/67/3 30/41/3 32/56/3
f 33/71/3 34/72/3 36/73/3 35/74/3
f 26/75/13 27/76/13 35/77/13 36/78/13
f 27/79/7 23/80/7 33/81/7 35/82/7
f 23/74/5 22/73/5 34/83/5 33/84/5
f 37/85/13 40/86/13 39/87/13 38/88/13
f 28/50/14 31/49/14 39/89/14 40/90/14
f 25/60/15 28/59/15 40/91/15 37/92/15
f 32/62/16 25/61/16 37/93/16 38/94/16
