# Blender 5.0.1
# www.blender.org
o BridgeBrokenEdge
v -13.458969 4.141003 86.508919 0.9843 0.0000 0.0000
v -13.449131 4.389942 86.529709 0.9843 0.0000 0.0000
v -13.928656 4.137051 86.778511 0.9764 0.0000 0.0000
v -13.918818 4.385990 86.799301 0.9843 0.0000 0.0000
v -13.948334 3.639172 86.736923 0.9804 0.0000 0.0000
v -14.391861 4.083923 87.633667 0.9686 0.0000 0.0000
v -14.755341 4.050236 88.208931 0.9568 0.0000 0.0000
v -14.411535 3.586044 87.592079 0.9725 0.0000 0.0000
v -14.775017 3.552364 88.167343 0.9607 0.0000 0.0000
v -15.102480 3.522011 88.685608 0.9411 0.0000 0.0000
v -15.676357 3.517822 89.007324 0.8980 0.0000 0.0000
v -15.082802 4.019890 88.727203 0.9372 0.0000 0.0000
v -15.656681 4.015697 89.048912 0.9019 0.0000 0.0000
v -16.137203 4.050201 88.863205 0.9255 0.0000 0.0000
v -16.758818 4.121742 88.300858 0.9686 0.0000 0.0000
v -16.156879 3.552326 88.821617 0.9294 0.0000 0.0000
v -16.778494 3.623863 88.259262 0.9686 0.0000 0.0000
v -17.785698 3.663445 88.262009 0.9804 0.0000 0.0000
v -17.766020 4.161324 88.303589 0.9843 0.0000 0.0000
v -17.756182 4.410267 88.324387 0.9843 0.0000 0.0000
v -18.249052 4.166706 88.467636 0.9843 0.0000 0.0000
v -18.239212 4.415649 88.488434 0.9843 0.0000 0.0000
v -17.000000 12.500000 66.245239 0.8862 0.0000 0.0000
v -19.000000 13.000000 66.639053 0.8470 0.0000 0.0000
v -19.500000 13.000000 66.688736 0.8902 0.0000 0.0000
v -18.000000 12.500000 66.437904 0.8313 0.0000 0.0000
v -14.500000 13.000000 66.000000 0.9804 0.0000 0.0000
v -16.000000 12.500000 66.471130 0.9137 0.0000 0.0000
v -19.000000 12.500000 66.663300 0.8392 0.0000 0.0000
v -15.000000 12.500000 66.137543 0.9725 0.0000 0.0000
v -15.000000 13.000000 66.134209 0.9490 0.0000 0.0000
v -19.000000 13.250000 66.587914 0.8980 0.0000 0.0000
v -14.500000 13.250000 65.906059 0.9804 0.0000 0.0000
v -15.000000 13.250000 66.221542 0.9804 0.0000 0.0000
v -19.500000 13.250000 66.628609 0.9019 0.0000 0.0000
v -17.000000 13.000000 66.333481 0.8745 0.0000 0.0000
v -16.000000 13.000000 66.557373 0.9255 0.0000 0.0000
v -18.000000 13.000000 66.557373 0.8588 0.0000 0.0000
v -19.876734 10.034904 65.299538 0.9058 0.0000 0.0000
v -18.859276 10.107201 65.561256 0.8823 0.0000 0.0000
v -20.892466 9.964302 65.064766 0.9372 0.0000 0.0000
v -19.904537 10.533253 65.269966 0.9176 0.0000 0.0000
v -18.887081 10.605549 65.531685 0.8980 0.0000 0.0000
v -20.920269 10.462650 65.035194 0.9294 0.0000 0.0000
v -21.925564 10.402309 64.963501 0.9411 0.0000 0.0000
v -22.434265 10.366188 64.833069 0.9255 0.0000 0.0000
v -21.897758 9.903961 64.993073 0.9490 0.0000 0.0000
v -21.939465 10.651485 64.948715 0.9451 0.0000 0.0000
v -22.448166 10.615364 64.818283 0.9372 0.0000 0.0000
v -17.866449 10.680962 65.842987 0.8627 0.0000 0.0000
v -17.367435 10.707565 65.822083 0.8666 0.0000 0.0000
v -17.880352 10.930138 65.828201 0.8509 0.0000 0.0000
v -17.838646 10.182613 65.872559 0.8862 0.0000 0.0000
v -17.381336 10.956741 65.807297 0.8588 0.0000 0.0000
v -21.758074 11.030769 75.397491 0.9843 0.0000 0.0000
v -21.771976 11.279945 75.382706 0.9843 0.0000 0.0000
v -21.273132 11.043541 75.156723 0.9764 0.0000 0.0000
v -21.287033 11.292717 75.141937 0.9843 0.0000 0.0000
v -21.245327 10.545193 75.186295 0.9804 0.0000 0.0000
v -20.758598 11.023190 74.329987 0.9686 0.0000 0.0000
v -20.360737 11.012577 73.777008 0.9568 0.0000 0.0000
v -20.730797 10.524841 74.359550 0.9607 0.0000 0.0000
v -20.332933 10.514229 73.806580 0.9686 0.0000 0.0000
v -19.974497 10.504665 73.308395 0.9529 0.0000 0.0000
v -19.382452 10.520699 73.021904 0.9058 0.0000 0.0000
v -20.002300 11.003014 73.278824 0.9333 0.0000 0.0000
v -19.410255 11.019047 72.992332 0.9019 0.0000 0.0000
v -18.942545 11.057911 73.207535 0.9294 0.0000 0.0000
v -18.357338 11.126194 73.808067 0.9686 0.0000 0.0000
v -18.914742 10.559563 73.237106 0.9294 0.0000 0.0000
v -18.329535 10.627846 73.837639 0.9725 0.0000 0.0000
v -17.325047 10.687397 73.896729 0.9843 0.0000 0.0000
v -17.352852 11.185745 73.867157 0.9843 0.0000 0.0000
v -17.366753 11.434921 73.852371 0.9843 0.0000 0.0000
v -16.861101 11.205204 73.732758 0.9843 0.0000 0.0000
v -16.875004 11.454380 73.717972 0.9843 0.0000 0.0000
v -14.707474 2.839470 96.669983 0.9843 0.0000 0.0000
v -15.740101 2.896851 96.471657 0.9843 0.0000 0.0000
v -13.678228 2.784458 96.841568 0.9843 0.0000 0.0000
v -14.687796 3.337349 96.711571 0.9843 0.0000 0.0000
v -15.720421 3.394726 96.513245 0.9843 0.0000 0.0000
v -13.658552 3.282333 96.883156 0.9843 0.0000 0.0000
v -12.649766 3.241650 96.892929 0.9843 0.0000 0.0000
v -12.133507 3.212997 96.991669 0.9843 0.0000 0.0000
v -12.669445 2.743774 96.851334 0.9843 0.0000 0.0000
v -12.639929 3.490593 96.913719 0.9843 0.0000 0.0000
v -12.123669 3.461937 97.012466 0.9843 0.0000 0.0000
v -16.759270 3.456455 96.265724 0.9764 0.0000 0.0000
v -17.256542 3.471817 96.317146 0.9843 0.0000 0.0000
v -16.749430 3.705399 96.286514 0.9725 0.0000 0.0000
v -16.778946 2.958580 96.224136 0.9843 0.0000 0.0000
v -17.246704 3.720760 96.337936 0.9804 0.0000 0.0000
vn -0.4963 0.0917 -0.8633
vn -0.8788 0.0741 -0.4714
vn -0.8449 0.0776 -0.5293
vn -0.4874 0.0918 -0.8683
vn 0.3637 0.0633 -0.9294
vn 0.6727 0.0352 -0.7391
vn 0.0006 0.0832 -0.9965
vn -0.3193 0.0914 -0.9432
vn 0.0879 0.2164 0.9723
vn 0.1511 -0.0937 0.9841
vn 0.1998 -0.1993 0.9594
vn -0.2163 -0.1678 0.9618
vn 0.3528 -0.0773 0.9325
vn 0.4101 0.0121 0.9120
vn 0.2518 -0.0433 -0.9668
vn 0.2279 -0.0450 -0.9726
vn 0.0743 -0.0549 -0.9957
vn 0.2510 -0.0434 -0.9670
vn 0.2942 -0.0402 -0.9549
vn -0.0385 -0.0613 -0.9974
vn 0.4417 0.0777 0.8938
vn 0.8473 0.0784 0.5254
vn 0.8099 0.0797 0.5812
vn 0.4326 0.0774 0.8983
vn -0.4199 0.0304 0.9071
vn -0.7163 0.0014 0.6978
vn -0.0619 0.0557 0.9965
vn 0.2603 0.0717 0.9629
vn -0.1921 -0.0742 0.9786
vn -0.1679 -0.0755 0.9829
vn -0.0130 -0.0827 0.9965
vn -0.1913 -0.0742 0.9787
vn -0.2352 -0.0717 0.9693
vn 0.0998 -0.0867 0.9912
vt 1.088261 0.021537
vt 1.088261 -0.523858
vt 1.340027 -0.523862
vt 1.340027 0.021537
vt -1.488007 -1.664651
vt -0.984483 -1.664651
vt -0.984470 -0.683775
vt -1.488003 -0.683775
vt -0.984474 0.002346
vt -1.488003 0.002350
vt -1.487998 0.620494
vt -0.984465 0.620489
vt -0.984465 1.283050
vt -1.487998 1.283055
vt -1.487990 1.803013
vt -0.984466 1.803008
vt -0.984457 2.650240
vt -1.487981 2.650249
vt -0.984457 3.665349
vt -1.487990 3.665349
vt 1.340026 -0.492228
vt 1.591797 -0.492223
vt 1.591795 0.021537
vt 1.340026 0.021535
vt 1.341983 0.555831
vt 1.598925 0.551654
vt 1.598929 1.056850
vt 1.340032 1.061839
vt 1.066111 -0.632718
vt 0.548547 -0.644746
vt 0.533298 -1.655050
vt 1.037327 -1.664645
vt 1.088257 0.392628
vt 0.576981 0.386858
vt 1.037083 1.423797
vt 0.526154 1.417600
vt 1.088257 2.484186
vt 0.585354 2.509519
vt 1.352433 -1.119743
vt 1.088260 -1.069262
vt 1.088260 -1.664647
vt 1.353903 -1.641097
vt -0.480920 -0.587377
vt 0.022613 -0.587379
vt 0.022613 0.473123
vt -0.480916 0.473121
vt 0.022613 1.525406
vt -0.480916 1.525403
vt 0.022618 2.542187
vt -0.480920 2.542189
vt 1.340028 1.081772
vt 1.088261 1.081770
vt 1.088261 0.551655
vt 1.340028 0.551655
vt 0.022617 -1.664647
vt -0.480916 -1.664647
vt 1.591798 0.047962
vt 1.591798 0.551655
vt 1.340032 0.551654
vt 1.340034 0.047959
vt 1.088262 -0.523860
vt 1.088262 -1.069255
vt 1.340029 -1.069260
vt 1.340031 -0.523860
vt -0.480915 3.665349
vt -0.984440 3.665349
vt -0.984448 2.684474
vt -0.480915 2.684474
vt -0.984453 1.998352
vt -0.480920 1.998348
vt -0.480916 1.380209
vt -0.984448 1.380209
vt -0.984453 0.717644
vt -0.480920 0.717644
vt -0.480928 0.197690
vt -0.984457 0.197690
vt -0.984457 -0.649546
vt -0.480928 -0.649546
vt -0.984457 -1.664647
vt -0.480928 -1.664647
vt 1.591796 -0.555499
vt 1.340029 -0.555501
vt 1.340029 -1.069260
vt 1.591795 -1.069262
vt 0.526146 1.464920
vt 0.022622 1.464922
vt 0.022613 0.404418
vt 0.526146 0.404418
vt 0.022613 -0.647862
vt 0.526138 -0.647862
vt 0.022622 -1.664647
vt 0.526146 -1.664647
vt 1.340029 0.551654
vt 1.088265 0.551655
vt 1.088261 0.021537
vt 1.340032 0.021539
vt 0.022613 2.542187
vt 0.526146 2.542187
vt 1.353903 -1.160955
vt 1.353903 -1.664647
vt 1.605672 -1.664647
vt 1.605674 -1.160952
s 0
f 1/1/1 3/2/1 4/3/1 2/4/1
f 3/5/2 5/6/2 8/7/2 6/8/2
f 9/9/3 7/10/3 6/8/3 8/7/3
f 12/11/3 7/10/3 9/9/3 10/12/3
f 11/13/4 13/14/4 12/11/4 10/12/4
f 14/15/5 13/14/5 11/13/5 16/16/5
f 17/17/6 15/18/6 14/15/6 16/16/6
f 18/19/7 19/20/7 15/18/7 17/17/7
f 21/21/8 22/22/8 20/23/8 19/24/8
f 24/25/9 32/26/9 35/27/9 25/28/9
f 26/29/10 38/30/10 24/31/10 29/32/10
f 23/33/11 36/34/11 38/30/11 26/29/11
f 28/35/12 37/36/12 36/34/12 23/33/12
f 30/37/13 31/38/13 37/36/13 28/35/13
f 27/39/14 33/40/14 34/41/14 31/42/14
f 43/43/15 40/44/15 39/45/15 42/46/15
f 42/46/16 39/45/16 41/47/16 44/48/16
f 44/48/17 41/47/17 47/49/17 45/50/17
f 46/51/18 49/52/18 48/53/18 45/54/18
f 53/55/19 40/44/19 43/43/19 50/56/19
f 51/57/20 50/58/20 52/59/20 54/60/20
f 55/61/21 57/62/21 58/63/21 56/64/21
f 57/65/22 59/66/22 62/67/22 60/68/22
f 63/69/23 61/70/23 60/68/23 62/67/23
f 66/71/23 61/70/23 63/69/23 64/72/23
f 65/73/24 67/74/24 66/71/24 64/72/24
f 68/75/25 67/74/25 65/73/25 70/76/25
f 71/77/26 69/78/26 68/75/26 70/76/26
f 72/79/27 73/80/27 69/78/27 71/77/27
f 75/81/28 76/82/28 74/83/28 73/84/28
f 81/85/29 78/86/29 77/87/29 80/88/29
f 80/88/30 77/87/30 79/89/30 82/90/30
f 82/90/31 79/89/31 85/91/31 83/92/31
f 84/93/32 87/94/32 86/95/32 83/96/32
f 91/97/33 78/86/33 81/85/33 88/98/33
f 89/99/34 88/100/34 90/101/34 92/102/34
