# Blender 5.0.1
# www.blender.org
o CaveEntrance
v -1.000000 -11.000000 -35.000000 0.0000 0.0000 0.0000
v 1.000000 -11.000000 -35.000000 0.0000 0.0000 0.0000
v -1.000000 -11.000000 -37.000000 0.0000 0.0000 0.0000
v 1.000000 -11.000000 -37.000000 0.0000 0.0000 0.0000
v 1.000000 -10.000000 -35.000000 0.0157 0.0000 0.0000
v 1.000000 -10.000000 -37.000000 0.0000 0.0000 0.0000
v 0.983511 -11.000000 -37.329491 0.0000 0.0000 0.0000
v 0.983511 -10.000000 -37.329491 0.0000 0.0000 0.0000
v -0.983514 -11.000000 -37.329491 0.0000 0.0000 0.0000
v -1.000000 -11.000000 -35.000000 0.0000 0.0000 0.0000
v -1.000000 -11.000000 -37.000000 0.0000 0.0000 0.0000
v -1.000000 -10.000000 -35.000000 0.0157 0.0000 0.0000
v -1.000000 -10.000000 -37.000000 0.0000 0.0000 0.0000
v -0.983514 -11.000000 -37.329491 0.0000 0.0000 0.0000
v -0.983514 -10.000000 -37.329491 0.0000 0.0000 0.0000
v 1.000000 -9.000000 -35.000000 0.0157 0.0000 0.0000
v 1.000000 -9.000000 -37.000000 0.0000 0.0000 0.0000
v 0.983511 -9.000000 -37.329491 0.0000 0.0000 0.0000
v -1.000000 -9.000000 -35.000000 0.0078 0.0000 0.0000
v -1.000000 -9.000000 -37.000000 0.0000 0.0000 0.0000
v -0.983514 -9.000000 -37.329491 0.0000 0.0000 0.0000
v 1.000000 -8.000000 -35.000000 0.0078 0.0000 0.0000
v 1.000000 -8.000000 -37.000000 0.0000 0.0000 0.0000
v 0.983511 -8.000000 -37.329491 0.0000 0.0000 0.0000
v -1.000000 -8.000000 -35.000000 0.0157 0.0000 0.0000
v -1.000000 -8.000000 -37.000000 0.0000 0.0000 0.0000
v -0.983514 -8.000000 -37.329491 0.0000 0.0000 0.0000
v -1.000000 -8.000000 -35.000000 0.0510 0.0000 0.0000
v 1.000000 -8.000000 -35.000000 0.0549 0.0000 0.0000
v -1.000000 -8.000000 -37.000000 0.0039 0.0000 0.0000
v 1.000000 -8.000000 -37.000000 0.0039 0.0000 0.0000
v -1.000000 -8.250000 -37.000000 0.0039 0.0000 0.0000
v 1.000000 -8.250000 -37.000000 0.0039 0.0000 0.0000
v 0.983511 -8.250000 -37.329491 0.0000 0.0000 0.0000
v -0.983514 -8.250000 -37.329491 0.0000 0.0000 0.0000
vn -0.0000 1.0000 -0.0000
vn -1.0000 -0.0000 -0.0000
vn -0.9988 -0.0000 0.0500
vn 1.0000 -0.0000 -0.0000
vn 0.9988 -0.0000 0.0500
vn -0.0000 -1.0000 -0.0000
vn 0.9988 -0.0000 -0.0500
vn -0.0000 -0.0000 -1.0000
vn -0.9988 -0.0000 -0.0500
vn -0.0000 -0.0000 1.0000
vt 0.000000 0.000000
vt 2.000000 0.000000
vt 2.000000 2.000000
vt 0.000000 2.000000
vt 0.000000 -1.000000
vt 2.000000 -1.000000
vt -0.000000 0.000000
vt -0.329903 -0.000000
vt -0.329903 -1.000000
vt -0.329903 0.000000
vt -0.329903 -1.000000
vt -0.000000 1.000000
vt 2.000000 1.000000
vt -0.329903 1.000000
vt -0.000000 1.000000
vt -0.000000 1.000000
vt -0.329903 1.000000
vt -0.000000 2.000000
vt 2.000000 2.000000
vt -0.000000 2.000000
vt -0.329903 2.000000
vt -0.000000 2.000000
vt -0.000000 2.000000
vt -0.329903 2.000000
vt 0.000000 2.250000
vt 0.000000 2.579903
vt 2.000000 2.579903
vt 2.000000 2.250000
vt 0.000000 2.829903
vt 2.000000 2.829903
s 0
f 1/1/1 2/2/1 4/3/1 3/4/1
f 4/5/2 2/6/2 5/2/2 6/7/2
f 8/8/3 7/9/3 4/5/3 6/7/3
f 11/5/4 13/7/4 12/2/4 10/6/4
f 15/10/5 13/7/5 11/5/5 14/11/5
f 12/2/4 13/7/4 20/12/4 19/13/4
f 13/7/5 15/10/5 21/14/5 20/15/5
f 6/7/2 5/2/2 16/13/2 17/12/2
f 8/8/3 6/7/3 17/16/3 18/17/3
f 19/13/4 20/12/4 26/18/4 25/19/4
f 17/12/2 16/13/2 22/19/2 23/20/2
f 20/15/5 21/14/5 27/21/5 26/22/5
f 18/17/3 17/16/3 23/23/3 24/24/3
f 28/1/6 30/4/6 31/3/6 29/2/6
f 24/1/7 31/3/7 33/3/7 34/1/7
f 32/25/6 35/26/6 34/27/6 33/28/6
f 27/29/8 24/30/8 34/27/8 35/26/8
f 30/4/9 27/1/9 35/1/9 32/4/9
f 31/3/10 30/4/10 32/25/10 33/28/10
l 3 9
l 9 14
