# Blender 5.0.0
# www.blender.org
o ForestStairs
v 8.000000 -1.000000 -21.000000 1.0000 1.0000 0.0000
v 7.000000 -1.000000 -21.000000 1.0000 0.0549 0.0000
v 7.000000 -0.750000 -21.000000 1.0000 0.1569 0.0000
v 8.000000 0.000000 -20.000000 1.0000 0.0000 0.0000
v 7.000000 -0.000000 -20.000000 1.0000 0.0000 0.0000
v 8.000000 -0.000000 -20.250000 1.0000 0.0431 0.0000
v 8.000000 -0.250000 -20.250000 1.0000 1.0000 0.0000
v 7.000000 -0.250000 -20.250000 1.0000 0.0000 0.0000
v 7.000000 -0.000000 -20.250000 1.0000 0.0000 0.0000
v 7.000000 -0.500000 -20.500000 1.0000 0.0000 0.0000
v 8.000000 -0.250000 -20.500000 1.0000 1.0000 0.0000
v 7.000000 -0.250000 -20.500000 1.0000 0.0000 0.0000
v 8.000000 -0.500000 -20.750000 1.0000 1.0000 0.0000
v 7.000000 -0.750000 -20.750000 1.0000 0.0353 0.0000
v 7.000000 -0.500000 -20.750000 1.0000 0.0000 0.0000
v 16.000000 -1.000000 -20.999998 1.0000 0.0000 0.0000
v 15.000000 -1.000000 -20.999998 1.0000 0.0000 0.0000
v 16.000000 -0.750000 -20.999998 1.0000 0.0000 0.0000
v 15.000000 -0.750000 -20.999998 1.0000 0.0000 0.0000
v 16.000000 0.000000 -19.999998 1.0000 0.0000 0.0000
v 15.000000 0.000000 -19.999998 1.0000 0.0000 0.0000
v 16.000000 -0.000000 -20.249998 1.0000 0.0000 0.0000
v 16.000000 -0.250000 -20.249998 1.0000 0.0000 0.0000
v 16.000000 -0.250000 -20.499998 1.0000 0.0000 0.0000
v 16.000000 -0.500000 -20.499998 1.0000 0.0000 0.0000
v 16.000000 -0.750000 -20.749998 1.0000 0.0000 0.0000
v 16.000000 -0.500000 -20.749998 1.0000 0.0000 0.0000
v 17.000000 -1.000000 -20.999998 1.0000 0.0000 0.0000
v 17.000000 -0.750000 -20.999998 1.0000 0.0000 0.0000
v 17.000000 0.000000 -20.000000 0.4039 1.0000 0.0000
v 17.000000 -0.000000 -20.249998 1.0000 1.0000 0.0000
v 17.000000 -0.250000 -20.249998 1.0000 1.0000 0.0000
v 17.000000 -0.250000 -20.499998 1.0000 1.0000 0.0000
v 17.000000 -0.500000 -20.499998 1.0000 1.0000 0.0000
v 17.000000 -0.750000 -20.749998 1.0000 0.0000 0.0000
v 17.000000 -0.500000 -20.749998 1.0000 0.9019 0.0000
v 18.000000 -0.750000 -20.999998 1.0000 0.0000 0.0000
v 18.000000 0.000000 -20.000000 1.0000 0.0000 0.0000
v 18.000000 -0.000000 -20.250000 1.0000 0.0000 0.0000
v 18.000000 -0.250000 -20.249998 1.0000 0.0000 0.0000
v 18.000000 -0.250000 -20.499998 1.0000 0.0000 0.0000
v 18.000000 -0.500000 -20.499998 1.0000 0.0000 0.0000
v 18.000000 -0.750000 -20.749998 1.0000 0.0000 0.0000
v 18.000000 -0.500000 -20.749998 1.0000 0.0000 0.0000
v 18.000000 -1.000000 -20.999998 1.0000 0.0000 0.0000
v 19.000000 -0.750000 -21.000000 1.0000 0.0000 0.0000
v 19.000000 0.000000 -20.000000 1.0000 0.0000 0.0000
v 19.000000 -0.000000 -20.250000 1.0000 0.0000 0.0000
v 19.000000 -0.250000 -20.250000 1.0000 0.0000 0.0000
v 19.000000 -0.250000 -20.500000 1.0000 0.0000 0.0000
v 19.000000 -0.500000 -20.500000 1.0000 0.0000 0.0000
v 19.000000 -0.750000 -20.750000 1.0000 0.0000 0.0000
v 19.000000 -0.500000 -20.750000 1.0000 0.0000 0.0000
v 19.000000 -1.000000 -20.999998 1.0000 0.0000 0.0000
v 20.000000 -0.750000 -21.000000 1.0000 1.0000 0.0000
v 20.000000 0.000000 -20.000000 1.0000 1.0000 0.0000
v 20.000000 -0.000000 -20.250000 1.0000 1.0000 0.0000
v 20.000000 -0.250000 -20.250000 1.0000 1.0000 0.0000
v 20.000000 -0.250000 -20.500000 1.0000 1.0000 0.0000
v 20.000000 -0.500000 -20.500000 1.0000 1.0000 0.0000
v 20.000000 -0.750000 -20.750000 1.0000 1.0000 0.0000
v 20.000000 -0.500000 -20.750000 1.0000 1.0000 0.0000
v 21.000000 -1.000000 -21.000000 1.0000 1.0000 0.0000
v 20.000000 -1.000000 -21.000000 1.0000 1.0000 0.0000
v 21.000000 -0.750000 -21.000000 1.0000 1.0000 0.0000
v 21.000000 0.000000 -20.000000 1.0000 1.0000 0.0000
v 21.000000 -0.000000 -20.250000 1.0000 1.0000 0.0000
v 21.000000 -0.250000 -20.250000 1.0000 1.0000 0.0000
v 21.000000 -0.250000 -20.500000 1.0000 1.0000 0.0000
v 21.000000 -0.500000 -20.500000 1.0000 1.0000 0.0000
v 21.000000 -0.750000 -20.750000 1.0000 1.0000 0.0000
v 21.000000 -0.500000 -20.750000 1.0000 1.0000 0.0000
v 22.000000 -1.000000 -21.000000 1.0000 0.0784 0.0000
v 22.000000 0.000000 -20.000000 1.0000 0.5255 0.0000
v 22.000000 -0.000000 -20.250000 1.0000 1.0000 0.0000
v 22.000000 -0.250000 -20.250000 1.0000 1.0000 0.0000
v 22.000000 -0.250000 -20.500000 1.0000 1.0000 0.0000
v 22.000000 -0.750000 -20.750000 1.0000 1.0000 0.0000
v 12.000000 -1.000000 -20.999998 1.0000 1.0000 0.0000
v 12.000000 -0.750000 -20.999998 1.0000 1.0000 0.0000
v 12.000000 0.000000 -19.999998 1.0000 1.0000 0.0000
v 11.000000 0.000000 -19.999998 1.0000 1.0000 0.0000
v 12.000000 -0.000000 -20.249998 1.0000 1.0000 0.0000
v 12.000000 -0.250000 -20.249998 1.0000 1.0000 0.0000
v 12.000000 -0.250000 -20.499998 1.0000 1.0000 0.0000
v 12.000000 -0.500000 -20.499998 1.0000 1.0000 0.0000
v 12.000000 -0.750000 -20.749998 1.0000 1.0000 0.0000
v 12.000000 -0.500000 -20.749998 1.0000 1.0000 0.0000
v 14.000000 0.000000 -19.999998 1.0000 0.0000 0.0000
v 15.000000 -0.000000 -20.249998 1.0000 0.0000 0.0000
v 15.000000 -0.250000 -20.249998 1.0000 0.0000 0.0000
v 15.000000 -0.250000 -20.499998 1.0000 0.0000 0.0000
v 15.000000 -0.500000 -20.499998 1.0000 0.0000 0.0000
v 15.000000 -0.750000 -20.749998 1.0000 0.0000 0.0000
v 15.000000 -0.500000 -20.749998 1.0000 0.0000 0.0000
v 14.000000 -1.000000 -20.999998 1.0000 1.0000 0.0000
v 13.000000 -1.000000 -20.999998 1.0000 1.0000 0.0000
v 14.000000 -0.750000 -20.999998 1.0000 1.0000 0.0000
v 13.000000 -0.750000 -20.999998 1.0000 1.0000 0.0000
v 13.000000 0.000000 -19.999998 1.0000 0.0000 0.0000
v 14.000000 -0.000000 -20.249998 1.0000 0.0000 0.0000
v 14.000000 -0.250000 -20.249998 1.0000 0.0000 0.0000
v 14.000000 -0.250000 -20.499998 1.0000 0.0000 0.0000
v 14.000000 -0.500000 -20.499998 1.0000 1.0000 0.0000
v 13.000000 -0.500000 -20.499998 1.0000 1.0000 0.0000
v 13.000000 -0.250000 -20.499998 1.0000 1.0000 0.0000
v 14.000000 -0.750000 -20.749998 1.0000 1.0000 0.0000
v 14.000000 -0.500000 -20.749998 1.0000 1.0000 0.0000
v 13.000000 -0.000000 -20.249998 1.0000 0.2000 0.0000
v 13.000000 -0.250000 -20.249998 1.0000 1.0000 0.0000
v 13.000000 -0.750000 -20.749998 1.0000 1.0000 0.0000
v 13.000000 -0.500000 -20.749998 1.0000 1.0000 0.0000
v 9.000000 -0.750000 -21.000000 1.0000 1.0000 0.0000
v 8.000000 -0.750000 -21.000000 1.0000 1.0000 0.0000
v 9.000000 0.000000 -20.000000 1.0000 0.0000 0.0000
v 9.000000 -0.000000 -20.250000 1.0000 0.8078 0.0000
v 9.000000 -0.250000 -20.250000 1.0000 1.0000 0.0000
v 9.000000 -0.250000 -20.500000 1.0000 1.0000 0.0000
v 9.000000 -0.500000 -20.500000 1.0000 1.0000 0.0000
v 8.000000 -0.500000 -20.500000 1.0000 1.0000 0.0000
v 9.000000 -0.500000 -20.750000 1.0000 1.0000 0.0000
v 9.000000 -0.750000 -20.750000 1.0000 1.0000 0.0000
v 8.000000 -0.750000 -20.750000 1.0000 1.0000 0.0000
v 10.000000 -1.000000 -21.000000 1.0000 0.0000 0.0000
v 9.000000 -1.000000 -21.000000 1.0000 1.0000 0.0000
v 11.000000 -1.000000 -20.999998 1.0000 0.0000 0.0000
v 11.000000 -0.750000 -20.999998 1.0000 0.1176 0.0000
v 10.000000 0.000000 -20.000000 1.0000 0.0000 0.0000
v 10.000000 -0.000000 -20.250000 1.0000 0.0000 0.0000
v 11.000000 -0.000000 -20.249998 1.0000 1.0000 0.0000
v 11.000000 -0.250000 -20.249998 1.0000 1.0000 0.0000
v 10.000000 -0.250000 -20.500000 1.0000 0.0000 0.0000
v 10.000000 -0.250000 -20.250000 1.0000 0.0000 0.0000
v 11.000000 -0.500000 -20.499998 1.0000 1.0000 0.0000
v 11.000000 -0.250000 -20.499998 1.0000 1.0000 0.0000
v 10.000000 -0.750000 -21.000000 1.0000 0.0000 0.0000
v 10.000000 -0.750000 -20.750000 1.0000 0.0000 0.0000
v 11.000000 -0.500000 -20.749998 1.0000 1.0000 0.0000
v 11.000000 -0.750000 -20.749998 1.0000 1.0000 0.0000
v 10.000000 -0.500000 -20.500000 1.0000 0.0000 0.0000
v 10.000000 -0.500000 -20.750000 1.0000 0.0000 0.0000
v 23.000000 -0.750000 -21.000000 1.0000 0.0000 0.0000
v 22.000000 -0.750000 -21.000000 1.0000 0.5373 0.0000
v 23.000000 0.000000 -20.000000 1.0000 0.0000 0.0000
v 23.000000 -0.000000 -20.250000 1.0000 0.0000 0.0000
v 23.000000 -0.250000 -20.250000 1.0000 0.0000 0.0000
v 23.000000 -0.250000 -20.500000 1.0000 0.0000 0.0000
v 23.000000 -0.500000 -20.500000 1.0000 0.0000 0.0000
v 22.000000 -0.500000 -20.500000 1.0000 1.0000 0.0000
v 23.000000 -0.750000 -20.750000 1.0000 0.0000 0.0000
v 23.000000 -0.500000 -20.750000 1.0000 0.0000 0.0000
v 22.000000 -0.500000 -20.750000 1.0000 1.0000 0.0000
v 24.000000 -1.000000 -21.000000 1.0000 0.0000 0.0000
v 23.000000 -1.000000 -21.000000 1.0000 0.0000 0.0000
v 24.000000 -0.750000 -21.000000 1.0000 0.0000 0.0000
v 24.000000 0.000000 -20.000000 1.0000 0.0000 0.0000
v 24.000000 -0.000000 -20.250000 1.0000 0.0000 0.0000
v 24.000000 -0.250000 -20.250000 1.0000 0.0000 0.0000
v 24.000000 -0.250000 -20.500000 1.0000 0.0000 0.0000
v 24.000000 -0.500000 -20.500000 1.0000 0.0000 0.0000
v 24.000000 -0.750000 -20.750000 1.0000 0.0000 0.0000
v 24.000000 -0.500000 -20.750000 1.0000 0.0000 0.0000
vn -0.0000 -0.0000 -1.0000
vn -0.0000 1.0000 -0.0000
vt 0.000000 0.000000
vt 1.000000 0.000000
vt 1.000000 0.250000
vt 0.000000 0.250000
vt 0.000000 0.750000
vt 1.000000 0.750000
vt 1.000000 1.000000
vt 0.000000 1.000000
vt 0.000000 0.500000
vt 1.000000 0.500000
s 0
f 1/1/1 2/2/1 3/3/1 114/4/1
f 6/5/2 9/6/2 5/7/2 4/8/2
f 7/9/1 8/10/1 9/6/1 6/5/1
f 11/4/2 12/3/2 8/10/2 7/9/2
f 120/1/1 10/2/1 12/3/1 11/4/1
f 114/4/2 3/3/2 14/10/2 123/9/2
f 123/9/1 14/10/1 15/6/1 13/5/1
f 13/5/2 15/6/2 10/7/2 120/8/2
f 16/1/1 17/2/1 19/3/1 18/4/1
f 22/5/2 90/6/2 21/7/2 20/8/2
f 23/9/1 91/10/1 90/6/1 22/5/1
f 24/4/2 92/3/2 91/10/2 23/9/2
f 25/1/1 93/2/1 92/3/1 24/4/1
f 18/4/2 19/3/2 94/10/2 26/9/2
f 26/9/1 94/10/1 95/6/1 27/5/1
f 27/5/2 95/6/2 93/7/2 25/8/2
f 28/1/1 16/2/1 18/3/1 29/4/1
f 31/5/2 22/6/2 20/7/2 30/8/2
f 32/9/1 23/10/1 22/6/1 31/5/1
f 33/4/2 24/3/2 23/10/2 32/9/2
f 34/1/1 25/2/1 24/3/1 33/4/1
f 29/4/2 18/3/2 26/10/2 35/9/2
f 35/9/1 26/10/1 27/6/1 36/5/1
f 36/5/2 27/6/2 25/7/2 34/8/2
f 45/1/1 28/2/1 29/3/1 37/4/1
f 39/5/2 31/6/2 30/7/2 38/8/2
f 40/9/1 32/10/1 31/6/1 39/5/1
f 41/4/2 33/3/2 32/10/2 40/9/2
f 42/1/1 34/2/1 33/3/1 41/4/1
f 37/4/2 29/3/2 35/10/2 43/9/2
f 43/9/1 35/10/1 36/6/1 44/5/1
f 44/5/2 36/6/2 34/7/2 42/8/2
f 54/1/1 45/2/1 37/3/1 46/4/1
f 48/5/2 39/6/2 38/7/2 47/8/2
f 49/9/1 40/10/1 39/6/1 48/5/1
f 50/4/2 41/3/2 40/10/2 49/9/2
f 51/1/1 42/2/1 41/3/1 50/4/1
f 46/4/2 37/3/2 43/10/2 52/9/2
f 52/9/1 43/10/1 44/6/1 53/5/1
f 53/5/2 44/6/2 42/7/2 51/8/2
f 64/1/1 54/2/1 46/3/1 55/4/1
f 57/5/2 48/6/2 47/7/2 56/8/2
f 58/9/1 49/10/1 48/6/1 57/5/1
f 59/4/2 50/3/2 49/10/2 58/9/2
f 60/1/1 51/2/1 50/3/1 59/4/1
f 55/4/2 46/3/2 52/10/2 61/9/2
f 61/9/1 52/10/1 53/6/1 62/5/1
f 62/5/2 53/6/2 51/7/2 60/8/2
f 63/1/1 64/2/1 55/3/1 65/4/1
f 67/5/2 57/6/2 56/7/2 66/8/2
f 68/9/1 58/10/1 57/6/1 67/5/1
f 69/4/2 59/3/2 58/10/2 68/9/2
f 70/1/1 60/2/1 59/3/1 69/4/1
f 65/4/2 55/3/2 61/10/2 71/9/2
f 71/9/1 61/10/1 62/6/1 72/5/1
f 72/5/2 62/6/2 60/7/2 70/8/2
f 73/1/1 63/2/1 65/3/1 143/4/1
f 75/5/2 67/6/2 66/7/2 74/8/2
f 76/9/1 68/10/1 67/6/1 75/5/1
f 77/4/2 69/3/2 68/10/2 76/9/2
f 149/1/1 70/2/1 69/3/1 77/4/1
f 143/4/2 65/3/2 71/10/2 78/9/2
f 78/9/1 71/10/1 72/6/1 152/5/1
f 152/5/2 72/6/2 70/7/2 149/8/2
f 79/1/1 126/2/1 127/3/1 80/4/1
f 83/5/2 130/6/2 82/7/2 81/8/2
f 84/9/1 131/10/1 130/6/1 83/5/1
f 85/4/2 135/3/2 131/10/2 84/9/2
f 86/1/1 134/2/1 135/3/1 85/4/1
f 80/4/2 127/3/2 139/10/2 87/9/2
f 87/9/1 139/10/1 138/6/1 88/5/1
f 88/5/2 138/6/2 134/7/2 86/8/2
f 17/1/1 96/2/1 98/3/1 19/4/1
f 90/5/2 101/6/2 89/7/2 21/8/2
f 91/9/1 102/10/1 101/6/1 90/5/1
f 92/4/2 103/3/2 102/10/2 91/9/2
f 93/1/1 104/2/1 103/3/1 92/4/1
f 19/4/2 98/3/2 107/10/2 94/9/2
f 94/9/1 107/10/1 108/6/1 95/5/1
f 95/5/2 108/6/2 104/7/2 93/8/2
f 96/1/1 97/2/1 99/3/1 98/4/1
f 101/5/2 109/6/2 100/7/2 89/8/2
f 102/9/1 110/10/1 109/6/1 101/5/1
f 103/4/2 106/3/2 110/10/2 102/9/2
f 104/1/1 105/2/1 106/3/1 103/4/1
f 98/4/2 99/3/2 111/10/2 107/9/2
f 107/9/1 111/10/1 112/6/1 108/5/1
f 108/5/2 112/6/2 105/7/2 104/8/2
f 97/1/1 79/2/1 80/3/1 99/4/1
f 109/5/2 83/6/2 81/7/2 100/8/2
f 110/9/1 84/10/1 83/6/1 109/5/1
f 106/4/2 85/3/2 84/10/2 110/9/2
f 105/1/1 86/2/1 85/3/1 106/4/1
f 99/4/2 80/3/2 87/10/2 111/9/2
f 111/9/1 87/10/1 88/6/1 112/5/1
f 112/5/2 88/6/2 86/7/2 105/8/2
f 125/1/1 1/2/1 114/3/1 113/4/1
f 116/5/2 6/6/2 4/7/2 115/8/2
f 117/9/1 7/10/1 6/6/1 116/5/1
f 118/4/2 11/3/2 7/10/2 117/9/2
f 119/1/1 120/2/1 11/3/1 118/4/1
f 113/4/2 114/3/2 123/10/2 122/9/2
f 122/9/1 123/10/1 13/6/1 121/5/1
f 121/5/2 13/6/2 120/7/2 119/8/2
f 124/1/1 125/2/1 113/3/1 136/4/1
f 129/5/2 116/6/2 115/7/2 128/8/2
f 133/9/1 117/10/1 116/6/1 129/5/1
f 132/4/2 118/3/2 117/10/2 133/9/2
f 140/1/1 119/2/1 118/3/1 132/4/1
f 136/4/2 113/3/2 122/10/2 137/9/2
f 137/9/1 122/10/1 121/6/1 141/5/1
f 141/5/2 121/6/2 119/7/2 140/8/2
f 126/1/1 124/2/1 136/3/1 127/4/1
f 130/5/2 129/6/2 128/7/2 82/8/2
f 131/9/1 133/10/1 129/6/1 130/5/1
f 135/4/2 132/3/2 133/10/2 131/9/2
f 134/1/1 140/2/1 132/3/1 135/4/1
f 127/4/2 136/3/2 137/10/2 139/9/2
f 139/9/1 137/10/1 141/6/1 138/5/1
f 138/5/2 141/6/2 140/7/2 134/8/2
f 154/1/1 73/2/1 143/3/1 142/4/1
f 145/5/2 75/6/2 74/7/2 144/8/2
f 146/9/1 76/10/1 75/6/1 145/5/1
f 147/4/2 77/3/2 76/10/2 146/9/2
f 148/1/1 149/2/1 77/3/1 147/4/1
f 142/4/2 143/3/2 78/10/2 150/9/2
f 150/9/1 78/10/1 152/6/1 151/5/1
f 151/5/2 152/6/2 149/7/2 148/8/2
f 153/1/1 154/2/1 142/3/1 155/4/1
f 157/5/2 145/6/2 144/7/2 156/8/2
f 158/9/1 146/10/1 145/6/1 157/5/1
f 159/4/2 147/3/2 146/10/2 158/9/2
f 160/1/1 148/2/1 147/3/1 159/4/1
f 155/4/2 142/3/2 150/10/2 161/9/2
f 161/9/1 150/10/1 151/6/1 162/5/1
f 162/5/2 151/6/2 148/7/2 160/8/2
o CastleStairs
v 0.000000 -1.000000 0.999999 1.0000 0.0000 0.0000
v 1.000000 -1.000000 0.999999 1.0000 0.0000 0.0000
v 0.000000 -0.750000 1.000000 1.0000 0.0000 0.0000
v 1.000000 -0.750000 0.999999 1.0000 0.0000 0.0000
v 0.000000 0.000000 -0.000000 1.0000 0.0000 0.0000
v 1.000000 0.000000 -0.000001 1.0000 0.0000 0.0000
v 0.000000 -0.000000 0.250000 1.0000 0.0000 0.0000
v 0.000000 -0.250000 0.250000 1.0000 0.0000 0.0000
v 0.000000 -0.250000 0.500000 1.0000 0.0000 0.0000
v 0.000000 -0.500000 0.500000 1.0000 0.0000 0.0000
v 0.000000 -0.750000 0.750000 1.0000 0.0000 0.0000
v 0.000000 -0.500000 0.750000 1.0000 0.0000 0.0000
v -1.000000 -1.000000 1.000000 1.0000 0.0000 0.0000
v -1.000000 -0.750000 1.000000 1.0000 0.0000 0.0000
v -1.000000 0.000000 -0.000000 1.0000 0.0000 0.0000
v -1.000000 -0.000000 0.250000 1.0000 0.0000 0.0000
v -1.000000 -0.250000 0.250000 1.0000 0.0000 0.0000
v -1.000000 -0.250000 0.500000 1.0000 0.0000 0.0000
v -1.000000 -0.500000 0.500000 1.0000 0.0000 0.0000
v -1.000000 -0.750000 0.750000 1.0000 0.0000 0.0000
v -1.000000 -0.500000 0.750000 1.0000 0.0000 0.0000
v -2.000000 -0.750000 1.000000 1.0000 0.0000 0.0000
v -2.000000 0.000000 0.000000 1.0000 0.0000 0.0000
v -2.000000 -0.000000 0.250000 1.0000 0.0000 0.0000
v -2.000000 -0.250000 0.250000 1.0000 0.0000 0.0000
v -2.000000 -0.250000 0.500000 1.0000 0.0000 0.0000
v -2.000000 -0.500000 0.500000 1.0000 0.0000 0.0000
v -2.000000 -0.750000 0.750000 1.0000 0.0000 0.0000
v -2.000000 -0.500000 0.750000 1.0000 0.0000 0.0000
v -2.000000 -1.000000 1.000000 1.0000 0.0000 0.0000
v -3.000000 -0.750000 1.000000 1.0000 0.0000 0.0000
v -3.000000 0.000000 0.000000 1.0000 0.0000 0.0000
v -3.000000 -0.000000 0.250000 1.0000 0.0000 0.0000
v -3.000000 -0.250000 0.250000 1.0000 0.0000 0.0000
v -3.000000 -0.250000 0.500000 1.0000 0.0000 0.0000
v -3.000000 -0.500000 0.500000 1.0000 0.0000 0.0000
v -3.000000 -0.750000 0.750000 1.0000 0.0000 0.0000
v -3.000000 -0.500000 0.750000 1.0000 0.0000 0.0000
v -3.000000 -1.000000 1.000000 1.0000 0.0000 0.0000
v -4.000000 -0.750000 1.000000 1.0000 0.0000 0.0000
v -4.000000 0.000000 0.000000 1.0000 0.0000 0.0000
v -4.000000 -0.000000 0.250000 1.0000 0.0000 0.0000
v -4.000000 -0.250000 0.250000 1.0000 0.0000 0.0000
v -4.000000 -0.250000 0.500000 1.0000 0.0000 0.0000
v -4.000000 -0.500000 0.500000 1.0000 0.0000 0.0000
v -4.000000 -0.750000 0.750000 1.0000 0.0000 0.0000
v -4.000000 -0.500000 0.750000 1.0000 0.0000 0.0000
v -5.000000 -1.000000 1.000000 1.0000 0.0000 0.0000
v -4.000000 -1.000000 1.000000 1.0000 0.0000 0.0000
v -5.000000 -0.750000 1.000000 1.0000 0.0000 0.0000
v -5.000000 0.000000 0.000000 1.0000 0.0000 0.0000
v -5.000000 -0.000000 0.250000 1.0000 0.0000 0.0000
v -5.000000 -0.250000 0.250000 1.0000 0.0000 0.0000
v -5.000000 -0.250000 0.500000 1.0000 0.0000 0.0000
v -5.000000 -0.500000 0.500000 1.0000 0.0000 0.0000
v -5.000000 -0.750000 0.750000 1.0000 0.0000 0.0000
v -5.000000 -0.500000 0.750000 1.0000 0.0000 0.0000
v -6.000000 -1.000000 1.000000 1.0000 0.0000 0.0000
v -6.000000 0.000000 0.000001 1.0000 0.0000 0.0000
v -6.000000 -0.000000 0.250001 1.0000 0.0000 0.0000
v -6.000000 -0.250000 0.250001 1.0000 0.0000 0.0000
v -6.000000 -0.250000 0.500001 1.0000 0.0000 0.0000
v -6.000000 -0.750000 0.750001 1.0000 0.0000 0.0000
v 4.000000 -1.000000 0.999999 1.0000 0.0000 0.0000
v 4.000000 -0.750000 0.999999 1.0000 0.0000 0.0000
v 4.000000 0.000000 -0.000001 1.0000 0.0000 0.0000
v 5.000000 0.000000 -0.000001 1.0000 0.0000 0.0000
v 4.000000 -0.000000 0.249999 1.0000 0.0000 0.0000
v 4.000000 -0.250000 0.249999 1.0000 0.0000 0.0000
v 4.000000 -0.250000 0.499999 1.0000 0.0000 0.0000
v 4.000000 -0.500000 0.499999 1.0000 0.0000 0.0000
v 4.000000 -0.750000 0.749999 1.0000 0.0000 0.0000
v 4.000000 -0.500000 0.749999 1.0000 0.0000 0.0000
v 2.000000 0.000000 -0.000001 1.0000 0.0000 0.0000
v 1.000000 -0.000000 0.249999 1.0000 0.0000 0.0000
v 1.000000 -0.250000 0.249999 1.0000 0.0000 0.0000
v 1.000000 -0.250000 0.499999 1.0000 0.0000 0.0000
v 1.000000 -0.500000 0.499999 1.0000 0.0000 0.0000
v 1.000000 -0.750000 0.749999 1.0000 0.0000 0.0000
v 1.000000 -0.500000 0.749999 1.0000 0.0000 0.0000
v 2.000000 -1.000000 0.999999 1.0000 0.0000 0.0000
v 3.000000 -1.000000 0.999999 1.0000 0.0000 0.0000
v 2.000000 -0.750000 0.999999 1.0000 0.0000 0.0000
v 3.000000 -0.750000 0.999999 1.0000 0.0000 0.0000
v 3.000000 0.000000 -0.000001 1.0000 0.0000 0.0000
v 2.000000 -0.000000 0.249999 1.0000 0.0000 0.0000
v 2.000000 -0.250000 0.249999 1.0000 0.0000 0.0000
v 2.000000 -0.250000 0.499999 1.0000 0.0000 0.0000
v 2.000000 -0.500000 0.499999 1.0000 0.0000 0.0000
v 3.000000 -0.500000 0.499999 1.0000 0.0000 0.0000
v 3.000000 -0.250000 0.499999 1.0000 0.0000 0.0000
v 2.000000 -0.750000 0.749999 1.0000 0.0000 0.0000
v 2.000000 -0.500000 0.749999 1.0000 0.0000 0.0000
v 3.000000 -0.000000 0.249999 1.0000 0.0000 0.0000
v 3.000000 -0.250000 0.249999 1.0000 0.0000 0.0000
v 3.000000 -0.750000 0.749999 1.0000 0.0000 0.0000
v 3.000000 -0.500000 0.749999 1.0000 0.0000 0.0000
v 6.000000 -1.000000 0.999999 1.0000 0.0000 0.0000
v 5.000000 -1.000000 0.999999 1.0000 0.0000 0.0000
v 5.000000 -0.750000 0.999999 1.0000 0.0000 0.0000
v 6.000000 0.000000 -0.000000 1.0000 0.0000 0.0000
v 6.000000 -0.000000 0.249999 1.0000 0.0000 0.0000
v 5.000000 -0.000000 0.249999 1.0000 0.0000 0.0000
v 5.000000 -0.250000 0.249999 1.0000 0.0000 0.0000
v 6.000000 -0.250000 0.499999 1.0000 0.0000 0.0000
v 6.000000 -0.250000 0.249999 1.0000 0.0000 0.0000
v 5.000000 -0.500000 0.499999 1.0000 0.0000 0.0000
v 5.000000 -0.250000 0.499999 1.0000 0.0000 0.0000
v 6.000000 -0.750000 0.999999 1.0000 0.0000 0.0000
v 6.000000 -0.750000 0.749999 1.0000 0.0000 0.0000
v 5.000000 -0.500000 0.749999 1.0000 0.0000 0.0000
v 5.000000 -0.750000 0.749999 1.0000 0.0000 0.0000
v 6.000000 -0.500000 0.499999 1.0000 0.0000 0.0000
v 6.000000 -0.500000 0.749999 1.0000 0.0000 0.0000
v -6.000000 -0.750000 1.000001 1.0000 0.0000 0.0000
v -6.000000 -0.500000 0.500001 1.0000 0.0000 0.0000
v -6.000000 -0.500000 0.750001 1.0000 0.0000 0.0000
vn -0.0000 -0.0000 1.0000
vn -0.0000 1.0000 -0.0000
vt 0.000000 0.000000
vt 1.000000 0.000000
vt 1.000000 0.250000
vt 0.000000 0.250000
vt 0.000000 0.750000
vt 1.000000 0.750000
vt 1.000000 1.000000
vt 0.000000 1.000000
vt 0.000000 0.500000
vt 1.000000 0.500000
s 0
f 163/11/3 164/12/3 166/13/3 165/14/3
f 169/15/4 237/16/4 168/17/4 167/18/4
f 170/19/3 238/20/3 237/16/3 169/15/3
f 171/14/4 239/13/4 238/20/4 170/19/4
f 172/11/3 240/12/3 239/13/3 171/14/3
f 165/14/4 166/13/4 241/20/4 173/19/4
f 173/19/3 241/20/3 242/16/3 174/15/3
f 174/15/4 242/16/4 240/17/4 172/18/4
f 175/11/3 163/12/3 165/13/3 176/14/3
f 178/15/4 169/16/4 167/17/4 177/18/4
f 179/19/3 170/20/3 169/16/3 178/15/3
f 180/14/4 171/13/4 170/20/4 179/19/4
f 181/11/3 172/12/3 171/13/3 180/14/3
f 176/14/4 165/13/4 173/20/4 182/19/4
f 182/19/3 173/20/3 174/16/3 183/15/3
f 183/15/4 174/16/4 172/17/4 181/18/4
f 192/11/3 175/12/3 176/13/3 184/14/3
f 186/15/4 178/16/4 177/17/4 185/18/4
f 187/19/3 179/20/3 178/16/3 186/15/3
f 188/14/4 180/13/4 179/20/4 187/19/4
f 189/11/3 181/12/3 180/13/3 188/14/3
f 184/14/4 176/13/4 182/20/4 190/19/4
f 190/19/3 182/20/3 183/16/3 191/15/3
f 191/15/4 183/16/4 181/17/4 189/18/4
f 201/11/3 192/12/3 184/13/3 193/14/3
f 195/15/4 186/16/4 185/17/4 194/18/4
f 196/19/3 187/20/3 186/16/3 195/15/3
f 197/14/4 188/13/4 187/20/4 196/19/4
f 198/11/3 189/12/3 188/13/3 197/14/3
f 193/14/4 184/13/4 190/20/4 199/19/4
f 199/19/3 190/20/3 191/16/3 200/15/3
f 200/15/4 191/16/4 189/17/4 198/18/4
f 211/11/3 201/12/3 193/13/3 202/14/3
f 204/15/4 195/16/4 194/17/4 203/18/4
f 205/19/3 196/20/3 195/16/3 204/15/3
f 206/14/4 197/13/4 196/20/4 205/19/4
f 207/11/3 198/12/3 197/13/3 206/14/3
f 202/14/4 193/13/4 199/20/4 208/19/4
f 208/19/3 199/20/3 200/16/3 209/15/3
f 209/15/4 200/16/4 198/17/4 207/18/4
f 210/11/3 211/12/3 202/13/3 212/14/3
f 214/15/4 204/16/4 203/17/4 213/18/4
f 215/19/3 205/20/3 204/16/3 214/15/3
f 216/14/4 206/13/4 205/20/4 215/19/4
f 217/11/3 207/12/3 206/13/3 216/14/3
f 212/14/4 202/13/4 208/20/4 218/19/4
f 218/19/3 208/20/3 209/16/3 219/15/3
f 219/15/4 209/16/4 207/17/4 217/18/4
f 220/11/3 210/12/3 212/13/3 277/14/3
f 222/15/4 214/16/4 213/17/4 221/18/4
f 223/19/3 215/20/3 214/16/3 222/15/3
f 224/14/4 216/13/4 215/20/4 223/19/4
f 278/11/3 217/12/3 216/13/3 224/14/3
f 277/14/4 212/13/4 218/20/4 225/19/4
f 225/19/3 218/20/3 219/16/3 279/15/3
f 279/15/4 219/16/4 217/17/4 278/18/4
f 226/11/3 261/12/3 262/13/3 227/14/3
f 230/15/4 265/16/4 229/17/4 228/18/4
f 231/19/3 266/20/3 265/16/3 230/15/3
f 232/14/4 270/13/4 266/20/4 231/19/4
f 233/11/3 269/12/3 270/13/3 232/14/3
f 227/14/4 262/13/4 274/20/4 234/19/4
f 234/19/3 274/20/3 273/16/3 235/15/3
f 235/15/4 273/16/4 269/17/4 233/18/4
f 164/11/3 243/12/3 245/13/3 166/14/3
f 237/15/4 248/16/4 236/17/4 168/18/4
f 238/19/3 249/20/3 248/16/3 237/15/3
f 239/14/4 250/13/4 249/20/4 238/19/4
f 240/11/3 251/12/3 250/13/3 239/14/3
f 166/14/4 245/13/4 254/20/4 241/19/4
f 241/19/3 254/20/3 255/16/3 242/15/3
f 242/15/4 255/16/4 251/17/4 240/18/4
f 243/11/3 244/12/3 246/13/3 245/14/3
f 248/15/4 256/16/4 247/17/4 236/18/4
f 249/19/3 257/20/3 256/16/3 248/15/3
f 250/14/4 253/13/4 257/20/4 249/19/4
f 251/11/3 252/12/3 253/13/3 250/14/3
f 245/14/4 246/13/4 258/20/4 254/19/4
f 254/19/3 258/20/3 259/16/3 255/15/3
f 255/15/4 259/16/4 252/17/4 251/18/4
f 244/11/3 226/12/3 227/13/3 246/14/3
f 256/15/4 230/16/4 228/17/4 247/18/4
f 257/19/3 231/20/3 230/16/3 256/15/3
f 253/14/4 232/13/4 231/20/4 257/19/4
f 252/11/3 233/12/3 232/13/3 253/14/3
f 246/14/4 227/13/4 234/20/4 258/19/4
f 258/19/3 234/20/3 235/16/3 259/15/3
f 259/15/4 235/16/4 233/17/4 252/18/4
f 261/11/3 260/12/3 271/13/3 262/14/3
f 265/15/4 264/16/4 263/17/4 229/18/4
f 266/19/3 268/20/3 264/16/3 265/15/3
f 270/14/4 267/13/4 268/20/4 266/19/4
f 269/11/3 275/12/3 267/13/3 270/14/3
f 262/14/4 271/13/4 272/20/4 274/19/4
f 274/19/3 272/20/3 276/16/3 273/15/3
f 273/15/4 276/16/4 275/17/4 269/18/4
