# Blender 5.0.0
# www.blender.org
o Plane.002
v -10.000000 0.000000 3.000000 0.0000 0.0000 0.0000
v -10.000000 3.000000 3.000000 0.0000 0.0000 0.0000
v -7.000000 2.000000 12.999998 0.0000 0.0000 0.0000
v -7.000000 0.000000 12.999998 0.0000 0.0000 0.0000
v -0.999999 0.000000 0.999999 0.1647 0.0000 0.0000
v 0.000001 0.000000 1.000000 0.1647 0.0000 0.0000
v -1.000000 0.000000 -0.000001 0.1647 0.0000 0.0000
v 0.000000 0.000000 -0.000001 0.1647 0.0000 0.0000
v -1.000000 0.000000 1.999999 0.1647 0.0000 0.0000
v 0.000000 -0.000000 1.999999 0.1647 0.0000 0.0000
v -2.000000 0.000000 1.999999 0.1647 0.0000 0.0000
v -2.000000 0.000000 0.999999 0.1647 0.0000 0.0000
v -3.000000 -0.000000 1.999999 0.1608 0.0000 0.0000
v -3.000000 0.000000 1.000000 0.1608 0.0000 0.0000
v -4.000000 0.000000 1.999999 0.0549 0.0000 0.0000
v -4.000000 0.000000 0.999999 0.0549 0.0000 0.0000
v -5.000000 0.000000 1.999999 0.0000 0.0000 0.0000
v -6.000000 0.000000 0.999999 0.0000 0.0000 0.0000
v -5.000000 0.000000 0.999999 0.0000 0.0000 0.0000
v -7.000000 0.000000 1.999999 0.0000 0.0000 0.0000
v -6.000000 0.000000 1.999999 0.0000 0.0000 0.0000
v -7.000000 0.000000 0.999999 0.0000 0.0000 0.0000
v -8.000000 0.000000 1.999999 0.0000 0.0000 0.0000
v -5.000000 0.000000 -0.000001 0.0000 0.0000 0.0000
v -4.000000 0.000000 -0.000001 0.0196 0.0000 0.0000
v -3.000000 0.000000 -0.000000 0.1451 0.0000 0.0000
v -2.000000 0.000000 -0.000001 0.1647 0.0000 0.0000
v -7.000000 0.000000 2.999999 0.0000 0.0000 0.0000
v -6.000000 -0.000000 2.999999 0.0000 0.0000 0.0000
v -5.000000 0.000000 2.999999 0.0000 0.0000 0.0000
v -4.000000 0.000000 2.999999 0.0157 0.0000 0.0000
v -8.000000 0.000000 4.999999 0.0000 0.0000 0.0000
v -8.000000 0.000000 3.999999 0.0000 0.0000 0.0000
v -10.000000 0.000000 4.999999 0.0000 0.0000 0.0000
v -9.000000 0.000000 4.999999 0.0000 0.0000 0.0000
v -10.000000 0.000000 3.999999 0.0000 0.0000 0.0000
v -9.000000 0.000000 3.999999 0.0000 0.0000 0.0000
v -9.000000 0.000000 2.999999 0.0000 0.0000 0.0000
v -8.000000 0.000000 2.999999 0.0000 0.0000 0.0000
v -8.000000 0.000000 5.999999 0.0000 0.0000 0.0000
v -10.000000 0.000000 5.999999 0.0000 0.0000 0.0000
v -9.000000 0.000000 5.999999 0.0000 0.0000 0.0000
v -10.000000 0.000000 6.999999 0.0000 0.0000 0.0000
v -9.000000 0.000000 6.999999 0.0000 0.0000 0.0000
v -8.000000 0.000000 6.999999 0.0000 0.0000 0.0000
v -8.000000 0.000000 8.999998 0.0000 0.0000 0.0000
v -8.000000 0.000000 7.999999 0.0000 0.0000 0.0000
v -10.000000 0.000000 8.999999 0.0000 0.0000 0.0000
v -9.000000 0.000000 9.000000 0.0000 0.0000 0.0000
v -10.000000 0.000000 7.999999 0.0000 0.0000 0.0000
v -9.000000 0.000000 7.999999 0.0000 0.0000 0.0000
v -8.000000 0.000000 9.999998 0.0000 0.0000 0.0000
v -10.000000 0.000000 9.999999 0.0000 0.0000 0.0000
v -9.000000 0.000000 10.000000 0.0000 0.0000 0.0000
v -10.000000 0.000000 10.999999 0.0000 0.0000 0.0000
v -9.000000 0.000000 10.999999 0.0000 0.0000 0.0000
v -8.000000 0.000000 10.999999 0.0000 0.0000 0.0000
v -9.000000 0.000000 12.999999 0.0000 0.0000 0.0000
v -8.000000 0.000000 12.999999 0.0000 0.0000 0.0000
v -8.000000 0.000000 11.999999 0.0000 0.0000 0.0000
v -10.000000 0.000000 12.999999 0.0000 0.0000 0.0000
v -10.000000 0.000000 11.999999 0.0000 0.0000 0.0000
v -9.000000 0.000000 11.999999 0.0000 0.0000 0.0000
v -8.000000 0.000000 0.999999 0.0000 0.0000 0.0000
v -10.000000 0.000000 1.999999 0.0000 0.0000 0.0000
v -9.000000 0.000000 1.999999 0.0000 0.0000 0.0000
v -10.000000 0.000000 0.999999 0.0000 0.0000 0.0000
v -9.000000 0.000000 0.999999 0.0000 0.0000 0.0000
v -8.000000 0.000000 14.999999 0.0000 0.0000 0.0000
v -8.000000 0.000000 13.999999 0.0000 0.0000 0.0000
v -10.000000 0.000000 14.999999 0.0000 0.0000 0.0000
v -9.000000 0.000000 14.999999 0.0000 0.0000 0.0000
v -10.000000 0.000000 13.999999 0.0000 0.0000 0.0000
v -9.000000 0.000000 13.999999 0.0000 0.0000 0.0000
v -11.000000 0.000000 13.999999 0.0000 0.0000 0.0000
v -12.000000 0.000000 13.999999 0.0000 0.0000 0.0000
v -12.000000 0.000000 12.999999 0.0000 0.0000 0.0000
v -11.000000 0.000000 12.999999 0.0000 0.0000 0.0000
v -12.000000 0.000000 14.999999 0.0000 0.0000 0.0000
v -11.000000 0.000000 14.999999 0.0000 0.0000 0.0000
v -13.000000 0.000000 14.999999 0.0000 0.0000 0.0000
v -13.000000 0.000000 13.999999 0.0000 0.0000 0.0000
v -14.000000 0.000000 14.999999 0.0000 0.0000 0.0000
v -14.000000 0.000000 13.999999 0.0000 0.0000 0.0000
v -14.000000 0.000000 12.999999 0.0000 0.0000 0.0000
v -13.000000 0.000000 12.999999 0.0000 0.0000 0.0000
v -15.000000 0.000000 13.999999 0.0000 0.0000 0.0000
v -15.000000 0.000000 12.999999 0.0000 0.0000 0.0000
v -16.000000 0.000000 13.999999 0.0000 0.0000 0.0000
v -16.000000 0.000000 14.999999 0.0000 0.0000 0.0000
v -15.000000 0.000000 14.999999 0.0000 0.0000 0.0000
v -17.000000 0.000000 14.999999 0.0000 0.0000 0.0000
v -17.000000 0.000000 13.999999 0.0000 0.0000 0.0000
v -17.000000 0.000000 12.999999 0.0000 0.0000 0.0000
v -16.000000 0.000000 12.999999 0.0000 0.0000 0.0000
v -18.000000 0.000000 13.999999 0.0000 0.0000 0.0000
v -18.000000 0.000000 12.999999 0.0000 0.0000 0.0000
v -18.000000 0.000000 14.999999 0.0000 0.0000 0.0000
v -11.000000 0.000000 1.999999 0.0000 0.0000 0.0000
v -11.000001 0.000000 0.999999 0.0000 0.0000 0.0000
v -7.000000 0.000000 13.999999 0.0000 0.0000 0.0000
v -6.999999 0.000000 14.999999 0.0000 0.0000 0.0000
v -8.000000 2.000000 14.999999 0.0000 0.0000 0.0000
v -8.000000 2.000000 13.999999 0.0000 0.0000 0.0000
v -7.000000 2.000000 13.999999 0.0000 0.0000 0.0000
v -8.000000 2.000000 12.999999 0.0000 0.0000 0.0000
v -11.000000 3.000000 1.999999 0.0000 0.0000 0.0000
v -10.000000 3.000000 1.999999 0.0000 0.0000 0.0000
v -11.000001 3.000000 0.999999 0.0000 0.0000 0.0000
v -10.000000 3.000000 0.999999 0.0000 0.0000 0.0000
v -18.000000 2.000000 14.999999 0.0000 0.0000 0.0000
v -17.000000 2.000000 14.999999 0.0000 0.0000 0.0000
v -18.000000 2.000000 13.999999 0.0000 0.0000 0.0000
v -17.000000 2.000000 13.999999 0.0000 0.0000 0.0000
v -17.000000 2.000000 12.999999 0.0000 0.0000 0.0000
v -16.000000 2.000000 13.999999 0.0000 0.0000 0.0000
v -16.000000 2.000000 12.999999 0.0000 0.0000 0.0000
v -16.000000 2.000000 14.999999 0.0000 0.0000 0.0000
v -15.000000 2.000000 14.999998 0.0000 0.0000 0.0000
v -14.000000 2.000000 14.999999 0.0000 0.0000 0.0000
v -15.000000 2.000000 13.999999 0.0000 0.0000 0.0000
v -14.000000 2.000000 13.999999 0.0000 0.0000 0.0000
v -15.000000 2.000000 12.999999 0.0000 0.0000 0.0000
v -13.000000 2.000000 13.999999 0.0000 0.0000 0.0000
v -12.000000 2.000000 13.999999 0.0000 0.0000 0.0000
v -13.000000 2.000000 12.999999 0.0000 0.0000 0.0000
v -14.000000 2.000000 12.999999 0.0000 0.0000 0.0000
v -13.000000 2.000000 14.999999 0.0000 0.0000 0.0000
v -12.000000 2.000000 14.999999 0.0000 0.0000 0.0000
v -11.000000 2.000000 14.999999 0.0000 0.0000 0.0000
v -10.000000 2.000000 14.999999 0.0000 0.0000 0.0000
v -11.000000 2.000000 13.999999 0.0000 0.0000 0.0000
v -10.000000 2.000000 13.999999 0.0000 0.0000 0.0000
v -12.000000 2.000000 12.999999 0.0000 0.0000 0.0000
v -11.000000 2.000000 12.999999 0.0000 0.0000 0.0000
v -10.000000 2.000000 12.999998 0.0000 0.0000 0.0000
v -9.000000 2.000000 13.999999 0.0000 0.0000 0.0000
v -9.000000 2.000000 12.999999 0.0000 0.0000 0.0000
v -9.000000 2.000000 14.999998 0.0000 0.0000 0.0000
v -9.000000 3.000000 3.000000 0.0000 0.0000 0.0000
v -8.000000 3.000000 2.999999 0.0000 0.0000 0.0000
v -9.000000 3.000000 2.000000 0.0000 0.0000 0.0000
v -8.000000 3.000000 1.999999 0.0000 0.0000 0.0000
v -9.000000 3.000000 1.000000 0.0000 0.0000 0.0000
v -8.000000 3.000000 0.999999 0.0000 0.0000 0.0000
v -4.000000 3.000000 2.999999 0.1647 0.0000 0.0000
v -2.999999 3.000000 3.000000 0.1647 0.0000 0.0000
v -4.000000 3.000000 1.999999 0.1647 0.0000 0.0000
v -3.000000 3.000000 2.000000 0.1647 0.0000 0.0000
v -5.000000 3.000000 2.999999 0.0510 0.0000 0.0000
v -5.000000 3.000000 1.999999 0.1059 0.0000 0.0000
v -6.000000 3.000000 3.000000 0.0000 0.0000 0.0000
v -6.000000 3.000000 2.000000 0.0000 0.0000 0.0000
v -2.000000 3.000000 0.999999 0.1647 0.0000 0.0000
v -0.999999 3.000000 0.999999 0.1647 0.0000 0.0000
v -2.000000 3.000000 -0.000001 0.1647 0.0000 0.0000
v -1.000000 3.000000 -0.000001 0.1647 0.0000 0.0000
v -4.000000 3.000000 0.999999 0.1647 0.0000 0.0000
v -3.000000 3.000000 1.000000 0.1647 0.0000 0.0000
v -4.000000 3.000000 -0.000001 0.1647 0.0000 0.0000
v -3.000000 3.000000 -0.000000 0.1647 0.0000 0.0000
v -5.000000 3.000000 0.999999 0.1098 0.0000 0.0000
v -5.000000 3.000000 -0.000001 0.0549 0.0000 0.0000
v -7.000000 3.000000 2.999999 0.0000 0.0000 0.0000
v -7.000000 3.000000 1.999999 0.0000 0.0000 0.0000
v -7.000000 3.000000 0.999999 0.0000 0.0000 0.0000
v -6.000000 3.000000 1.000000 0.0000 0.0000 0.0000
v -2.000000 3.000000 1.999999 0.1647 0.0000 0.0000
v -1.000000 3.000000 1.999999 0.1647 0.0000 0.0000
v 0.000000 3.000000 2.000000 0.1647 0.0000 0.0000
v 0.000001 3.000000 1.000000 0.1647 0.0000 0.0000
v 0.000000 3.000000 -0.000001 0.1647 0.0000 0.0000
v -6.999999 2.000000 14.999999 0.0000 0.0000 0.0000
v -18.000000 2.000000 12.999999 0.0000 0.0000 0.0000
v -10.000000 3.000000 12.999999 0.0000 0.0000 0.0000
v -8.000000 3.000000 12.999999 0.0000 0.0000 0.0000
v -2.999999 0.000000 3.000000 0.1412 0.0000 0.0000
v -11.000000 0.000000 3.000000 0.0000 0.0000 0.0000
v -11.000000 3.000000 3.000000 0.0000 0.0000 0.0000
vn -0.0000 -0.0000 -1.0000
vn -1.0000 -0.0000 -0.0000
vn -0.0000 1.0000 -0.0000
vn -0.0000 -1.0000 -0.0000
vn -0.0000 -0.9950 -0.0995
vn -0.0000 -0.0000 1.0000
vn 1.0000 -0.0000 -0.0000
vt 0.000000 -2.000000
vt 1.000000 -2.000000
vt 1.000000 1.000000
vt 0.000000 1.000000
vt -1.000000 -1.000000
vt 1.000000 -1.000000
vt -1.000000 1.000000
vt 0.000000 0.000000
vt 1.000000 0.000000
vt 1.000000 1.000000
vt 0.000000 1.000000
vt 0.000000 -8.999995
vt 2.000000 1.000000
vt 1.999999 -8.999996
vt -2.000000 -1.999999
vt 1.000000 -2.000000
vt -2.000000 1.000000
vt -4.000000 -1.999999
vt -4.000000 1.000001
vt -10.000000 -0.999999
vt 1.000000 -1.000000
vt -9.999999 1.000002
vt -7.000000 -0.999999
vt -7.000000 1.000001
vt 0.000000 -1.000000
vt 0.000000 1.000000
vt -2.000000 -1.999999
vt 4.000000 -2.000000
vt 4.000000 1.000000
vt -2.000000 1.000000
vt -2.000000 -1.999999
vt 3.000000 -2.000000
vt 3.000000 1.000000
vt 0.000000 -2.000000
vt 0.000000 1.000000
vt -9.000001 -1.999997
vt -9.000002 1.000002
vt -1.000000 -1.999999
vt -1.000000 1.000000
s 0
f 179/1/1 2/2/1 1/3/1 178/4/1
f 173/5/2 3/6/2 4/3/2 102/7/2
f 5/8/3 6/9/3 8/10/3 7/11/3
f 9/8/3 10/9/3 6/10/3 5/11/3
f 11/8/3 9/9/3 5/10/3 12/11/3
f 13/8/3 11/9/3 12/10/3 14/11/3
f 15/8/3 13/9/3 14/10/3 16/11/3
f 17/8/3 15/9/3 16/10/3 19/11/3
f 21/8/3 17/9/3 19/10/3 18/11/3
f 20/8/3 21/9/3 18/10/3 22/11/3
f 23/8/3 20/9/3 22/10/3 64/11/3
f 19/8/3 16/9/3 25/10/3 24/11/3
f 16/8/3 14/9/3 26/10/3 25/11/3
f 14/8/3 12/9/3 27/10/3 26/11/3
f 12/8/3 5/9/3 7/10/3 27/11/3
f 39/8/3 28/9/3 20/10/3 23/11/3
f 28/8/3 29/9/3 21/10/3 20/11/3
f 29/8/3 30/9/3 17/10/3 21/11/3
f 30/8/3 31/9/3 15/10/3 17/11/3
f 31/8/3 177/9/3 13/10/3 15/11/3
f 35/8/3 32/9/3 33/10/3 37/11/3
f 34/8/3 35/9/3 37/10/3 36/11/3
f 36/8/3 37/9/3 38/10/3 1/11/3
f 37/8/3 33/9/3 39/10/3 38/11/3
f 42/8/3 40/9/3 32/10/3 35/11/3
f 41/8/3 42/9/3 35/10/3 34/11/3
f 43/8/3 44/9/3 42/10/3 41/11/3
f 44/8/3 45/9/3 40/10/3 42/11/3
f 49/8/3 46/9/3 47/10/3 51/11/3
f 48/8/3 49/9/3 51/10/3 50/11/3
f 50/8/3 51/9/3 44/10/3 43/11/3
f 51/8/3 47/9/3 45/10/3 44/11/3
f 54/8/3 52/9/3 46/10/3 49/11/3
f 53/8/3 54/9/3 49/10/3 48/11/3
f 55/8/3 56/9/3 54/10/3 53/11/3
f 56/8/3 57/9/3 52/10/3 54/11/3
f 58/8/3 59/9/3 60/10/3 63/11/3
f 61/8/3 58/9/3 63/10/3 62/11/3
f 62/8/3 63/9/3 56/10/3 55/11/3
f 63/8/3 60/9/3 57/10/3 56/11/3
f 66/8/3 23/9/3 64/10/3 68/11/3
f 65/8/3 66/9/3 68/10/3 67/11/3
f 1/8/3 38/9/3 66/10/3 65/11/3
f 38/8/3 39/9/3 23/10/3 66/11/3
f 72/8/3 69/9/3 70/10/3 74/11/3
f 71/8/3 72/9/3 74/10/3 73/11/3
f 73/8/3 74/9/3 58/10/3 61/11/3
f 74/8/3 70/9/3 59/10/3 58/11/3
f 75/8/3 73/9/3 61/10/3 78/11/3
f 76/8/3 75/9/3 78/10/3 77/11/3
f 79/8/3 80/9/3 75/10/3 76/11/3
f 80/8/3 71/9/3 73/10/3 75/11/3
f 81/8/3 79/9/3 76/10/3 82/11/3
f 83/8/3 81/9/3 82/10/3 84/11/3
f 84/8/3 82/9/3 86/10/3 85/11/3
f 82/8/3 76/9/3 77/10/3 86/11/3
f 87/8/3 84/9/3 85/10/3 88/11/3
f 89/8/3 87/9/3 88/10/3 95/11/3
f 90/8/3 91/9/3 87/10/3 89/11/3
f 91/8/3 83/9/3 84/10/3 87/11/3
f 92/8/3 90/9/3 89/10/3 93/11/3
f 93/8/3 89/9/3 95/10/3 94/11/3
f 96/8/3 93/9/3 94/10/3 97/11/3
f 98/8/3 92/9/3 93/10/3 96/11/3
f 178/8/3 1/9/3 65/10/3 99/11/3
f 99/8/3 65/9/3 67/10/3 100/11/3
f 70/8/3 101/9/3 4/10/3 59/11/3
f 69/8/3 102/9/3 101/10/3 70/11/3
f 103/8/4 104/11/4 105/10/4 173/9/4
f 104/8/4 106/11/4 3/10/4 105/9/4
f 107/8/4 109/11/4 110/10/4 108/9/4
f 179/8/4 107/11/4 108/10/4 2/9/4
f 111/8/4 113/11/4 114/10/4 112/9/4
f 113/8/4 174/11/4 115/10/4 114/9/4
f 114/8/4 115/11/4 117/10/4 116/9/4
f 112/8/4 114/11/4 116/10/4 118/9/4
f 119/8/4 121/11/4 122/10/4 120/9/4
f 118/8/4 116/11/4 121/10/4 119/9/4
f 116/8/4 117/11/4 123/10/4 121/9/4
f 121/8/4 123/11/4 127/10/4 122/9/4
f 124/8/4 126/11/4 134/10/4 125/9/4
f 122/8/4 127/11/4 126/10/4 124/9/4
f 120/8/4 122/11/4 124/10/4 128/9/4
f 128/8/4 124/11/4 125/10/4 129/9/4
f 130/8/4 132/11/4 133/10/4 131/9/4
f 129/8/4 125/11/4 132/10/4 130/9/4
f 125/8/4 134/11/4 135/10/4 132/9/4
f 132/8/4 135/11/4 136/10/4 133/9/4
f 137/8/4 138/11/4 106/10/4 104/9/4
f 133/8/4 136/11/4 138/10/4 137/9/4
f 131/8/4 133/11/4 137/10/4 139/9/4
f 139/8/4 137/11/4 104/10/4 103/9/4
f 140/8/4 142/11/4 143/10/4 141/9/4
f 2/8/4 108/11/4 142/10/4 140/9/4
f 108/8/4 110/11/4 144/10/4 142/9/4
f 142/8/4 144/11/4 145/10/4 143/9/4
f 146/8/4 148/11/4 149/10/4 147/9/4
f 150/8/4 151/11/4 148/10/4 146/9/4
f 152/8/4 153/11/4 151/10/4 150/9/4
f 154/8/4 156/11/4 157/10/4 155/9/4
f 159/8/4 161/11/4 156/10/4 154/9/4
f 158/8/4 160/11/4 161/10/4 159/9/4
f 162/8/4 163/11/4 160/10/4 158/9/4
f 164/8/4 165/11/4 153/10/4 152/9/4
f 141/8/4 143/11/4 165/10/4 164/9/4
f 143/8/4 145/11/4 166/10/4 165/9/4
f 165/8/4 166/11/4 167/10/4 153/9/4
f 153/8/4 167/11/4 162/10/4 151/9/4
f 151/8/4 162/11/4 158/10/4 148/9/4
f 148/8/4 158/11/4 159/10/4 149/9/4
f 149/8/4 159/11/4 154/10/4 168/9/4
f 168/8/4 154/11/4 155/10/4 169/9/4
f 169/8/4 155/11/4 171/10/4 170/9/4
f 155/8/4 157/11/4 172/10/4 171/9/4
f 136/12/5 2/11/5 141/13/5 106/14/5
f 149/15/1 170/16/1 10/10/1 13/17/1
f 141/18/1 147/16/1 177/10/1 39/19/1
f 111/20/1 173/21/1 102/10/1 98/22/1
f 136/23/6 174/21/6 97/10/6 61/24/6
f 3/25/6 106/21/6 59/10/6 4/26/6
f 162/27/6 109/28/6 100/29/6 19/30/6
f 172/31/6 163/32/6 24/33/6 8/30/6
f 163/34/7 162/2/7 19/3/7 24/35/7
f 2/36/7 175/2/7 61/3/7 1/37/7
f 176/36/2 141/2/2 39/3/2 59/37/2
f 147/34/2 149/2/2 13/3/2 177/35/2
f 109/38/7 179/2/7 178/3/7 100/39/7
