# Blender 5.0.1
# www.blender.org
o LowerWallIndividualOffice
v -1.250000 0.000000 -1.000000
v -1.250000 1.000000 -1.000000
v -4.250000 0.000000 -3.000000
v -3.250000 0.000000 -3.000000
v -4.250000 1.000000 -3.000000
v -2.250000 0.000000 -3.000000
v -3.250000 1.000000 -3.000000
v -2.250000 1.000000 -3.000000
v -1.250000 0.000000 -3.000000
v -1.250000 0.000000 -2.000000
v -1.250000 1.000000 -3.000000
v -1.250000 1.000000 -2.000000
v -1.250000 0.000000 -0.000000
v -1.250000 0.000000 1.000000
v -1.250000 1.000000 -0.000000
v -1.250000 1.000000 1.000000
v -1.250000 0.000000 2.000000
v -1.250000 1.000000 2.000000
v -1.250000 0.000000 3.000000
v -1.250000 1.000000 3.000000
v -5.250000 0.000000 -3.000000
v -6.250000 1.000000 -3.000000
v -5.250000 1.000000 -3.000000
v -6.250000 0.000000 -3.000000
v -6.250000 1.000000 -2.000000
v -6.250000 0.000000 -2.000000
v -6.250000 1.000000 -1.000000
v -6.250000 0.000000 -1.000000
v -6.250000 0.000000 1.000000
v -6.250000 0.000000 -0.000000
v -6.250000 1.000000 -0.000000
v -6.250000 0.000000 2.000000
v -6.250000 1.000000 1.000000
v -6.250000 1.000000 3.000000
v -6.250000 1.000000 2.000000
v -6.250000 0.000000 3.000000
v -5.250000 0.000000 3.000000
v -4.250000 1.000000 3.000000
v -5.250000 1.000000 3.000000
v -4.250000 0.000000 3.000000
v -3.250000 0.000000 3.000000
v -3.250000 1.000000 3.000000
v -2.250000 0.000000 3.000000
v -2.250000 1.000000 3.000000
vn -1.0000 -0.0000 -0.0000
vn -0.0000 -0.0000 1.0000
vn 1.0000 -0.0000 -0.0000
vn -0.0000 -0.0000 -1.0000
vt 0.000000 0.000000
vt 1.000000 0.000000
vt 1.000000 1.000000
vt 0.000000 1.000000
s 0
f 10/1/1 1/2/1 2/3/1 12/4/1
f 21/1/2 3/2/2 5/3/2 23/4/2
f 3/1/2 4/2/2 7/3/2 5/4/2
f 4/1/2 6/2/2 8/3/2 7/4/2
f 6/1/2 9/2/2 11/3/2 8/4/2
f 9/1/1 10/2/1 12/3/1 11/4/1
f 13/1/1 14/2/1 16/3/1 15/4/1
f 14/1/1 17/2/1 18/3/1 16/4/1
f 17/1/1 19/2/1 20/3/1 18/4/1
f 24/1/2 21/2/2 23/3/2 22/4/2
f 26/1/3 24/2/3 22/3/3 25/4/3
f 28/1/3 26/2/3 25/3/3 27/4/3
f 30/1/3 28/2/3 27/3/3 31/4/3
f 29/1/3 30/2/3 31/3/3 33/4/3
f 32/1/3 29/2/3 33/3/3 35/4/3
f 36/1/3 32/2/3 35/3/3 34/4/3
f 37/1/4 36/2/4 34/3/4 39/4/4
f 40/1/4 37/2/4 39/3/4 38/4/4
f 41/1/4 40/2/4 38/3/4 42/4/4
f 43/1/4 41/2/4 42/3/4 44/4/4
f 19/1/4 43/2/4 44/3/4 20/4/4
o UpperWallIndividualOffice
v -5.250000 3.000000 -3.000000
v -2.250000 1.000000 -3.000000
v -1.250000 2.000000 -3.000000
v -3.250000 2.000000 -3.000000
v -3.250000 1.000000 -3.000000
v -5.250000 1.000000 -3.000000
v -4.250000 1.000000 -3.000000
v -2.250000 3.000000 -3.000000
v -1.250000 3.000000 -3.000000
v -2.250000 2.000000 -3.000000
v -3.250000 3.000000 -3.000000
v -5.250000 2.000000 -3.000000
v -4.250000 2.000000 -3.000000
v -4.250000 3.000000 -3.000000
v -1.250000 1.000000 -3.000000
v -1.250000 1.000000 -2.000000
v -1.250000 2.000000 -2.000000
v -1.250000 3.000000 -2.000000
v -1.250000 1.000000 -1.000000
v -1.250000 2.000000 -1.000000
v -1.250000 3.000000 -1.000000
v -1.250000 1.000000 0.000000
v -1.250000 1.000000 1.000000
v -1.250000 2.000000 0.000000
v -1.250000 2.000000 1.000000
v -1.250000 3.000000 0.000000
v -1.250000 3.000000 1.000000
v -1.250000 1.000000 2.000000
v -1.250000 2.000000 2.000000
v -1.250000 3.000000 2.000000
v -1.250000 1.000000 3.000000
v -1.250000 3.000000 3.000000
v -6.250000 2.000000 -3.000000
v -6.250000 1.000000 -3.000000
v -6.250000 2.000000 -2.000000
v -6.250000 3.000000 -3.000000
v -6.250000 1.000000 -2.000000
v -6.250000 2.000000 -1.000000
v -6.250000 3.000000 -1.000000
v -6.250000 3.000000 -2.000000
v -6.250000 1.000000 -1.000000
v -6.250000 3.000000 0.000000
v -6.250000 1.000000 0.000000
v -6.250000 2.000000 0.000000
v -6.250000 1.000000 2.000000
v -6.250000 1.000000 1.000000
v -6.250000 2.000000 1.000000
v -6.250000 2.000000 2.000000
v -6.250000 3.000000 1.000000
v -6.250000 1.000000 3.000000
v -6.250000 3.000000 3.000000
v -6.250000 3.000000 2.000000
v -6.250000 2.000000 3.000000
v -5.250000 1.000000 3.000000
v -5.250000 2.000000 3.000000
v -5.250000 3.000000 3.000000
v -4.250000 1.000000 3.000000
v -4.250000 2.000000 3.000000
v -4.250000 3.000000 3.000000
v -3.250000 1.000000 3.000000
v -2.250000 2.000000 3.000000
v -3.250000 2.000000 3.000000
v -3.250000 3.000000 3.000000
v -2.250000 1.000000 3.000000
v -1.250000 2.000000 3.000000
v -2.250000 3.000000 3.000000
vn -0.0000 -0.0000 1.0000
vn -1.0000 -0.0000 -0.0000
vn 1.0000 -0.0000 -0.0000
vn -0.0000 -0.0000 -1.0000
vt 0.000000 0.000000
vt 1.000000 0.000000
vt 1.000000 1.000000
vt 0.000000 1.000000
s 0
f 77/5/5 56/6/5 45/7/5 80/8/5
f 46/5/5 59/6/5 47/7/5 54/8/5
f 49/5/5 46/6/5 54/7/5 48/8/5
f 51/5/5 49/6/5 48/7/5 57/8/5
f 50/5/5 51/6/5 57/7/5 56/8/5
f 54/5/5 47/6/5 53/7/5 52/8/5
f 48/5/5 54/6/5 52/7/5 55/8/5
f 57/5/5 48/6/5 55/7/5 58/8/5
f 56/5/5 57/6/5 58/7/5 45/8/5
f 59/5/6 60/6/6 61/7/6 47/8/6
f 47/5/6 61/6/6 62/7/6 53/8/6
f 60/5/6 63/6/6 64/7/6 61/8/6
f 61/5/6 64/6/6 65/7/6 62/8/6
f 66/5/6 67/6/6 69/7/6 68/8/6
f 68/5/6 69/6/6 71/7/6 70/8/6
f 64/5/6 68/6/6 70/7/6 65/8/6
f 67/5/6 72/6/6 73/7/6 69/8/6
f 69/5/6 73/6/6 74/7/6 71/8/6
f 72/5/6 75/6/6 109/7/6 73/8/6
f 73/5/6 109/6/6 76/7/6 74/8/6
f 78/5/5 50/6/5 56/7/5 77/8/5
f 81/5/7 78/6/7 77/7/7 79/8/7
f 79/5/7 77/6/7 80/7/7 84/8/7
f 85/5/7 81/6/7 79/7/7 82/8/7
f 82/5/7 79/6/7 84/7/7 83/8/7
f 87/5/7 85/6/7 82/7/7 88/8/7
f 88/5/7 82/6/7 83/7/7 86/8/7
f 90/5/7 87/6/7 88/7/7 91/8/7
f 91/5/7 88/6/7 86/7/7 93/8/7
f 89/5/7 90/6/7 91/7/7 92/8/7
f 92/5/7 91/6/7 93/7/7 96/8/7
f 94/5/7 89/6/7 92/7/7 97/8/7
f 97/5/7 92/6/7 96/7/7 95/8/7
f 98/5/8 94/6/8 97/7/8 99/8/8
f 99/5/8 97/6/8 95/7/8 100/8/8
f 101/5/8 98/6/8 99/7/8 102/8/8
f 102/5/8 99/6/8 100/7/8 103/8/8
f 104/5/8 101/6/8 102/7/8 106/8/8
f 106/5/8 102/6/8 103/7/8 107/8/8
f 108/5/8 104/6/8 106/7/8 105/8/8
f 105/5/8 106/6/8 107/7/8 110/8/8
f 75/5/8 108/6/8 105/7/8 109/8/8
f 109/5/8 105/6/8 110/7/8 76/8/8
o FloorIndividualOffice
v -4.250000 0.000000 3.000000
v -3.250000 0.000000 3.000000
v -4.250000 0.000000 2.000000
v -3.250000 0.000000 2.000000
v -2.250000 0.000000 2.000000
v -1.250000 0.000000 2.000000
v -2.250000 0.000000 1.000000
v -1.250000 0.000000 1.000000
v -2.250000 0.000000 3.000000
v -1.250000 0.000000 3.000000
v -2.250000 0.000000 0.000000
v -1.250000 0.000000 0.000000
v -2.250000 0.000000 -1.000000
v -1.250000 0.000000 -1.000000
v -2.250000 0.000000 -2.000000
v -1.250000 0.000000 -2.000000
v -2.250000 0.000000 -3.000000
v -1.250000 0.000000 -3.000000
v -3.250000 0.000000 1.000000
v -3.250000 0.000000 0.000000
v -3.250000 0.000000 -1.000000
v -3.250000 0.000000 -2.000000
v -3.250000 0.000000 -3.000000
v -4.250000 0.000000 1.000000
v -4.250000 0.000000 0.000000
v -4.250000 0.000000 -1.000000
v -4.250000 0.000000 -2.000000
v -4.250000 0.000000 -3.000000
v -5.250000 0.000000 2.000000
v -5.250000 0.000000 1.000000
v -5.250000 0.000000 3.000000
v -5.250000 0.000000 0.000000
v -5.250000 0.000000 -1.000000
v -5.250000 0.000000 -2.000000
v -5.250000 0.000000 -3.000000
v -6.250000 0.000000 2.000000
v -6.250000 0.000000 1.000000
v -6.250000 0.000000 3.000000
v -6.250000 0.000000 0.000000
v -6.250000 0.000000 -1.000000
v -6.250000 0.000000 -2.000000
v -6.250000 0.000000 -3.000000
vn -0.0000 1.0000 -0.0000
vt 0.000000 0.000000
vt 1.000000 0.000000
vt 1.000000 1.000000
vt 0.000000 1.000000
s 0
f 111/9/9 112/10/9 114/11/9 113/12/9
f 115/9/9 116/10/9 118/11/9 117/12/9
f 119/9/9 120/10/9 116/11/9 115/12/9
f 117/9/9 118/10/9 122/11/9 121/12/9
f 121/9/9 122/10/9 124/11/9 123/12/9
f 123/9/9 124/10/9 126/11/9 125/12/9
f 125/9/9 126/10/9 128/11/9 127/12/9
f 114/9/9 115/10/9 117/11/9 129/12/9
f 112/9/9 119/10/9 115/11/9 114/12/9
f 129/9/9 117/10/9 121/11/9 130/12/9
f 130/9/9 121/10/9 123/11/9 131/12/9
f 131/9/9 123/10/9 125/11/9 132/12/9
f 132/9/9 125/10/9 127/11/9 133/12/9
f 113/9/9 114/10/9 129/11/9 134/12/9
f 134/9/9 129/10/9 130/11/9 135/12/9
f 135/9/9 130/10/9 131/11/9 136/12/9
f 136/9/9 131/10/9 132/11/9 137/12/9
f 137/9/9 132/10/9 133/11/9 138/12/9
f 139/9/9 113/10/9 134/11/9 140/12/9
f 141/9/9 111/10/9 113/11/9 139/12/9
f 140/9/9 134/10/9 135/11/9 142/12/9
f 142/9/9 135/10/9 136/11/9 143/12/9
f 143/9/9 136/10/9 137/11/9 144/12/9
f 144/9/9 137/10/9 138/11/9 145/12/9
f 146/9/9 139/10/9 140/11/9 147/12/9
f 148/9/9 141/10/9 139/11/9 146/12/9
f 147/9/9 140/10/9 142/11/9 149/12/9
f 149/9/9 142/10/9 143/11/9 150/12/9
f 150/9/9 143/10/9 144/11/9 151/12/9
f 151/9/9 144/10/9 145/11/9 152/12/9
o CeilingIndividualOffice
v -3.250000 3.000000 3.000000
v -4.250000 3.000000 3.000000
v -3.250000 3.000000 2.000000
v -4.250000 3.000000 2.000000
v -5.250000 3.000000 2.000000
v -6.250000 3.000000 2.000000
v -5.250000 3.000000 1.000000
v -6.250000 3.000000 1.000000
v -5.250000 3.000000 3.000000
v -6.250000 3.000000 3.000000
v -5.250000 3.000000 0.000000
v -6.250000 3.000000 0.000000
v -5.250000 3.000000 -1.000000
v -6.250000 3.000000 -1.000000
v -5.250000 3.000000 -2.000000
v -6.250000 3.000000 -2.000000
v -5.250000 3.000000 -3.000000
v -6.250000 3.000000 -3.000000
v -4.250000 3.000000 1.000000
v -4.250000 3.000000 0.000000
v -4.250000 3.000000 -1.000000
v -4.250000 3.000000 -2.000000
v -4.250000 3.000000 -3.000000
v -3.250000 3.000000 1.000000
v -3.250000 3.000000 0.000000
v -3.250000 3.000000 -1.000000
v -3.250000 3.000000 -2.000000
v -3.250000 3.000000 -3.000000
v -2.250000 3.000000 2.000000
v -2.250000 3.000000 1.000000
v -2.250000 3.000000 3.000000
v -2.250000 3.000000 0.000000
v -2.250000 3.000000 -1.000000
v -2.250000 3.000000 -2.000000
v -2.250000 3.000000 -3.000000
v -1.250000 3.000000 2.000000
v -1.250000 3.000000 1.000000
v -1.250000 3.000000 3.000000
v -1.250000 3.000000 0.000000
v -1.250000 3.000000 -1.000000
v -1.250000 3.000000 -2.000000
v -1.250000 3.000000 -3.000000
vn -0.0000 -1.0000 -0.0000
vt 0.000000 0.000000
vt 1.000000 0.000000
vt 1.000000 1.000000
vt 0.000000 1.000000
s 0
f 153/13/10 154/14/10 156/15/10 155/16/10
f 157/13/10 158/14/10 160/15/10 159/16/10
f 161/13/10 162/14/10 158/15/10 157/16/10
f 159/13/10 160/14/10 164/15/10 163/16/10
f 163/13/10 164/14/10 166/15/10 165/16/10
f 165/13/10 166/14/10 168/15/10 167/16/10
f 167/13/10 168/14/10 170/15/10 169/16/10
f 156/13/10 157/14/10 159/15/10 171/16/10
f 154/13/10 161/14/10 157/15/10 156/16/10
f 171/13/10 159/14/10 163/15/10 172/16/10
f 172/13/10 163/14/10 165/15/10 173/16/10
f 173/13/10 165/14/10 167/15/10 174/16/10
f 174/13/10 167/14/10 169/15/10 175/16/10
f 155/13/10 156/14/10 171/15/10 176/16/10
f 176/13/10 171/14/10 172/15/10 177/16/10
f 177/13/10 172/14/10 173/15/10 178/16/10
f 178/13/10 173/14/10 174/15/10 179/16/10
f 179/13/10 174/14/10 175/15/10 180/16/10
f 181/13/10 155/14/10 176/15/10 182/16/10
f 183/13/10 153/14/10 155/15/10 181/16/10
f 182/13/10 176/14/10 177/15/10 184/16/10
f 184/13/10 177/14/10 178/15/10 185/16/10
f 185/13/10 178/14/10 179/15/10 186/16/10
f 186/13/10 179/14/10 180/15/10 187/16/10
f 188/13/10 181/14/10 182/15/10 189/16/10
f 190/13/10 183/14/10 181/15/10 188/16/10
f 189/13/10 182/14/10 184/15/10 191/16/10
f 191/13/10 184/14/10 185/15/10 192/16/10
f 192/13/10 185/14/10 186/15/10 193/16/10
f 193/13/10 186/14/10 187/15/10 194/16/10
