# Blender 5.0.1
# www.blender.org
o Cube.001
v -0.100000 0.000000 0.500000
v -0.100000 0.606430 0.500000
v -0.100000 0.000000 -0.500000
v -0.100000 1.329984 -0.500000
v 0.100000 0.000000 0.500000
v 0.100000 0.606430 0.500000
v 0.100000 0.000000 -0.500000
v 0.100000 1.329984 -0.500000
v -0.100000 0.000000 -0.300000
v -0.100000 0.000000 -0.100000
v -0.100000 0.000000 0.100000
v -0.100000 0.000000 0.300000
v -0.100000 0.728603 0.300000
v -0.100000 1.045702 0.100000
v -0.100000 1.266327 -0.100000
v -0.100000 1.442669 -0.300000
v 0.100000 0.000000 0.300000
v 0.100000 0.000000 0.100000
v 0.100000 0.000000 -0.100000
v 0.100000 0.000000 -0.300000
v 0.100000 1.442669 -0.300000
v 0.100000 1.266327 -0.100000
v 0.100000 1.045702 0.100000
v 0.100000 0.728603 0.300000
v -0.100000 0.000000 -0.222854
v -0.100000 1.462496 -0.222854
v 0.100000 0.000000 -0.222854
v 0.100000 1.462496 -0.222854
vn -1.0000 -0.0000 -0.0000
vn -0.0000 -0.0000 -1.0000
vn 1.0000 -0.0000 -0.0000
vn -0.0000 -0.0000 1.0000
vn -0.0000 -1.0000 -0.0000
vn -0.0000 0.8534 0.5213
vn -0.0000 0.8712 -0.4909
vn -0.0000 0.5308 0.8475
vn -0.0000 0.6716 0.7409
vn -0.0000 0.5335 0.8458
vn -0.0000 0.9685 -0.2489
vt 0.375000 0.200000
vt 0.625000 0.200000
vt 0.625000 0.250000
vt 0.375000 0.250000
vt 0.625000 0.500000
vt 0.375000 0.500000
vt 0.375000 0.700000
vt 0.625000 0.700000
vt 0.625000 0.750000
vt 0.375000 0.750000
vt 0.625000 1.000000
vt 0.375000 1.000000
vt 0.125000 0.700000
vt 0.125000 0.750000
vt 0.875000 0.700000
vt 0.875000 0.750000
vt 0.875000 0.500000
vt 0.875000 0.550000
vt 0.625000 0.550000
vt 0.625000 0.569287
vt 0.875000 0.569287
vt 0.875000 0.600000
vt 0.625000 0.600000
vt 0.875000 0.650000
vt 0.625000 0.650000
vt 0.125000 0.500000
vt 0.375000 0.550000
vt 0.125000 0.550000
vt 0.125000 0.569287
vt 0.375000 0.569286
vt 0.375000 0.600000
vt 0.125000 0.600000
vt 0.375000 0.650000
vt 0.125000 0.650000
vt 0.375000 0.000000
vt 0.625000 0.000000
vt 0.625000 0.050000
vt 0.375000 0.050000
vt 0.625000 0.100000
vt 0.375000 0.100000
vt 0.625000 0.150000
vt 0.375000 0.150000
vt 0.375000 0.180714
vt 0.625000 0.180714
s 0
f 9/1/1 16/2/1 4/3/1 3/4/1
f 3/4/2 4/3/2 8/5/2 7/6/2
f 17/7/3 24/8/3 6/9/3 5/10/3
f 5/10/4 6/9/4 2/11/4 1/12/4
f 12/13/5 17/7/5 5/10/5 1/14/5
f 24/8/6 13/15/6 2/16/6 6/9/6
f 8/5/7 4/17/7 16/18/7 21/19/7
f 28/20/8 26/21/8 15/22/8 22/23/8
f 22/23/9 15/22/9 14/24/9 23/25/9
f 23/25/10 14/24/10 13/15/10 24/8/10
f 3/26/5 7/6/5 20/27/5 9/28/5
f 25/29/5 27/30/5 19/31/5 10/32/5
f 10/32/5 19/31/5 18/33/5 11/34/5
f 11/34/5 18/33/5 17/7/5 12/13/5
f 7/6/3 8/5/3 21/19/3 20/27/3
f 27/30/3 28/20/3 22/23/3 19/31/3
f 19/31/3 22/23/3 23/25/3 18/33/3
f 18/33/3 23/25/3 24/8/3 17/7/3
f 1/35/1 2/36/1 13/37/1 12/38/1
f 12/38/1 13/37/1 14/39/1 11/40/1
f 11/40/1 14/39/1 15/41/1 10/42/1
f 25/43/1 26/44/1 16/2/1 9/1/1
f 10/42/1 15/41/1 26/44/1 25/43/1
f 20/27/3 21/19/3 28/20/3 27/30/3
f 9/28/5 20/27/5 27/30/5 25/29/5
f 21/19/11 16/18/11 26/21/11 28/20/11
