# Blender 5.1.2
# www.blender.org
mtllib small_cloud_1.mtl
o Icosphere
v -0.007704 -0.087548 0.012814
v 0.078746 -0.058500 0.075623
v -0.040777 -0.058586 0.114604
v -0.109459 -0.055948 0.012814
v -0.032574 -0.045313 -0.063729
v 0.061603 -0.047906 -0.037540
v 0.025377 0.048457 0.114628
v -0.065607 0.030716 0.054883
v -0.065735 0.030795 -0.029347
v 0.017303 0.035393 -0.064151
v 0.078830 0.038196 0.012814
v -0.007704 0.114162 0.012814
v -0.026603 -0.104028 0.070979
v 0.027838 -0.076155 0.038637
v 0.014414 -0.049306 0.080884
v 0.066513 -0.050940 0.012814
v 0.035473 -0.091426 -0.018555
v -0.070769 -0.107112 0.012814
v -0.074580 -0.056161 0.061403
v -0.021891 -0.079360 -0.030851
v -0.062762 -0.047132 -0.027187
v 0.015484 -0.051447 -0.058550
v 0.069171 -0.005071 0.037792
v 0.095981 -0.005071 -0.020874
v -0.007704 -0.005071 0.106727
v 0.062372 -0.005071 0.109266
v -0.116990 -0.005071 0.048323
v -0.078098 -0.005071 0.109703
v -0.070913 -0.005071 -0.074186
v -0.091558 -0.005071 -0.014431
v 0.057723 -0.005071 -0.077238
v -0.007704 -0.005071 -0.107164
v 0.061584 0.047861 0.063154
v -0.031147 0.041816 0.084964
v -0.107383 0.056535 0.012814
v -0.039040 0.057601 -0.083626
v 0.047401 0.037026 -0.027222
v 0.006323 0.068376 0.055985
v 0.039674 0.071589 0.012814
v -0.048008 0.075538 0.042097
v -0.041988 0.063497 -0.012094
v 0.005369 0.063382 -0.027421
vn 0.1885 -0.9781 -0.0887
vn 0.7265 -0.5669 0.3884
vn -0.1316 -0.4505 0.8830
vn -0.9031 -0.3889 -0.1822
vn -0.3175 -0.6877 -0.6529
vn 0.6675 -0.5803 -0.4666
vn 0.1070 0.5751 0.8111
vn -0.5650 0.5853 0.5816
vn -0.7455 0.4965 -0.4447
vn 0.4635 0.6757 -0.5732
vn 0.8749 0.4835 -0.0259
vn 0.0033 0.9975 -0.0700
vn 0.0487 -0.8962 0.4410
vn 0.3926 -0.8875 0.2413
vn 0.2776 -0.5785 0.7670
vn 0.8433 -0.5373 0.0157
vn 0.3746 -0.8940 -0.2461
vn -0.4421 -0.8808 -0.1694
vn -0.7071 -0.5206 0.4786
vn -0.1625 -0.8038 -0.5722
vn -0.6158 -0.4929 -0.6147
vn 0.1784 -0.6626 -0.7274
vn 0.9808 0.0162 0.1945
vn 0.9826 0.0305 -0.1832
vn 0.0167 -0.0274 0.9995
vn 0.6120 -0.0772 0.7871
vn -0.9525 0.0750 0.2951
vn -0.5732 0.1867 0.7978
vn -0.7832 -0.1268 -0.6087
vn -0.8575 -0.0060 -0.5145
vn 0.6301 0.0547 -0.7746
vn 0.0570 -0.1177 -0.9914
vn 0.7532 0.5925 0.2857
vn -0.3639 0.6299 0.6861
vn -0.7828 0.6168 -0.0829
vn -0.2802 0.7268 -0.6270
vn 0.5483 0.6907 -0.4714
vn 0.1293 0.8577 0.4977
vn 0.5801 0.8048 -0.1258
vn -0.4524 0.7821 0.4286
vn -0.4257 0.8143 -0.3945
vn 0.2844 0.8065 -0.5183
vt 0.181819 0.000000
vt 0.227273 0.078731
vt 0.136365 0.078731
vt 0.272728 0.157461
vt 0.318182 0.078731
vt 0.363637 0.157461
vt 0.909091 0.000000
vt 0.954545 0.078731
vt 0.863636 0.078731
vt 0.727273 0.000000
vt 0.772727 0.078731
vt 0.681818 0.078731
vt 0.545455 0.000000
vt 0.590909 0.078731
vt 0.500000 0.078731
vt 0.318182 0.236191
vt 0.090910 0.157461
vt 0.181819 0.157461
vt 0.136365 0.236191
vt 0.818182 0.157461
vt 0.909091 0.157461
vt 0.863636 0.236191
vt 0.636364 0.157461
vt 0.727273 0.157461
vt 0.681818 0.236191
vt 0.454546 0.157461
vt 0.545455 0.157461
vt 0.500000 0.236191
vt 0.227273 0.236191
vt 0.045455 0.236191
vt 0.772727 0.236191
vt 0.590909 0.236191
vt 0.409092 0.236191
vt 0.181819 0.314921
vt 0.272728 0.314921
vt 0.227273 0.393651
vt 0.000000 0.314921
vt 0.090910 0.314921
vt 0.045455 0.393651
vt 0.727273 0.314921
vt 0.818182 0.314921
vt 0.772727 0.393651
vt 0.545455 0.314921
vt 0.636364 0.314921
vt 0.590909 0.393651
vt 0.363637 0.314921
vt 0.454546 0.314921
vt 0.409092 0.393651
vt 0.500000 0.393651
vt 0.454546 0.472382
vt 0.681818 0.393651
vt 0.636364 0.472382
vt 0.863636 0.393651
vt 0.818182 0.472382
vt 0.909091 0.314921
vt 0.136365 0.393651
vt 0.090910 0.472382
vt 0.318182 0.393651
vt 0.272728 0.472382
vt 0.954545 0.236191
vt 1.000000 0.157461
vt 0.409092 0.078731
vt 0.363637 0.000000
s 1
usemtl Material
f 1/1/1 14/2/14 13/3/13
f 2/4/2 14/5/14 16/6/16
f 1/7/1 13/8/13 18/9/18
f 1/10/1 18/11/18 20/12/20
f 1/13/1 20/14/20 17/15/17
f 2/4/2 16/6/16 23/16/23
f 3/17/3 15/18/15 25/19/25
f 4/20/4 19/21/19 27/22/27
f 5/23/5 21/24/21 29/25/29
f 6/26/6 22/27/22 31/28/31
f 2/4/2 23/16/23 26/29/26
f 3/17/3 25/19/25 28/30/28
f 4/20/4 27/22/27 30/31/30
f 5/23/5 29/25/29 32/32/32
f 6/26/6 31/28/31 24/33/24
f 7/34/7 33/35/33 38/36/38
f 8/37/8 34/38/34 40/39/40
f 9/40/9 35/41/35 41/42/41
f 10/43/10 36/44/36 42/45/42
f 11/46/11 37/47/37 39/48/39
f 39/48/39 42/49/42 12/50/12
f 39/48/39 37/47/37 42/49/42
f 37/47/37 10/43/10 42/49/42
f 42/45/42 41/51/41 12/52/12
f 42/45/42 36/44/36 41/51/41
f 36/44/36 9/40/9 41/51/41
f 41/42/41 40/53/40 12/54/12
f 41/42/41 35/41/35 40/53/40
f 35/41/35 8/55/8 40/53/40
f 40/39/40 38/56/38 12/57/12
f 40/39/40 34/38/34 38/56/38
f 34/38/34 7/34/7 38/56/38
f 38/36/38 39/58/39 12/59/12
f 38/36/38 33/35/33 39/58/39
f 33/35/33 11/46/11 39/58/39
f 24/33/24 37/47/37 11/46/11
f 24/33/24 31/28/31 37/47/37
f 31/28/31 10/43/10 37/47/37
f 32/32/32 36/44/36 10/43/10
f 32/32/32 29/25/29 36/44/36
f 29/25/29 9/40/9 36/44/36
f 30/31/30 35/41/35 9/40/9
f 30/31/30 27/22/27 35/41/35
f 27/22/27 8/55/8 35/41/35
f 28/30/28 34/38/34 8/37/8
f 28/30/28 25/19/25 34/38/34
f 25/19/25 7/34/7 34/38/34
f 26/29/26 33/35/33 7/34/7
f 26/29/26 23/16/23 33/35/33
f 23/16/23 11/46/11 33/35/33
f 31/28/31 32/32/32 10/43/10
f 31/28/31 22/27/22 32/32/32
f 22/27/22 5/23/5 32/32/32
f 29/25/29 30/31/30 9/40/9
f 29/25/29 21/24/21 30/31/30
f 21/24/21 4/20/4 30/31/30
f 27/22/27 28/60/28 8/55/8
f 27/22/27 19/21/19 28/60/28
f 19/21/19 3/61/3 28/60/28
f 25/19/25 26/29/26 7/34/7
f 25/19/25 15/18/15 26/29/26
f 15/18/15 2/4/2 26/29/26
f 23/16/23 24/33/24 11/46/11
f 23/16/23 16/6/16 24/33/24
f 16/6/16 6/26/6 24/33/24
f 17/15/17 22/27/22 6/26/6
f 17/15/17 20/14/20 22/27/22
f 20/14/20 5/23/5 22/27/22
f 20/12/20 21/24/21 5/23/5
f 20/12/20 18/11/18 21/24/21
f 18/11/18 4/20/4 21/24/21
f 18/9/18 19/21/19 4/20/4
f 18/9/18 13/8/13 19/21/19
f 13/8/13 3/61/3 19/21/19
f 16/6/16 17/62/17 6/26/6
f 16/6/16 14/5/14 17/62/17
f 14/5/14 1/63/1 17/62/17
f 13/3/13 15/18/15 3/17/3
f 13/3/13 14/2/14 15/18/15
f 14/2/14 2/4/2 15/18/15
