# Blender 5.1.2
# www.blender.org
o Bush_1
v 0.317514 -0.250609 -0.122709
v -1.013363 -0.095076 -1.608155
v 0.145242 1.723233 0.231540
v -0.842563 1.909204 -1.544615
v -0.114842 -0.197765 -0.627407
v -0.399738 -0.131837 -1.257059
v -0.402226 1.857068 -1.046680
v -0.268575 1.777722 -0.288868
v 0.459125 1.088040 -0.103860
v 0.295755 0.410503 -0.034847
v -1.092082 0.560982 -1.472027
v -0.947258 1.236873 -1.525324
v 0.068044 0.481504 -0.712956
v -0.089585 1.130560 -0.509962
v -0.542136 0.518571 -1.066971
v -0.577821 1.178447 -0.967309
v -0.290855 -0.260778 -0.025591
v 1.709146 -0.265403 0.018582
v -0.290855 1.704781 0.407770
v 1.709145 1.747090 0.003687
v 0.375812 -0.260778 -0.025591
v 1.042479 -0.240604 -0.218263
v 1.042479 1.748182 -0.006741
v 0.375812 1.707317 0.383546
v -0.290855 1.084680 -0.071773
v -0.290855 0.399288 0.072263
v 1.709146 0.386870 0.190860
v 1.709146 1.069725 0.071057
v 0.375812 0.427285 -0.195126
v 0.375812 1.068762 0.080256
v 1.042479 0.402957 0.037219
v 1.042479 1.061117 0.153268
v 0.177631 -0.364764 -0.215679
v 0.624931 1.066759 -1.539551
v -0.204509 1.043637 1.170538
v -0.177797 2.445339 -0.312564
v 0.312915 0.111431 -0.662200
v 0.267421 0.574808 -1.177162
v -0.322865 1.968451 0.130253
v -0.091953 1.518221 0.715412
v -0.391534 0.551878 0.589436
v 0.006528 0.101603 0.229841
v 0.523657 1.538078 -1.067595
v 0.148332 1.989964 -0.699392
v -0.109072 0.560009 -0.311663
v -0.113606 1.038187 0.196918
v 0.244215 1.051661 -0.675650
v 0.090184 1.519239 -0.223668
v -0.328165 -0.268109 0.044428
v 0.105708 -0.064746 -1.897831
v -0.106195 1.716418 0.296626
v -0.114363 1.928941 -1.733113
v -0.198061 -0.200020 -0.605866
v -0.257957 -0.127995 -1.293760
v -0.254750 1.861066 -1.084855
v 0.000021 1.785002 -0.358395
v -0.510628 1.061756 0.147165
v -0.300128 0.394352 0.119400
v 0.207137 0.596195 -1.808335
v 0.020534 1.263104 -1.775841
v -0.433706 0.467905 -0.583076
v -0.230603 1.126739 -0.473459
v -0.074478 0.531246 -1.188026
v -0.028499 1.193335 -1.109503
v -0.263749 -0.231504 -0.305172
v 1.734425 -0.221475 -0.400959
v -0.247837 1.734113 0.127632
v 1.718649 1.790960 -0.415302
v 0.401268 -0.226623 -0.351789
v 1.052665 -0.201618 -0.590601
v 1.052895 1.787168 -0.379087
v 0.415468 1.741524 0.056852
v -0.276829 1.113906 -0.350896
v -0.261739 0.428569 -0.207388
v 1.741696 0.430825 -0.228936
v 1.728319 1.113631 -0.348271
v 0.384376 0.461377 -0.520733
v 0.398935 1.102908 -0.245861
v 1.065818 0.441991 -0.335580
v 1.069114 1.100163 -0.219646
v -0.107105 -0.305319 -0.147137
v 0.409183 0.094611 1.743756
v -0.595071 1.628578 -0.417612
v 0.349603 2.064936 1.338023
v 0.079063 -0.170812 0.478717
v 0.449362 -0.020648 1.046435
v 0.173401 1.931277 0.709022
v -0.385754 1.765053 0.200933
v -0.112180 1.011177 -0.428565
v -0.225226 0.343100 -0.251357
v 0.219936 0.736982 1.661993
v 0.309824 1.403090 1.492097
v 0.216478 0.499337 0.293815
v -0.071302 1.133329 0.243164
v 0.180600 0.614961 0.989778
v 0.045089 1.261902 0.891049
v 0.219785 -0.462629 -0.017844
v -1.759975 -0.180248 0.034918
v 0.497511 1.530156 -0.071689
v -1.466078 1.771216 0.429590
v -0.439604 -0.369859 0.014477
v -1.092042 -0.294850 0.239581
v -0.806313 1.677485 0.407703
v -0.161004 1.620693 -0.015132
v 0.417024 0.835005 0.281543
v 0.314042 0.197337 0.010834
v -1.668404 0.486579 -0.010871
v -1.566295 1.126480 0.235591
v -0.335701 0.265458 0.310699
v -0.247849 0.941789 0.161747
v -1.003472 0.379646 0.110540
v -0.909872 1.041289 0.121012
v 0.181888 -0.324235 -0.114484
v -1.550514 0.161307 0.760161
v 0.799040 1.583590 0.060306
v -1.116453 2.112415 0.525389
v -0.401593 -0.160966 0.163611
v -1.063772 0.020908 0.265666
v -0.537230 1.950153 0.237766
v 0.205665 1.749198 0.316268
v 0.456456 0.980004 -0.304121
v 0.368572 0.316206 -0.098798
v -1.333432 0.794562 0.843847
v -1.235650 1.456020 0.660664
v -0.324125 0.505294 -0.065010
v -0.064930 1.128594 0.112879
v -0.812705 0.646128 0.425373
v -0.618589 1.284813 0.457684
v -0.146393 -0.356648 -0.075202
v -1.725116 0.617475 -0.823995
v 0.613193 1.388338 0.579989
v -0.760584 2.365508 -0.570207
v -0.665902 -0.031840 -0.337986
v -1.097320 0.294277 -0.773302
v -0.236307 2.040771 -0.316761
v 0.104759 1.713310 0.295515
v 0.513203 0.808954 0.061528
v 0.128108 0.225331 0.101466
v -1.484642 1.198948 -0.580682
v -1.110626 1.782406 -0.598921
v -0.269148 0.551956 -0.400758
v -0.075814 1.132728 -0.065117
v -0.894887 0.875185 -0.455481
v -0.628705 1.457039 -0.262519
v -0.260093 -0.263700 0.002322
v 0.293736 -0.063522 -1.909529
v -0.476123 1.732453 0.143490
v 0.507919 1.918639 -1.634731
v -0.061351 -0.197434 -0.630572
v 0.322306 -0.137181 -1.206029
v 0.319186 1.852047 -0.998729
v -0.254133 1.797963 -0.482183
v -0.082512 1.056609 0.196328
v -0.287379 0.400230 0.063270
v 0.195021 0.602731 -1.870768
v 0.376632 1.259867 -1.744934
v 0.167989 0.458150 -0.489912
v -0.029679 1.127621 -0.481888
v 0.143737 0.531669 -1.192072
v 0.098988 1.196166 -1.136548
v 0.171416 -0.296297 -0.182382
v -0.346749 0.064775 1.715802
v 0.379955 1.680877 -0.496257
v -0.570832 2.016340 1.278156
v -0.015516 -0.176781 0.446280
v -0.388400 -0.068273 1.021743
v -0.393963 1.896227 0.646614
v 0.169644 1.799009 0.125717
v -0.012959 1.002674 -0.484156
v 0.195955 0.360098 -0.299874
v -0.250382 0.725422 1.618860
v -0.435909 1.369383 1.441269
v -0.249040 0.464338 0.254958
v -0.053166 1.130876 0.186484
v -0.211732 0.597129 0.947774
v -0.169633 1.254564 0.835307
v -0.222808 -0.435601 0.098252
v 1.561961 -0.341499 -0.800479
v -0.320532 1.574783 0.103497
v 1.658848 1.626552 -0.390919
v 0.378508 -0.405624 -0.188044
v 1.063472 -0.393843 -0.300555
v 1.062060 1.595590 -0.095218
v 0.291300 1.602472 -0.160950
v -0.142478 0.873009 0.403990
v -0.235151 0.230126 0.142032
v 1.517306 0.331257 -0.823828
v 1.599459 0.976429 -0.583727
v 0.482252 0.234851 0.096914
v 0.392834 0.917344 -0.019431
v 0.982695 0.286770 -0.398951
v 0.962451 0.954216 -0.371583
vn -0.7665 0.2035 0.6091
vn -0.6261 -0.5002 0.5981
vn -0.8912 -0.0505 0.4508
vn -0.7409 -0.0302 0.6710
vn -0.5862 -0.2637 0.7660
vn -0.8640 0.1030 0.4929
vn -0.8145 -0.0548 0.5775
vn -0.5354 -0.2888 0.7937
vn -0.7211 0.0349 0.6920
vn -0.0521 -0.1642 -0.9851
vn 0.0864 0.5262 -0.8460
vn -0.2327 0.1045 -0.9669
vn 0.0299 0.0644 -0.9975
vn 0.2206 0.2813 -0.9339
vn -0.1953 -0.0521 -0.9794
vn -0.0867 0.0981 -0.9914
vn 0.2765 0.3012 -0.9126
vn 0.0535 -0.0028 -0.9986
vn -0.8300 -0.2861 -0.4788
vn -0.9479 0.3056 -0.0902
vn -0.9557 -0.2283 -0.1856
vn -0.9141 -0.0725 -0.3989
vn -0.9035 0.2213 -0.3671
vn -0.8979 -0.3107 -0.3118
vn -0.9456 -0.1317 -0.2976
vn -0.8808 0.2779 -0.3833
vn -0.8840 -0.1019 -0.4563
vn -0.9543 -0.2502 -0.1637
vn -0.8621 0.4599 -0.2129
vn -0.9993 -0.0008 0.0385
vn -0.9737 -0.0163 -0.2271
vn -0.8967 0.2235 -0.3822
vn -0.9881 -0.1532 -0.0135
vn -0.9940 0.0058 -0.1094
vn -0.8670 0.2508 -0.4307
vn -0.9633 -0.0805 -0.2560
vn -0.1197 -0.1648 -0.9790
vn 0.0231 0.5266 -0.8498
vn -0.3005 0.1026 -0.9483
vn -0.0404 0.0643 -0.9971
vn 0.1527 0.2827 -0.9470
vn -0.2629 -0.0538 -0.9633
vn -0.1565 0.0972 -0.9829
vn 0.2098 0.3030 -0.9296
vn -0.0165 -0.0027 -0.9999
vn 0.9367 -0.1922 -0.2928
vn 0.8165 0.5147 -0.2615
vn 0.8590 0.0348 -0.5109
vn 0.9631 0.0479 -0.2649
vn 0.9474 0.3001 -0.1113
vn 0.8871 -0.1112 -0.4480
vn 0.9235 0.0575 -0.3794
vn 0.9418 0.3314 -0.0568
vn 0.9732 -0.0132 -0.2297
vn 0.0481 -0.3576 0.9326
vn 0.0089 0.3590 0.9333
vn 0.2655 -0.1183 0.9568
vn 0.0006 -0.1267 0.9919
vn -0.1578 0.1228 0.9798
vn 0.2060 -0.2676 0.9413
vn 0.1207 -0.1090 0.9867
vn -0.2106 0.1541 0.9654
vn -0.0325 -0.1889 0.9815
vn 0.4152 0.1768 0.8924
vn 0.3254 -0.5271 0.7851
vn 0.1906 -0.0396 0.9809
vn 0.4423 -0.0648 0.8945
vn 0.5344 -0.3221 0.7814
vn 0.2629 0.1032 0.9593
vn 0.3303 -0.0690 0.9413
vn 0.5697 -0.3553 0.7411
vn 0.4782 -0.0054 0.8783
vn -0.3637 0.2510 0.8971
vn -0.5279 -0.4282 0.7335
vn -0.6250 0.1040 0.7737
vn -0.4137 0.0135 0.9103
vn -0.3425 -0.2733 0.8989
vn -0.5263 0.2229 0.8205
vn -0.5181 0.0404 0.8544
vn -0.2997 -0.3197 0.8989
vn -0.3638 0.0605 0.9295
vn -0.9033 0.2995 -0.3072
vn -0.8812 -0.4136 -0.2290
vn -0.8590 0.0501 -0.5096
vn -0.9623 0.0677 -0.2636
vn -0.9803 -0.1737 -0.0936
vn -0.8663 0.2024 -0.4566
vn -0.9251 0.0451 -0.3771
vn -0.9787 -0.2018 -0.0372
vn -0.9636 0.1317 -0.2325
vn 0.9082 0.3251 0.2635
vn 0.8863 -0.3920 0.2465
vn 0.8683 0.0938 0.4871
vn 0.9669 0.0905 0.2386
vn 0.9823 -0.1644 0.0894
vn 0.8743 0.2411 0.4213
vn 0.9319 0.0777 0.3542
vn 0.9797 -0.1971 0.0356
vn 0.9675 0.1517 0.2021
vn -0.3686 0.3572 -0.8582
vn -0.4649 -0.3526 -0.8122
vn -0.2101 0.0986 -0.9727
vn -0.4582 0.1321 -0.8790
vn -0.6127 -0.1014 -0.7838
vn -0.2421 0.2527 -0.9368
vn -0.3520 0.1031 -0.9303
vn -0.6548 -0.1277 -0.7449
vn -0.4769 0.1970 -0.8566
vt 0.666667 0.666667
vt 1.000000 0.666667
vt 1.000000 1.000000
vt 0.666667 1.000000
vt 0.000000 0.666667
vt 0.333333 0.666667
vt 0.333333 1.000000
vt 0.000000 1.000000
vt 0.333333 0.000000
vt 0.666667 0.000000
vt 0.666667 0.333333
vt 0.333333 0.333333
vt 0.000000 0.000000
vt 0.000000 0.333333
vt 1.000000 0.000000
vt 1.000000 0.333333
s 0
f 16/1/1 7/4/1 4/3/1 12/2/1
f 9/5/2 3/8/2 8/7/2 14/6/2
f 14/6/3 8/7/3 7/4/3 16/1/3
f 5/9/4 13/12/4 15/11/4 6/10/4
f 13/12/5 14/6/5 16/1/5 15/11/5
f 1/13/6 10/14/6 13/12/6 5/9/6
f 10/14/7 9/5/7 14/6/7 13/12/7
f 6/10/8 15/11/8 11/16/8 2/15/8
f 15/11/9 16/1/9 12/2/9 11/16/9
f 32/1/10 23/4/10 20/3/10 28/2/10
f 25/5/11 19/8/11 24/7/11 30/6/11
f 30/6/12 24/7/12 23/4/12 32/1/12
f 21/9/13 29/12/13 31/11/13 22/10/13
f 29/12/14 30/6/14 32/1/14 31/11/14
f 17/13/15 26/14/15 29/12/15 21/9/15
f 26/14/16 25/5/16 30/6/16 29/12/16
f 22/10/17 31/11/17 27/16/17 18/15/17
f 31/11/18 32/1/18 28/2/18 27/16/18
f 48/1/19 39/4/19 36/3/19 44/2/19
f 41/5/20 35/8/20 40/7/20 46/6/20
f 46/6/21 40/7/21 39/4/21 48/1/21
f 37/9/22 45/12/22 47/11/22 38/10/22
f 45/12/23 46/6/23 48/1/23 47/11/23
f 33/13/24 42/14/24 45/12/24 37/9/24
f 42/14/25 41/5/25 46/6/25 45/12/25
f 38/10/26 47/11/26 43/16/26 34/15/26
f 47/11/27 48/1/27 44/2/27 43/16/27
f 64/1/28 55/4/28 52/3/28 60/2/28
f 57/5/29 51/8/29 56/7/29 62/6/29
f 62/6/30 56/7/30 55/4/30 64/1/30
f 53/9/31 61/12/31 63/11/31 54/10/31
f 61/12/32 62/6/32 64/1/32 63/11/32
f 49/13/33 58/14/33 61/12/33 53/9/33
f 58/14/34 57/5/34 62/6/34 61/12/34
f 54/10/35 63/11/35 59/16/35 50/15/35
f 63/11/36 64/1/36 60/2/36 59/16/36
f 80/1/37 71/4/37 68/3/37 76/2/37
f 73/5/38 67/8/38 72/7/38 78/6/38
f 78/6/39 72/7/39 71/4/39 80/1/39
f 69/9/40 77/12/40 79/11/40 70/10/40
f 77/12/41 78/6/41 80/1/41 79/11/41
f 65/13/42 74/14/42 77/12/42 69/9/42
f 74/14/43 73/5/43 78/6/43 77/12/43
f 70/10/44 79/11/44 75/16/44 66/15/44
f 79/11/45 80/1/45 76/2/45 75/16/45
f 96/1/46 87/4/46 84/3/46 92/2/46
f 89/5/47 83/8/47 88/7/47 94/6/47
f 94/6/48 88/7/48 87/4/48 96/1/48
f 85/9/49 93/12/49 95/11/49 86/10/49
f 93/12/50 94/6/50 96/1/50 95/11/50
f 81/13/51 90/14/51 93/12/51 85/9/51
f 90/14/52 89/5/52 94/6/52 93/12/52
f 86/10/53 95/11/53 91/16/53 82/15/53
f 95/11/54 96/1/54 92/2/54 91/16/54
f 112/1/55 103/4/55 100/3/55 108/2/55
f 105/5/56 99/8/56 104/7/56 110/6/56
f 110/6/57 104/7/57 103/4/57 112/1/57
f 101/9/58 109/12/58 111/11/58 102/10/58
f 109/12/59 110/6/59 112/1/59 111/11/59
f 97/13/60 106/14/60 109/12/60 101/9/60
f 106/14/61 105/5/61 110/6/61 109/12/61
f 102/10/62 111/11/62 107/16/62 98/15/62
f 111/11/63 112/1/63 108/2/63 107/16/63
f 128/1/64 119/4/64 116/3/64 124/2/64
f 121/5/65 115/8/65 120/7/65 126/6/65
f 126/6/66 120/7/66 119/4/66 128/1/66
f 117/9/67 125/12/67 127/11/67 118/10/67
f 125/12/68 126/6/68 128/1/68 127/11/68
f 113/13/69 122/14/69 125/12/69 117/9/69
f 122/14/70 121/5/70 126/6/70 125/12/70
f 118/10/71 127/11/71 123/16/71 114/15/71
f 127/11/72 128/1/72 124/2/72 123/16/72
f 144/1/73 135/4/73 132/3/73 140/2/73
f 137/5/74 131/8/74 136/7/74 142/6/74
f 142/6/75 136/7/75 135/4/75 144/1/75
f 133/9/76 141/12/76 143/11/76 134/10/76
f 141/12/77 142/6/77 144/1/77 143/11/77
f 129/13/78 138/14/78 141/12/78 133/9/78
f 138/14/79 137/5/79 142/6/79 141/12/79
f 134/10/80 143/11/80 139/16/80 130/15/80
f 143/11/81 144/1/81 140/2/81 139/16/81
f 160/1/82 151/4/82 148/3/82 156/2/82
f 153/5/83 147/8/83 152/7/83 158/6/83
f 158/6/84 152/7/84 151/4/84 160/1/84
f 149/9/85 157/12/85 159/11/85 150/10/85
f 157/12/86 158/6/86 160/1/86 159/11/86
f 145/13/87 154/14/87 157/12/87 149/9/87
f 154/14/88 153/5/88 158/6/88 157/12/88
f 150/10/89 159/11/89 155/16/89 146/15/89
f 159/11/90 160/1/90 156/2/90 155/16/90
f 176/1/91 167/4/91 164/3/91 172/2/91
f 169/5/92 163/8/92 168/7/92 174/6/92
f 174/6/93 168/7/93 167/4/93 176/1/93
f 165/9/94 173/12/94 175/11/94 166/10/94
f 173/12/95 174/6/95 176/1/95 175/11/95
f 161/13/96 170/14/96 173/12/96 165/9/96
f 170/14/97 169/5/97 174/6/97 173/12/97
f 166/10/98 175/11/98 171/16/98 162/15/98
f 175/11/99 176/1/99 172/2/99 171/16/99
f 192/1/100 183/4/100 180/3/100 188/2/100
f 185/5/101 179/8/101 184/7/101 190/6/101
f 190/6/102 184/7/102 183/4/102 192/1/102
f 181/9/103 189/12/103 191/11/103 182/10/103
f 189/12/104 190/6/104 192/1/104 191/11/104
f 177/13/105 186/14/105 189/12/105 181/9/105
f 186/14/106 185/5/106 190/6/106 189/12/106
f 182/10/107 191/11/107 187/16/107 178/15/107
f 191/11/108 192/1/108 188/2/108 187/16/108
