# Blender 5.1.2
# www.blender.org
o Fern
v 0.058306 0.031468 0.434524
v 0.173633 0.031468 -0.402569
v -1.714069 0.563990 0.184202
v -1.571163 0.526769 -0.652633
v 0.000000 -0.045317 0.000000
v -1.580377 0.412118 -0.241403
v -1.286987 0.841871 0.271859
v -0.712885 0.817826 0.353823
v -0.219298 0.487917 0.421496
v -0.160010 0.472150 -0.429371
v -0.570843 0.814069 -0.500863
v -1.122086 0.826811 -0.588747
v -0.278715 0.376847 -0.037920
v -0.644392 0.636062 -0.100130
v -1.163633 0.683591 -0.163610
v -1.713323 0.610084 -0.058705
v 0.141787 0.064375 0.196187
v -0.171148 0.527393 0.147497
v -0.652680 0.877554 0.094186
v -1.262547 0.839625 -0.000462
v 0.189555 0.064375 -0.150538
v -1.664738 0.574860 -0.408184
v -0.115391 0.528017 -0.210498
v -0.586053 0.881286 -0.235755
v -1.189818 0.859922 -0.320173
v -0.422500 0.031468 0.117065
v 0.422500 0.031468 0.117065
v -0.424726 0.727366 -1.625265
v 0.383813 0.700280 -1.583533
v 0.000000 -0.045317 0.000000
v 0.008662 0.601133 -1.534656
v -0.432259 0.959556 -1.167566
v -0.392153 0.936238 -0.597129
v -0.415858 0.484425 -0.185755
v 0.425235 0.485353 -0.190127
v 0.445847 0.964387 -0.537088
v 0.434081 0.976082 -1.148224
v 0.003372 0.361600 -0.292693
v 0.001259 0.827489 -0.607306
v 0.006240 0.817754 -1.088207
v -0.202600 0.749206 -1.662316
v -0.175000 0.064375 0.167236
v -0.171719 0.560713 -0.178131
v -0.182105 1.006875 -0.549791
v -0.175589 1.044914 -1.180387
v 0.175000 0.064375 0.167236
v 0.173742 0.754649 -1.643479
v 0.165624 0.522415 -0.128559
v 0.173984 0.998588 -0.549722
v 0.174995 1.027592 -1.174655
v 0.411962 0.031468 0.149993
v -0.276025 0.031468 -0.340618
v -0.595128 0.403266 1.666238
v -1.291296 0.365178 1.202150
v 0.000000 -0.045317 0.000000
v -0.923346 0.209454 1.372931
v -0.341993 0.649474 1.289707
v 0.008562 0.804498 0.734068
v 0.254735 0.491553 0.386134
v -0.466032 0.494892 -0.068134
v -0.687243 0.815377 0.291142
v -1.018048 0.633510 0.832319
v -0.141781 0.378157 0.193666
v -0.365268 0.660568 0.532696
v -0.635462 0.521177 1.046963
v -0.830586 0.384120 1.553510
v 0.239580 0.064375 -0.034555
v 0.055717 0.526104 0.196418
v -0.240964 0.903023 0.598391
v -0.511970 0.673846 1.202882
v -0.045385 0.064375 -0.237767
v -1.104191 0.412048 1.369745
v -0.236104 0.540630 0.045442
v -0.501013 0.868802 0.400979
v -0.850135 0.658074 0.997293
v -0.345599 0.031468 -0.269762
v 0.157487 0.031468 0.409156
v 1.006130 0.712083 -1.329544
v 1.663012 0.803563 -0.812929
v 0.000000 -0.045317 0.000000
v 1.296778 0.617544 -1.050634
v 0.648387 0.861883 -0.952817
v 0.277542 0.803389 -0.746629
v -0.115450 0.495468 -0.432983
v 0.395934 0.489291 0.223435
v 0.741703 0.827508 -0.055376
v 1.324043 0.926662 -0.403272
v 0.206874 0.395167 -0.187885
v 0.518214 0.683482 -0.422173
v 0.988817 0.710227 -0.662474
v 1.193384 0.815558 -1.195866
v -0.238555 0.064375 -0.041037
v 0.032690 0.519444 -0.234145
v 0.402475 0.871706 -0.490136
v 0.842709 0.971377 -0.774982
v -0.030176 0.064375 0.240171
v 1.471717 0.811880 -0.934100
v 0.244744 0.565965 0.067258
v 0.609951 0.857452 -0.203594
v 1.130300 0.977565 -0.562356
v -0.092355 0.031468 -0.428580
v -0.141380 0.031468 0.414996
v 1.703333 0.521245 -0.331669
v 1.650717 0.559173 0.516956
v 0.000000 -0.045317 0.000000
v 1.606212 0.459310 0.050438
v 1.261740 0.822315 -0.359744
v 0.649386 0.789999 -0.367813
v 0.224608 0.470272 -0.367574
v 0.141765 0.486945 0.428327
v 0.636317 0.782706 0.429722
v 1.204229 0.813466 0.488621
v 0.271579 0.388273 -0.002854
v 0.674313 0.674777 0.045574
v 1.142770 0.719667 0.053341
v 1.710067 0.618841 -0.077723
v -0.156801 0.064375 -0.184408
v 0.154809 0.528066 -0.155821
v 0.616498 0.878808 -0.141283
v 1.257933 0.866590 -0.101260
v -0.177107 0.064375 0.165002
v 1.705737 0.578619 0.273511
v 0.144640 0.516414 0.196184
v 0.628095 0.869063 0.222769
v 1.184628 0.857733 0.236488
v 0.261753 0.031468 -0.351705
v -0.405430 0.031468 0.166844
v 1.370877 0.315144 0.997856
v 0.796569 0.320089 1.580414
v 0.000000 -0.045317 0.000000
v 1.010791 0.201598 1.257795
v 0.993043 0.593659 0.650708
v 0.716429 0.653586 0.251482
v 0.428765 0.497250 -0.114409
v -0.187354 0.483658 0.422411
v 0.055865 0.654685 0.760210
v 0.427380 0.583068 1.301450
v 0.157898 0.351258 0.231426
v 0.409948 0.506573 0.501072
v 0.686128 0.474197 0.922484
v 1.199703 0.380476 1.194242
v 0.035547 0.064375 -0.239435
v 0.216751 0.501821 0.025741
v 0.532930 0.701765 0.377146
v 0.857858 0.609375 0.866859
v -0.240801 0.064375 -0.024652
v 0.955500 0.378867 1.440845
v -0.047515 0.523282 0.233837
v 0.245093 0.703332 0.621996
v 0.614124 0.639215 1.127796
vn -0.4797 0.8308 -0.2823
vn -0.2266 0.6006 -0.7667
vn 0.6452 0.3656 -0.6709
vn 0.4839 0.5426 -0.6866
vn 0.1073 0.6806 -0.7247
vn 0.8083 0.5509 -0.2078
vn 0.6182 0.7520 -0.2288
vn 0.0198 0.9831 -0.1818
vn -0.0270 0.9943 0.1031
vn 0.5310 0.8072 0.2579
vn 0.7990 0.5320 0.2804
vn -0.5059 0.8612 0.0486
vn -0.0940 0.5720 0.8149
vn 0.2729 0.4908 0.8275
vn 0.4512 0.3862 0.8045
vn -0.4622 0.5284 0.7121
vn 0.2776 0.8142 -0.5100
vn 0.7419 0.5786 -0.3389
vn 0.7587 0.3721 0.5347
vn 0.7157 0.4262 0.5534
vn 0.7427 0.6692 0.0247
vn 0.2515 0.5351 0.8065
vn 0.1538 0.6164 0.7723
vn 0.1571 0.9871 0.0311
vn -0.3203 0.9456 0.0573
vn -0.2912 0.6312 0.7189
vn -0.2172 0.5520 0.8051
vn -0.2391 0.8486 -0.4718
vn -0.7443 0.6678 0.0076
vn -0.7500 0.4103 0.5189
vn -0.7839 0.3455 0.5158
vn -0.7773 0.5543 -0.2975
vn -0.4363 0.8544 0.2822
vn -0.7648 0.6323 -0.1235
vn -0.2641 0.3365 -0.9039
vn -0.4406 0.4945 -0.7493
vn -0.7833 0.5940 -0.1832
vn 0.2683 0.5686 -0.7776
vn 0.1421 0.7792 -0.6105
vn -0.3133 0.9397 0.1371
vn 0.0851 0.9314 0.3540
vn 0.4977 0.7873 -0.3640
vn 0.6511 0.5207 -0.5522
vn -0.2168 0.8595 0.4630
vn 0.4680 0.7339 0.4923
vn 0.8198 0.5674 0.0776
vn 0.9235 0.3774 -0.0681
vn 0.3792 0.5569 0.7390
vn 0.2481 0.9588 -0.1383
vn 0.7014 0.5985 0.3872
vn 0.0210 0.3819 0.9240
vn 0.1732 0.4758 0.8623
vn 0.3698 0.5237 0.7675
vn -0.4954 0.5240 0.6928
vn -0.2834 0.7920 0.5408
vn -0.0173 0.9623 0.2715
vn -0.2886 0.9416 -0.1734
vn -0.5658 0.8056 0.1760
vn -0.7465 0.5515 0.3722
vn -0.1257 0.8840 -0.4504
vn -0.4555 0.6667 -0.5899
vn -0.7325 0.6299 -0.2580
vn -0.9011 0.3831 -0.2030
vn -0.4797 0.6201 -0.6208
vn 0.4701 0.8705 0.1455
vn 0.2793 0.5357 0.7969
vn -0.5797 0.3557 0.7331
vn -0.4324 0.5132 0.7414
vn -0.0513 0.7007 0.7116
vn -0.8282 0.5458 0.1270
vn -0.5434 0.8101 0.2203
vn -0.0344 0.9607 0.2754
vn -0.0053 0.9642 -0.2650
vn -0.5546 0.7413 -0.3779
vn -0.7574 0.5607 -0.3346
vn 0.5188 0.8231 -0.2309
vn -0.0099 0.7350 -0.6780
vn -0.3800 0.6087 -0.6965
vn -0.5593 0.3980 -0.7272
vn 0.4050 0.7021 -0.5858
vn 0.1878 0.8368 0.5143
vn -0.2826 0.6065 0.7432
vn -0.9298 0.3675 0.0177
vn -0.7113 0.6435 0.2827
vn -0.5315 0.7182 0.4490
vn -0.6931 0.5653 -0.4473
vn -0.3920 0.9077 -0.1496
vn -0.1051 0.9740 0.2006
vn 0.2173 0.9759 0.0202
vn -0.1185 0.9254 -0.3599
vn -0.3782 0.5571 -0.7393
vn 0.4577 0.8730 0.1684
vn 0.6082 0.7129 -0.3490
vn 0.4085 0.6308 -0.6598
vn 0.2867 0.3848 -0.8774
vn 0.7512 0.5976 -0.2805
vt 0.587500 0.750000
vt 0.711250 0.750000
vt 0.711250 1.000000
vt 0.587500 1.000000
vt 0.412500 0.750000
vt 0.500000 0.750000
vt 0.500000 1.000000
vt 0.412500 1.000000
vt 0.412500 0.000000
vt 0.500000 0.000000
vt 0.500000 0.250000
vt 0.412500 0.250000
vt 0.500000 0.500000
vt 0.412500 0.500000
vt 0.587500 0.000000
vt 0.711250 0.000000
vt 0.711250 0.250000
vt 0.587500 0.250000
vt 0.711250 0.500000
vt 0.587500 0.500000
vt 0.288750 0.500000
vt 0.288750 0.750000
vt 0.288750 0.250000
vt 0.288750 0.000000
vt 0.288750 1.000000
s 0
f 25/1/1 12/2/1 4/3/1 22/4/1
f 20/5/2 15/6/2 6/7/2 16/8/2
f 17/9/3 5/10/3 13/11/3 18/12/3
f 18/12/4 13/11/4 14/13/4 19/14/4
f 19/14/5 14/13/5 15/6/5 20/5/5
f 21/15/6 2/16/6 10/17/6 23/18/6
f 23/18/7 10/17/7 11/19/7 24/20/7
f 24/20/8 11/19/8 12/2/8 25/1/8
f 8/21/9 19/14/9 20/5/9 7/22/9
f 9/23/10 18/12/10 19/14/10 8/21/10
f 1/24/11 17/9/11 18/12/11 9/23/11
f 7/22/12 20/5/12 16/8/12 3/25/12
f 14/13/13 24/20/13 25/1/13 15/6/13
f 13/11/14 23/18/14 24/20/14 14/13/14
f 5/10/15 21/15/15 23/18/15 13/11/15
f 15/6/16 25/1/16 22/4/16 6/7/16
f 50/1/17 37/2/17 29/3/17 47/4/17
f 45/5/18 40/6/18 31/7/18 41/8/18
f 42/9/19 30/10/19 38/11/19 43/12/19
f 43/12/20 38/11/20 39/13/20 44/14/20
f 44/14/21 39/13/21 40/6/21 45/5/21
f 46/15/22 27/16/22 35/17/22 48/18/22
f 48/18/23 35/17/23 36/19/23 49/20/23
f 49/20/24 36/19/24 37/2/24 50/1/24
f 33/21/25 44/14/25 45/5/25 32/22/25
f 34/23/26 43/12/26 44/14/26 33/21/26
f 26/24/27 42/9/27 43/12/27 34/23/27
f 32/22/28 45/5/28 41/8/28 28/25/28
f 39/13/29 49/20/29 50/1/29 40/6/29
f 38/11/30 48/18/30 49/20/30 39/13/30
f 30/10/31 46/15/31 48/18/31 38/11/31
f 40/6/32 50/1/32 47/4/32 31/7/32
f 75/1/33 62/2/33 54/3/33 72/4/33
f 70/5/34 65/6/34 56/7/34 66/8/34
f 67/9/35 55/10/35 63/11/35 68/12/35
f 68/12/36 63/11/36 64/13/36 69/14/36
f 69/14/37 64/13/37 65/6/37 70/5/37
f 71/15/38 52/16/38 60/17/38 73/18/38
f 73/18/39 60/17/39 61/19/39 74/20/39
f 74/20/40 61/19/40 62/2/40 75/1/40
f 58/21/41 69/14/41 70/5/41 57/22/41
f 59/23/42 68/12/42 69/14/42 58/21/42
f 51/24/43 67/9/43 68/12/43 59/23/43
f 57/22/44 70/5/44 66/8/44 53/25/44
f 64/13/45 74/20/45 75/1/45 65/6/45
f 63/11/46 73/18/46 74/20/46 64/13/46
f 55/10/47 71/15/47 73/18/47 63/11/47
f 65/6/48 75/1/48 72/4/48 56/7/48
f 100/1/49 87/2/49 79/3/49 97/4/49
f 95/5/50 90/6/50 81/7/50 91/8/50
f 92/9/51 80/10/51 88/11/51 93/12/51
f 93/12/52 88/11/52 89/13/52 94/14/52
f 94/14/53 89/13/53 90/6/53 95/5/53
f 96/15/54 77/16/54 85/17/54 98/18/54
f 98/18/55 85/17/55 86/19/55 99/20/55
f 99/20/56 86/19/56 87/2/56 100/1/56
f 83/21/57 94/14/57 95/5/57 82/22/57
f 84/23/58 93/12/58 94/14/58 83/21/58
f 76/24/59 92/9/59 93/12/59 84/23/59
f 82/22/60 95/5/60 91/8/60 78/25/60
f 89/13/61 99/20/61 100/1/61 90/6/61
f 88/11/62 98/18/62 99/20/62 89/13/62
f 80/10/63 96/15/63 98/18/63 88/11/63
f 90/6/64 100/1/64 97/4/64 81/7/64
f 125/1/65 112/2/65 104/3/65 122/4/65
f 120/5/66 115/6/66 106/7/66 116/8/66
f 117/9/67 105/10/67 113/11/67 118/12/67
f 118/12/68 113/11/68 114/13/68 119/14/68
f 119/14/69 114/13/69 115/6/69 120/5/69
f 121/15/70 102/16/70 110/17/70 123/18/70
f 123/18/71 110/17/71 111/19/71 124/20/71
f 124/20/72 111/19/72 112/2/72 125/1/72
f 108/21/73 119/14/73 120/5/73 107/22/73
f 109/23/74 118/12/74 119/14/74 108/21/74
f 101/24/75 117/9/75 118/12/75 109/23/75
f 107/22/76 120/5/76 116/8/76 103/25/76
f 114/13/77 124/20/77 125/1/77 115/6/77
f 113/11/78 123/18/78 124/20/78 114/13/78
f 105/10/79 121/15/79 123/18/79 113/11/79
f 115/6/80 125/1/80 122/4/80 106/7/80
f 150/1/81 137/2/81 129/3/81 147/4/81
f 145/5/82 140/6/82 131/7/82 141/8/82
f 142/9/83 130/10/83 138/11/83 143/12/83
f 143/12/84 138/11/84 139/13/84 144/14/84
f 144/14/85 139/13/85 140/6/85 145/5/85
f 146/15/86 127/16/86 135/17/86 148/18/86
f 148/18/87 135/17/87 136/19/87 149/20/87
f 149/20/88 136/19/88 137/2/88 150/1/88
f 133/21/89 144/14/89 145/5/89 132/22/89
f 134/23/90 143/12/90 144/14/90 133/21/90
f 126/24/91 142/9/91 143/12/91 134/23/91
f 132/22/92 145/5/92 141/8/92 128/25/92
f 139/13/93 149/20/93 150/1/93 140/6/93
f 138/11/94 148/18/94 149/20/94 139/13/94
f 130/10/95 146/15/95 148/18/95 138/11/95
f 140/6/96 150/1/96 147/4/96 131/7/96
