# Blender 5.1.2
# www.blender.org
o Bush_2
v -0.925050 0.531839 -0.552485
v 0.576422 -0.476330 -0.302077
v 0.122531 2.189806 -0.159592
v 1.632539 1.185534 0.054066
v -0.423644 0.196200 -0.472956
v 0.077472 -0.139570 -0.392179
v 1.107352 1.510314 0.076930
v 0.624258 1.854314 -0.081446
v -0.210951 1.644324 -0.358208
v -0.576808 1.084060 -0.417424
v 0.895441 0.062548 -0.041188
v 1.271748 0.627583 -0.026963
v -0.045313 0.762160 -0.467448
v 0.267779 1.298332 -0.181043
v 0.455227 0.426126 -0.384193
v 0.793014 0.973574 -0.204115
v -0.584794 0.653937 -0.001288
v 0.475226 -0.832608 -0.009624
v 1.043604 1.815109 0.024120
v 2.103624 0.328564 0.053712
v -0.231454 0.158422 0.000000
v 0.121886 -0.337093 -0.000000
v 1.750284 0.824079 -0.053253
v 1.396944 1.319594 0.026835
v 0.500805 1.428051 0.085473
v -0.041995 1.040994 0.002954
v 1.018026 -0.445551 -0.135247
v 1.560825 -0.058494 -0.006294
v 0.311345 0.545479 0.137950
v 0.854145 0.932536 -0.014008
v 0.664685 0.049964 0.135393
v 1.207485 0.437021 0.093173
v 0.331029 0.499850 -0.877439
v 0.127608 -0.705703 0.478581
v 0.082086 2.001529 0.420109
v -0.158768 0.795688 1.770024
v 0.259208 0.097968 -0.426087
v 0.188659 -0.303904 0.025472
v 0.017349 1.198374 1.335682
v 0.008857 1.599636 0.871231
v 0.096158 1.500438 -0.023646
v 0.252221 1.000442 -0.444243
v 0.176967 -0.204123 0.932681
v -0.024924 0.295520 1.345803
v 0.048439 0.597543 -0.014413
v 0.123789 1.099323 0.443926
v -0.019587 0.195690 0.437558
v -0.052541 0.696636 0.878234
v 0.393609 0.561437 -0.694954
v -0.670701 -0.757883 -0.016598
v -0.516551 1.899973 0.480026
v -1.606508 0.587675 1.131335
v 0.036089 0.122416 -0.471735
v -0.320560 -0.316843 -0.247598
v -1.177530 1.007129 0.983473
v -0.875036 1.461217 0.702226
v -0.260377 1.466722 0.038577
v 0.093081 1.006833 -0.300279
v -0.883417 -0.336533 0.470681
v -1.268273 0.131954 0.776425
v -0.354850 0.592569 -0.172407
v -0.549759 1.009044 0.333652
v -0.709770 0.152837 0.053554
v -0.978881 0.589630 0.481360
v -0.818392 0.653937 -0.155609
v 0.143826 -0.832608 0.289192
v 0.643455 1.815109 0.562253
v 1.589488 0.328564 1.041357
v -0.499388 0.158422 -0.003664
v -0.179835 -0.337093 0.147116
v 1.315579 0.824079 0.793839
v 0.961850 1.319594 0.715489
v 0.126377 1.428051 0.386111
v -0.329306 1.040994 0.079855
v 0.688329 -0.445551 0.407210
v 1.124198 -0.058494 0.755461
v -0.067359 0.545479 0.352723
v 0.488382 0.932536 0.446923
v 0.253286 0.049964 0.501190
v 0.762199 0.437021 0.694636
v 0.138066 0.391782 0.969971
v 0.420147 -0.616387 -0.525874
v 0.130043 2.049749 -0.148835
v 0.449566 1.045477 -1.640035
v 0.236107 0.056143 0.471854
v 0.332878 -0.279627 -0.026420
v 0.247206 1.370257 -1.154861
v 0.229494 1.714257 -0.646777
v 0.201641 1.504267 0.232652
v 0.131218 0.944003 0.596518
v 0.285106 -0.077509 -0.915232
v 0.401366 0.487526 -1.273412
v 0.361249 0.622103 0.114777
v 0.200210 1.158275 -0.277807
v 0.455494 0.286069 -0.383811
v 0.402783 0.833517 -0.762955
v -0.177819 0.389134 0.518892
v -0.448126 -0.609748 -0.985335
v 0.199240 1.993671 -0.614217
v -0.034131 0.986199 -2.119166
v -0.263961 0.055253 0.017405
v -0.351358 -0.278337 -0.484056
v -0.050901 1.344014 -1.615665
v 0.114487 1.659466 -1.115730
v 0.141548 1.443012 -0.237845
v -0.056250 0.924937 0.141270
v -0.453023 -0.044534 -1.360481
v -0.210006 0.463025 -1.740481
v -0.012183 0.560774 -0.362766
v -0.042725 1.131952 -0.737410
v -0.102070 0.227763 -0.864179
v -0.025746 0.774089 -1.240915
v 0.612532 0.546948 0.602288
v -0.510079 -0.742010 -0.039474
v -0.291977 1.908691 -0.550172
v -1.390197 0.612775 -1.220134
v 0.240943 0.116549 0.385344
v -0.131473 -0.313613 0.169357
v -1.086567 1.062559 -0.924618
v -0.662648 1.478030 -0.768178
v 0.054427 1.441969 -0.217932
v 0.308310 1.001638 0.221279
v -0.897814 -0.263499 -0.323929
v -1.121837 0.168315 -0.797663
v 0.022707 0.546713 -0.095079
v -0.381964 1.030054 -0.359954
v -0.351355 0.117019 -0.309165
v -0.685455 0.580232 -0.655631
v -0.262205 0.793994 0.460682
v 0.110734 -0.692551 -0.531603
v 0.274826 1.955166 -1.076824
v 0.612158 0.468621 -2.082172
v -0.141710 0.298479 0.128520
v -0.020006 -0.197036 -0.203199
v 0.590873 0.964136 -1.713610
v 0.393981 1.459651 -1.409477
v 0.030266 1.568108 -0.588371
v -0.079225 1.181051 -0.050364
v 0.415631 -0.305494 -0.997918
v 0.481530 0.081563 -1.551919
v -0.084257 0.685536 -0.428581
v 0.245364 1.072593 -0.885825
v 0.039848 0.190021 -0.759418
v 0.266446 0.577078 -1.254461
v 0.875779 0.639907 -0.097319
v -0.467331 -0.565646 -0.373413
v -0.428116 2.141586 -0.310537
v -1.778388 0.935745 -0.549385
v 0.427308 0.238025 -0.185357
v -0.020920 -0.163847 -0.274659
v -1.309962 1.338431 -0.565121
v -0.876857 1.739693 -0.397173
v -0.006668 1.640495 -0.170900
v 0.441946 1.140499 -0.172543
v -0.876642 -0.064066 -0.576161
v -1.334024 0.435577 -0.528921
v -0.031773 0.737600 -0.129282
v -0.436112 1.239380 -0.357891
v -0.479518 0.335747 -0.221096
v -0.904578 0.836693 -0.341944
v 0.726015 0.701494 -0.218926
v -0.277421 -0.617826 0.546606
v -0.690561 2.040030 0.230832
v -1.677439 0.727732 1.029756
v 0.393311 0.262473 0.039832
v 0.060046 -0.176785 0.297456
v -1.390869 1.147186 0.677958
v -1.022641 1.601274 0.490846
v -0.187888 1.606779 0.142385
v 0.251977 1.146890 -0.072729
v -0.808151 -0.196475 0.578467
v -1.227746 0.272011 0.834463
v -0.022356 0.732626 0.303749
v -0.564582 1.149101 0.312424
v -0.356738 0.292894 0.559121
v -0.851058 0.729687 0.664412
v -0.197787 0.793994 0.733140
v -0.283945 -0.692551 -0.323405
v -0.368205 1.955166 -0.886515
v -0.492140 0.468621 -1.939681
v -0.230557 0.298479 0.381321
v -0.262044 -0.197036 0.029387
v -0.354113 0.964136 -1.597278
v -0.402396 1.459651 -1.238207
v -0.380943 1.568108 -0.340408
v -0.250382 1.181051 0.192879
v -0.207192 -0.305494 -0.875240
v -0.384003 0.081564 -1.404388
v -0.416329 0.685536 -0.147026
v -0.313345 1.072594 -0.701207
v -0.445268 0.190021 -0.499188
v -0.451587 0.577079 -1.043590
v -0.610376 0.529191 -0.100560
v 0.708700 -0.469691 0.671322
v 0.583270 2.133728 -0.064258
v 1.915747 1.126256 0.673197
v -0.169247 0.195310 0.153043
v 0.271427 -0.138280 0.407815
v 1.437280 1.484071 0.515515
v 1.024903 1.799523 0.188049
v 0.210058 1.583070 -0.139735
v -0.213988 1.064994 -0.084622
v 1.059204 0.095523 0.805134
v 1.499656 0.603083 0.707875
v 0.274383 0.700831 0.047617
v 0.615583 1.272009 0.205333
v 0.714154 0.367821 0.304710
v 1.094126 0.914146 0.362820
v -0.416441 0.687005 -0.871274
v -0.200621 -0.601953 0.403692
v 0.353949 2.048748 0.374840
v 0.604645 0.752833 1.636620
v -0.340762 0.256606 -0.447699
v -0.266267 -0.173556 -0.023676
v 0.431794 1.202616 1.249783
v 0.430941 1.618087 0.797919
v 0.161355 1.582026 -0.064804
v -0.163532 1.141695 -0.454433
v -0.067124 -0.123442 0.865678
v 0.300459 0.308372 1.239165
v 0.035094 0.686770 -0.077339
v 0.144376 1.170111 0.393802
v 0.107238 0.257076 0.347572
v 0.317425 0.720289 0.780565
vn 0.2532 0.1595 -0.9542
vn 0.2975 0.0714 -0.9520
vn 0.2471 0.1800 -0.9521
vn 0.1175 -0.0667 -0.9908
vn 0.2269 0.2669 -0.9366
vn 0.0764 0.0754 -0.9942
vn 0.2277 0.1617 -0.9602
vn 0.4003 -0.0296 -0.9159
vn 0.4216 -0.1135 -0.8997
vn -0.0491 -0.0426 -0.9979
vn -0.0585 0.0556 -0.9967
vn -0.0514 -0.0639 -0.9966
vn 0.1623 0.1183 -0.9796
vn -0.0677 -0.1524 -0.9860
vn 0.1501 -0.0289 -0.9883
vn -0.0254 -0.0539 -0.9982
vn -0.1245 0.1868 -0.9745
vn -0.1180 0.2725 -0.9549
vn 0.9914 -0.0450 0.1231
vn 0.9946 0.0484 0.0917
vn 0.9899 -0.0663 0.1255
vn 0.9446 0.1596 0.2869
vn 0.9794 -0.1563 0.1281
vn 0.9507 0.0136 0.3098
vn 0.9876 -0.0507 0.1485
vn 0.9870 0.1609 -0.0050
vn 0.9691 0.2456 -0.0213
vn 0.7000 -0.2323 0.6753
vn 0.7273 -0.1376 0.6724
vn 0.6961 -0.2532 0.6718
vn 0.5739 -0.0460 0.8176
vn 0.6812 -0.3395 0.6487
vn 0.5563 -0.1926 0.8083
vn 0.6811 -0.2405 0.6915
vn 0.7872 -0.0137 0.6165
vn 0.7881 0.0742 0.6110
vn 0.3814 -0.0426 -0.9234
vn 0.3724 0.0556 -0.9264
vn 0.3788 -0.0639 -0.9233
vn 0.5648 0.1183 -0.8167
vn 0.3595 -0.1524 -0.9206
vn 0.5574 -0.0289 -0.8297
vn 0.4030 -0.0539 -0.9136
vn 0.3033 0.1868 -0.9344
vn 0.3008 0.2725 -0.9139
vn -0.9830 -0.1595 -0.0910
vn -0.9963 -0.0714 -0.0486
vn -0.9790 -0.1800 -0.0960
vn -0.9707 0.0667 -0.2310
vn -0.9575 -0.2669 -0.1096
vn -0.9597 -0.0754 -0.2708
vn -0.9799 -0.1617 -0.1169
vn -0.9977 0.0296 0.0604
vn -0.9898 0.1135 0.0859
vn -0.9840 0.1706 0.0506
vn -0.9620 0.2568 0.0930
vn -0.9876 0.1500 0.0454
vn -0.9183 0.3847 -0.0934
vn -0.9977 0.0612 0.0303
vn -0.9597 0.2480 -0.1320
vn -0.9854 0.1682 0.0245
vn -0.9155 0.3494 0.1994
vn -0.8773 0.4254 0.2223
vn -0.6157 0.1345 0.7764
vn -0.5854 0.2284 0.7779
vn -0.6182 0.1132 0.7779
vn -0.7212 0.3184 0.6153
vn -0.6198 0.0229 0.7844
vn -0.7518 0.1751 0.6358
vn -0.6358 0.1270 0.7613
vn -0.4926 0.3422 0.8001
vn -0.4650 0.4228 0.7778
vn -0.9199 0.0426 -0.3898
vn -0.9156 -0.0556 -0.3982
vn -0.9180 0.0639 -0.3915
vn -0.9756 -0.1183 -0.1850
vn -0.9023 0.1524 -0.4032
vn -0.9795 0.0289 -0.1995
vn -0.9284 0.0539 -0.3677
vn -0.8720 -0.1868 -0.4525
vn -0.8558 -0.2725 -0.4397
vn -0.2259 0.0450 0.9731
vn -0.2565 -0.0484 0.9653
vn -0.2231 0.0663 0.9725
vn -0.0560 -0.1596 0.9856
vn -0.2170 0.1563 0.9636
vn -0.0367 -0.0136 0.9992
vn -0.2008 0.0507 0.9783
vn -0.3446 -0.1609 0.9248
vn -0.3538 -0.2456 0.9025
vn 0.3928 0.2323 0.8898
vn 0.3808 0.1376 0.9144
vn 0.3909 0.2532 0.8849
vn 0.5699 0.0460 0.8204
vn 0.3743 0.3395 0.8629
vn 0.5672 0.1926 0.8007
vn 0.4146 0.2405 0.8776
vn 0.3076 0.0137 0.9514
vn 0.3022 -0.0742 0.9504
vn -0.9983 0.0426 0.0400
vn -0.9980 -0.0556 0.0306
vn -0.9972 0.0639 0.0376
vn -0.9613 -0.1183 0.2490
vn -0.9881 0.1524 0.0204
vn -0.9710 0.0289 0.2375
vn -0.9965 0.0539 0.0636
vn -0.9817 -0.1868 -0.0371
vn -0.9616 -0.2725 -0.0324
vn 0.3864 -0.1706 -0.9064
vn 0.4186 -0.2568 -0.8711
vn 0.3828 -0.1500 -0.9116
vn 0.2287 -0.3847 -0.8943
vn 0.3721 -0.0612 -0.9262
vn 0.2066 -0.2480 -0.9465
vn 0.3624 -0.1682 -0.9167
vn 0.5025 -0.3494 -0.7908
vn 0.5108 -0.4254 -0.7470
vn 0.9410 -0.1345 -0.3106
vn 0.9319 -0.2284 -0.2817
vn 0.9432 -0.1132 -0.3124
vn 0.8260 -0.3184 -0.4651
vn 0.9499 -0.0229 -0.3117
vn 0.8558 -0.1751 -0.4868
vn 0.9337 -0.1270 -0.3347
vn 0.9208 -0.3422 -0.1869
vn 0.8904 -0.4228 -0.1686
vt 0.608592 0.666667
vt 0.912888 0.666667
vt 0.912888 1.000000
vt 0.608592 1.000000
vt 0.000000 0.666667
vt 0.304296 0.666667
vt 0.304296 1.000000
vt 0.000000 1.000000
vt 0.304296 0.000000
vt 0.608592 0.000000
vt 0.608592 0.333333
vt 0.304296 0.333333
vt 0.000000 0.000000
vt 0.000000 0.333333
vt 0.912888 0.000000
vt 0.912888 0.333333
s 0
f 16/1/1 7/4/1 4/3/1 12/2/1
f 9/5/2 3/8/2 8/7/2 14/6/2
f 14/6/3 8/7/3 7/4/3 16/1/3
f 5/9/4 13/12/4 15/11/4 6/10/4
f 13/12/5 14/6/5 16/1/5 15/11/5
f 1/13/6 10/14/6 13/12/6 5/9/6
f 10/14/7 9/5/7 14/6/7 13/12/7
f 6/10/8 15/11/8 11/16/8 2/15/8
f 15/11/9 16/1/9 12/2/9 11/16/9
f 32/1/10 23/4/10 20/3/10 28/2/10
f 25/5/11 19/8/11 24/7/11 30/6/11
f 30/6/12 24/7/12 23/4/12 32/1/12
f 21/9/13 29/12/13 31/11/13 22/10/13
f 29/12/14 30/6/14 32/1/14 31/11/14
f 17/13/15 26/14/15 29/12/15 21/9/15
f 26/14/16 25/5/16 30/6/16 29/12/16
f 22/10/17 31/11/17 27/16/17 18/15/17
f 31/11/18 32/1/18 28/2/18 27/16/18
f 48/1/19 39/4/19 36/3/19 44/2/19
f 41/5/20 35/8/20 40/7/20 46/6/20
f 46/6/21 40/7/21 39/4/21 48/1/21
f 37/9/22 45/12/22 47/11/22 38/10/22
f 45/12/23 46/6/23 48/1/23 47/11/23
f 33/13/24 42/14/24 45/12/24 37/9/24
f 42/14/25 41/5/25 46/6/25 45/12/25
f 38/10/26 47/11/26 43/16/26 34/15/26
f 47/11/27 48/1/27 44/2/27 43/16/27
f 64/1/28 55/4/28 52/3/28 60/2/28
f 57/5/29 51/8/29 56/7/29 62/6/29
f 62/6/30 56/7/30 55/4/30 64/1/30
f 53/9/31 61/12/31 63/11/31 54/10/31
f 61/12/32 62/6/32 64/1/32 63/11/32
f 49/13/33 58/14/33 61/12/33 53/9/33
f 58/14/34 57/5/34 62/6/34 61/12/34
f 54/10/35 63/11/35 59/16/35 50/15/35
f 63/11/36 64/1/36 60/2/36 59/16/36
f 80/1/37 71/4/37 68/3/37 76/2/37
f 73/5/38 67/8/38 72/7/38 78/6/38
f 78/6/39 72/7/39 71/4/39 80/1/39
f 69/9/40 77/12/40 79/11/40 70/10/40
f 77/12/41 78/6/41 80/1/41 79/11/41
f 65/13/42 74/14/42 77/12/42 69/9/42
f 74/14/43 73/5/43 78/6/43 77/12/43
f 70/10/44 79/11/44 75/16/44 66/15/44
f 79/11/45 80/1/45 76/2/45 75/16/45
f 96/1/46 87/4/46 84/3/46 92/2/46
f 89/5/47 83/8/47 88/7/47 94/6/47
f 94/6/48 88/7/48 87/4/48 96/1/48
f 85/9/49 93/12/49 95/11/49 86/10/49
f 93/12/50 94/6/50 96/1/50 95/11/50
f 81/13/51 90/14/51 93/12/51 85/9/51
f 90/14/52 89/5/52 94/6/52 93/12/52
f 86/10/53 95/11/53 91/16/53 82/15/53
f 95/11/54 96/1/54 92/2/54 91/16/54
f 112/1/55 103/4/55 100/3/55 108/2/55
f 105/5/56 99/8/56 104/7/56 110/6/56
f 110/6/57 104/7/57 103/4/57 112/1/57
f 101/9/58 109/12/58 111/11/58 102/10/58
f 109/12/59 110/6/59 112/1/59 111/11/59
f 97/13/60 106/14/60 109/12/60 101/9/60
f 106/14/61 105/5/61 110/6/61 109/12/61
f 102/10/62 111/11/62 107/16/62 98/15/62
f 111/11/63 112/1/63 108/2/63 107/16/63
f 128/1/64 119/4/64 116/3/64 124/2/64
f 121/5/65 115/8/65 120/7/65 126/6/65
f 126/6/66 120/7/66 119/4/66 128/1/66
f 117/9/67 125/12/67 127/11/67 118/10/67
f 125/12/68 126/6/68 128/1/68 127/11/68
f 113/13/69 122/14/69 125/12/69 117/9/69
f 122/14/70 121/5/70 126/6/70 125/12/70
f 118/10/71 127/11/71 123/16/71 114/15/71
f 127/11/72 128/1/72 124/2/72 123/16/72
f 144/1/73 135/4/73 132/3/73 140/2/73
f 137/5/74 131/8/74 136/7/74 142/6/74
f 142/6/75 136/7/75 135/4/75 144/1/75
f 133/9/76 141/12/76 143/11/76 134/10/76
f 141/12/77 142/6/77 144/1/77 143/11/77
f 129/13/78 138/14/78 141/12/78 133/9/78
f 138/14/79 137/5/79 142/6/79 141/12/79
f 134/10/80 143/11/80 139/16/80 130/15/80
f 143/11/81 144/1/81 140/2/81 139/16/81
f 160/1/82 151/4/82 148/3/82 156/2/82
f 153/5/83 147/8/83 152/7/83 158/6/83
f 158/6/84 152/7/84 151/4/84 160/1/84
f 149/9/85 157/12/85 159/11/85 150/10/85
f 157/12/86 158/6/86 160/1/86 159/11/86
f 145/13/87 154/14/87 157/12/87 149/9/87
f 154/14/88 153/5/88 158/6/88 157/12/88
f 150/10/89 159/11/89 155/16/89 146/15/89
f 159/11/90 160/1/90 156/2/90 155/16/90
f 176/1/91 167/4/91 164/3/91 172/2/91
f 169/5/92 163/8/92 168/7/92 174/6/92
f 174/6/93 168/7/93 167/4/93 176/1/93
f 165/9/94 173/12/94 175/11/94 166/10/94
f 173/12/95 174/6/95 176/1/95 175/11/95
f 161/13/96 170/14/96 173/12/96 165/9/96
f 170/14/97 169/5/97 174/6/97 173/12/97
f 166/10/98 175/11/98 171/16/98 162/15/98
f 175/11/99 176/1/99 172/2/99 171/16/99
f 192/1/100 183/4/100 180/3/100 188/2/100
f 185/5/101 179/8/101 184/7/101 190/6/101
f 190/6/102 184/7/102 183/4/102 192/1/102
f 181/9/103 189/12/103 191/11/103 182/10/103
f 189/12/104 190/6/104 192/1/104 191/11/104
f 177/13/105 186/14/105 189/12/105 181/9/105
f 186/14/106 185/5/106 190/6/106 189/12/106
f 182/10/107 191/11/107 187/16/107 178/15/107
f 191/11/108 192/1/108 188/2/108 187/16/108
f 208/1/109 199/4/109 196/3/109 204/2/109
f 201/5/110 195/8/110 200/7/110 206/6/110
f 206/6/111 200/7/111 199/4/111 208/1/111
f 197/9/112 205/12/112 207/11/112 198/10/112
f 205/12/113 206/6/113 208/1/113 207/11/113
f 193/13/114 202/14/114 205/12/114 197/9/114
f 202/14/115 201/5/115 206/6/115 205/12/115
f 198/10/116 207/11/116 203/16/116 194/15/116
f 207/11/117 208/1/117 204/2/117 203/16/117
f 224/1/118 215/4/118 212/3/118 220/2/118
f 217/5/119 211/8/119 216/7/119 222/6/119
f 222/6/120 216/7/120 215/4/120 224/1/120
f 213/9/121 221/12/121 223/11/121 214/10/121
f 221/12/122 222/6/122 224/1/122 223/11/122
f 209/13/123 218/14/123 221/12/123 213/9/123
f 218/14/124 217/5/124 222/6/124 221/12/124
f 214/10/125 223/11/125 219/16/125 210/15/125
f 223/11/126 224/1/126 220/2/126 219/16/126
