# Blender 5.0.1
# www.blender.org
o Collision
v -0.707107 0.900000 -0.707107
v -0.965926 0.900000 -0.258819
v -0.707107 0.800000 -0.707107
v -0.707107 0.800000 0.707107
v -0.707107 0.900000 0.707107
v -0.965926 0.900000 0.258819
v -0.965926 0.800000 0.258819
v -0.965926 0.800000 -0.258819
v -0.258819 0.900000 0.965926
v 0.258819 0.900000 0.965926
v 0.707107 0.900000 0.707107
v 0.965926 0.900000 0.258819
v -0.258819 0.800000 0.965926
v 0.258819 0.800000 0.965926
v 0.707107 0.800000 0.707107
v 0.965926 0.800000 0.258819
v -0.266586 0.850000 0.994912
v 0.266586 0.850000 0.994912
v 0.728326 0.850000 0.728326
v 0.994912 0.850000 0.266586
v -0.728326 0.850000 -0.728326
v -0.994912 0.850000 -0.266586
v -0.994912 0.850000 0.266586
v -0.728326 0.850000 0.728326
v 0.965926 0.900001 -0.258819
v 0.965926 0.800001 -0.258819
v -0.258819 0.900006 -0.965925
v 0.707107 0.900004 -0.707106
v 0.258819 0.900006 -0.965925
v -0.258819 0.800006 -0.965926
v 0.707107 0.800004 -0.707107
v 0.258819 0.800006 -0.965926
v 0.994912 0.850001 -0.266586
v 0.728326 0.850004 -0.728326
v 0.266586 0.850006 -0.994912
v -0.266586 0.850006 -0.994912
v -0.353553 0.900002 0.376670
v 0.353553 0.900001 0.376670
v -0.353553 0.900004 -0.376670
v 0.353553 0.900003 -0.376670
v -0.494521 0.800000 0.149429
v 0.117851 0.800000 0.502983
v -0.117851 0.800000 -0.502983
v 0.494521 0.800000 -0.149429
v -0.117851 0.000000 -0.502983
v -0.494521 -0.000000 0.149429
v 0.117851 -0.000000 0.502983
v 0.494521 0.000000 -0.149429
vn -0.0000 0.5015 0.8651
vn 0.4326 0.5015 0.7492
vn 0.7492 0.5015 0.4326
vn 0.7492 -0.5015 0.4326
vn 0.4326 -0.5015 0.7492
vn -0.0000 -0.5015 0.8651
vn -0.4326 0.5015 0.7492
vn -0.7492 0.5015 -0.4326
vn -0.8651 0.5015 -0.0000
vn -0.7492 0.5015 0.4326
vn -0.7492 -0.5015 0.4326
vn -0.8651 -0.5015 -0.0000
vn -0.7492 -0.5015 -0.4326
vn -0.4326 -0.5015 0.7492
vn -0.4326 0.5015 -0.7492
vn 0.8651 0.5015 -0.0000
vn -0.4326 -0.5015 -0.7492
vn 0.7492 0.5015 -0.4326
vn 0.4326 0.5015 -0.7492
vn 0.4326 -0.5015 -0.7492
vn 0.7492 -0.5015 -0.4326
vn -0.0000 0.5016 -0.8651
vn -0.0000 -0.5015 -0.8651
vn 0.8651 -0.5015 -0.0000
vn -0.0000 1.0000 -0.0000
vn -0.0000 -1.0000 -0.0000
vn -0.5000 -0.0000 0.8660
vn -0.8660 -0.0000 -0.5000
vn 0.8660 -0.0000 0.5000
vn 0.5000 -0.0000 -0.8660
vt -0.172087 -0.732113
vt 0.288180 -0.461167
vt 0.247903 -0.421398
vt -0.187300 -0.677506
vt 0.553074 0.002258
vt 0.498277 0.016726
vt 0.552742 0.537476
vt 0.497688 0.522760
vt 0.607103 -0.012198
vt 0.607103 0.551975
vt 0.327827 -0.500521
vt -0.157082 -0.785986
vt -0.707062 -0.738342
vt -0.693061 -0.683093
vt -1.445570 0.526603
vt -1.445239 -0.008615
vt -1.390185 0.006101
vt -1.390773 0.512135
vt -1.179277 -0.477517
vt -1.136868 -0.434551
vt -1.218547 -0.517458
vt -0.720792 -0.792891
vt -1.499600 -0.023113
vt -1.499600 0.541060
vt -1.180677 0.990029
vt -1.140399 0.950260
vt 0.286780 1.006378
vt 0.244371 0.963412
vt -1.220324 1.029382
vt -0.185435 1.267203
vt -0.199436 1.211954
vt -0.720410 1.260974
vt -0.705197 1.206367
vt -0.171705 1.321753
vt -0.735415 1.314847
vt 0.326050 1.046320
vt -0.548508 -0.125182
vt -0.834016 0.366438
vt -0.058481 0.162423
vt -0.343989 0.654043
vt -0.761516 -0.054893
vt -0.763953 0.578483
vt -0.128544 -0.049622
vt -0.130981 0.583755
s 0
f 17/1/1 18/2/1 10/3/1 9/4/1
f 18/2/2 19/5/2 11/6/2 10/3/2
f 19/5/3 20/7/3 12/8/3 11/6/3
f 15/9/4 16/10/4 20/7/4 19/5/4
f 14/11/5 15/9/5 19/5/5 18/2/5
f 13/12/6 14/11/6 18/2/6 17/1/6
f 24/13/7 17/1/7 9/4/7 5/14/7
f 21/15/8 22/16/8 2/17/8 1/18/8
f 22/16/9 23/19/9 6/20/9 2/17/9
f 23/19/10 24/13/10 5/14/10 6/20/10
f 7/21/11 4/22/11 24/13/11 23/19/11
f 8/23/12 7/21/12 23/19/12 22/16/12
f 3/24/13 8/23/13 22/16/13 21/15/13
f 4/22/14 13/12/14 17/1/14 24/13/14
f 36/25/15 21/15/15 1/18/15 27/26/15
f 20/7/16 33/27/16 25/28/16 12/8/16
f 30/29/17 3/24/17 21/15/17 36/25/17
f 33/27/18 34/30/18 28/31/18 25/28/18
f 34/30/19 35/32/19 29/33/19 28/31/19
f 31/34/20 32/35/20 35/32/20 34/30/20
f 26/36/21 31/34/21 34/30/21 33/27/21
f 35/32/22 36/25/22 27/26/22 29/33/22
f 32/35/23 30/29/23 36/25/23 35/32/23
f 16/10/24 26/36/24 33/27/24 20/7/24
f 9/4/25 37/37/25 6/20/25 5/14/25
f 37/37/25 39/38/25 2/17/25 6/20/25
f 39/38/25 27/26/25 1/18/25 2/17/25
f 10/3/25 38/39/25 37/37/25 9/4/25
f 38/39/25 40/40/25 39/38/25 37/37/25
f 40/40/25 29/33/25 27/26/25 39/38/25
f 11/6/25 12/8/25 38/39/25 10/3/25
f 12/8/25 25/28/25 40/40/25 38/39/25
f 25/28/25 28/31/25 29/33/25 40/40/25
f 7/21/26 8/23/26 41/41/26 4/22/26
f 8/23/26 3/24/26 43/42/26 41/41/26
f 3/24/26 30/29/26 32/35/26 43/42/26
f 4/22/26 41/41/26 42/43/26 13/12/26
f 42/43/27 41/41/27 46/41/27 47/43/27
f 43/42/26 32/35/26 31/34/26 44/44/26
f 13/12/26 42/43/26 15/9/26 14/11/26
f 42/43/26 44/44/26 16/10/26 15/9/26
f 44/44/26 31/34/26 26/36/26 16/10/26
f 46/41/26 45/42/26 48/44/26 47/43/26
f 41/41/28 43/42/28 45/42/28 46/41/28
f 44/44/29 42/43/29 47/43/29 48/44/29
f 43/42/30 44/44/30 48/44/30 45/42/30
