# Blender 5.0.0
# www.blender.org
o Stairs
v 3.666667 -2.333333 -31.000000 0.0000 0.0000 0.0000
v 4.333333 -2.666667 -31.000000 0.0000 0.0000 0.0000
v 3.666667 -2.333333 -32.000000 0.0000 0.0000 0.0000
v 4.333333 -2.666667 -32.000000 0.0000 0.0000 0.0000
v 4.333333 -2.333333 -31.000000 0.0000 0.0000 0.0000
v 4.333333 -2.333333 -32.000000 0.0000 0.0000 0.0000
v -1.000000 0.000000 -30.000000 0.0000 0.0000 0.0000
v -0.333333 -0.333333 -30.000000 0.0000 0.0000 0.0000
v -1.000000 0.000000 -31.000000 0.0000 0.0000 0.0000
v -0.333333 -0.333333 -31.000000 0.0000 0.0000 0.0000
v -0.333333 0.000000 -30.000000 0.0000 0.0000 0.0000
v -0.333333 0.000000 -31.000000 0.0000 0.0000 0.0000
v -0.333333 -0.333333 -30.000000 0.0000 0.0000 0.0000
v 0.333333 -0.666667 -30.000000 0.0000 0.0000 0.0000
v -0.333333 -0.333333 -31.000000 0.0000 0.0000 0.0000
v 0.333333 -0.666667 -31.000000 0.0000 0.0000 0.0000
v 0.333333 -0.333333 -30.000000 0.0000 0.0000 0.0000
v 0.333333 -0.333333 -31.000000 0.0000 0.0000 0.0000
v 0.333333 -0.666667 -30.000000 0.0000 0.0000 0.0000
v 1.000000 -1.000000 -30.000000 0.0000 0.0000 0.0000
v 0.333333 -0.666667 -31.000000 0.0000 0.0000 0.0000
v 1.000000 -1.000000 -31.000000 0.0000 0.0000 0.0000
v 1.000000 -0.666667 -30.000000 0.0000 0.0000 0.0000
v 1.000000 -0.666667 -31.000000 0.0000 0.0000 0.0000
v 2.333333 -1.666667 -30.000000 0.0000 0.0000 0.0000
v 3.000000 -2.000000 -30.000000 0.0000 0.0000 0.0000
v 2.333333 -1.666667 -31.000000 0.0000 0.0000 0.0000
v 3.000000 -2.000000 -31.000000 0.0000 0.0000 0.0000
v 3.000000 -1.666667 -30.000000 0.0000 0.0000 0.0000
v 3.000000 -1.666667 -31.000000 0.0000 0.0000 0.0000
v 1.666667 -1.333333 -30.000000 0.0000 0.0000 0.0000
v 2.333333 -1.666667 -30.000000 0.0000 0.0000 0.0000
v 1.666667 -1.333333 -31.000000 0.0000 0.0000 0.0000
v 2.333333 -1.666667 -31.000000 0.0000 0.0000 0.0000
v 2.333333 -1.333333 -30.000000 0.0000 0.0000 0.0000
v 2.333333 -1.333333 -31.000000 0.0000 0.0000 0.0000
v 1.000000 -1.000000 -30.000000 0.0000 0.0000 0.0000
v 1.666667 -1.333333 -30.000000 0.0000 0.0000 0.0000
v 1.000000 -1.000000 -31.000000 0.0000 0.0000 0.0000
v 1.666667 -1.333333 -31.000000 0.0000 0.0000 0.0000
v 1.666667 -1.000000 -30.000000 0.0000 0.0000 0.0000
v 1.666667 -1.000000 -31.000000 0.0000 0.0000 0.0000
v 3.000000 -2.000000 -30.000000 0.0000 0.0000 0.0000
v 3.666667 -2.333333 -30.000000 0.0000 0.0000 0.0000
v 3.000000 -2.000000 -31.000000 0.0000 0.0000 0.0000
v 3.666667 -2.333333 -31.000000 0.0000 0.0000 0.0000
v 3.666667 -2.000000 -30.000000 0.0000 0.0000 0.0000
v 3.666667 -2.000000 -31.000000 0.0000 0.0000 0.0000
v 3.666667 -2.333333 -30.000000 0.0000 0.0000 0.0000
v 4.333333 -2.666667 -30.000000 0.0000 0.0000 0.0000
v 3.666667 -2.333333 -31.000000 0.0000 0.0000 0.0000
v 4.333333 -2.666667 -31.000000 0.0000 0.0000 0.0000
v 4.333333 -2.333333 -30.000000 0.0000 0.0000 0.0000
v 4.333333 -2.333333 -31.000000 0.0000 0.0000 0.0000
v 4.333333 -2.666667 -30.000000 0.0000 0.0000 0.0000
v 5.000000 -3.000000 -30.000000 0.0000 0.0000 0.0000
v 4.333333 -2.666667 -31.000000 0.0000 0.0000 0.0000
v 5.000000 -3.000000 -31.000000 0.0000 0.0000 0.0000
v 5.000000 -2.666667 -30.000000 0.0000 0.0000 0.0000
v 5.000000 -2.666667 -31.000000 0.0000 0.0000 0.0000
v 6.333333 -3.666667 -30.000000 0.0000 0.0000 0.0000
v 7.000000 -4.000000 -30.000000 0.0000 0.0000 0.0000
v 6.333333 -3.666667 -31.000000 0.0000 0.0000 0.0000
v 7.000000 -4.000000 -31.000000 0.0000 0.0000 0.0000
v 7.000000 -3.666667 -30.000000 0.0000 0.0000 0.0000
v 7.000000 -3.666667 -31.000000 0.0000 0.0000 0.0000
v 5.666667 -3.333333 -30.000000 0.0000 0.0000 0.0000
v 6.333333 -3.666667 -30.000000 0.0000 0.0000 0.0000
v 5.666667 -3.333333 -31.000000 0.0000 0.0000 0.0000
v 6.333333 -3.666667 -31.000000 0.0000 0.0000 0.0000
v 6.333334 -3.333333 -30.000000 0.0000 0.0000 0.0000
v 6.333333 -3.333333 -31.000000 0.0000 0.0000 0.0000
v 5.000000 -3.000000 -30.000000 0.0000 0.0000 0.0000
v 5.666667 -3.333333 -30.000000 0.0000 0.0000 0.0000
v 5.000000 -3.000000 -31.000000 0.0000 0.0000 0.0000
v 5.666667 -3.333333 -31.000000 0.0000 0.0000 0.0000
v 5.666667 -3.000000 -30.000000 0.0000 0.0000 0.0000
v 5.666667 -3.000000 -31.000000 0.0000 0.0000 0.0000
v 7.000000 -4.000000 -30.000000 0.0000 0.0000 0.0000
v 7.666667 -4.333333 -30.000000 0.0000 0.0000 0.0000
v 7.000000 -4.000000 -31.000000 0.0000 0.0000 0.0000
v 7.666667 -4.333333 -31.000000 0.0000 0.0000 0.0000
v 7.666667 -4.000000 -30.000000 0.0000 0.0000 0.0000
v 7.666667 -4.000000 -31.000000 0.0000 0.0000 0.0000
v 7.666667 -4.333333 -30.000000 0.0000 0.0000 0.0000
v 8.333334 -4.666667 -30.000000 0.0000 0.0000 0.0000
v 7.666667 -4.333333 -31.000000 0.0000 0.0000 0.0000
v 8.333334 -4.666667 -31.000000 0.0000 0.0000 0.0000
v 8.333334 -4.333333 -30.000000 0.0000 0.0000 0.0000
v 8.333334 -4.333333 -31.000000 0.0000 0.0000 0.0000
v 8.333334 -4.666667 -30.000000 0.0000 0.0000 0.0000
v 9.000000 -5.000000 -30.000000 0.0000 0.0000 0.0000
v 8.333334 -4.666667 -31.000000 0.0000 0.0000 0.0000
v 9.000000 -5.000000 -31.000000 0.0000 0.0000 0.0000
v 9.000000 -4.666667 -30.000000 0.0000 0.0000 0.0000
v 9.000000 -4.666667 -31.000000 0.0000 0.0000 0.0000
v 8.333334 -4.666667 -31.000000 0.0000 0.0000 0.0000
v 9.000000 -5.000000 -31.000000 0.0000 0.0000 0.0000
v 8.333334 -4.666667 -32.000000 0.0000 0.0000 0.0000
v 9.000000 -5.000000 -32.000000 0.0000 0.0000 0.0000
v 9.000000 -4.666667 -31.000000 0.0000 0.0000 0.0000
v 9.000000 -4.666667 -32.000000 0.0000 0.0000 0.0000
v 7.666667 -4.333333 -31.000000 0.0000 0.0000 0.0000
v 8.333334 -4.666667 -31.000000 0.0000 0.0000 0.0000
v 7.666667 -4.333333 -32.000000 0.0000 0.0000 0.0000
v 8.333334 -4.666667 -32.000000 0.0000 0.0000 0.0000
v 8.333334 -4.333333 -31.000000 0.0000 0.0000 0.0000
v 8.333334 -4.333333 -32.000000 0.0000 0.0000 0.0000
v 7.000000 -4.000000 -31.000000 0.0000 0.0000 0.0000
v 7.666667 -4.333333 -31.000000 0.0000 0.0000 0.0000
v 7.000000 -4.000000 -32.000000 0.0000 0.0000 0.0000
v 7.666667 -4.333333 -32.000000 0.0000 0.0000 0.0000
v 7.666667 -4.000000 -31.000000 0.0000 0.0000 0.0000
v 7.666667 -4.000000 -32.000000 0.0000 0.0000 0.0000
v 5.000000 -3.000000 -31.000000 0.0000 0.0000 0.0000
v 5.666667 -3.333333 -31.000000 0.0000 0.0000 0.0000
v 5.000000 -3.000000 -32.000000 0.0000 0.0000 0.0000
v 5.666667 -3.333333 -32.000000 0.0000 0.0000 0.0000
v 5.666667 -3.000000 -31.000000 0.0000 0.0000 0.0000
v 5.666667 -3.000000 -32.000000 0.0000 0.0000 0.0000
v 5.666667 -3.333333 -31.000000 0.0000 0.0000 0.0000
v 6.333333 -3.666667 -31.000000 0.0000 0.0000 0.0000
v 5.666667 -3.333333 -32.000000 0.0000 0.0000 0.0000
v 6.333333 -3.666667 -32.000000 0.0000 0.0000 0.0000
v 6.333334 -3.333333 -31.000000 0.0000 0.0000 0.0000
v 6.333333 -3.333333 -32.000000 0.0000 0.0000 0.0000
v 6.333333 -3.666667 -31.000000 0.0000 0.0000 0.0000
v 7.000000 -4.000000 -31.000000 0.0000 0.0000 0.0000
v 6.333333 -3.666667 -32.000000 0.0000 0.0000 0.0000
v 7.000000 -4.000000 -32.000000 0.0000 0.0000 0.0000
v 7.000000 -3.666667 -31.000000 0.0000 0.0000 0.0000
v 7.000000 -3.666667 -32.000000 0.0000 0.0000 0.0000
v 4.333333 -2.666667 -31.000000 0.0000 0.0000 0.0000
v 5.000000 -3.000000 -31.000000 0.0000 0.0000 0.0000
v 4.333333 -2.666667 -32.000000 0.0000 0.0000 0.0000
v 5.000000 -3.000000 -32.000000 0.0000 0.0000 0.0000
v 5.000000 -2.666667 -31.000000 0.0000 0.0000 0.0000
v 5.000000 -2.666667 -32.000000 0.0000 0.0000 0.0000
v 3.000000 -2.000000 -31.000000 0.0000 0.0000 0.0000
v 3.666667 -2.333333 -31.000000 0.0000 0.0000 0.0000
v 3.000000 -2.000000 -32.000000 0.0000 0.0000 0.0000
v 3.666667 -2.333333 -32.000000 0.0000 0.0000 0.0000
v 3.666667 -2.000000 -31.000000 0.0000 0.0000 0.0000
v 3.666667 -2.000000 -32.000000 0.0000 0.0000 0.0000
v 1.000000 -1.000000 -31.000000 0.0000 0.0000 0.0000
v 1.666667 -1.333333 -31.000000 0.0000 0.0000 0.0000
v 1.000000 -1.000000 -32.000000 0.0000 0.0000 0.0000
v 1.666667 -1.333333 -32.000000 0.0000 0.0000 0.0000
v 1.666667 -1.000000 -31.000000 0.0000 0.0000 0.0000
v 1.666667 -1.000000 -32.000000 0.0000 0.0000 0.0000
v 1.666667 -1.333333 -31.000000 0.0000 0.0000 0.0000
v 2.333333 -1.666667 -31.000000 0.0000 0.0000 0.0000
v 1.666667 -1.333333 -32.000000 0.0000 0.0000 0.0000
v 2.333333 -1.666667 -32.000000 0.0000 0.0000 0.0000
v 2.333333 -1.333333 -31.000000 0.0000 0.0000 0.0000
v 2.333333 -1.333333 -32.000000 0.0000 0.0000 0.0000
v 2.333333 -1.666667 -31.000000 0.0000 0.0000 0.0000
v 3.000000 -2.000000 -31.000000 0.0000 0.0000 0.0000
v 2.333333 -1.666667 -32.000000 0.0000 0.0000 0.0000
v 3.000000 -2.000000 -32.000000 0.0000 0.0000 0.0000
v 3.000000 -1.666667 -31.000000 0.0000 0.0000 0.0000
v 3.000000 -1.666667 -32.000000 0.0000 0.0000 0.0000
v 0.333333 -0.666667 -31.000000 0.0000 0.0000 0.0000
v 1.000000 -1.000000 -31.000000 0.0000 0.0000 0.0000
v 0.333333 -0.666667 -32.000000 0.0000 0.0000 0.0000
v 1.000000 -1.000000 -32.000000 0.0000 0.0000 0.0000
v 1.000000 -0.666667 -31.000000 0.0000 0.0000 0.0000
v 1.000000 -0.666667 -32.000000 0.0000 0.0000 0.0000
v -0.333333 -0.333333 -31.000000 0.0000 0.0000 0.0000
v 0.333333 -0.666667 -31.000000 0.0000 0.0000 0.0000
v -0.333333 -0.333333 -32.000000 0.0000 0.0000 0.0000
v 0.333333 -0.666667 -32.000000 0.0000 0.0000 0.0000
v 0.333333 -0.333333 -31.000000 0.0000 0.0000 0.0000
v 0.333333 -0.333333 -32.000000 0.0000 0.0000 0.0000
v -1.000000 0.000000 -31.000000 0.0000 0.0000 0.0000
v -0.333333 -0.333333 -31.000000 0.0000 0.0000 0.0000
v -1.000000 0.000000 -32.000000 0.0000 0.0000 0.0000
v -0.333333 -0.333333 -32.000000 0.0000 0.0000 0.0000
v -0.333333 0.000000 -31.000000 0.0000 0.0000 0.0000
v -0.333333 0.000000 -32.000000 0.0000 0.0000 0.0000
vn 1.0000 -0.0000 -0.0000
vn -0.0000 1.0000 -0.0000
vt 0.665365 0.000000
vt 1.000000 0.000000
vt 1.000000 1.000000
vt 0.665365 1.000000
vt 0.000000 0.000000
vt 0.000000 1.000000
s 0
f 5/1/1 2/2/1 4/3/1 6/4/1
f 1/5/2 5/1/2 6/4/2 3/6/2
f 11/1/1 8/2/1 10/3/1 12/4/1
f 7/5/2 11/1/2 12/4/2 9/6/2
f 17/1/1 14/2/1 16/3/1 18/4/1
f 13/5/2 17/1/2 18/4/2 15/6/2
f 23/1/1 20/2/1 22/3/1 24/4/1
f 19/5/2 23/1/2 24/4/2 21/6/2
f 29/1/1 26/2/1 28/3/1 30/4/1
f 25/5/2 29/1/2 30/4/2 27/6/2
f 35/1/1 32/2/1 34/3/1 36/4/1
f 31/5/2 35/1/2 36/4/2 33/6/2
f 41/1/1 38/2/1 40/3/1 42/4/1
f 37/5/2 41/1/2 42/4/2 39/6/2
f 47/1/1 44/2/1 46/3/1 48/4/1
f 43/5/2 47/1/2 48/4/2 45/6/2
f 53/1/1 50/2/1 52/3/1 54/4/1
f 49/5/2 53/1/2 54/4/2 51/6/2
f 59/1/1 56/2/1 58/3/1 60/4/1
f 55/5/2 59/1/2 60/4/2 57/6/2
f 65/1/1 62/2/1 64/3/1 66/4/1
f 61/5/2 65/1/2 66/4/2 63/6/2
f 71/1/1 68/2/1 70/3/1 72/4/1
f 67/5/2 71/1/2 72/4/2 69/6/2
f 77/1/1 74/2/1 76/3/1 78/4/1
f 73/5/2 77/1/2 78/4/2 75/6/2
f 83/1/1 80/2/1 82/3/1 84/4/1
f 79/5/2 83/1/2 84/4/2 81/6/2
f 89/1/1 86/2/1 88/3/1 90/4/1
f 85/5/2 89/1/2 90/4/2 87/6/2
f 95/1/1 92/2/1 94/3/1 96/4/1
f 91/5/2 95/1/2 96/4/2 93/6/2
f 101/1/1 98/2/1 100/3/1 102/4/1
f 97/5/2 101/1/2 102/4/2 99/6/2
f 107/1/1 104/2/1 106/3/1 108/4/1
f 103/5/2 107/1/2 108/4/2 105/6/2
f 113/1/1 110/2/1 112/3/1 114/4/1
f 109/5/2 113/1/2 114/4/2 111/6/2
f 119/1/1 116/2/1 118/3/1 120/4/1
f 115/5/2 119/1/2 120/4/2 117/6/2
f 125/1/1 122/2/1 124/3/1 126/4/1
f 121/5/2 125/1/2 126/4/2 123/6/2
f 131/1/1 128/2/1 130/3/1 132/4/1
f 127/5/2 131/1/2 132/4/2 129/6/2
f 137/1/1 134/2/1 136/3/1 138/4/1
f 133/5/2 137/1/2 138/4/2 135/6/2
f 143/1/1 140/2/1 142/3/1 144/4/1
f 139/5/2 143/1/2 144/4/2 141/6/2
f 149/1/1 146/2/1 148/3/1 150/4/1
f 145/5/2 149/1/2 150/4/2 147/6/2
f 155/1/1 152/2/1 154/3/1 156/4/1
f 151/5/2 155/1/2 156/4/2 153/6/2
f 161/1/1 158/2/1 160/3/1 162/4/1
f 157/5/2 161/1/2 162/4/2 159/6/2
f 167/1/1 164/2/1 166/3/1 168/4/1
f 163/5/2 167/1/2 168/4/2 165/6/2
f 173/1/1 170/2/1 172/3/1 174/4/1
f 169/5/2 173/1/2 174/4/2 171/6/2
f 179/1/1 176/2/1 178/3/1 180/4/1
f 175/5/2 179/1/2 180/4/2 177/6/2
