# Blender 5.0.1
# www.blender.org
o Steps
v 0.000000 4.000000 -22.000000 0.0000 0.0000 0.0000
v 0.000000 4.000000 -23.000000 0.0000 0.0000 0.0000
v 0.750000 4.000000 -22.000000 0.0000 0.0000 0.0000
v 0.750000 4.000000 -23.000000 0.0000 0.0000 0.0000
v 0.750000 3.750000 -22.000000 0.0000 0.0000 0.0000
v 0.750000 3.750000 -23.000000 0.0000 0.0000 0.0000
v 0.000000 3.500000 -22.000000 0.0000 0.0000 0.0000
v 0.000000 3.500000 -23.000000 0.0000 0.0000 0.0000
v 2.000000 3.000000 -26.000000 0.0000 0.0000 0.0000
v 3.000000 3.000000 -26.000000 0.0000 0.0000 0.0000
v 2.000000 3.000000 -25.250000 0.0000 0.0000 0.0000
v 3.000000 3.000000 -25.250000 0.0000 0.0000 0.0000
v 2.000000 2.750000 -25.250000 0.0000 0.0000 0.0000
v 3.000000 2.750000 -25.250000 0.0000 0.0000 0.0000
v 2.000000 2.500000 -26.000000 0.0000 0.0000 0.0000
v 3.000000 2.500000 -26.000000 0.0000 0.0000 0.0000
v 0.000000 3.500000 -24.000000 0.0000 0.0000 0.0000
v 0.000000 3.500000 -25.000000 0.0000 0.0000 0.0000
v 0.750000 3.500000 -24.000000 0.0000 0.0000 0.0000
v 0.750000 3.500000 -25.000000 0.0000 0.0000 0.0000
v 0.750000 3.250000 -24.000000 0.0000 0.0000 0.0000
v 0.750000 3.250000 -25.000000 0.0000 0.0000 0.0000
v 0.000000 3.000000 -24.000000 0.0000 0.0000 0.0000
v 0.000000 3.000000 -25.000000 0.0000 0.0000 0.0000
v 5.000000 2.500000 -24.000000 0.0000 0.0000 0.0000
v 6.000000 2.500000 -24.000000 0.0000 0.0000 0.0000
v 5.000000 2.500000 -23.250000 0.0000 0.0000 0.0000
v 5.999999 2.500000 -23.250000 0.0000 0.0000 0.0000
v 5.000000 2.250000 -23.250000 0.0000 0.0000 0.0000
v 5.999999 2.250000 -23.250000 0.0000 0.0000 0.0000
v 5.000000 2.000000 -24.000000 0.0000 0.0000 0.0000
v 6.000000 2.000000 -24.000000 0.0000 0.0000 0.0000
v 5.000000 2.500000 -25.500000 0.0000 0.0000 0.0000
v 4.999999 2.500000 -24.500000 0.0000 0.0000 0.0000
v 4.250000 2.500000 -25.500000 0.0000 0.0000 0.0000
v 4.249999 2.500000 -24.500000 0.0000 0.0000 0.0000
v 4.250000 2.250000 -25.500000 0.0000 0.0000 0.0000
v 4.249999 2.250000 -24.500000 0.0000 0.0000 0.0000
v 5.000000 2.000000 -25.500000 0.0000 0.0000 0.0000
v 4.999999 2.000000 -24.500000 0.0000 0.0000 0.0000
vn -0.0000 1.0000 -0.0000
vn 1.0000 -0.0000 -0.0000
vn 0.3162 -0.9487 -0.0000
vn -0.0000 -0.0000 1.0000
vn -0.0000 -0.0000 -1.0000
vn -0.0000 -0.9487 0.3162
vn -1.0000 -0.0000 -0.0000
vn -0.3162 -0.9487 -0.0000
vt -0.000087 0.749957
vt -0.999913 0.749957
vt -0.999913 0.000087
vt -0.000087 0.000087
vt -0.999913 0.000087
vt -0.999913 -0.249870
vt -0.000087 -0.249870
vt -0.999913 -1.040303
vt -0.000087 -1.040303
vt -1.749784 0.000086
vt -1.749783 -0.499827
vt 0.749783 0.000087
vt 0.749783 -0.499827
s 0
f 2/1/1 1/2/1 3/3/1 4/4/1
f 4/4/2 3/5/2 5/6/2 6/7/2
f 6/7/3 5/6/3 7/8/3 8/9/3
f 1/10/4 7/11/4 5/6/4 3/5/4
f 2/12/5 4/4/5 6/7/5 8/13/5
f 10/1/1 9/2/1 11/3/1 12/4/1
f 12/4/4 11/5/4 13/6/4 14/7/4
f 14/7/6 13/6/6 15/8/6 16/9/6
f 9/10/7 15/11/7 13/6/7 11/5/7
f 10/12/2 12/4/2 14/7/2 16/13/2
f 18/1/1 17/2/1 19/3/1 20/4/1
f 20/4/2 19/5/2 21/6/2 22/7/2
f 22/7/3 21/6/3 23/8/3 24/9/3
f 17/10/4 23/11/4 21/6/4 19/5/4
f 18/12/5 20/4/5 22/7/5 24/13/5
f 26/1/1 25/2/1 27/3/1 28/4/1
f 28/4/4 27/5/4 29/6/4 30/7/4
f 30/7/6 29/6/6 31/8/6 32/9/6
f 25/10/7 31/11/7 29/6/7 27/5/7
f 26/12/2 28/4/2 30/7/2 32/13/2
f 34/1/1 33/2/1 35/3/1 36/4/1
f 36/4/7 35/5/7 37/6/7 38/7/7
f 38/7/8 37/6/8 39/8/8 40/9/8
f 33/10/5 39/11/5 37/6/5 35/5/5
f 34/12/4 36/4/4 38/7/4 40/13/4
