# Blender 5.0.1
# www.blender.org
o RoofAccessCorridor
v 0.000000 30.000000 25.000000 0.0000 0.0000 0.0000
v 0.000000 27.000000 25.000000 0.0000 0.0000 0.0000
v -1.000000 27.000000 25.000000 0.0000 0.0000 0.0000
v -1.000000 28.000000 25.000000 0.0000 0.0000 0.0000
v -1.000000 29.000000 25.000000 0.0000 0.0000 0.0000
v -1.000000 30.000000 25.000000 0.0000 0.0000 0.0000
v 1.000000 27.000000 25.000000 0.0000 0.0000 0.0000
v 1.000000 28.000000 25.000000 0.0000 0.0000 0.0000
v 1.000000 29.000000 25.000000 0.0000 0.0000 0.0000
v 1.000000 30.000000 25.000000 0.0000 0.0000 0.0000
v -1.000000 30.000000 26.000000 0.0000 0.0000 0.0000
v 1.000000 30.000000 26.000000 0.0000 0.0000 0.0000
v 0.000000 30.000000 26.000000 0.0000 0.0000 0.0000
v -1.000000 27.000000 26.000000 0.0000 0.0000 0.0000
v -1.000000 28.000000 26.000000 0.0000 0.0000 0.0000
v -1.000000 29.000000 26.000000 0.0000 0.0000 0.0000
v 1.000000 29.000000 26.000000 0.0000 0.0000 0.0000
v 1.000000 28.000000 26.000000 0.0000 0.0000 0.0000
v 1.000000 27.000000 26.000000 0.0000 0.0000 0.0000
v 0.000000 27.000000 26.000000 0.0000 0.0000 0.0000
v 0.000000 30.000000 24.000000 0.0000 0.0000 0.0000
v 0.000000 27.000000 24.000000 0.0000 0.0000 0.0000
v -1.000000 27.000000 24.000000 0.0000 0.0000 0.0000
v -1.000000 28.000000 24.000000 0.0000 0.0000 0.0000
v -1.000000 29.000000 24.000000 0.0000 0.0000 0.0000
v -1.000000 30.000000 24.000000 0.0000 0.0000 0.0000
v 1.000000 27.000000 24.000000 0.0000 0.0000 0.0000
v 1.000000 28.000000 24.000000 0.0000 0.0000 0.0000
v 1.000000 29.000000 24.000000 0.0000 0.0000 0.0000
v 1.000000 30.000000 24.000000 0.0000 0.0000 0.0000
v 0.000000 30.000000 25.000000 0.0000 0.0000 0.0000
v 0.000000 27.000000 25.000000 0.0000 0.0000 0.0000
v -1.000000 27.000000 25.000000 0.0000 0.0000 0.0000
v -1.000000 28.000000 25.000000 0.0000 0.0000 0.0000
v -1.000000 29.000000 25.000000 0.0000 0.0000 0.0000
v -1.000000 30.000000 25.000000 0.0000 0.0000 0.0000
v 1.000000 27.000000 25.000000 0.0000 0.0000 0.0000
v 1.000000 28.000000 25.000000 0.0000 0.0000 0.0000
v 1.000000 29.000000 25.000000 0.0000 0.0000 0.0000
v 1.000000 30.000000 25.000000 0.0000 0.0000 0.0000
v -1.000000 30.000000 26.000000 0.0000 0.0000 0.0000
v 1.000000 30.000000 26.000000 0.0000 0.0000 0.0000
v 0.000000 30.000000 26.000000 0.0000 0.0000 0.0000
v -1.000000 27.000000 26.000000 0.0000 0.0000 0.0000
v -1.000000 28.000000 26.000000 0.0000 0.0000 0.0000
v -1.000000 29.000000 26.000000 0.0000 0.0000 0.0000
v 1.000000 29.000000 26.000000 0.0000 0.0000 0.0000
v 1.000000 28.000000 26.000000 0.0000 0.0000 0.0000
v 1.000000 27.000000 26.000000 0.0000 0.0000 0.0000
v 0.000000 27.000000 26.000000 0.0000 0.0000 0.0000
v 0.000000 30.000000 24.000000 0.0000 0.0000 0.0000
v 0.000000 27.000000 24.000000 0.0000 0.0000 0.0000
v -1.000000 27.000000 24.000000 0.0000 0.0000 0.0000
v -1.000000 28.000000 24.000000 0.0000 0.0000 0.0000
v -1.000000 29.000000 24.000000 0.0000 0.0000 0.0000
v -1.000000 30.000000 24.000000 0.0000 0.0000 0.0000
v 1.000000 27.000000 24.000000 0.0000 0.0000 0.0000
v 1.000000 28.000000 24.000000 0.0000 0.0000 0.0000
v 1.000000 29.000000 24.000000 0.0000 0.0000 0.0000
v 1.000000 30.000000 24.000000 0.0000 0.0000 0.0000
v 0.000000 30.000000 25.000000 0.0000 0.0000 0.0000
v 0.000000 27.000000 25.000000 0.0000 0.0000 0.0000
v -1.000000 27.000000 25.000000 0.0000 0.0000 0.0000
v -1.000000 28.000000 25.000000 0.0000 0.0000 0.0000
v -1.000000 29.000000 25.000000 0.0000 0.0000 0.0000
v -1.000000 30.000000 25.000000 0.0000 0.0000 0.0000
v 1.000000 27.000000 25.000000 0.0000 0.0000 0.0000
v 1.000000 28.000000 25.000000 0.0000 0.0000 0.0000
v 1.000000 29.000000 25.000000 0.0000 0.0000 0.0000
v 1.000000 30.000000 25.000000 0.0000 0.0000 0.0000
v -1.000000 30.000000 26.000000 0.0000 0.0000 0.0000
v 1.000000 30.000000 26.000000 0.0000 0.0000 0.0000
v 0.000000 30.000000 26.000000 0.0000 0.0000 0.0000
v -1.000000 27.000000 26.000000 0.0000 0.0000 0.0000
v -1.000000 28.000000 26.000000 0.0000 0.0000 0.0000
v -1.000000 29.000000 26.000000 0.0000 0.0000 0.0000
v 1.000000 29.000000 26.000000 0.0000 0.0000 0.0000
v 1.000000 28.000000 26.000000 0.0000 0.0000 0.0000
v 1.000000 27.000000 26.000000 0.0000 0.0000 0.0000
v 0.000000 27.000000 26.000000 0.0000 0.0000 0.0000
v 0.000000 30.000000 24.000000 0.2902 0.0000 0.0000
v 0.000000 27.000000 24.000000 0.3490 0.0000 0.0000
v -1.000000 27.000000 24.000000 0.3686 0.0000 0.0000
v -1.000000 28.000000 24.000000 0.3451 0.0000 0.0000
v -1.000000 29.000000 24.000000 0.3294 0.0000 0.0000
v -1.000000 30.000000 24.000000 0.3019 0.0000 0.0000
v 1.000000 27.000000 24.000000 0.3529 0.0000 0.0000
v 1.000000 28.000000 24.000000 0.3294 0.0000 0.0000
v 1.000000 29.000000 24.000000 0.3451 0.0000 0.0000
v 1.000000 30.000000 24.000000 0.3098 0.0000 0.0000
v -1.250000 27.000000 25.000000 0.2000 0.0000 0.0000
v -1.250000 28.000000 25.000000 0.2353 0.0000 0.0000
v -1.250000 29.000000 25.000000 0.2432 0.0000 0.0000
v -1.250000 30.000000 25.000000 0.1804 0.0000 0.0000
v -1.250000 30.000000 26.000000 0.4980 0.0000 0.0000
v -1.250000 27.000000 26.000000 0.5137 0.0000 0.0000
v -1.250000 28.000000 26.000000 0.5921 0.0000 0.0000
v -1.250000 29.000000 26.000000 0.5725 0.0000 0.0000
v -1.250000 27.000000 24.000000 0.4589 0.0000 0.0000
v -1.250000 28.000000 24.000000 0.5019 0.0000 0.0000
v -1.250000 29.000000 24.000000 0.4980 0.0000 0.0000
v -1.250000 30.000000 24.000000 0.4196 0.0000 0.0000
v 1.250000 27.000000 25.000000 0.2275 0.0000 0.0000
v 1.250000 28.000000 25.000000 0.1843 0.0000 0.0000
v 1.250000 29.000000 25.000000 0.2078 0.0000 0.0000
v 1.250000 30.000000 25.000000 0.1804 0.0000 0.0000
v 1.250000 30.000000 26.000000 0.4902 0.0000 0.0000
v 1.250000 29.000000 26.000000 0.5725 0.0000 0.0000
v 1.250000 28.000000 26.000000 0.5608 0.0000 0.0000
v 1.250000 27.000000 26.000000 0.5490 0.0000 0.0000
v 1.250000 27.000000 24.000000 0.5137 0.0000 0.0000
v 1.250000 28.000000 24.000000 0.5725 0.0000 0.0000
v 1.250000 29.000000 24.000000 0.5530 0.0000 0.0000
v 1.250000 30.000000 24.000000 0.4550 0.0000 0.0000
v 0.000000 30.250000 25.000000 0.0000 0.0000 0.0000
v -1.000000 30.250000 25.000000 0.0000 0.0000 0.0000
v 1.000000 30.250000 25.000000 0.0000 0.0000 0.0000
v -1.000000 30.250000 26.000000 0.0000 0.0000 0.0000
v 1.000000 30.250000 26.000000 0.0000 0.0000 0.0000
v 0.000000 30.250000 26.000000 0.0000 0.0000 0.0000
v 0.000000 30.250000 24.000000 0.1098 0.0000 0.0000
v -1.000000 30.250000 24.000000 0.0588 0.0000 0.0000
v 1.000000 30.250000 24.000000 0.0314 0.0000 0.0000
v 1.250000 30.250000 25.000000 0.0000 0.0000 0.0000
v 1.250000 30.250000 26.000000 0.0000 0.0000 0.0000
v 1.250000 30.250000 24.000000 0.0000 0.0000 0.0000
v 1.250000 30.250000 25.000000 0.0039 0.0000 0.0000
v 1.250000 30.250000 26.000000 0.1059 0.0000 0.0000
v 1.250000 30.250000 24.000000 0.0314 0.0000 0.0000
v -1.250000 30.250000 25.000000 0.0000 0.0000 0.0000
v -1.250000 30.250000 26.000000 0.0000 0.0000 0.0000
v -1.250000 30.250000 24.000000 0.0000 0.0000 0.0000
v -1.250000 30.250000 25.000000 0.0000 0.0000 0.0000
v -1.250000 30.250000 26.000000 0.0902 0.0000 0.0000
v -1.250000 30.250000 24.000000 0.0510 0.0000 0.0000
v 1.250000 26.500000 25.000000 0.0000 0.0000 0.0000
v 1.250000 26.500000 26.000000 0.0000 0.0000 0.0000
v 1.250000 26.500000 24.000000 0.0000 0.0000 0.0000
v -1.250000 26.500000 25.000000 0.0000 0.0000 0.0000
v -1.250000 26.500000 26.000000 0.0000 0.0000 0.0000
v -1.250000 26.500000 24.000000 0.0000 0.0000 0.0000
v 0.000000 26.500000 24.000000 0.0000 0.0000 0.0000
v -1.000000 26.500000 24.000000 0.0000 0.0000 0.0000
v 1.000000 26.500000 24.000000 0.0000 0.0000 0.0000
vn 1.0000 -0.0000 -0.0000
vn -1.0000 -0.0000 -0.0000
vn -0.0000 1.0000 -0.0000
vn -0.0000 -1.0000 -0.0000
vn -0.0000 -0.0000 -1.0000
vt -3.000000 -14.999993
vt -2.000000 -14.999990
vt -2.000000 -13.999994
vt -3.000000 -13.999994
vt -3.000000 -12.999993
vt -2.000000 -12.999992
vt -2.000000 -11.999994
vt -3.000000 -11.999993
vt -1.999993 -13.999990
vt -2.999996 -13.999992
vt -2.999996 -14.999990
vt -1.999992 -14.999986
vt -3.000000 -13.999993
vt -2.000000 -12.999994
vt -1.500000 -13.499992
vt -1.500000 -12.499993
vt -2.500000 -12.499996
vt -2.499999 -13.499994
vt -2.500000 -13.499994
vt -3.500000 -12.499994
vt -3.500000 -13.499996
vt -1.999996 -11.999995
vt -2.999997 -12.000002
vt -2.999997 -13.000000
vt -1.999995 -12.999993
vt -1.999994 -12.999992
vt -2.999998 -12.999995
vt -2.999997 -13.999993
vt -1.999994 -13.999990
vt -3.499997 -13.499993
vt -3.499998 -14.499991
vt -2.500000 -14.499993
vt -2.500000 -13.499994
vt -4.000000 -11.999990
vt -4.000000 -12.999990
vt -0.999990 -13.999986
vt -0.999990 -12.999988
vt -4.000000 -13.999990
vt -2.499999 -12.499994
vt -3.499997 -12.499991
vt -0.999989 -14.999978
vt -0.999990 -13.999988
vt -2.500001 -13.499999
vt -1.500004 -13.500001
vt -1.500006 -12.500005
vt -2.500003 -12.500003
vt -4.000000 -13.999993
vt -4.000000 -14.999993
vt -2.499999 -14.499991
vt -1.499999 -14.499990
vt -3.500000 -14.499995
vt -2.500000 -14.499993
vt -0.999992 -12.999986
vt -0.999994 -11.999988
vt -2.500000 -14.499992
vt -1.500002 -14.499994
vt -3.749996 -13.499992
vt -3.749996 -12.499990
vt -3.749997 -14.499991
vt -3.749997 -13.499992
vt -0.999989 -15.249977
vt -1.999992 -15.249983
vt -1.999992 -15.249984
vt -2.999995 -15.249990
vt -1.250006 -12.500006
vt -1.250005 -13.500002
vt -1.250005 -13.500002
vt -1.250003 -14.499994
vt -3.000000 -15.249994
vt -4.000000 -15.249993
vt -2.000000 -15.249990
vt -3.000000 -15.249992
vt -1.999996 -11.499996
vt -0.999994 -11.499988
vt -2.999997 -11.500002
vt -1.999996 -11.499995
vt -4.000000 -11.499990
vt -3.000000 -11.499993
vt -2.000000 -11.499994
vt 1.250010 -11.999970
vt 0.250009 -11.999978
vt 0.250008 -11.499978
vt 1.250010 -11.499970
vt -0.749993 -11.999986
vt -0.749994 -11.499986
vt 0.250012 -14.999978
vt 0.250012 -15.249978
vt -0.749990 -15.249986
vt -0.749990 -14.999986
vt 1.250014 -14.999970
vt 1.250014 -15.249970
vt 1.250012 -13.999970
vt 1.500013 -13.999969
vt 1.500014 -14.999969
vt 1.250013 -14.999970
vt 1.250011 -12.999970
vt 1.500012 -12.999969
vt 1.500011 -11.999969
vt -0.749991 -13.999986
vt -0.999992 -13.999988
vt -0.999993 -12.999988
vt -0.749992 -12.999986
vt -0.999991 -14.999988
vt -0.999990 -15.249988
vt 1.500014 -15.249969
vt 1.250014 -15.249970
vt 1.500010 -11.499969
s 0
f 6/1/1 11/2/1 16/3/1 5/4/1
f 4/5/1 15/6/1 14/7/1 3/8/1
f 9/9/2 17/10/2 12/11/2 10/12/2
f 5/13/1 16/3/1 15/14/1 4/5/1
f 3/15/3 14/16/3 20/17/3 2/18/3
f 2/19/3 20/17/3 19/20/3 7/21/3
f 7/22/2 19/23/2 18/24/2 8/25/2
f 8/26/2 18/27/2 17/28/2 9/29/2
f 10/30/4 12/31/4 13/32/4 1/33/4
f 4/5/1 3/8/1 23/34/1 24/35/1
f 8/26/2 9/29/2 29/36/2 28/37/2
f 5/13/1 4/5/1 24/35/1 25/38/1
f 10/30/4 1/33/4 21/39/4 30/40/4
f 9/9/2 10/12/2 30/41/2 29/42/2
f 1/43/4 6/44/4 26/45/4 21/46/4
f 6/1/1 5/4/1 25/47/1 26/48/1
f 3/15/3 2/18/3 22/49/3 23/50/3
f 2/19/3 7/21/3 27/51/3 22/52/3
f 7/22/2 8/25/2 28/53/2 27/54/2
f 1/43/4 13/55/4 11/56/4 6/44/4
f 36/1/1 41/2/1 46/3/1 35/4/1
f 34/5/1 45/6/1 44/7/1 33/8/1
f 39/9/2 47/10/2 42/11/2 40/12/2
f 35/13/1 46/3/1 45/14/1 34/5/1
f 33/15/3 44/16/3 50/17/3 32/18/3
f 32/19/3 50/17/3 49/20/3 37/21/3
f 37/22/2 49/23/2 48/24/2 38/25/2
f 38/26/2 48/27/2 47/28/2 39/29/2
f 40/30/4 42/31/4 43/32/4 31/33/4
f 34/5/1 33/8/1 53/34/1 54/35/1
f 38/26/2 39/29/2 59/36/2 58/37/2
f 35/13/1 34/5/1 54/35/1 55/38/1
f 40/30/4 31/33/4 51/39/4 60/40/4
f 39/9/2 40/12/2 60/41/2 59/42/2
f 31/43/4 36/44/4 56/45/4 51/46/4
f 36/1/1 35/4/1 55/47/1 56/48/1
f 33/15/3 32/18/3 52/49/3 53/50/3
f 32/19/3 37/21/3 57/51/3 52/52/3
f 37/22/2 38/25/2 58/53/2 57/54/2
f 31/43/4 43/55/4 41/56/4 36/44/4
f 66/1/1 71/2/1 76/3/1 65/4/1
f 64/5/1 75/6/1 74/7/1 63/8/1
f 69/9/2 77/10/2 72/11/2 70/12/2
f 65/13/1 76/3/1 75/14/1 64/5/1
f 63/15/3 74/16/3 80/17/3 62/18/3
f 62/19/3 80/17/3 79/20/3 67/21/3
f 67/22/2 79/23/2 78/24/2 68/25/2
f 68/26/2 78/27/2 77/28/2 69/29/2
f 70/30/4 72/31/4 73/32/4 61/33/4
f 64/5/1 63/8/1 83/34/1 84/35/1
f 68/26/2 69/29/2 89/36/2 88/37/2
f 65/13/1 64/5/1 84/35/1 85/38/1
f 70/30/4 61/33/4 81/39/4 90/40/4
f 69/9/2 70/12/2 90/41/2 89/42/2
f 61/43/4 66/44/4 86/45/4 81/46/4
f 66/1/1 65/4/1 85/47/1 86/48/1
f 63/15/3 62/18/3 82/49/3 83/50/3
f 62/19/3 67/21/3 87/51/3 82/52/3
f 67/22/2 68/25/2 88/53/2 87/54/2
f 61/43/4 73/55/4 71/56/4 66/44/4
f 94/1/2 93/4/2 98/3/2 95/2/2
f 92/5/2 91/8/2 96/7/2 97/6/2
f 93/13/2 92/5/2 97/14/2 98/3/2
f 92/5/2 100/35/2 99/34/2 91/8/2
f 93/13/2 101/38/2 100/35/2 92/5/2
f 94/1/2 102/48/2 101/47/2 93/4/2
f 105/9/1 106/12/1 107/11/1 108/10/1
f 103/22/1 104/25/1 109/24/1 110/23/1
f 104/26/1 105/29/1 108/28/1 109/27/1
f 104/26/1 112/37/1 113/36/1 105/29/1
f 105/9/1 113/42/1 114/41/1 106/12/1
f 103/22/1 111/54/1 112/53/1 104/25/1
f 117/30/3 115/33/3 120/32/3 119/31/3
f 117/30/3 123/40/3 121/39/3 115/33/3
f 115/43/3 121/46/3 122/45/3 116/44/3
f 115/43/3 116/44/3 118/56/3 120/55/3
f 123/40/3 117/30/3 124/57/3 126/58/3
f 117/30/3 119/31/3 125/59/3 124/60/3
f 106/12/1 114/41/1 129/61/1 127/62/1
f 107/11/1 106/12/1 127/63/1 128/64/1
f 116/44/3 122/45/3 132/65/3 130/66/3
f 118/56/3 116/44/3 130/67/3 131/68/3
f 102/48/2 94/1/2 133/69/2 135/70/2
f 94/1/2 95/2/2 134/71/2 133/72/2
f 111/54/1 103/22/1 136/73/1 138/74/1
f 103/22/1 110/23/1 137/75/1 136/76/1
f 91/8/2 99/34/2 141/77/2 139/78/2
f 96/7/2 91/8/2 139/78/2 140/79/2
f 83/80/5 82/81/5 142/82/5 143/83/5
f 82/81/5 87/84/5 144/85/5 142/82/5
f 81/86/5 121/87/5 123/88/5 90/89/5
f 86/90/5 122/91/5 121/87/5 81/86/5
f 85/92/5 101/93/5 102/94/5 86/95/5
f 84/96/5 100/97/5 101/93/5 85/92/5
f 83/80/5 99/98/5 100/97/5 84/96/5
f 89/99/5 113/100/5 112/101/5 88/102/5
f 90/89/5 114/103/5 113/100/5 89/99/5
f 129/104/5 114/103/5 90/89/5 123/88/5
f 135/105/5 122/106/5 86/95/5 102/94/5
f 99/98/5 83/80/5 143/83/5 141/107/5
f 88/102/5 112/101/5 111/54/5 87/84/5
f 138/74/5 144/85/5 87/84/5 111/54/5
