# Blender 5.0.1
# www.blender.org
o TowerTopSupport
v -0.254369 56.011692 29.560789 0.0000 0.0000 0.0000
v -0.217143 56.000000 29.548088 0.0000 0.0000 0.0000
v -0.234484 55.988304 29.512783 0.0000 0.0000 0.0000
v -0.271710 56.000000 29.525484 0.0000 0.0000 0.0000
v -0.009941 56.983849 29.024004 0.0000 0.0000 0.0000
v 0.027285 56.972153 29.011301 0.0000 0.0000 0.0000
v 0.009944 56.960461 28.975996 0.0000 0.0000 0.0000
v -0.027282 56.972153 28.988699 0.0000 0.0000 0.0000
v 0.216670 56.011692 29.576405 0.0000 0.0000 0.0000
v 0.234011 56.000000 29.541100 0.0000 0.0000 0.0000
v 0.196785 55.988304 29.528397 0.0000 0.0000 0.0000
v 0.179444 56.000000 29.563702 0.0000 0.0000 0.0000
v 0.009943 56.983849 29.024002 0.0000 0.0000 0.0000
v 0.027283 56.972153 28.988697 0.0000 0.0000 0.0000
v -0.009943 56.960461 28.975996 0.0000 0.0000 0.0000
v -0.027283 56.972153 29.011299 0.0000 0.0000 0.0000
v 0.560788 56.011692 29.254370 0.0000 0.0000 0.0000
v 0.548086 56.000000 29.217142 0.0000 0.0000 0.0000
v 0.512781 55.988304 29.234484 0.0000 0.0000 0.0000
v 0.525483 56.000000 29.271709 0.0000 0.0000 0.0000
v 0.024003 56.983849 29.009941 0.0000 0.0000 0.0000
v 0.011300 56.972153 28.972715 0.0000 0.0000 0.0000
v -0.024005 56.960461 28.990055 0.0000 0.0000 0.0000
v -0.011302 56.972153 29.027281 0.0000 0.0000 0.0000
v 0.576403 56.011692 28.783329 0.0000 0.0000 0.0000
v 0.541098 56.000000 28.765987 0.0000 0.0000 0.0000
v 0.528396 55.988304 28.803213 0.0000 0.0000 0.0000
v 0.563701 56.000000 28.820555 0.0000 0.0000 0.0000
v 0.024002 56.983849 28.990055 0.0000 0.0000 0.0000
v -0.011303 56.972153 28.972715 0.0000 0.0000 0.0000
v -0.024006 56.960461 29.009941 0.0000 0.0000 0.0000
v 0.011299 56.972153 29.027281 0.0000 0.0000 0.0000
v 0.254369 56.011692 28.439209 0.0000 0.0000 0.0000
v 0.217142 56.000000 28.451912 0.0000 0.0000 0.0000
v 0.234483 55.988304 28.487217 0.0000 0.0000 0.0000
v 0.271709 56.000000 28.474516 0.0000 0.0000 0.0000
v 0.009940 56.983849 28.975996 0.0000 0.0000 0.0000
v -0.027286 56.972153 28.988697 0.0000 0.0000 0.0000
v -0.009945 56.960461 29.024002 0.0000 0.0000 0.0000
v 0.027281 56.972153 29.011301 0.0000 0.0000 0.0000
v -0.216673 56.011692 28.423595 0.0000 0.0000 0.0000
v -0.234014 56.000000 28.458900 0.0000 0.0000 0.0000
v -0.196787 55.988304 28.471603 0.0000 0.0000 0.0000
v -0.179447 56.000000 28.436298 0.0000 0.0000 0.0000
v -0.009945 56.983849 28.975996 0.0000 0.0000 0.0000
v -0.027286 56.972153 29.011301 0.0000 0.0000 0.0000
v 0.009940 56.960461 29.024004 0.0000 0.0000 0.0000
v 0.027281 56.972153 28.988699 0.0000 0.0000 0.0000
v -0.560791 56.011692 28.745630 0.0000 0.0000 0.0000
v -0.548088 56.000000 28.782856 0.0000 0.0000 0.0000
v -0.512783 55.988304 28.765516 0.0000 0.0000 0.0000
v -0.525486 56.000000 28.728289 0.0000 0.0000 0.0000
v -0.024006 56.983849 28.990059 0.0000 0.0000 0.0000
v -0.011303 56.972153 29.027285 0.0000 0.0000 0.0000
v 0.024002 56.960461 29.009943 0.0000 0.0000 0.0000
v 0.011299 56.972153 28.972717 0.0000 0.0000 0.0000
v -0.576406 56.011692 29.216671 0.0000 0.0000 0.0000
v -0.541101 56.000000 29.234013 0.0000 0.0000 0.0000
v -0.528398 55.988304 29.196785 0.0000 0.0000 0.0000
v -0.563703 56.000000 29.179445 0.0000 0.0000 0.0000
v -0.024005 56.983849 29.009943 0.0000 0.0000 0.0000
v 0.011300 56.972153 29.027285 0.0000 0.0000 0.0000
v 0.024003 56.960461 28.990059 0.0000 0.0000 0.0000
v -0.011302 56.972153 28.972717 0.0000 0.0000 0.0000
vn -0.8723 0.3854 0.3008
vn 0.4011 0.3634 0.8409
vn 0.8723 -0.3854 -0.3008
vn -0.4011 -0.3634 -0.8409
vn -0.4041 0.3854 0.8295
vn 0.8782 0.3634 0.3110
vn 0.4041 -0.3854 -0.8295
vn -0.8782 -0.3634 -0.3110
vn 0.3008 0.3854 0.8723
vn 0.8409 0.3634 -0.4011
vn -0.3008 -0.3854 -0.8723
vn -0.8409 -0.3634 0.4011
vn 0.8295 0.3854 0.4041
vn 0.3110 0.3634 -0.8782
vn -0.8295 -0.3854 -0.4041
vn -0.3110 -0.3634 0.8782
vn 0.8723 0.3854 -0.3008
vn -0.4011 0.3634 -0.8409
vn -0.8723 -0.3854 0.3008
vn 0.4011 -0.3634 0.8409
vn 0.4041 0.3854 -0.8295
vn -0.8782 0.3634 -0.3110
vn -0.4041 -0.3854 0.8295
vn 0.8782 -0.3634 0.3110
vn -0.3008 0.3854 -0.8723
vn -0.8409 0.3634 0.4011
vn 0.3008 -0.3854 0.8723
vn 0.8409 -0.3634 -0.4011
vn -0.8295 0.3854 -0.4041
vn -0.3110 0.3634 0.8782
vn 0.8295 -0.3854 0.4041
vn 0.3110 -0.3634 -0.8782
vt 0.127240 -0.014857
vt 0.155002 0.891136
vt 0.126007 0.891136
vt 0.098245 -0.014856
vt -0.002294 -0.015732
vt -0.010025 0.891134
vt -0.039021 0.891134
vt -0.031290 -0.015732
vt 0.046733 -0.014856
vt 0.018971 0.891133
vt -0.010024 0.891133
vt 0.017737 -0.014857
vt 0.118277 -0.015732
vt 0.126009 0.891135
vt 0.097012 0.891135
vt 0.089281 -0.015732
s 0
f 1/1/1 5/2/1 8/3/1 4/4/1
f 2/5/2 6/6/2 5/7/2 1/8/2
f 3/9/3 7/10/3 6/11/3 2/12/3
f 4/13/4 8/14/4 7/15/4 3/16/4
f 9/1/5 13/2/5 16/3/5 12/4/5
f 10/5/6 14/6/6 13/7/6 9/8/6
f 11/9/7 15/10/7 14/11/7 10/12/7
f 12/13/8 16/14/8 15/15/8 11/16/8
f 17/1/9 21/2/9 24/3/9 20/4/9
f 18/5/10 22/6/10 21/7/10 17/8/10
f 19/9/11 23/10/11 22/11/11 18/12/11
f 20/13/12 24/14/12 23/15/12 19/16/12
f 25/1/13 29/2/13 32/3/13 28/4/13
f 26/5/14 30/6/14 29/7/14 25/8/14
f 27/9/15 31/10/15 30/11/15 26/12/15
f 28/13/16 32/14/16 31/15/16 27/16/16
f 33/1/17 37/2/17 40/3/17 36/4/17
f 34/5/18 38/6/18 37/7/18 33/8/18
f 35/9/19 39/10/19 38/11/19 34/12/19
f 36/13/20 40/14/20 39/15/20 35/16/20
f 41/1/21 45/2/21 48/3/21 44/4/21
f 42/5/22 46/6/22 45/7/22 41/8/22
f 43/9/23 47/10/23 46/11/23 42/12/23
f 44/13/24 48/14/24 47/15/24 43/16/24
f 49/1/25 53/2/25 56/3/25 52/4/25
f 50/5/26 54/6/26 53/7/26 49/8/26
f 51/9/27 55/10/27 54/11/27 50/12/27
f 52/13/28 56/14/28 55/15/28 51/16/28
f 57/1/29 61/2/29 64/3/29 60/4/29
f 58/5/30 62/6/30 61/7/30 57/8/30
f 59/9/31 63/10/31 62/11/31 58/12/31
f 60/13/32 64/14/32 63/15/32 59/16/32
