# Blender 5.0.1
# www.blender.org
o TowerFloor_2
v -2.500000 27.000000 26.500000 0.0000 0.0000 0.0000
v 2.500000 27.000000 31.500000 0.0000 0.0000 0.0000
v 2.500000 27.000000 26.500000 0.0000 0.0000 0.0000
v -2.500000 27.000000 31.500000 0.0000 0.0000 0.0000
v 0.000000 27.000000 28.499994 0.0118 0.0000 0.0000
v -0.250000 27.000000 28.566984 0.0000 0.0000 0.0000
v -0.433014 27.000000 28.749996 0.0000 0.0000 0.0000
v -0.500000 27.000000 28.999994 0.0000 0.0000 0.0000
v -0.433014 27.000000 29.249994 0.0000 0.0000 0.0000
v -0.250000 27.000000 29.433004 0.0000 0.0000 0.0000
v 0.000000 27.000000 29.499996 0.0000 0.0000 0.0000
v 0.250000 27.000000 29.433004 0.0000 0.0000 0.0000
v 0.433014 27.000000 29.249994 0.0000 0.0000 0.0000
v 0.500000 27.000000 28.999994 0.0000 0.0000 0.0000
v 0.433014 27.000000 28.749996 0.0000 0.0000 0.0000
v 0.250000 27.000000 28.566984 0.0000 0.0000 0.0000
v 0.000000 27.000000 27.499994 0.0588 0.0000 0.0000
v -0.750000 27.000000 27.700956 0.0471 0.0000 0.0000
v -1.299038 27.000000 28.249994 0.0471 0.0000 0.0000
v -1.500000 27.000000 28.999994 0.0157 0.0000 0.0000
v -1.299038 27.000000 29.749994 0.0353 0.0000 0.0000
v -0.750000 27.000000 30.299032 0.0000 0.0000 0.0000
v 0.000000 27.000000 30.499996 0.0706 0.0000 0.0000
v 0.750000 27.000000 30.299032 0.0471 0.0000 0.0000
v 1.299038 27.000000 29.749994 0.0314 0.0000 0.0000
v 1.500000 27.000000 28.999994 0.0235 0.0000 0.0000
v 1.299038 27.000000 28.249994 0.0235 0.0000 0.0000
v 0.750000 27.000000 27.700956 0.0667 0.0000 0.0000
v -2.500000 26.750000 26.500000 0.0000 0.0000 0.0000
v 2.500000 26.750000 31.500000 0.0000 0.0000 0.0000
v 2.500000 26.750000 26.500000 0.0000 0.0000 0.0000
v -2.500000 26.750000 31.500000 0.0000 0.0000 0.0000
v 0.000000 26.750000 28.499994 0.0000 0.0000 0.0000
v -0.250000 26.750000 28.566984 0.0000 0.0000 0.0000
v 0.433014 26.750000 28.749996 0.0000 0.0000 0.0000
v 0.250000 26.750000 28.566984 0.0000 0.0000 0.0000
v 0.000000 26.750000 27.499994 0.0000 0.0000 0.0000
v -0.750000 26.750000 27.700956 0.0000 0.0000 0.0000
v -1.299038 26.750000 28.249994 0.0000 0.0000 0.0000
v -1.500000 26.750000 28.999994 0.0000 0.0000 0.0000
v -1.299038 26.750000 29.749994 0.0000 0.0000 0.0000
v -0.750000 26.750000 30.299032 0.0078 0.0000 0.0000
v 0.000000 26.750000 30.499996 0.0000 0.0000 0.0000
v 0.750000 26.750000 30.299032 0.0000 0.0000 0.0000
v 1.299038 26.750000 29.749994 0.0000 0.0000 0.0000
v 1.500000 26.750000 28.999994 0.0000 0.0000 0.0000
v 1.299038 26.750000 28.249994 0.0000 0.0000 0.0000
v 0.750000 26.750000 27.700956 0.0000 0.0000 0.0000
vn -0.0000 1.0000 -0.0000
vn -0.0000 -1.0000 -0.0000
vn -0.8660 -0.0000 0.5000
vn 0.5000 -0.0000 0.8660
vn -0.9659 -0.0000 0.2588
vn -0.9659 -0.0000 -0.2588
vn -0.7071 -0.0000 -0.7071
vn -0.2588 -0.0000 -0.9659
vn 0.2588 -0.0000 -0.9659
vn 0.7071 -0.0000 -0.7071
vn 0.9659 -0.0000 -0.2588
vn 0.9659 -0.0000 0.2588
vn 0.7071 -0.0000 0.7071
vt 1.000000 0.000000
vt -1.500005 0.999999
vt -4.000000 0.000002
vt -2.250004 1.200961
vt -1.500003 2.999996
vt -1.750001 2.933010
vt -1.933013 2.749996
vt -2.000003 2.499996
vt -1.933014 2.249997
vt -1.750002 2.066984
vt -1.500004 1.999998
vt -1.250004 2.066984
vt -1.066994 2.249998
vt -1.000002 2.499997
vt -1.066994 2.749997
vt -1.250004 2.933011
vt 0.999999 5.000000
vt -3.999991 4.999986
vt -1.500003 3.999994
vt -3.000002 2.499995
vt -2.799039 3.249993
vt -0.750004 3.799034
vt -0.000003 2.499999
vt -0.200967 1.749999
vt -0.200967 3.249998
vt -2.250001 3.799031
vt -2.799041 1.749997
vt -0.750005 1.200961
vt -0.800002 0.000000
vt 0.200000 0.000000
vt 0.200000 0.250000
vt -0.800002 0.250000
vt -8.788118 0.000000
vt -7.788118 0.000000
vt -7.788118 0.250000
vt -8.788118 0.250000
vt -7.011661 0.000000
vt -7.011661 0.250000
vt -6.235203 0.000000
vt -6.235203 0.250000
vt -5.458746 0.000000
vt -5.458746 0.250000
vt -4.682289 0.000000
vt -4.682289 0.250000
vt -3.905831 0.000000
vt -3.905831 0.250000
vt -3.129374 0.000000
vt -3.129374 0.250000
vt -2.352916 0.000000
vt -2.352916 0.250000
vt -1.576459 0.000000
vt -1.576459 0.250000
s 0
f 4/1/1 20/2/1 1/3/1
f 1/3/1 20/2/1 19/4/1
f 14/5/1 15/6/1 16/7/1 5/8/1 6/9/1 7/10/1 8/11/1 9/12/1 10/13/1 11/14/1 12/15/1 13/16/1
f 2/17/1 3/18/1 26/19/1
f 3/18/1 1/3/1 17/20/1
f 3/18/1 17/20/1 28/21/1
f 2/17/1 26/19/1 25/22/1
f 4/1/1 2/17/1 23/23/1
f 4/1/1 23/23/1 22/24/1
f 23/23/1 2/17/1 24/25/1
f 24/25/1 2/17/1 25/22/1
f 26/19/1 3/18/1 27/26/1
f 27/26/1 3/18/1 28/21/1
f 17/20/1 1/3/1 18/27/1
f 18/27/1 1/3/1 19/4/1
f 20/2/1 4/1/1 21/28/1
f 21/28/1 4/1/1 22/24/1
f 27/26/1 28/21/1 16/7/1 15/6/1
f 28/21/1 17/20/1 5/8/1 16/7/1
f 17/20/1 18/27/1 6/9/1 5/8/1
f 32/1/2 29/3/2 40/2/2
f 29/3/2 39/4/2 40/2/2
f 30/17/2 46/19/2 31/18/2
f 31/18/2 37/20/2 29/3/2
f 31/18/2 48/21/2 37/20/2
f 30/17/2 45/22/2 46/19/2
f 32/1/2 43/23/2 30/17/2
f 32/1/2 42/24/2 43/23/2
f 43/23/2 44/25/2 30/17/2
f 44/25/2 45/22/2 30/17/2
f 46/19/2 47/26/2 31/18/2
f 47/26/2 48/21/2 31/18/2
f 37/20/2 38/27/2 29/3/2
f 38/27/2 39/4/2 29/3/2
f 40/2/2 41/28/2 32/1/2
f 41/28/2 42/24/2 32/1/2
f 47/26/2 35/6/2 36/7/2 48/21/2
f 48/21/2 36/7/2 33/8/2 37/20/2
f 37/20/2 33/8/2 34/9/2 38/27/2
f 38/29/3 34/30/3 6/31/3 18/32/3
f 35/33/4 47/34/4 27/35/4 15/36/4
f 47/34/5 46/37/5 26/38/5 27/35/5
f 46/37/6 45/39/6 25/40/6 26/38/6
f 45/39/7 44/41/7 24/42/7 25/40/7
f 44/41/8 43/43/8 23/44/8 24/42/8
f 43/43/9 42/45/9 22/46/9 23/44/9
f 42/45/10 41/47/10 21/48/10 22/46/10
f 41/47/11 40/49/11 20/50/11 21/48/11
f 40/49/12 39/51/12 19/52/12 20/50/12
f 39/51/13 38/29/13 18/32/13 19/52/13
