# Blender 5.0.1
# www.blender.org
o TowerTopVertical
v -2.744491 32.000000 29.902920 0.3608 0.0000 0.0000
v -2.462164 32.000000 30.019863 0.0000 0.0000 0.0000
v -2.579108 32.000000 30.302189 0.0627 0.0000 0.0000
v -2.861434 32.000000 30.185246 0.3529 0.0000 0.0000
v -2.860329 44.013351 27.815212 0.7294 0.0000 0.0000
v -2.744490 44.000000 28.097080 0.0000 0.0000 0.0000
v -2.861434 32.000000 27.814753 0.0000 0.0000 0.0000
v -2.579107 32.000000 27.697809 0.3804 0.0000 0.0000
v -2.462164 32.000000 27.980137 0.0000 0.0000 0.0000
v -2.744490 32.000000 28.097080 0.0000 0.0000 0.0000
v -1.302186 44.000000 31.579109 0.0000 0.0000 0.0000
v -1.184785 44.013351 31.860332 0.4823 0.0000 0.0000
v -1.302186 32.000000 31.579109 0.0000 0.0000 0.0000
v -1.019859 32.000000 31.462166 0.0000 0.0000 0.0000
v -0.902916 44.000000 31.744492 0.0000 0.0000 0.0000
v -0.902916 32.000000 31.744493 0.0000 0.0000 0.0000
v -1.185242 32.000000 31.861437 0.3529 0.0000 0.0000
v 1.020321 43.986649 31.463268 0.0000 0.0000 0.0000
v 0.902921 44.000000 31.744492 0.0000 0.0000 0.0000
v 1.019864 32.000000 31.462164 0.0000 0.0000 0.0000
v 1.302190 44.000000 31.579107 0.0000 0.0000 0.0000
v 1.302190 32.000000 31.579107 0.0000 0.0000 0.0000
v 1.184790 44.013351 31.860331 0.4823 0.0000 0.0000
v 1.185247 32.000000 31.861435 0.7137 0.0000 0.0000
v 0.902920 32.000000 31.744492 0.1059 0.0000 0.0000
v 2.579111 44.000000 30.302189 0.0000 0.0000 0.0000
v 2.462168 32.000000 30.019863 0.0000 0.0000 0.0000
v 2.744494 44.000000 29.902920 0.0000 0.0000 0.0000
v 2.744494 32.000000 29.902920 0.0118 0.0000 0.0000
v 2.861437 32.000000 30.185247 0.0000 0.0000 0.0000
v 2.579111 32.000000 30.302191 0.3725 0.0000 0.0000
v 2.579110 44.000000 27.697811 0.0000 0.0000 0.0000
v 2.579110 32.000000 27.697811 0.0588 0.0000 0.0000
v 2.860332 44.013351 27.815212 0.4823 0.0000 0.0000
v 2.861437 32.000000 27.814754 0.3608 0.0000 0.0000
v 2.744493 32.000000 28.097082 0.3490 0.0000 0.0000
v 2.462167 32.000000 27.980137 0.0000 0.0000 0.0000
v 0.902920 44.000000 26.255508 0.0000 0.0000 0.0000
v 0.902920 32.000000 26.255507 0.0000 0.0000 0.0000
v 1.184789 44.013351 26.139669 0.7216 0.0000 0.0000
v 1.185246 32.000000 26.138563 0.3568 0.0000 0.0000
v 1.302189 32.000000 26.420891 0.0000 0.0000 0.0000
v 1.019863 32.000000 26.537834 0.0000 0.0000 0.0000
v -1.019860 32.000000 26.537836 0.0000 0.0000 0.0000
v -1.302187 32.000000 26.420893 0.4353 0.0000 0.0000
v -1.020318 43.986649 26.536732 0.0000 0.0000 0.0000
v -0.902917 32.000000 26.255508 0.4510 0.0000 0.0000
v -0.902917 44.000000 26.255508 0.0000 0.0000 0.0000
v -1.185243 32.000000 26.138565 0.7372 0.0000 0.0000
v -1.184786 44.013351 26.139669 0.7216 0.0000 0.0000
v -1.302187 44.000000 26.420893 0.0000 0.0000 0.0000
v 2.463271 43.986649 27.979681 0.0000 0.0000 0.0000
v 2.744493 44.000000 28.097080 0.0000 0.0000 0.0000
v 0.000002 59.999992 29.000000 0.0000 0.0000 0.0000
v -2.860329 44.013351 30.184788 0.2392 0.0000 0.0000
v -2.744490 44.000000 29.902920 0.0000 0.0000 0.0000
v -2.463268 43.986649 30.020321 0.0000 0.0000 0.0000
v -2.579107 44.000000 30.302189 0.0000 0.0000 0.0000
v 1.020321 43.986649 26.536730 0.0000 0.0000 0.0000
v 1.302190 44.000000 26.420891 0.0000 0.0000 0.0000
v 2.860332 44.013351 30.184788 0.7294 0.0000 0.0000
v 2.463271 43.986649 30.020321 0.0000 0.0000 0.0000
v -2.463268 43.986649 27.979679 0.0000 0.0000 0.0000
v -2.579107 44.000000 27.697811 0.0000 0.0000 0.0000
v -1.020317 43.986649 31.463270 0.0000 0.0000 0.0000
vn -0.9244 -0.0000 -0.3814
vn 0.3840 -0.0000 -0.9233
vn 0.9244 -0.0000 0.3814
vn -0.3840 -0.0000 0.9233
vn -0.9244 -0.0000 0.3814
vn -0.3840 -0.0000 -0.9233
vn 0.9244 -0.0000 -0.3814
vn 0.3840 -0.0000 0.9233
vn -0.9233 -0.0000 0.3840
vn -0.3814 -0.0000 -0.9244
vn 0.9233 -0.0000 -0.3840
vn 0.3814 -0.0000 0.9244
vn -0.9233 -0.0000 -0.3840
vn 0.3814 -0.0000 -0.9244
vn 0.9233 -0.0000 0.3840
vn -0.3814 -0.0000 0.9244
vn 0.9142 0.1352 0.3821
vn 0.3762 0.1352 -0.9166
vn -0.9167 -0.1167 -0.3822
vn -0.3779 -0.1167 0.9185
vn -0.3762 0.1352 0.9166
vn -0.9142 0.1352 -0.3821
vn 0.3779 -0.1167 -0.9185
vn 0.9167 -0.1167 0.3822
vn 0.9166 0.1352 -0.3762
vn -0.3821 0.1352 -0.9142
vn -0.9185 -0.1167 0.3779
vn 0.3822 -0.1167 0.9167
vn 0.9142 0.1352 -0.3821
vn 0.3762 0.1352 0.9166
vn -0.9167 -0.1167 0.3822
vn -0.3779 -0.1167 -0.9185
vn -0.3762 0.1352 -0.9166
vn -0.9142 0.1352 0.3821
vn 0.3779 -0.1167 0.9185
vn 0.9167 -0.1167 -0.3822
vn 0.9166 0.1352 0.3762
vn -0.3821 0.1352 0.9142
vn -0.9185 -0.1167 -0.3779
vn 0.3822 -0.1167 -0.9167
vn 0.3821 0.1352 -0.9142
vn -0.9166 0.1352 -0.3762
vn -0.3822 -0.1167 0.9167
vn 0.9185 -0.1167 0.3779
vn 0.3821 0.1352 0.9142
vn -0.9166 0.1352 0.3762
vn -0.3822 -0.1167 -0.9167
vn 0.9185 -0.1167 -0.3779
vt 6.605526 2.761111
vt 6.593066 -17.157185
vt 7.016350 -17.157444
vt 7.027107 2.765992
vt 6.183301 2.759604
vt 6.183297 -17.157072
vt 5.761076 2.761111
vt 5.773528 -17.157185
vt 5.339496 2.765992
vt 5.350243 -17.157444
vt -1.410941 2.765989
vt -1.400180 -17.157448
vt -0.976897 -17.157185
vt -0.989361 2.761111
vt -0.144911 2.761111
vt -0.157359 -17.157185
vt 0.265924 -17.157448
vt 0.276669 2.765989
vt -0.567135 2.759604
vt -0.567128 -17.157076
vt -1.832520 2.761111
vt -1.844985 -17.157185
vt -1.421702 -17.157444
vt -1.410940 2.765987
vt -2.254745 2.759604
vt -2.254754 -17.157072
vt -2.676971 2.761111
vt -2.664523 -17.157185
vt -3.098551 2.765987
vt -3.087806 -17.157444
vt 1.120474 2.759604
vt 1.120470 -17.157072
vt 1.530240 -17.157185
vt 1.542699 2.761111
vt 0.698249 2.761111
vt 0.710701 -17.157185
vt 0.276669 2.765989
vt 0.287417 -17.157444
vt 1.953523 -17.157444
vt 1.964278 2.765989
vt 4.495693 2.759604
vt 4.495682 -17.157072
vt 4.905452 -17.157185
vt 4.917918 2.761114
vt 4.073467 2.761116
vt 4.085914 -17.157185
vt 3.651888 2.765992
vt 3.662630 -17.157444
vt 5.328734 -17.157444
vt 5.339499 2.765992
vt 2.385857 2.761111
vt 2.398318 -17.157185
vt 2.808087 -17.157072
vt 2.808081 2.759604
vt 1.964277 2.765987
vt 1.975035 -17.157444
vt 3.230308 2.761111
vt 3.217858 -17.157185
vt 3.641139 -17.157444
vt 3.651888 2.765989
vt -6.052190 2.761111
vt -6.039728 -17.157185
vt -5.629960 -17.157076
vt -5.629966 2.759604
vt -6.473771 2.765989
vt -6.463009 -17.157448
vt -5.207741 2.761114
vt -5.220190 -17.157185
vt -4.796908 -17.157448
vt -4.786161 2.765992
vt -3.942353 -17.157072
vt -3.942356 2.759604
vt -4.364580 2.761111
vt -4.352121 -17.157185
vt -3.532583 -17.157185
vt -3.520131 2.761111
vt -3.109299 -17.157444
vt -4.786161 2.765987
vt -4.775404 -17.157444
vt 2.808074 29.632475
vt 6.183306 29.632469
vt -5.629978 29.632475
vt 4.495704 29.632475
vt -0.567146 29.632475
vt 1.120477 29.632475
vt -3.942361 29.632475
vt -2.254733 29.632475
s 0
f 56/1/1 1/2/1 4/3/1 55/4/1
f 57/5/2 2/6/2 1/2/2 56/1/2
f 58/7/3 3/8/3 2/6/3 57/5/3
f 55/9/4 4/10/4 3/8/4 58/7/4
f 5/11/5 7/12/5 10/13/5 6/14/5
f 64/15/6 8/16/6 7/17/6 5/18/6
f 63/19/7 9/20/7 8/16/7 64/15/7
f 6/14/8 10/13/8 9/20/8 63/19/8
f 11/21/9 13/22/9 17/23/9 12/24/9
f 65/25/10 14/26/10 13/22/10 11/21/10
f 15/27/11 16/28/11 14/26/11 65/25/11
f 12/29/12 17/30/12 16/28/12 15/27/12
f 18/31/13 20/32/13 25/33/13 19/34/13
f 21/35/14 22/36/14 20/32/14 18/31/14
f 23/37/15 24/38/15 22/36/15 21/35/15
f 19/34/16 25/33/16 24/39/16 23/40/16
f 62/41/5 27/42/5 31/43/5 26/44/5
f 28/45/6 29/46/6 27/42/6 62/41/6
f 61/47/7 30/48/7 29/46/7 28/45/7
f 26/44/8 31/43/8 30/49/8 61/50/8
f 32/51/1 33/52/1 37/53/1 52/54/1
f 34/55/2 35/56/2 33/52/2 32/51/2
f 53/57/3 36/58/3 35/59/3 34/60/3
f 52/54/4 37/53/4 36/58/4 53/57/4
f 38/61/9 39/62/9 43/63/9 59/64/9
f 40/65/10 41/66/10 39/62/10 38/61/10
f 60/67/11 42/68/11 41/69/11 40/70/11
f 59/64/12 43/63/12 42/68/12 60/67/12
f 44/71/16 46/72/16 51/73/16 45/74/16
f 47/75/15 48/76/15 46/72/15 44/71/15
f 49/77/14 50/29/14 48/76/14 47/75/14
f 45/74/13 51/73/13 50/78/13 49/79/13
f 34/60/17 54/80/17 53/57/17
f 32/51/18 54/80/18 34/55/18
f 52/54/19 54/80/19 32/51/19
f 53/57/20 54/80/20 52/54/20
f 54/81/21 55/9/21 58/7/21
f 54/81/22 56/1/22 55/4/22
f 54/81/23 57/5/23 56/1/23
f 54/81/24 58/7/24 57/5/24
f 40/70/25 54/82/25 60/67/25
f 38/61/26 54/82/26 40/65/26
f 59/64/27 54/82/27 38/61/27
f 60/67/28 54/82/28 59/64/28
f 54/83/29 61/47/29 28/45/29
f 54/83/30 26/44/30 61/50/30
f 54/83/31 62/41/31 26/44/31
f 54/83/32 28/45/32 62/41/32
f 5/18/33 54/84/33 64/15/33
f 6/14/34 54/84/34 5/11/34
f 63/19/35 54/84/35 6/14/35
f 64/15/36 54/84/36 63/19/36
f 54/85/37 23/37/37 21/35/37
f 54/85/38 19/34/38 23/40/38
f 54/85/39 18/31/39 19/34/39
f 54/85/40 21/35/40 18/31/40
f 50/29/41 54/86/41 48/76/41
f 51/73/42 54/86/42 50/78/42
f 46/72/43 54/86/43 51/73/43
f 48/76/44 54/86/44 46/72/44
f 54/87/45 12/29/45 15/27/45
f 54/87/46 11/21/46 12/24/46
f 54/87/47 65/25/47 11/21/47
f 54/87/48 15/27/48 65/25/48
