# Blender 5.0.1
# www.blender.org
o TowerFloor_0
v -2.500000 10.000000 26.500000 0.0000 0.0000 0.0000
v 2.500000 10.000000 31.500000 0.0000 0.0000 0.0000
v 2.500000 10.000000 26.500000 0.0000 0.0000 0.0000
v -2.500000 10.000000 31.500000 0.0000 0.0000 0.0000
v 1.500000 10.000000 26.500000 0.0000 0.0000 0.0000
v 0.500000 10.000000 26.500000 0.0000 0.0000 0.0000
v -0.500000 10.000000 26.500000 0.0000 0.0000 0.0000
v -1.500000 10.000000 26.500000 0.0000 0.0000 0.0000
v -1.500000 10.000000 31.500000 0.0000 0.0000 0.0000
v -0.500000 10.000000 31.500000 0.0000 0.0000 0.0000
v 0.500000 10.000000 31.500000 0.0000 0.0000 0.0000
v 1.500000 10.000000 31.500000 0.0000 0.0000 0.0000
v 2.500000 10.000000 30.500000 0.0000 0.0000 0.0000
v 2.500000 10.000000 29.500000 0.0000 0.0000 0.0000
v 2.500000 10.000000 28.500000 0.0000 0.0000 0.0000
v 2.500000 10.000000 27.500000 0.0000 0.0000 0.0000
v -2.500000 10.000000 27.500000 0.0000 0.0000 0.0000
v -2.500000 10.000000 28.500000 0.0000 0.0000 0.0000
v -2.500000 10.000000 29.500000 0.0039 0.0000 0.0000
v -2.500000 10.000000 30.500000 0.0000 0.0000 0.0000
v 1.500000 10.000000 30.500000 0.0000 0.0000 0.0000
v 1.500000 10.000000 29.500000 0.0078 0.0000 0.0000
v 1.500000 10.000000 28.500000 0.0000 0.0000 0.0000
v 1.500000 10.000000 27.500000 0.0000 0.0000 0.0000
v 0.500000 10.000000 30.500000 0.0314 0.0000 0.0000
v 0.500000 10.000000 29.500000 0.0118 0.0000 0.0000
v 0.500000 10.000000 28.500000 0.0000 0.0000 0.0000
v 0.500000 10.000000 27.500000 0.0000 0.0000 0.0000
v -0.500000 10.000000 30.500000 0.0471 0.0000 0.0000
v -0.500000 10.000000 29.500000 0.0039 0.0000 0.0000
v -0.500000 10.000000 28.500000 0.0000 0.0000 0.0000
v -0.500000 10.000000 27.500000 0.0000 0.0000 0.0000
v -1.500000 10.000000 30.500000 0.0078 0.0000 0.0000
v -1.500000 10.000000 29.500000 0.0157 0.0000 0.0000
v -1.500000 10.000000 28.500000 0.0039 0.0000 0.0000
v -1.500000 10.000000 27.500000 0.0000 0.0000 0.0000
v -2.500000 9.750000 26.500000 0.0000 0.0000 0.0000
v 2.500000 9.750000 31.500000 0.0000 0.0000 0.0000
v 2.500000 9.750000 26.500000 0.0000 0.0000 0.0000
v -2.500000 9.750000 31.500000 0.0000 0.0000 0.0000
v 1.500000 9.750000 26.500000 0.0000 0.0000 0.0000
v 0.500000 9.750000 26.500000 0.0000 0.0000 0.0000
v -0.500000 9.750000 26.500000 0.0000 0.0000 0.0000
v -1.500000 9.750000 26.500000 0.0000 0.0000 0.0000
v -1.500000 9.750000 31.500000 0.0000 0.0000 0.0000
v -0.500000 9.750000 31.500000 0.0000 0.0000 0.0000
v 0.500000 9.750000 31.500000 0.0000 0.0000 0.0000
v 1.500000 9.750000 31.500000 0.0000 0.0000 0.0000
v 2.500000 9.750000 30.500000 0.0000 0.0000 0.0000
v 2.500000 9.750000 29.500000 0.0000 0.0000 0.0000
v 2.500000 9.750000 28.500000 0.0000 0.0000 0.0000
v 2.500000 9.750000 27.500000 0.0000 0.0000 0.0000
v -2.500000 9.750000 27.500000 0.0000 0.0000 0.0000
v -2.500000 9.750000 28.500000 0.0000 0.0000 0.0000
v -2.500000 9.750000 29.500000 0.0000 0.0000 0.0000
v -2.500000 9.750000 30.500000 0.0000 0.0000 0.0000
v 1.500000 9.750000 30.500000 0.0000 0.0000 0.0000
v 1.500000 9.750000 29.500000 0.0000 0.0000 0.0000
v 1.500000 9.750000 28.500000 0.0000 0.0000 0.0000
v 1.500000 9.750000 27.500000 0.0000 0.0000 0.0000
v 0.500000 9.750000 30.500000 0.0000 0.0000 0.0000
v 0.500000 9.750000 29.500000 0.0000 0.0000 0.0000
v 0.500000 9.750000 28.500000 0.0000 0.0000 0.0000
v 0.500000 9.750000 27.500000 0.0000 0.0000 0.0000
v -0.500000 9.750000 30.500000 0.0000 0.0000 0.0000
v -0.500000 9.750000 29.500000 0.0000 0.0000 0.0000
v -0.500000 9.750000 28.500000 0.0000 0.0000 0.0000
v -0.500000 9.750000 27.500000 0.0000 0.0000 0.0000
v -1.500000 9.750000 30.500000 0.0000 0.0000 0.0000
v -1.500000 9.750000 29.500000 0.0000 0.0000 0.0000
v -1.500000 9.750000 28.500000 0.0000 0.0000 0.0000
v -1.500000 9.750000 27.500000 0.0000 0.0000 0.0000
v -2.500000 10.000000 26.000000 0.0000 0.0000 0.0000
v 2.500000 10.000000 26.000000 0.0000 0.0000 0.0000
v 1.500000 10.000000 26.000000 0.0000 0.0000 0.0000
v 0.500000 10.000000 26.000000 0.0000 0.0000 0.0000
v -0.500000 10.000000 26.000000 0.0000 0.0000 0.0000
v -1.500000 10.000000 26.000000 0.0000 0.0000 0.0000
v -2.500000 9.750000 26.000000 0.0000 0.0000 0.0000
v 2.500000 9.750000 26.000000 0.0000 0.0000 0.0000
v 1.500000 9.750000 26.000000 0.0000 0.0000 0.0000
v 0.500000 9.750000 26.000000 0.0000 0.0000 0.0000
v -0.500000 9.750000 26.000000 0.0000 0.0000 0.0000
v -1.500000 9.750000 26.000000 0.0000 0.0000 0.0000
vn -0.0000 1.0000 -0.0000
vn -0.0000 -1.0000 -0.0000
vt 0.000000 1.000000
vt -0.000000 0.000000
vt 1.000000 0.000000
vt 1.000000 1.000000
vt 0.000001 4.999996
vt 0.000000 3.999997
vt 0.999999 4.000000
vt 0.999999 5.000000
vt 0.000000 2.999998
vt 0.999999 3.000000
vt 0.000000 1.999999
vt 0.999999 2.000000
vt -3.999996 1.999995
vt -3.999998 0.999998
vt -2.999998 0.999999
vt -2.999997 1.999996
vt -1.999999 0.999999
vt -1.999998 1.999997
vt -0.999999 0.999999
vt -0.999999 1.999998
vt -3.999995 2.999992
vt -2.999996 2.999993
vt -1.999997 2.999995
vt -0.999998 2.999996
vt -3.999993 3.999989
vt -2.999995 3.999991
vt -1.999996 3.999993
vt -0.999998 3.999995
vt -3.999991 4.999986
vt -2.999994 4.999988
vt -1.999995 4.999990
vt -0.999997 4.999993
vt -4.000000 0.000002
vt -3.000000 0.000001
vt -2.000000 0.000001
vt -1.000000 0.000001
vt -4.500000 0.000001
vt -4.499998 0.999998
vt -4.499998 0.999998
vt -4.499995 1.999995
vt -4.499994 2.999991
vt -4.499995 1.999994
vt -4.499991 3.999988
vt -4.499990 4.999985
vt -4.499999 0.000001
vt -4.499995 1.999995
vt -4.499993 2.999991
vt -4.499991 3.999988
vt -4.499990 4.999984
vt -4.499994 2.999991
vt -4.499992 3.999988
vt -4.499993 2.999991
s 0
f 33/1/1 20/2/1 4/3/1 9/4/1
f 13/5/1 21/6/1 12/7/1 2/8/1
f 21/6/1 25/9/1 11/10/1 12/7/1
f 25/9/1 29/11/1 10/12/1 11/10/1
f 29/11/1 33/1/1 9/4/1 10/12/1
f 7/13/1 8/14/1 36/15/1 32/16/1
f 32/16/1 36/15/1 35/17/1 31/18/1
f 31/18/1 35/17/1 34/19/1 30/20/1
f 30/20/1 34/19/1 33/1/1 29/11/1
f 6/21/1 7/13/1 32/16/1 28/22/1
f 28/22/1 32/16/1 31/18/1 27/23/1
f 27/23/1 31/18/1 30/20/1 26/24/1
f 26/24/1 30/20/1 29/11/1 25/9/1
f 5/25/1 6/21/1 28/22/1 24/26/1
f 24/26/1 28/22/1 27/23/1 23/27/1
f 23/27/1 27/23/1 26/24/1 22/28/1
f 22/28/1 26/24/1 25/9/1 21/6/1
f 3/29/1 5/25/1 24/26/1 16/30/1
f 16/30/1 24/26/1 23/27/1 15/31/1
f 15/31/1 23/27/1 22/28/1 14/32/1
f 14/32/1 22/28/1 21/6/1 13/5/1
f 8/14/1 1/33/1 17/34/1 36/15/1
f 36/15/1 17/34/1 18/35/1 35/17/1
f 35/17/1 18/35/1 19/36/1 34/19/1
f 34/19/1 19/36/1 20/2/1 33/1/1
f 69/1/2 45/4/2 40/3/2 56/2/2
f 49/5/2 38/8/2 48/7/2 57/6/2
f 57/6/2 48/7/2 47/10/2 61/9/2
f 61/9/2 47/10/2 46/12/2 65/11/2
f 65/11/2 46/12/2 45/4/2 69/1/2
f 43/13/2 68/16/2 72/15/2 44/14/2
f 68/16/2 67/18/2 71/17/2 72/15/2
f 67/18/2 66/20/2 70/19/2 71/17/2
f 66/20/2 65/11/2 69/1/2 70/19/2
f 42/21/2 64/22/2 68/16/2 43/13/2
f 64/22/2 63/23/2 67/18/2 68/16/2
f 63/23/2 62/24/2 66/20/2 67/18/2
f 62/24/2 61/9/2 65/11/2 66/20/2
f 41/25/2 60/26/2 64/22/2 42/21/2
f 60/26/2 59/27/2 63/23/2 64/22/2
f 59/27/2 58/28/2 62/24/2 63/23/2
f 58/28/2 57/6/2 61/9/2 62/24/2
f 39/29/2 52/30/2 60/26/2 41/25/2
f 52/30/2 51/31/2 59/27/2 60/26/2
f 51/31/2 50/32/2 58/28/2 59/27/2
f 50/32/2 49/5/2 57/6/2 58/28/2
f 44/14/2 72/15/2 53/34/2 37/33/2
f 72/15/2 71/17/2 54/35/2 53/34/2
f 71/17/2 70/19/2 55/36/2 54/35/2
f 70/19/2 69/1/2 56/2/2 55/36/2
f 44/14/2 37/33/2 79/37/2 84/38/2
f 43/13/2 44/14/2 84/39/2 83/40/2
f 7/13/1 6/21/1 76/41/1 77/42/1
f 39/29/2 41/25/2 81/43/2 80/44/2
f 1/33/1 8/14/1 78/38/1 73/45/1
f 8/14/1 7/13/1 77/46/1 78/39/1
f 41/25/2 42/21/2 82/47/2 81/48/2
f 5/25/1 3/29/1 74/49/1 75/43/1
f 42/21/2 43/13/2 83/42/2 82/50/2
f 6/21/1 5/25/1 75/51/1 76/52/1
