# Blender 5.0.1
# www.blender.org
o WallExit_Left
v -8.458582 10.025000 8.650000 0.0392 0.0000 0.0000
v -8.458582 12.650000 8.650000 0.0078 0.0000 0.0000
v -8.458581 9.500000 9.349999 0.0000 0.0000 0.0000
v -8.458581 13.349999 9.349999 0.0000 0.0000 0.0000
v -9.158582 10.025000 8.650001 0.0863 0.0000 0.0000
v -9.158582 12.650000 8.650001 0.3961 0.0000 0.0000
v -9.158581 9.500000 9.350000 0.2588 0.0000 0.0000
v -9.158581 13.349999 9.350000 0.4980 0.0000 0.0000
v -8.458582 11.000000 8.650000 0.1059 0.0000 0.0000
v -8.458582 12.000000 8.650000 0.1294 0.0000 0.0000
v -8.458581 12.000000 9.349999 0.0000 0.0000 0.0000
v -8.458581 11.000000 9.349999 0.0000 0.0000 0.0000
v -9.158581 12.000000 9.350000 0.4235 0.0000 0.0000
v -9.158581 11.000000 9.350000 0.3333 0.0000 0.0000
v -9.158582 12.000000 8.650001 0.5098 0.0000 0.0000
v -9.158582 11.000000 8.650001 0.2588 0.0000 0.0000
v -9.158582 10.025000 7.350000 0.0667 0.0000 0.0000
v -9.158582 12.650000 7.350000 0.3804 0.0000 0.0000
v -9.158583 9.500000 6.650000 0.2157 0.0000 0.0000
v -9.158583 13.349999 6.650000 0.4784 0.0000 0.0000
v -8.458582 10.025000 7.350000 0.0353 0.0000 0.0000
v -8.458582 12.650000 7.350000 0.0039 0.0000 0.0000
v -8.458583 9.500000 6.650000 0.0000 0.0000 0.0000
v -8.458583 13.349999 6.650000 0.0000 0.0000 0.0000
v -9.158582 11.000000 7.350000 0.2000 0.0000 0.0000
v -9.158582 12.000000 7.350000 0.5176 0.0000 0.0000
v -9.158583 12.000000 6.650000 0.4353 0.0000 0.0000
v -9.158583 11.000000 6.650000 0.3647 0.0000 0.0000
v -8.458583 12.000000 6.650000 0.0000 0.0000 0.0000
v -8.458583 11.000000 6.650000 0.0000 0.0000 0.0000
v -8.458582 12.000000 7.350000 0.1176 0.0000 0.0000
v -8.458582 11.000000 7.350000 0.0706 0.0000 0.0000
v -8.458582 13.349999 8.000000 0.0000 0.0000 0.0000
v -9.158582 13.349999 8.000000 0.5608 0.0000 0.0000
v -9.158582 12.650000 8.000000 0.3216 0.0000 0.0000
v -8.458582 12.650000 8.000000 0.0000 0.0000 0.0000
v -9.158581 7.500000 9.350000 0.0235 0.0000 0.0000
v -8.458581 7.500000 9.349999 0.0000 0.0000 0.0000
v -8.458583 7.500000 6.650000 0.0000 0.0000 0.0000
v -9.158583 7.500000 6.650000 0.0353 0.0000 0.0000
vn 1.0000 -0.0000 -0.0000
vn -0.0000 -0.0000 1.0000
vn -1.0000 -0.0000 -0.0000
vn -0.0000 -0.0000 -1.0000
vn -0.0000 1.0000 -0.0000
vn -0.0000 -1.0000 -0.0000
vt 0.736842 2.631579
vt 0.736842 3.315789
vt 0.000000 4.052631
vt 0.000000 2.631579
vt 3.854701 4.230769
vt 3.854701 5.500000
vt 3.196582 5.500000
vt 3.196582 4.230769
vt 2.538462 4.841880
vt 2.538462 4.230769
vt 1.473684 2.631579
vt 1.473684 3.315789
vt 1.316240 2.373932
vt 0.658120 1.880342
vt 3.196581 1.880342
vt 2.538462 2.373932
vt 1.927351 5.500000
vt 1.927351 4.841880
vt 1.473684 0.552632
vt 1.473684 1.578948
vt 0.736842 1.578948
vt 0.736842 0.552632
vt 3.196582 3.290598
vt 2.538462 3.290598
vt 3.854701 1.880342
vt 3.854701 3.290598
vt 0.000000 1.578948
vt -0.000000 0.000001
vt 1.316240 4.230769
vt 1.316240 4.841880
vt 0.658120 5.500000
vt 0.658120 4.230769
vt 0.000000 5.500000
vt 0.000000 4.230769
vt 2.842105 2.631579
vt 2.842105 4.052631
vt 2.105263 3.315789
vt 2.105263 2.631579
vt 1.368421 3.315789
vt 1.368421 2.631579
vt 1.316240 3.032052
vt 2.538462 3.032051
vt 1.927351 6.158119
vt 3.196582 6.158119
vt 2.105263 0.552632
vt 2.105263 1.578947
vt 1.368421 1.578947
vt 1.368421 0.552632
vt 2.842106 0.000000
vt 2.842105 1.578947
vt 0.658120 3.290598
vt 0.000000 3.290598
vt 0.000000 1.880342
vt 1.316240 3.290598
vt 1.927351 4.183760
vt 2.538462 4.183761
vt 1.421053 3.315789
vt 1.421053 4.052631
vt 1.316239 4.841879
vt 1.316240 4.183760
vt 0.658120 6.158119
vt 0.000000 0.000000
vt 3.585788 -0.000001
vt 0.658121 3.525641
vt 3.196581 3.525641
vt 3.196580 0.000000
vt 3.854700 0.000000
vt 3.196582 5.405983
vt 0.658121 5.405983
s 0
f 10/1/1 2/2/1 4/3/1 11/4/1
f 11/5/2 4/6/2 8/7/2 13/8/2
f 13/8/3 8/7/3 6/9/3 15/10/3
f 15/11/4 6/12/4 2/2/4 10/1/4
f 17/13/3 19/14/3 7/15/3 5/16/3
f 34/17/3 35/18/3 6/9/3 8/7/3
f 5/19/4 16/20/4 9/21/4 1/22/4
f 16/20/4 15/11/4 10/1/4 9/21/4
f 7/15/3 14/23/3 16/24/3 5/16/3
f 14/23/3 13/8/3 15/10/3 16/24/3
f 3/25/2 12/26/2 14/23/2 7/15/2
f 12/26/2 11/5/2 13/8/2 14/23/2
f 1/22/1 9/21/1 12/27/1 3/28/1
f 9/21/1 10/1/1 11/4/1 12/27/1
f 26/29/3 18/30/3 20/31/3 27/32/3
f 27/32/4 20/31/4 24/33/4 29/34/4
f 29/35/1 24/36/1 22/37/1 31/38/1
f 31/38/2 22/37/2 18/39/2 26/40/2
f 21/41/5 17/13/5 5/16/5 1/42/5
f 33/43/5 34/17/5 8/7/5 4/44/5
f 21/45/2 32/46/2 25/47/2 17/48/2
f 32/46/2 31/38/2 26/40/2 25/47/2
f 23/49/1 30/50/1 32/46/1 21/45/1
f 30/50/1 29/35/1 31/38/1 32/46/1
f 19/14/4 28/51/4 30/52/4 23/53/4
f 28/51/4 27/32/4 29/34/4 30/52/4
f 17/13/3 25/54/3 28/51/3 19/14/3
f 25/54/3 26/29/3 27/32/3 28/51/3
f 35/18/6 36/55/6 2/56/6 6/9/6
f 36/57/1 33/58/1 4/3/1 2/2/1
f 22/37/1 24/36/1 33/58/1 36/57/1
f 18/59/6 22/60/6 36/55/6 35/18/6
f 24/61/5 20/31/5 34/17/5 33/43/5
f 20/31/3 18/30/3 35/18/3 34/17/3
f 19/14/4 23/53/4 39/62/4 40/63/4
f 23/64/1 21/41/1 1/42/1 3/65/1
f 3/25/2 7/15/2 37/66/2 38/67/2
f 23/64/1 3/65/1 38/68/1 39/69/1
